M48
METRIC,LZ,000.000
;FILE_FORMAT=3:3
;TYPE=PLATED
;Layer: PTH_Through
;EasyEDA v6.5.8, 2022-07-15 14:46:18
;95380307c74c46c498c4c83f9ab85002,ba36109c29484f4592bc09a740c48d70,10
;Gerber Generator version 0.2
;Holesize 1 = 0.800 mm
T01C0.800
;Holesize 2 = 1.001 mm
T02C1.001
%
G05
G90
T01
X030988Y-010160
X032258Y-007620
X028448Y-010160
X029718Y-007620
X025908Y-010160
X027178Y-007620
X023368Y-010160
X024638Y-007620
X030988Y-050800
X032258Y-048260
X028448Y-050800
X029718Y-048260
X025908Y-050800
X027178Y-048260
X023368Y-050800
X024638Y-048260
X030988Y-030480
X032258Y-027940
X028448Y-030480
X029718Y-027940
X025908Y-030480
X027178Y-027940
X023368Y-030480
X024638Y-027940
X041339Y-006350
X053086Y-006350
X016891Y-018733
X019431Y-041275
X053340Y-028448
X043879Y-026988
X038481Y-041275
X010859Y-050483
X013970Y-027432
X049276Y-050165
X059754Y-049848
X009906Y-007620
X057849Y-016193
X060579Y-039243
T02
X064211Y-052070
X066751Y-052070
X005791Y-052070
X003251Y-052070
X005791Y-049530
X003251Y-049530
X003251Y-046990
X005791Y-046990
X003251Y-044450
X005791Y-044450
X005791Y-041910
X003251Y-041910
X005791Y-039370
X003251Y-039370
X005791Y-036830
X003251Y-036830
X003251Y-034290
X005791Y-034290
X003251Y-031750
X005791Y-031750
X005791Y-029210
X003251Y-029210
X005791Y-026670
X003251Y-026670
X005791Y-024130
X003251Y-024130
X003251Y-021590
X005791Y-021590
X003251Y-019050
X005791Y-019050
X005791Y-016510
X003251Y-016510
X066751Y-049530
X064211Y-049530
X066751Y-046990
X064211Y-046990
X064211Y-044450
X066751Y-044450
X064211Y-041910
X066751Y-041910
X066751Y-039370
X064211Y-039370
X066751Y-036830
X064211Y-036830
X066751Y-034290
X064211Y-034290
X064211Y-031750
X066751Y-031750
X064211Y-029210
X066751Y-029210
X066751Y-026670
X064211Y-026670
X066751Y-024130
X064211Y-024130
X066751Y-021590
X064211Y-021590
X064211Y-019050
X066751Y-019050
X064211Y-016510
X066751Y-016510
X066751Y-013970
X064211Y-013970
X066751Y-011430
X064211Y-011430
X066751Y-008890
X064211Y-008890
X064211Y-006350
X066751Y-006350
X005791Y-013970
X003251Y-013970
X005791Y-011430
X003251Y-011430
X003251Y-008890
X005791Y-008890
X003251Y-006350
X005791Y-006350
M30
