G04 Layer: BottomLayer*
G04 EasyEDA v6.5.23, 2023-04-24 08:47:35*
G04 b98df09fb3ff4a869318f982f178de83,ba36109c29484f4592bc09a740c48d70,10*
G04 Gerber Generator version 0.2*
G04 Scale: 100 percent, Rotated: No, Reflected: No *
G04 Dimensions in millimeters *
G04 leading zeros omitted , absolute positions ,4 integer and 5 decimal *
%FSLAX45Y45*%
%MOMM*%

%ADD10C,0.2540*%
%ADD11C,1.5240*%
%ADD12C,1.6764*%
%ADD13R,1.6764X1.6764*%
%ADD14C,1.2000*%
%ADD15C,0.0101*%

%LPD*%
G36*
X1350416Y-5689600D02*
G01*
X1346504Y-5688838D01*
X1343202Y-5686602D01*
X1143711Y-5487111D01*
X1141984Y-5486400D01*
X179425Y-5486400D01*
X176225Y-5485892D01*
X103885Y-5461762D01*
X99923Y-5459323D01*
X51968Y-5411368D01*
X50038Y-5408726D01*
X26466Y-5361533D01*
X25400Y-5357012D01*
X25400Y-35560D01*
X26162Y-31648D01*
X28397Y-28397D01*
X31648Y-26162D01*
X35560Y-25400D01*
X813053Y-25400D01*
X816914Y-26162D01*
X820166Y-28346D01*
X822401Y-31597D01*
X823214Y-35458D01*
X822452Y-39319D01*
X736955Y-253136D01*
X736955Y-254914D01*
X837844Y-507085D01*
X839114Y-508406D01*
X1065885Y-609193D01*
X1067765Y-609193D01*
X1319885Y-508355D01*
X1321206Y-507034D01*
X1422044Y-254863D01*
X1422044Y-253085D01*
X1336548Y-39319D01*
X1335786Y-35458D01*
X1336598Y-31597D01*
X1338834Y-28346D01*
X1342085Y-26162D01*
X1345946Y-25400D01*
X5844946Y-25400D01*
X5848756Y-26162D01*
X5852058Y-28346D01*
X5854242Y-31546D01*
X5855106Y-35407D01*
X5854395Y-39268D01*
X5852261Y-42570D01*
X5849061Y-44856D01*
X5665063Y-126593D01*
X5663844Y-127914D01*
X5562955Y-380136D01*
X5562955Y-381914D01*
X5663844Y-634085D01*
X5665114Y-635406D01*
X5891885Y-736193D01*
X5893765Y-736193D01*
X6145885Y-635355D01*
X6147206Y-634034D01*
X6248044Y-381863D01*
X6248044Y-380085D01*
X6147155Y-127914D01*
X6145834Y-126593D01*
X5941771Y-45008D01*
X5938469Y-42824D01*
X5936183Y-39522D01*
X5935421Y-35610D01*
X5936132Y-31699D01*
X5938367Y-28397D01*
X5941669Y-26162D01*
X5945581Y-25400D01*
X6949440Y-25400D01*
X6953351Y-26162D01*
X6956602Y-28397D01*
X6958838Y-31648D01*
X6959600Y-35560D01*
X6959600Y-5332679D01*
X6959295Y-5335270D01*
X6944969Y-5390083D01*
X6944106Y-5392267D01*
X6942734Y-5394248D01*
X6907174Y-5434533D01*
X6905091Y-5436362D01*
X6864146Y-5462828D01*
X6861860Y-5463946D01*
X6796074Y-5485892D01*
X6792874Y-5486400D01*
X4827016Y-5486400D01*
X4825288Y-5487111D01*
X4691684Y-5620715D01*
X4688382Y-5622950D01*
X4684522Y-5623712D01*
X4680661Y-5622950D01*
X4677359Y-5620766D01*
X4675124Y-5617514D01*
X4674311Y-5613654D01*
X4675073Y-5609793D01*
X4724044Y-5487263D01*
X4724044Y-5485485D01*
X4623155Y-5233314D01*
X4621834Y-5231993D01*
X4369714Y-5131155D01*
X4367834Y-5131206D01*
X4141063Y-5231993D01*
X4139844Y-5233314D01*
X4038955Y-5485536D01*
X4038955Y-5487314D01*
X4114292Y-5675680D01*
X4115054Y-5679541D01*
X4114241Y-5683402D01*
X4112006Y-5686653D01*
X4108754Y-5688838D01*
X4104894Y-5689600D01*
G37*

%LPC*%
G36*
X6421120Y-5316728D02*
G01*
X6435140Y-5315813D01*
X6448958Y-5313121D01*
X6462268Y-5308701D01*
X6474968Y-5302605D01*
X6486753Y-5294934D01*
X6497421Y-5285790D01*
X6506870Y-5275376D01*
X6514947Y-5263896D01*
X6521450Y-5251399D01*
X6526276Y-5238191D01*
X6529425Y-5224526D01*
X6530746Y-5210505D01*
X6530340Y-5196484D01*
X6528054Y-5182565D01*
X6524091Y-5169103D01*
X6518402Y-5156250D01*
X6511086Y-5144211D01*
X6502349Y-5133238D01*
X6492240Y-5123484D01*
X6480962Y-5115052D01*
X6468719Y-5108143D01*
X6455714Y-5102860D01*
X6442100Y-5099304D01*
X6428130Y-5097526D01*
X6414109Y-5097526D01*
X6400139Y-5099304D01*
X6386525Y-5102860D01*
X6373520Y-5108143D01*
X6361277Y-5115052D01*
X6350000Y-5123484D01*
X6339890Y-5133238D01*
X6331153Y-5144211D01*
X6323838Y-5156250D01*
X6318148Y-5169103D01*
X6314186Y-5182565D01*
X6311900Y-5196484D01*
X6311493Y-5210505D01*
X6312814Y-5224526D01*
X6315964Y-5238191D01*
X6320790Y-5251399D01*
X6327292Y-5263896D01*
X6335369Y-5275376D01*
X6344818Y-5285790D01*
X6355486Y-5294934D01*
X6367272Y-5302605D01*
X6379972Y-5308701D01*
X6393281Y-5313121D01*
X6407099Y-5315813D01*
G37*
G36*
X6675120Y-5316728D02*
G01*
X6689140Y-5315813D01*
X6702958Y-5313121D01*
X6716268Y-5308701D01*
X6728968Y-5302605D01*
X6740753Y-5294934D01*
X6751421Y-5285790D01*
X6760870Y-5275376D01*
X6768947Y-5263896D01*
X6775450Y-5251399D01*
X6780275Y-5238191D01*
X6783425Y-5224526D01*
X6784746Y-5210505D01*
X6784340Y-5196484D01*
X6782053Y-5182565D01*
X6778091Y-5169103D01*
X6772402Y-5156250D01*
X6765086Y-5144211D01*
X6756349Y-5133238D01*
X6746240Y-5123484D01*
X6734962Y-5115052D01*
X6722719Y-5108143D01*
X6709714Y-5102860D01*
X6696100Y-5099304D01*
X6682130Y-5097526D01*
X6668109Y-5097526D01*
X6654139Y-5099304D01*
X6640525Y-5102860D01*
X6627520Y-5108143D01*
X6615277Y-5115052D01*
X6604000Y-5123484D01*
X6593890Y-5133238D01*
X6585153Y-5144211D01*
X6577838Y-5156250D01*
X6572148Y-5169103D01*
X6568186Y-5182565D01*
X6565900Y-5196484D01*
X6565493Y-5210505D01*
X6566814Y-5224526D01*
X6569964Y-5238191D01*
X6574790Y-5251399D01*
X6581292Y-5263896D01*
X6589369Y-5275376D01*
X6598818Y-5285790D01*
X6609486Y-5294934D01*
X6621272Y-5302605D01*
X6633972Y-5308701D01*
X6647281Y-5313121D01*
X6661099Y-5315813D01*
G37*
G36*
X579120Y-5316728D02*
G01*
X593140Y-5315813D01*
X606958Y-5313121D01*
X620268Y-5308701D01*
X632968Y-5302605D01*
X644753Y-5294934D01*
X655421Y-5285790D01*
X664870Y-5275376D01*
X672947Y-5263896D01*
X679450Y-5251399D01*
X684276Y-5238191D01*
X687425Y-5224526D01*
X688746Y-5210505D01*
X688340Y-5196484D01*
X686054Y-5182565D01*
X682091Y-5169103D01*
X676402Y-5156250D01*
X669086Y-5144211D01*
X660349Y-5133238D01*
X650240Y-5123484D01*
X638962Y-5115052D01*
X626719Y-5108143D01*
X613714Y-5102860D01*
X600100Y-5099304D01*
X586130Y-5097526D01*
X572109Y-5097526D01*
X558139Y-5099304D01*
X544525Y-5102860D01*
X531520Y-5108143D01*
X519277Y-5115052D01*
X508000Y-5123484D01*
X497890Y-5133238D01*
X489153Y-5144211D01*
X481838Y-5156250D01*
X476148Y-5169103D01*
X472185Y-5182565D01*
X469900Y-5196484D01*
X469493Y-5210505D01*
X470814Y-5224526D01*
X473964Y-5238191D01*
X478790Y-5251399D01*
X485292Y-5263896D01*
X493369Y-5275376D01*
X502818Y-5285790D01*
X513486Y-5294934D01*
X525272Y-5302605D01*
X537972Y-5308701D01*
X551281Y-5313121D01*
X565099Y-5315813D01*
G37*
G36*
X325120Y-5316728D02*
G01*
X339140Y-5315813D01*
X352958Y-5313121D01*
X366268Y-5308701D01*
X378968Y-5302605D01*
X390753Y-5294934D01*
X401421Y-5285790D01*
X410870Y-5275376D01*
X418947Y-5263896D01*
X425450Y-5251399D01*
X430276Y-5238191D01*
X433425Y-5224526D01*
X434746Y-5210505D01*
X434340Y-5196484D01*
X432054Y-5182565D01*
X428091Y-5169103D01*
X422401Y-5156250D01*
X415086Y-5144211D01*
X406349Y-5133238D01*
X396240Y-5123484D01*
X384962Y-5115052D01*
X372719Y-5108143D01*
X359714Y-5102860D01*
X346100Y-5099304D01*
X332130Y-5097526D01*
X318109Y-5097526D01*
X304139Y-5099304D01*
X290525Y-5102860D01*
X277520Y-5108143D01*
X265277Y-5115052D01*
X254000Y-5123484D01*
X243890Y-5133238D01*
X235153Y-5144211D01*
X227838Y-5156250D01*
X222148Y-5169103D01*
X218186Y-5182565D01*
X215900Y-5196484D01*
X215493Y-5210505D01*
X216814Y-5224526D01*
X219964Y-5238191D01*
X224790Y-5251399D01*
X231292Y-5263896D01*
X239369Y-5275376D01*
X248818Y-5285790D01*
X259486Y-5294934D01*
X271272Y-5302605D01*
X283972Y-5308701D01*
X297281Y-5313121D01*
X311099Y-5315813D01*
G37*
G36*
X2848203Y-5182006D02*
G01*
X2861767Y-5180634D01*
X2875026Y-5177485D01*
X2887776Y-5172608D01*
X2899714Y-5166055D01*
X2910687Y-5157927D01*
X2920492Y-5148478D01*
X2928975Y-5137759D01*
X2935884Y-5126024D01*
X2941218Y-5113477D01*
X2944825Y-5100320D01*
X2946654Y-5086807D01*
X2946654Y-5073192D01*
X2944825Y-5059680D01*
X2941218Y-5046522D01*
X2935884Y-5033924D01*
X2928975Y-5022240D01*
X2920492Y-5011521D01*
X2910687Y-5002022D01*
X2899714Y-4993944D01*
X2887776Y-4987391D01*
X2875026Y-4982464D01*
X2861767Y-4979314D01*
X2848203Y-4977942D01*
X2834589Y-4978400D01*
X2821127Y-4980686D01*
X2808122Y-4984750D01*
X2795727Y-4990490D01*
X2784246Y-4997805D01*
X2773832Y-5006594D01*
X2764688Y-5016703D01*
X2756966Y-5027980D01*
X2750820Y-5040122D01*
X2746349Y-5053025D01*
X2743606Y-5066385D01*
X2742692Y-5080000D01*
X2743606Y-5093614D01*
X2746349Y-5106974D01*
X2750820Y-5119827D01*
X2756966Y-5132019D01*
X2764688Y-5143246D01*
X2773832Y-5153355D01*
X2784246Y-5162194D01*
X2795727Y-5169509D01*
X2808122Y-5175250D01*
X2821127Y-5179314D01*
X2834589Y-5181549D01*
G37*
G36*
X2594203Y-5182006D02*
G01*
X2607767Y-5180634D01*
X2621026Y-5177485D01*
X2633776Y-5172608D01*
X2645714Y-5166055D01*
X2656687Y-5157927D01*
X2666492Y-5148478D01*
X2674975Y-5137759D01*
X2681884Y-5126024D01*
X2687218Y-5113477D01*
X2690825Y-5100320D01*
X2692654Y-5086807D01*
X2692654Y-5073192D01*
X2690825Y-5059680D01*
X2687218Y-5046522D01*
X2681884Y-5033924D01*
X2674975Y-5022240D01*
X2666492Y-5011521D01*
X2656687Y-5002022D01*
X2645714Y-4993944D01*
X2633776Y-4987391D01*
X2621026Y-4982464D01*
X2607767Y-4979314D01*
X2594203Y-4977942D01*
X2580589Y-4978400D01*
X2567127Y-4980686D01*
X2554122Y-4984750D01*
X2541727Y-4990490D01*
X2530246Y-4997805D01*
X2519832Y-5006594D01*
X2510688Y-5016703D01*
X2502966Y-5027980D01*
X2496820Y-5040122D01*
X2492349Y-5053025D01*
X2489606Y-5066385D01*
X2488692Y-5080000D01*
X2489606Y-5093614D01*
X2492349Y-5106974D01*
X2496820Y-5119827D01*
X2502966Y-5132019D01*
X2510688Y-5143246D01*
X2519832Y-5153355D01*
X2530246Y-5162194D01*
X2541727Y-5169509D01*
X2554122Y-5175250D01*
X2567127Y-5179314D01*
X2580589Y-5181549D01*
G37*
G36*
X2340203Y-5182006D02*
G01*
X2353767Y-5180634D01*
X2367026Y-5177485D01*
X2379776Y-5172608D01*
X2391714Y-5166055D01*
X2402687Y-5157927D01*
X2412492Y-5148478D01*
X2420975Y-5137759D01*
X2427884Y-5126024D01*
X2433218Y-5113477D01*
X2436825Y-5100320D01*
X2438654Y-5086807D01*
X2438654Y-5073192D01*
X2436825Y-5059680D01*
X2433218Y-5046522D01*
X2427884Y-5033924D01*
X2420975Y-5022240D01*
X2412492Y-5011521D01*
X2402687Y-5002022D01*
X2391714Y-4993944D01*
X2379776Y-4987391D01*
X2367026Y-4982464D01*
X2353767Y-4979314D01*
X2340203Y-4977942D01*
X2326589Y-4978400D01*
X2313127Y-4980686D01*
X2300122Y-4984750D01*
X2287727Y-4990490D01*
X2276246Y-4997805D01*
X2265832Y-5006594D01*
X2256688Y-5016703D01*
X2248966Y-5027980D01*
X2242820Y-5040122D01*
X2238349Y-5053025D01*
X2235606Y-5066385D01*
X2234692Y-5080000D01*
X2235606Y-5093614D01*
X2238349Y-5106974D01*
X2242820Y-5119827D01*
X2248966Y-5132019D01*
X2256688Y-5143246D01*
X2265832Y-5153355D01*
X2276246Y-5162194D01*
X2287727Y-5169509D01*
X2300122Y-5175250D01*
X2313127Y-5179314D01*
X2326589Y-5181549D01*
G37*
G36*
X3143250Y-5171795D02*
G01*
X3153714Y-5166055D01*
X3164687Y-5157927D01*
X3174492Y-5148478D01*
X3182975Y-5137759D01*
X3189884Y-5126024D01*
X3190595Y-5124450D01*
X3143250Y-5124450D01*
G37*
G36*
X3054350Y-5171643D02*
G01*
X3054350Y-5124450D01*
X3007106Y-5124450D01*
X3010966Y-5132019D01*
X3018688Y-5143246D01*
X3027832Y-5153355D01*
X3038246Y-5162194D01*
X3049727Y-5169509D01*
G37*
G36*
X3346958Y-5120640D02*
G01*
X3361486Y-5120640D01*
X3375914Y-5118811D01*
X3390036Y-5115204D01*
X3403549Y-5109870D01*
X3416300Y-5102860D01*
X3428085Y-5094274D01*
X3438702Y-5084318D01*
X3447999Y-5073091D01*
X3455771Y-5060848D01*
X3461969Y-5047640D01*
X3466490Y-5033822D01*
X3469182Y-5019497D01*
X3470097Y-5005019D01*
X3469182Y-4990490D01*
X3466490Y-4976164D01*
X3461969Y-4962347D01*
X3455771Y-4949139D01*
X3447999Y-4936896D01*
X3438702Y-4925669D01*
X3428085Y-4915712D01*
X3416300Y-4907127D01*
X3403549Y-4900117D01*
X3390036Y-4894783D01*
X3375914Y-4891176D01*
X3361486Y-4889347D01*
X3346958Y-4889347D01*
X3332530Y-4891176D01*
X3324504Y-4893208D01*
X3320542Y-4893411D01*
X3316833Y-4892090D01*
X3313887Y-4889449D01*
X3312160Y-4885893D01*
X3311956Y-4881930D01*
X3313277Y-4878171D01*
X3316884Y-4872024D01*
X3322218Y-4859477D01*
X3325825Y-4846320D01*
X3327654Y-4832807D01*
X3327654Y-4819192D01*
X3325825Y-4805680D01*
X3322218Y-4792522D01*
X3316884Y-4779924D01*
X3309975Y-4768240D01*
X3301492Y-4757521D01*
X3291687Y-4748022D01*
X3280714Y-4739944D01*
X3268776Y-4733391D01*
X3256026Y-4728464D01*
X3242767Y-4725314D01*
X3229203Y-4723942D01*
X3215589Y-4724400D01*
X3202127Y-4726686D01*
X3189122Y-4730750D01*
X3176727Y-4736490D01*
X3165246Y-4743805D01*
X3154832Y-4752594D01*
X3145688Y-4762703D01*
X3137966Y-4773980D01*
X3131820Y-4786122D01*
X3127349Y-4799025D01*
X3124606Y-4812385D01*
X3123692Y-4826000D01*
X3124606Y-4839614D01*
X3127349Y-4852974D01*
X3131820Y-4865827D01*
X3137966Y-4878019D01*
X3145688Y-4889246D01*
X3154832Y-4899355D01*
X3165246Y-4908194D01*
X3176727Y-4915509D01*
X3189122Y-4921250D01*
X3202127Y-4925314D01*
X3215589Y-4927549D01*
X3229203Y-4928006D01*
X3242767Y-4926634D01*
X3246932Y-4925669D01*
X3250895Y-4925517D01*
X3254654Y-4926939D01*
X3257550Y-4929632D01*
X3259175Y-4933289D01*
X3259277Y-4937252D01*
X3257854Y-4941011D01*
X3252673Y-4949139D01*
X3246475Y-4962347D01*
X3241954Y-4976164D01*
X3239262Y-4990490D01*
X3238347Y-5005019D01*
X3239262Y-5019497D01*
X3241954Y-5033822D01*
X3246475Y-5047640D01*
X3252673Y-5060848D01*
X3260445Y-5073091D01*
X3269742Y-5084318D01*
X3280359Y-5094274D01*
X3292144Y-5102860D01*
X3304895Y-5109870D01*
X3318408Y-5115204D01*
X3332530Y-5118811D01*
G37*
G36*
X6421120Y-5062728D02*
G01*
X6435140Y-5061813D01*
X6448958Y-5059121D01*
X6462268Y-5054701D01*
X6474968Y-5048605D01*
X6486753Y-5040934D01*
X6497421Y-5031790D01*
X6506870Y-5021376D01*
X6514947Y-5009896D01*
X6521450Y-4997399D01*
X6526276Y-4984191D01*
X6529425Y-4970526D01*
X6530746Y-4956505D01*
X6530340Y-4942484D01*
X6528054Y-4928565D01*
X6524091Y-4915103D01*
X6518402Y-4902250D01*
X6511086Y-4890211D01*
X6502349Y-4879238D01*
X6492240Y-4869484D01*
X6480962Y-4861052D01*
X6468719Y-4854143D01*
X6455714Y-4848860D01*
X6442100Y-4845304D01*
X6428130Y-4843526D01*
X6414109Y-4843526D01*
X6400139Y-4845304D01*
X6386525Y-4848860D01*
X6373520Y-4854143D01*
X6361277Y-4861052D01*
X6350000Y-4869484D01*
X6339890Y-4879238D01*
X6331153Y-4890211D01*
X6323838Y-4902250D01*
X6318148Y-4915103D01*
X6314186Y-4928565D01*
X6311900Y-4942484D01*
X6311493Y-4956505D01*
X6312814Y-4970526D01*
X6315964Y-4984191D01*
X6320790Y-4997399D01*
X6327292Y-5009896D01*
X6335369Y-5021376D01*
X6344818Y-5031790D01*
X6355486Y-5040934D01*
X6367272Y-5048605D01*
X6379972Y-5054701D01*
X6393281Y-5059121D01*
X6407099Y-5061813D01*
G37*
G36*
X6675120Y-5062728D02*
G01*
X6689140Y-5061813D01*
X6702958Y-5059121D01*
X6716268Y-5054701D01*
X6728968Y-5048605D01*
X6740753Y-5040934D01*
X6751421Y-5031790D01*
X6760870Y-5021376D01*
X6768947Y-5009896D01*
X6775450Y-4997399D01*
X6780275Y-4984191D01*
X6783425Y-4970526D01*
X6784746Y-4956505D01*
X6784340Y-4942484D01*
X6782053Y-4928565D01*
X6778091Y-4915103D01*
X6772402Y-4902250D01*
X6765086Y-4890211D01*
X6756349Y-4879238D01*
X6746240Y-4869484D01*
X6734962Y-4861052D01*
X6722719Y-4854143D01*
X6709714Y-4848860D01*
X6696100Y-4845304D01*
X6682130Y-4843526D01*
X6668109Y-4843526D01*
X6654139Y-4845304D01*
X6640525Y-4848860D01*
X6627520Y-4854143D01*
X6615277Y-4861052D01*
X6604000Y-4869484D01*
X6593890Y-4879238D01*
X6585153Y-4890211D01*
X6577838Y-4902250D01*
X6572148Y-4915103D01*
X6568186Y-4928565D01*
X6565900Y-4942484D01*
X6565493Y-4956505D01*
X6566814Y-4970526D01*
X6569964Y-4984191D01*
X6574790Y-4997399D01*
X6581292Y-5009896D01*
X6589369Y-5021376D01*
X6598818Y-5031790D01*
X6609486Y-5040934D01*
X6621272Y-5048605D01*
X6633972Y-5054701D01*
X6647281Y-5059121D01*
X6661099Y-5061813D01*
G37*
G36*
X325120Y-5062728D02*
G01*
X339140Y-5061813D01*
X352958Y-5059121D01*
X366268Y-5054701D01*
X378968Y-5048605D01*
X390753Y-5040934D01*
X401421Y-5031790D01*
X410870Y-5021376D01*
X418947Y-5009896D01*
X425450Y-4997399D01*
X430276Y-4984191D01*
X433425Y-4970526D01*
X434746Y-4956505D01*
X434340Y-4942484D01*
X432054Y-4928565D01*
X428091Y-4915103D01*
X422401Y-4902250D01*
X415086Y-4890211D01*
X406349Y-4879238D01*
X396240Y-4869484D01*
X384962Y-4861052D01*
X372719Y-4854143D01*
X359714Y-4848860D01*
X346100Y-4845304D01*
X332130Y-4843526D01*
X318109Y-4843526D01*
X304139Y-4845304D01*
X290525Y-4848860D01*
X277520Y-4854143D01*
X265277Y-4861052D01*
X254000Y-4869484D01*
X243890Y-4879238D01*
X235153Y-4890211D01*
X227838Y-4902250D01*
X222148Y-4915103D01*
X218186Y-4928565D01*
X215900Y-4942484D01*
X215493Y-4956505D01*
X216814Y-4970526D01*
X219964Y-4984191D01*
X224790Y-4997399D01*
X231292Y-5009896D01*
X239369Y-5021376D01*
X248818Y-5031790D01*
X259486Y-5040934D01*
X271272Y-5048605D01*
X283972Y-5054701D01*
X297281Y-5059121D01*
X311099Y-5061813D01*
G37*
G36*
X579120Y-5062728D02*
G01*
X593140Y-5061813D01*
X606958Y-5059121D01*
X620268Y-5054701D01*
X632968Y-5048605D01*
X644753Y-5040934D01*
X655421Y-5031790D01*
X664870Y-5021376D01*
X672947Y-5009896D01*
X679450Y-4997399D01*
X684276Y-4984191D01*
X687425Y-4970526D01*
X688746Y-4956505D01*
X688340Y-4942484D01*
X686054Y-4928565D01*
X682091Y-4915103D01*
X676402Y-4902250D01*
X669086Y-4890211D01*
X660349Y-4879238D01*
X650240Y-4869484D01*
X638962Y-4861052D01*
X626719Y-4854143D01*
X613714Y-4848860D01*
X600100Y-4845304D01*
X586130Y-4843526D01*
X572109Y-4843526D01*
X558139Y-4845304D01*
X544525Y-4848860D01*
X531520Y-4854143D01*
X519277Y-4861052D01*
X508000Y-4869484D01*
X497890Y-4879238D01*
X489153Y-4890211D01*
X481838Y-4902250D01*
X476148Y-4915103D01*
X472185Y-4928565D01*
X469900Y-4942484D01*
X469493Y-4956505D01*
X470814Y-4970526D01*
X473964Y-4984191D01*
X478790Y-4997399D01*
X485292Y-5009896D01*
X493369Y-5021376D01*
X502818Y-5031790D01*
X513486Y-5040934D01*
X525272Y-5048605D01*
X537972Y-5054701D01*
X551281Y-5059121D01*
X565099Y-5061813D01*
G37*
G36*
X3007106Y-5035550D02*
G01*
X3054350Y-5035550D01*
X3054350Y-4988306D01*
X3049727Y-4990490D01*
X3038246Y-4997805D01*
X3027832Y-5006594D01*
X3018688Y-5016703D01*
X3010966Y-5027980D01*
G37*
G36*
X3143250Y-5035550D02*
G01*
X3190595Y-5035550D01*
X3189884Y-5033924D01*
X3182975Y-5022240D01*
X3174492Y-5011521D01*
X3164687Y-5002022D01*
X3153714Y-4993944D01*
X3143250Y-4988204D01*
G37*
G36*
X2975203Y-4928006D02*
G01*
X2988767Y-4926634D01*
X3002026Y-4923485D01*
X3014776Y-4918608D01*
X3026714Y-4912055D01*
X3037687Y-4903927D01*
X3047492Y-4894478D01*
X3055975Y-4883759D01*
X3062884Y-4872024D01*
X3068218Y-4859477D01*
X3071825Y-4846320D01*
X3073654Y-4832807D01*
X3073654Y-4819192D01*
X3071825Y-4805680D01*
X3068218Y-4792522D01*
X3062884Y-4779924D01*
X3055975Y-4768240D01*
X3047492Y-4757521D01*
X3037687Y-4748022D01*
X3026714Y-4739944D01*
X3014776Y-4733391D01*
X3002026Y-4728464D01*
X2988767Y-4725314D01*
X2975203Y-4723942D01*
X2961589Y-4724400D01*
X2948127Y-4726686D01*
X2935122Y-4730750D01*
X2922727Y-4736490D01*
X2911246Y-4743805D01*
X2900832Y-4752594D01*
X2891688Y-4762703D01*
X2883966Y-4773980D01*
X2877820Y-4786122D01*
X2873349Y-4799025D01*
X2870606Y-4812385D01*
X2869692Y-4826000D01*
X2870606Y-4839614D01*
X2873349Y-4852974D01*
X2877820Y-4865827D01*
X2883966Y-4878019D01*
X2891688Y-4889246D01*
X2900832Y-4899355D01*
X2911246Y-4908194D01*
X2922727Y-4915509D01*
X2935122Y-4921250D01*
X2948127Y-4925314D01*
X2961589Y-4927549D01*
G37*
G36*
X2467203Y-4928006D02*
G01*
X2480767Y-4926634D01*
X2494026Y-4923485D01*
X2506776Y-4918608D01*
X2518714Y-4912055D01*
X2529687Y-4903927D01*
X2539492Y-4894478D01*
X2547975Y-4883759D01*
X2554884Y-4872024D01*
X2560218Y-4859477D01*
X2563825Y-4846320D01*
X2565654Y-4832807D01*
X2565654Y-4819192D01*
X2563825Y-4805680D01*
X2560218Y-4792522D01*
X2554884Y-4779924D01*
X2547975Y-4768240D01*
X2539492Y-4757521D01*
X2529687Y-4748022D01*
X2518714Y-4739944D01*
X2506776Y-4733391D01*
X2494026Y-4728464D01*
X2480767Y-4725314D01*
X2467203Y-4723942D01*
X2453589Y-4724400D01*
X2440127Y-4726686D01*
X2427122Y-4730750D01*
X2414727Y-4736490D01*
X2403246Y-4743805D01*
X2392832Y-4752594D01*
X2383688Y-4762703D01*
X2375966Y-4773980D01*
X2369820Y-4786122D01*
X2365349Y-4799025D01*
X2362606Y-4812385D01*
X2361692Y-4826000D01*
X2362606Y-4839614D01*
X2365349Y-4852974D01*
X2369820Y-4865827D01*
X2375966Y-4878019D01*
X2383688Y-4889246D01*
X2392832Y-4899355D01*
X2403246Y-4908194D01*
X2414727Y-4915509D01*
X2427122Y-4921250D01*
X2440127Y-4925314D01*
X2453589Y-4927549D01*
G37*
G36*
X2721203Y-4928006D02*
G01*
X2734767Y-4926634D01*
X2748026Y-4923485D01*
X2760776Y-4918608D01*
X2772714Y-4912055D01*
X2783687Y-4903927D01*
X2793492Y-4894478D01*
X2801975Y-4883759D01*
X2808884Y-4872024D01*
X2814218Y-4859477D01*
X2817825Y-4846320D01*
X2819654Y-4832807D01*
X2819654Y-4819192D01*
X2817825Y-4805680D01*
X2814218Y-4792522D01*
X2808884Y-4779924D01*
X2801975Y-4768240D01*
X2793492Y-4757521D01*
X2783687Y-4748022D01*
X2772714Y-4739944D01*
X2760776Y-4733391D01*
X2748026Y-4728464D01*
X2734767Y-4725314D01*
X2721203Y-4723942D01*
X2707589Y-4724400D01*
X2694127Y-4726686D01*
X2681122Y-4730750D01*
X2668727Y-4736490D01*
X2657246Y-4743805D01*
X2646832Y-4752594D01*
X2637688Y-4762703D01*
X2629966Y-4773980D01*
X2623820Y-4786122D01*
X2619349Y-4799025D01*
X2616606Y-4812385D01*
X2615692Y-4826000D01*
X2616606Y-4839614D01*
X2619349Y-4852974D01*
X2623820Y-4865827D01*
X2629966Y-4878019D01*
X2637688Y-4889246D01*
X2646832Y-4899355D01*
X2657246Y-4908194D01*
X2668727Y-4915509D01*
X2681122Y-4921250D01*
X2694127Y-4925314D01*
X2707589Y-4927549D01*
G37*
G36*
X6421120Y-4808728D02*
G01*
X6435140Y-4807813D01*
X6448958Y-4805121D01*
X6462268Y-4800701D01*
X6474968Y-4794605D01*
X6486753Y-4786934D01*
X6497421Y-4777790D01*
X6506870Y-4767376D01*
X6514947Y-4755896D01*
X6521450Y-4743399D01*
X6526276Y-4730191D01*
X6529425Y-4716526D01*
X6530746Y-4702505D01*
X6530340Y-4688484D01*
X6528054Y-4674565D01*
X6524091Y-4661103D01*
X6518402Y-4648250D01*
X6511086Y-4636211D01*
X6502349Y-4625238D01*
X6492240Y-4615484D01*
X6480962Y-4607052D01*
X6468719Y-4600143D01*
X6455714Y-4594860D01*
X6442100Y-4591304D01*
X6428130Y-4589526D01*
X6414109Y-4589526D01*
X6400139Y-4591304D01*
X6386525Y-4594860D01*
X6373520Y-4600143D01*
X6361277Y-4607052D01*
X6350000Y-4615484D01*
X6339890Y-4625238D01*
X6331153Y-4636211D01*
X6323838Y-4648250D01*
X6318148Y-4661103D01*
X6314186Y-4674565D01*
X6311900Y-4688484D01*
X6311493Y-4702505D01*
X6312814Y-4716526D01*
X6315964Y-4730191D01*
X6320790Y-4743399D01*
X6327292Y-4755896D01*
X6335369Y-4767376D01*
X6344818Y-4777790D01*
X6355486Y-4786934D01*
X6367272Y-4794605D01*
X6379972Y-4800701D01*
X6393281Y-4805121D01*
X6407099Y-4807813D01*
G37*
G36*
X6675120Y-4808728D02*
G01*
X6689140Y-4807813D01*
X6702958Y-4805121D01*
X6716268Y-4800701D01*
X6728968Y-4794605D01*
X6740753Y-4786934D01*
X6751421Y-4777790D01*
X6760870Y-4767376D01*
X6768947Y-4755896D01*
X6775450Y-4743399D01*
X6780275Y-4730191D01*
X6783425Y-4716526D01*
X6784746Y-4702505D01*
X6784340Y-4688484D01*
X6782053Y-4674565D01*
X6778091Y-4661103D01*
X6772402Y-4648250D01*
X6765086Y-4636211D01*
X6756349Y-4625238D01*
X6746240Y-4615484D01*
X6734962Y-4607052D01*
X6722719Y-4600143D01*
X6709714Y-4594860D01*
X6696100Y-4591304D01*
X6682130Y-4589526D01*
X6668109Y-4589526D01*
X6654139Y-4591304D01*
X6640525Y-4594860D01*
X6627520Y-4600143D01*
X6615277Y-4607052D01*
X6604000Y-4615484D01*
X6593890Y-4625238D01*
X6585153Y-4636211D01*
X6577838Y-4648250D01*
X6572148Y-4661103D01*
X6568186Y-4674565D01*
X6565900Y-4688484D01*
X6565493Y-4702505D01*
X6566814Y-4716526D01*
X6569964Y-4730191D01*
X6574790Y-4743399D01*
X6581292Y-4755896D01*
X6589369Y-4767376D01*
X6598818Y-4777790D01*
X6609486Y-4786934D01*
X6621272Y-4794605D01*
X6633972Y-4800701D01*
X6647281Y-4805121D01*
X6661099Y-4807813D01*
G37*
G36*
X325120Y-4808728D02*
G01*
X339140Y-4807813D01*
X352958Y-4805121D01*
X366268Y-4800701D01*
X378968Y-4794605D01*
X390753Y-4786934D01*
X401421Y-4777790D01*
X410870Y-4767376D01*
X418947Y-4755896D01*
X425450Y-4743399D01*
X430276Y-4730191D01*
X433425Y-4716526D01*
X434746Y-4702505D01*
X434340Y-4688484D01*
X432054Y-4674565D01*
X428091Y-4661103D01*
X422401Y-4648250D01*
X415086Y-4636211D01*
X406349Y-4625238D01*
X396240Y-4615484D01*
X384962Y-4607052D01*
X372719Y-4600143D01*
X359714Y-4594860D01*
X346100Y-4591304D01*
X332130Y-4589526D01*
X318109Y-4589526D01*
X304139Y-4591304D01*
X290525Y-4594860D01*
X277520Y-4600143D01*
X265277Y-4607052D01*
X254000Y-4615484D01*
X243890Y-4625238D01*
X235153Y-4636211D01*
X227838Y-4648250D01*
X222148Y-4661103D01*
X218186Y-4674565D01*
X215900Y-4688484D01*
X215493Y-4702505D01*
X216814Y-4716526D01*
X219964Y-4730191D01*
X224790Y-4743399D01*
X231292Y-4755896D01*
X239369Y-4767376D01*
X248818Y-4777790D01*
X259486Y-4786934D01*
X271272Y-4794605D01*
X283972Y-4800701D01*
X297281Y-4805121D01*
X311099Y-4807813D01*
G37*
G36*
X579120Y-4808728D02*
G01*
X593140Y-4807813D01*
X606958Y-4805121D01*
X620268Y-4800701D01*
X632968Y-4794605D01*
X644753Y-4786934D01*
X655421Y-4777790D01*
X664870Y-4767376D01*
X672947Y-4755896D01*
X679450Y-4743399D01*
X684276Y-4730191D01*
X687425Y-4716526D01*
X688746Y-4702505D01*
X688340Y-4688484D01*
X686054Y-4674565D01*
X682091Y-4661103D01*
X676402Y-4648250D01*
X669086Y-4636211D01*
X660349Y-4625238D01*
X650240Y-4615484D01*
X638962Y-4607052D01*
X626719Y-4600143D01*
X613714Y-4594860D01*
X600100Y-4591304D01*
X586130Y-4589526D01*
X572109Y-4589526D01*
X558139Y-4591304D01*
X544525Y-4594860D01*
X531520Y-4600143D01*
X519277Y-4607052D01*
X508000Y-4615484D01*
X497890Y-4625238D01*
X489153Y-4636211D01*
X481838Y-4648250D01*
X476148Y-4661103D01*
X472185Y-4674565D01*
X469900Y-4688484D01*
X469493Y-4702505D01*
X470814Y-4716526D01*
X473964Y-4730191D01*
X478790Y-4743399D01*
X485292Y-4755896D01*
X493369Y-4767376D01*
X502818Y-4777790D01*
X513486Y-4786934D01*
X525272Y-4794605D01*
X537972Y-4800701D01*
X551281Y-4805121D01*
X565099Y-4807813D01*
G37*
G36*
X6421120Y-4554728D02*
G01*
X6435140Y-4553813D01*
X6448958Y-4551121D01*
X6462268Y-4546701D01*
X6474968Y-4540605D01*
X6486753Y-4532934D01*
X6497421Y-4523790D01*
X6506870Y-4513376D01*
X6514947Y-4501896D01*
X6521450Y-4489399D01*
X6526276Y-4476191D01*
X6529425Y-4462526D01*
X6530746Y-4448505D01*
X6530340Y-4434484D01*
X6528054Y-4420565D01*
X6524091Y-4407103D01*
X6518402Y-4394250D01*
X6511086Y-4382211D01*
X6502349Y-4371238D01*
X6492240Y-4361484D01*
X6480962Y-4353052D01*
X6468719Y-4346143D01*
X6455714Y-4340860D01*
X6442100Y-4337304D01*
X6428130Y-4335526D01*
X6414109Y-4335526D01*
X6400139Y-4337304D01*
X6386525Y-4340860D01*
X6373520Y-4346143D01*
X6361277Y-4353052D01*
X6350000Y-4361484D01*
X6339890Y-4371238D01*
X6331153Y-4382211D01*
X6323838Y-4394250D01*
X6318148Y-4407103D01*
X6314186Y-4420565D01*
X6311900Y-4434484D01*
X6311493Y-4448505D01*
X6312814Y-4462526D01*
X6315964Y-4476191D01*
X6320790Y-4489399D01*
X6327292Y-4501896D01*
X6335369Y-4513376D01*
X6344818Y-4523790D01*
X6355486Y-4532934D01*
X6367272Y-4540605D01*
X6379972Y-4546701D01*
X6393281Y-4551121D01*
X6407099Y-4553813D01*
G37*
G36*
X6675120Y-4554728D02*
G01*
X6689140Y-4553813D01*
X6702958Y-4551121D01*
X6716268Y-4546701D01*
X6728968Y-4540605D01*
X6740753Y-4532934D01*
X6751421Y-4523790D01*
X6760870Y-4513376D01*
X6768947Y-4501896D01*
X6775450Y-4489399D01*
X6780275Y-4476191D01*
X6783425Y-4462526D01*
X6784746Y-4448505D01*
X6784340Y-4434484D01*
X6782053Y-4420565D01*
X6778091Y-4407103D01*
X6772402Y-4394250D01*
X6765086Y-4382211D01*
X6756349Y-4371238D01*
X6746240Y-4361484D01*
X6734962Y-4353052D01*
X6722719Y-4346143D01*
X6709714Y-4340860D01*
X6696100Y-4337304D01*
X6682130Y-4335526D01*
X6668109Y-4335526D01*
X6654139Y-4337304D01*
X6640525Y-4340860D01*
X6627520Y-4346143D01*
X6615277Y-4353052D01*
X6604000Y-4361484D01*
X6593890Y-4371238D01*
X6585153Y-4382211D01*
X6577838Y-4394250D01*
X6572148Y-4407103D01*
X6568186Y-4420565D01*
X6565900Y-4434484D01*
X6565493Y-4448505D01*
X6566814Y-4462526D01*
X6569964Y-4476191D01*
X6574790Y-4489399D01*
X6581292Y-4501896D01*
X6589369Y-4513376D01*
X6598818Y-4523790D01*
X6609486Y-4532934D01*
X6621272Y-4540605D01*
X6633972Y-4546701D01*
X6647281Y-4551121D01*
X6661099Y-4553813D01*
G37*
G36*
X325120Y-4554728D02*
G01*
X339140Y-4553813D01*
X352958Y-4551121D01*
X366268Y-4546701D01*
X378968Y-4540605D01*
X390753Y-4532934D01*
X401421Y-4523790D01*
X410870Y-4513376D01*
X418947Y-4501896D01*
X425450Y-4489399D01*
X430276Y-4476191D01*
X433425Y-4462526D01*
X434746Y-4448505D01*
X434340Y-4434484D01*
X432054Y-4420565D01*
X428091Y-4407103D01*
X422401Y-4394250D01*
X415086Y-4382211D01*
X406349Y-4371238D01*
X396240Y-4361484D01*
X384962Y-4353052D01*
X372719Y-4346143D01*
X359714Y-4340860D01*
X346100Y-4337304D01*
X332130Y-4335526D01*
X318109Y-4335526D01*
X304139Y-4337304D01*
X290525Y-4340860D01*
X277520Y-4346143D01*
X265277Y-4353052D01*
X254000Y-4361484D01*
X243890Y-4371238D01*
X235153Y-4382211D01*
X227838Y-4394250D01*
X222148Y-4407103D01*
X218186Y-4420565D01*
X215900Y-4434484D01*
X215493Y-4448505D01*
X216814Y-4462526D01*
X219964Y-4476191D01*
X224790Y-4489399D01*
X231292Y-4501896D01*
X239369Y-4513376D01*
X248818Y-4523790D01*
X259486Y-4532934D01*
X271272Y-4540605D01*
X283972Y-4546701D01*
X297281Y-4551121D01*
X311099Y-4553813D01*
G37*
G36*
X579120Y-4554728D02*
G01*
X593140Y-4553813D01*
X606958Y-4551121D01*
X620268Y-4546701D01*
X632968Y-4540605D01*
X644753Y-4532934D01*
X655421Y-4523790D01*
X664870Y-4513376D01*
X672947Y-4501896D01*
X679450Y-4489399D01*
X684276Y-4476191D01*
X687425Y-4462526D01*
X688746Y-4448505D01*
X688340Y-4434484D01*
X686054Y-4420565D01*
X682091Y-4407103D01*
X676402Y-4394250D01*
X669086Y-4382211D01*
X660349Y-4371238D01*
X650240Y-4361484D01*
X638962Y-4353052D01*
X626719Y-4346143D01*
X613714Y-4340860D01*
X600100Y-4337304D01*
X586130Y-4335526D01*
X572109Y-4335526D01*
X558139Y-4337304D01*
X544525Y-4340860D01*
X531520Y-4346143D01*
X519277Y-4353052D01*
X508000Y-4361484D01*
X497890Y-4371238D01*
X489153Y-4382211D01*
X481838Y-4394250D01*
X476148Y-4407103D01*
X472185Y-4420565D01*
X469900Y-4434484D01*
X469493Y-4448505D01*
X470814Y-4462526D01*
X473964Y-4476191D01*
X478790Y-4489399D01*
X485292Y-4501896D01*
X493369Y-4513376D01*
X502818Y-4523790D01*
X513486Y-4532934D01*
X525272Y-4540605D01*
X537972Y-4546701D01*
X551281Y-4551121D01*
X565099Y-4553813D01*
G37*
G36*
X6675120Y-4300728D02*
G01*
X6689140Y-4299813D01*
X6702958Y-4297121D01*
X6716268Y-4292701D01*
X6728968Y-4286605D01*
X6740753Y-4278934D01*
X6751421Y-4269790D01*
X6760870Y-4259376D01*
X6768947Y-4247896D01*
X6775450Y-4235399D01*
X6780275Y-4222191D01*
X6783425Y-4208526D01*
X6784746Y-4194505D01*
X6784340Y-4180484D01*
X6782053Y-4166565D01*
X6778091Y-4153103D01*
X6772402Y-4140250D01*
X6765086Y-4128211D01*
X6756349Y-4117238D01*
X6746240Y-4107484D01*
X6734962Y-4099051D01*
X6722719Y-4092143D01*
X6709714Y-4086860D01*
X6696100Y-4083304D01*
X6682130Y-4081526D01*
X6668109Y-4081526D01*
X6654139Y-4083304D01*
X6640525Y-4086860D01*
X6627520Y-4092143D01*
X6615277Y-4099051D01*
X6604000Y-4107484D01*
X6593890Y-4117238D01*
X6585153Y-4128211D01*
X6577838Y-4140250D01*
X6572148Y-4153103D01*
X6568186Y-4166565D01*
X6565900Y-4180484D01*
X6565493Y-4194505D01*
X6566814Y-4208526D01*
X6569964Y-4222191D01*
X6574790Y-4235399D01*
X6581292Y-4247896D01*
X6589369Y-4259376D01*
X6598818Y-4269790D01*
X6609486Y-4278934D01*
X6621272Y-4286605D01*
X6633972Y-4292701D01*
X6647281Y-4297121D01*
X6661099Y-4299813D01*
G37*
G36*
X6421120Y-4300728D02*
G01*
X6435140Y-4299813D01*
X6448958Y-4297121D01*
X6462268Y-4292701D01*
X6474968Y-4286605D01*
X6486753Y-4278934D01*
X6497421Y-4269790D01*
X6506870Y-4259376D01*
X6514947Y-4247896D01*
X6521450Y-4235399D01*
X6526276Y-4222191D01*
X6529425Y-4208526D01*
X6530746Y-4194505D01*
X6530340Y-4180484D01*
X6528054Y-4166565D01*
X6524091Y-4153103D01*
X6518402Y-4140250D01*
X6511086Y-4128211D01*
X6502349Y-4117238D01*
X6492240Y-4107484D01*
X6480962Y-4099051D01*
X6468719Y-4092143D01*
X6455714Y-4086860D01*
X6442100Y-4083304D01*
X6428130Y-4081526D01*
X6414109Y-4081526D01*
X6400139Y-4083304D01*
X6386525Y-4086860D01*
X6373520Y-4092143D01*
X6361277Y-4099051D01*
X6350000Y-4107484D01*
X6339890Y-4117238D01*
X6331153Y-4128211D01*
X6323838Y-4140250D01*
X6318148Y-4153103D01*
X6314186Y-4166565D01*
X6311900Y-4180484D01*
X6311493Y-4194505D01*
X6312814Y-4208526D01*
X6315964Y-4222191D01*
X6320790Y-4235399D01*
X6327292Y-4247896D01*
X6335369Y-4259376D01*
X6344818Y-4269790D01*
X6355486Y-4278934D01*
X6367272Y-4286605D01*
X6379972Y-4292701D01*
X6393281Y-4297121D01*
X6407099Y-4299813D01*
G37*
G36*
X325120Y-4300728D02*
G01*
X339140Y-4299813D01*
X352958Y-4297121D01*
X366268Y-4292701D01*
X378968Y-4286605D01*
X390753Y-4278934D01*
X401421Y-4269790D01*
X410870Y-4259376D01*
X418947Y-4247896D01*
X425450Y-4235399D01*
X430276Y-4222191D01*
X433425Y-4208526D01*
X434746Y-4194505D01*
X434340Y-4180484D01*
X432054Y-4166565D01*
X428091Y-4153103D01*
X422401Y-4140250D01*
X415086Y-4128211D01*
X406349Y-4117238D01*
X396240Y-4107484D01*
X384962Y-4099051D01*
X372719Y-4092143D01*
X359714Y-4086860D01*
X346100Y-4083304D01*
X332130Y-4081526D01*
X318109Y-4081526D01*
X304139Y-4083304D01*
X290525Y-4086860D01*
X277520Y-4092143D01*
X265277Y-4099051D01*
X254000Y-4107484D01*
X243890Y-4117238D01*
X235153Y-4128211D01*
X227838Y-4140250D01*
X222148Y-4153103D01*
X218186Y-4166565D01*
X215900Y-4180484D01*
X215493Y-4194505D01*
X216814Y-4208526D01*
X219964Y-4222191D01*
X224790Y-4235399D01*
X231292Y-4247896D01*
X239369Y-4259376D01*
X248818Y-4269790D01*
X259486Y-4278934D01*
X271272Y-4286605D01*
X283972Y-4292701D01*
X297281Y-4297121D01*
X311099Y-4299813D01*
G37*
G36*
X579120Y-4300728D02*
G01*
X593140Y-4299813D01*
X606958Y-4297121D01*
X620268Y-4292701D01*
X632968Y-4286605D01*
X644753Y-4278934D01*
X655421Y-4269790D01*
X664870Y-4259376D01*
X672947Y-4247896D01*
X679450Y-4235399D01*
X684276Y-4222191D01*
X687425Y-4208526D01*
X688746Y-4194505D01*
X688340Y-4180484D01*
X686054Y-4166565D01*
X682091Y-4153103D01*
X676402Y-4140250D01*
X669086Y-4128211D01*
X660349Y-4117238D01*
X650240Y-4107484D01*
X638962Y-4099051D01*
X626719Y-4092143D01*
X613714Y-4086860D01*
X600100Y-4083304D01*
X586130Y-4081526D01*
X572109Y-4081526D01*
X558139Y-4083304D01*
X544525Y-4086860D01*
X531520Y-4092143D01*
X519277Y-4099051D01*
X508000Y-4107484D01*
X497890Y-4117238D01*
X489153Y-4128211D01*
X481838Y-4140250D01*
X476148Y-4153103D01*
X472185Y-4166565D01*
X469900Y-4180484D01*
X469493Y-4194505D01*
X470814Y-4208526D01*
X473964Y-4222191D01*
X478790Y-4235399D01*
X485292Y-4247896D01*
X493369Y-4259376D01*
X502818Y-4269790D01*
X513486Y-4278934D01*
X525272Y-4286605D01*
X537972Y-4292701D01*
X551281Y-4297121D01*
X565099Y-4299813D01*
G37*
G36*
X579120Y-4046728D02*
G01*
X593140Y-4045813D01*
X606958Y-4043121D01*
X620268Y-4038701D01*
X632968Y-4032605D01*
X644753Y-4024934D01*
X655421Y-4015790D01*
X664870Y-4005376D01*
X672947Y-3993896D01*
X679450Y-3981399D01*
X684276Y-3968191D01*
X687425Y-3954526D01*
X688746Y-3940505D01*
X688340Y-3926484D01*
X686054Y-3912565D01*
X682091Y-3899103D01*
X676402Y-3886250D01*
X669086Y-3874211D01*
X660349Y-3863238D01*
X650240Y-3853484D01*
X638962Y-3845051D01*
X626719Y-3838143D01*
X613714Y-3832860D01*
X600100Y-3829304D01*
X586130Y-3827526D01*
X572109Y-3827526D01*
X558139Y-3829304D01*
X544525Y-3832860D01*
X531520Y-3838143D01*
X519277Y-3845051D01*
X508000Y-3853484D01*
X497890Y-3863238D01*
X489153Y-3874211D01*
X481838Y-3886250D01*
X476148Y-3899103D01*
X472185Y-3912565D01*
X469900Y-3926484D01*
X469493Y-3940505D01*
X470814Y-3954526D01*
X473964Y-3968191D01*
X478790Y-3981399D01*
X485292Y-3993896D01*
X493369Y-4005376D01*
X502818Y-4015790D01*
X513486Y-4024934D01*
X525272Y-4032605D01*
X537972Y-4038701D01*
X551281Y-4043121D01*
X565099Y-4045813D01*
G37*
G36*
X325120Y-4046728D02*
G01*
X339140Y-4045813D01*
X352958Y-4043121D01*
X366268Y-4038701D01*
X378968Y-4032605D01*
X390753Y-4024934D01*
X401421Y-4015790D01*
X410870Y-4005376D01*
X418947Y-3993896D01*
X425450Y-3981399D01*
X430276Y-3968191D01*
X433425Y-3954526D01*
X434746Y-3940505D01*
X434340Y-3926484D01*
X432054Y-3912565D01*
X428091Y-3899103D01*
X422401Y-3886250D01*
X415086Y-3874211D01*
X406349Y-3863238D01*
X396240Y-3853484D01*
X384962Y-3845051D01*
X372719Y-3838143D01*
X359714Y-3832860D01*
X346100Y-3829304D01*
X332130Y-3827526D01*
X318109Y-3827526D01*
X304139Y-3829304D01*
X290525Y-3832860D01*
X277520Y-3838143D01*
X265277Y-3845051D01*
X254000Y-3853484D01*
X243890Y-3863238D01*
X235153Y-3874211D01*
X227838Y-3886250D01*
X222148Y-3899103D01*
X218186Y-3912565D01*
X215900Y-3926484D01*
X215493Y-3940505D01*
X216814Y-3954526D01*
X219964Y-3968191D01*
X224790Y-3981399D01*
X231292Y-3993896D01*
X239369Y-4005376D01*
X248818Y-4015790D01*
X259486Y-4024934D01*
X271272Y-4032605D01*
X283972Y-4038701D01*
X297281Y-4043121D01*
X311099Y-4045813D01*
G37*
G36*
X6421120Y-4046728D02*
G01*
X6435140Y-4045813D01*
X6448958Y-4043121D01*
X6462268Y-4038701D01*
X6474968Y-4032605D01*
X6486753Y-4024934D01*
X6497421Y-4015790D01*
X6506870Y-4005376D01*
X6514947Y-3993896D01*
X6521450Y-3981399D01*
X6526276Y-3968191D01*
X6529425Y-3954526D01*
X6530746Y-3940505D01*
X6530340Y-3926484D01*
X6528054Y-3912565D01*
X6524091Y-3899103D01*
X6518402Y-3886250D01*
X6511086Y-3874211D01*
X6503822Y-3865118D01*
X6502044Y-3861765D01*
X6501638Y-3858006D01*
X6502603Y-3854348D01*
X6504838Y-3851300D01*
X6508038Y-3849319D01*
X6511747Y-3848608D01*
X6527901Y-3848608D01*
X6531813Y-3849370D01*
X6535115Y-3851554D01*
X6570472Y-3886911D01*
X6572707Y-3890314D01*
X6573418Y-3894277D01*
X6568186Y-3912565D01*
X6565900Y-3926484D01*
X6565493Y-3940505D01*
X6566814Y-3954526D01*
X6569964Y-3968191D01*
X6574790Y-3981399D01*
X6581292Y-3993896D01*
X6589369Y-4005376D01*
X6598818Y-4015790D01*
X6609486Y-4024934D01*
X6621272Y-4032605D01*
X6633972Y-4038701D01*
X6647281Y-4043121D01*
X6661099Y-4045813D01*
X6675120Y-4046728D01*
X6689140Y-4045813D01*
X6702958Y-4043121D01*
X6716268Y-4038701D01*
X6728968Y-4032605D01*
X6740753Y-4024934D01*
X6751421Y-4015790D01*
X6760870Y-4005376D01*
X6768947Y-3993896D01*
X6775450Y-3981399D01*
X6780275Y-3968191D01*
X6783425Y-3954526D01*
X6784746Y-3940505D01*
X6784340Y-3926484D01*
X6782053Y-3912565D01*
X6778091Y-3899103D01*
X6772402Y-3886250D01*
X6765086Y-3874211D01*
X6756349Y-3863238D01*
X6746240Y-3853484D01*
X6734962Y-3845051D01*
X6722719Y-3838143D01*
X6709714Y-3832860D01*
X6696100Y-3829304D01*
X6682130Y-3827526D01*
X6668109Y-3827526D01*
X6654139Y-3829304D01*
X6640525Y-3832860D01*
X6636156Y-3834688D01*
X6632295Y-3835400D01*
X6628434Y-3834637D01*
X6625132Y-3832453D01*
X6575755Y-3783025D01*
X6569557Y-3777945D01*
X6562852Y-3774389D01*
X6555638Y-3772154D01*
X6547612Y-3771392D01*
X6511696Y-3771392D01*
X6507886Y-3770629D01*
X6504635Y-3768547D01*
X6502400Y-3765346D01*
X6501536Y-3761536D01*
X6502146Y-3757726D01*
X6504178Y-3754374D01*
X6506870Y-3751376D01*
X6514947Y-3739896D01*
X6521450Y-3727399D01*
X6526276Y-3714191D01*
X6529425Y-3700526D01*
X6530746Y-3686505D01*
X6530340Y-3672484D01*
X6528054Y-3658565D01*
X6524091Y-3645103D01*
X6518402Y-3632250D01*
X6511086Y-3620211D01*
X6502349Y-3609238D01*
X6492240Y-3599484D01*
X6480962Y-3591051D01*
X6468719Y-3584143D01*
X6455714Y-3578860D01*
X6442100Y-3575304D01*
X6428130Y-3573526D01*
X6414109Y-3573526D01*
X6400139Y-3575304D01*
X6386525Y-3578860D01*
X6373520Y-3584143D01*
X6361277Y-3591051D01*
X6350000Y-3599484D01*
X6339890Y-3609238D01*
X6331153Y-3620211D01*
X6323838Y-3632250D01*
X6318148Y-3645103D01*
X6314186Y-3658565D01*
X6311900Y-3672484D01*
X6311493Y-3686505D01*
X6312814Y-3700526D01*
X6315964Y-3714191D01*
X6320790Y-3727399D01*
X6327292Y-3739896D01*
X6335369Y-3751376D01*
X6338062Y-3754374D01*
X6340094Y-3757726D01*
X6340703Y-3761536D01*
X6339840Y-3765346D01*
X6337604Y-3768547D01*
X6334353Y-3770629D01*
X6330543Y-3771392D01*
X6172708Y-3771392D01*
X6164681Y-3772154D01*
X6157417Y-3774389D01*
X6150762Y-3777945D01*
X6144514Y-3783025D01*
X6088989Y-3838600D01*
X6086195Y-3840581D01*
X6082995Y-3841496D01*
X6079642Y-3841343D01*
X6070142Y-3839311D01*
X6057900Y-3838397D01*
X6045657Y-3839311D01*
X6033719Y-3841902D01*
X6022238Y-3846169D01*
X6011468Y-3852062D01*
X6001664Y-3859377D01*
X5992977Y-3868064D01*
X5985662Y-3877868D01*
X5979769Y-3888638D01*
X5975502Y-3900119D01*
X5972911Y-3912057D01*
X5971997Y-3924300D01*
X5972911Y-3936542D01*
X5975502Y-3948480D01*
X5979769Y-3959961D01*
X5985662Y-3970731D01*
X5992977Y-3980535D01*
X6001664Y-3989222D01*
X6011468Y-3996537D01*
X6022238Y-4002430D01*
X6033719Y-4006697D01*
X6045657Y-4009288D01*
X6057900Y-4010202D01*
X6070142Y-4009288D01*
X6082080Y-4006697D01*
X6093561Y-4002430D01*
X6104331Y-3996537D01*
X6114135Y-3989222D01*
X6122822Y-3980535D01*
X6130137Y-3970731D01*
X6136030Y-3959961D01*
X6140297Y-3948480D01*
X6142888Y-3936542D01*
X6143802Y-3924300D01*
X6142888Y-3912057D01*
X6140856Y-3902557D01*
X6140653Y-3899204D01*
X6141618Y-3895953D01*
X6143599Y-3893210D01*
X6185204Y-3851554D01*
X6188506Y-3849370D01*
X6192367Y-3848608D01*
X6330492Y-3848608D01*
X6334201Y-3849319D01*
X6337401Y-3851300D01*
X6339636Y-3854348D01*
X6340602Y-3858006D01*
X6340195Y-3861765D01*
X6338417Y-3865118D01*
X6331153Y-3874211D01*
X6323838Y-3886250D01*
X6318148Y-3899103D01*
X6314186Y-3912565D01*
X6311900Y-3926484D01*
X6311493Y-3940505D01*
X6312814Y-3954526D01*
X6315964Y-3968191D01*
X6320790Y-3981399D01*
X6327292Y-3993896D01*
X6335369Y-4005376D01*
X6344818Y-4015790D01*
X6355486Y-4024934D01*
X6367272Y-4032605D01*
X6379972Y-4038701D01*
X6393281Y-4043121D01*
X6407099Y-4045813D01*
G37*
G36*
X6675120Y-3792728D02*
G01*
X6689140Y-3791813D01*
X6702958Y-3789121D01*
X6716268Y-3784701D01*
X6728968Y-3778605D01*
X6740753Y-3770934D01*
X6751421Y-3761790D01*
X6760870Y-3751376D01*
X6768947Y-3739896D01*
X6775450Y-3727399D01*
X6780275Y-3714191D01*
X6783425Y-3700526D01*
X6784746Y-3686505D01*
X6784340Y-3672484D01*
X6782053Y-3658565D01*
X6778091Y-3645103D01*
X6772402Y-3632250D01*
X6765086Y-3620211D01*
X6756349Y-3609238D01*
X6746240Y-3599484D01*
X6734962Y-3591051D01*
X6722719Y-3584143D01*
X6709714Y-3578860D01*
X6696100Y-3575304D01*
X6682130Y-3573526D01*
X6668109Y-3573526D01*
X6654139Y-3575304D01*
X6640525Y-3578860D01*
X6627520Y-3584143D01*
X6615277Y-3591051D01*
X6604000Y-3599484D01*
X6593890Y-3609238D01*
X6585153Y-3620211D01*
X6577838Y-3632250D01*
X6572148Y-3645103D01*
X6568186Y-3658565D01*
X6565900Y-3672484D01*
X6565493Y-3686505D01*
X6566814Y-3700526D01*
X6569964Y-3714191D01*
X6574790Y-3727399D01*
X6581292Y-3739896D01*
X6589369Y-3751376D01*
X6598818Y-3761790D01*
X6609486Y-3770934D01*
X6621272Y-3778605D01*
X6633972Y-3784701D01*
X6647281Y-3789121D01*
X6661099Y-3791813D01*
G37*
G36*
X325120Y-3792728D02*
G01*
X339140Y-3791813D01*
X352958Y-3789121D01*
X366268Y-3784701D01*
X378968Y-3778605D01*
X390753Y-3770934D01*
X401421Y-3761790D01*
X410870Y-3751376D01*
X418947Y-3739896D01*
X425450Y-3727399D01*
X430276Y-3714191D01*
X433425Y-3700526D01*
X434746Y-3686505D01*
X434340Y-3672484D01*
X432054Y-3658565D01*
X428091Y-3645103D01*
X422401Y-3632250D01*
X415086Y-3620211D01*
X406349Y-3609238D01*
X396240Y-3599484D01*
X384962Y-3591051D01*
X372719Y-3584143D01*
X359714Y-3578860D01*
X346100Y-3575304D01*
X332130Y-3573526D01*
X318109Y-3573526D01*
X304139Y-3575304D01*
X290525Y-3578860D01*
X277520Y-3584143D01*
X265277Y-3591051D01*
X254000Y-3599484D01*
X243890Y-3609238D01*
X235153Y-3620211D01*
X227838Y-3632250D01*
X222148Y-3645103D01*
X218186Y-3658565D01*
X215900Y-3672484D01*
X215493Y-3686505D01*
X216814Y-3700526D01*
X219964Y-3714191D01*
X224790Y-3727399D01*
X231292Y-3739896D01*
X239369Y-3751376D01*
X248818Y-3761790D01*
X259486Y-3770934D01*
X271272Y-3778605D01*
X283972Y-3784701D01*
X297281Y-3789121D01*
X311099Y-3791813D01*
G37*
G36*
X579120Y-3792728D02*
G01*
X593140Y-3791813D01*
X606958Y-3789121D01*
X620268Y-3784701D01*
X632968Y-3778605D01*
X644753Y-3770934D01*
X655421Y-3761790D01*
X664870Y-3751376D01*
X672947Y-3739896D01*
X679450Y-3727399D01*
X684276Y-3714191D01*
X687425Y-3700526D01*
X688746Y-3686505D01*
X688340Y-3672484D01*
X686054Y-3658565D01*
X682091Y-3645103D01*
X676402Y-3632250D01*
X669086Y-3620211D01*
X660349Y-3609238D01*
X650240Y-3599484D01*
X638962Y-3591051D01*
X626719Y-3584143D01*
X613714Y-3578860D01*
X600100Y-3575304D01*
X586130Y-3573526D01*
X572109Y-3573526D01*
X558139Y-3575304D01*
X544525Y-3578860D01*
X531520Y-3584143D01*
X519277Y-3591051D01*
X508000Y-3599484D01*
X497890Y-3609238D01*
X489153Y-3620211D01*
X481838Y-3632250D01*
X476148Y-3645103D01*
X472185Y-3658565D01*
X469900Y-3672484D01*
X469493Y-3686505D01*
X470814Y-3700526D01*
X473964Y-3714191D01*
X478790Y-3727399D01*
X485292Y-3739896D01*
X493369Y-3751376D01*
X502818Y-3761790D01*
X513486Y-3770934D01*
X525272Y-3778605D01*
X537972Y-3784701D01*
X551281Y-3789121D01*
X565099Y-3791813D01*
G37*
G36*
X6675120Y-3538728D02*
G01*
X6689140Y-3537813D01*
X6702958Y-3535121D01*
X6716268Y-3530701D01*
X6728968Y-3524605D01*
X6740753Y-3516934D01*
X6751421Y-3507790D01*
X6760870Y-3497376D01*
X6768947Y-3485896D01*
X6775450Y-3473399D01*
X6780275Y-3460191D01*
X6783425Y-3446526D01*
X6784746Y-3432505D01*
X6784340Y-3418484D01*
X6782053Y-3404565D01*
X6778091Y-3391103D01*
X6772402Y-3378250D01*
X6765086Y-3366211D01*
X6756349Y-3355238D01*
X6746240Y-3345484D01*
X6734962Y-3337051D01*
X6722719Y-3330143D01*
X6709714Y-3324860D01*
X6696100Y-3321304D01*
X6682130Y-3319526D01*
X6668109Y-3319526D01*
X6654139Y-3321304D01*
X6640525Y-3324860D01*
X6627520Y-3330143D01*
X6615277Y-3337051D01*
X6604000Y-3345484D01*
X6593890Y-3355238D01*
X6585153Y-3366211D01*
X6577838Y-3378250D01*
X6572148Y-3391103D01*
X6568186Y-3404565D01*
X6565900Y-3418484D01*
X6565493Y-3432505D01*
X6566814Y-3446526D01*
X6569964Y-3460191D01*
X6574790Y-3473399D01*
X6581292Y-3485896D01*
X6589369Y-3497376D01*
X6598818Y-3507790D01*
X6609486Y-3516934D01*
X6621272Y-3524605D01*
X6633972Y-3530701D01*
X6647281Y-3535121D01*
X6661099Y-3537813D01*
G37*
G36*
X6421120Y-3538728D02*
G01*
X6435140Y-3537813D01*
X6448958Y-3535121D01*
X6462268Y-3530701D01*
X6474968Y-3524605D01*
X6486753Y-3516934D01*
X6497421Y-3507790D01*
X6506870Y-3497376D01*
X6514947Y-3485896D01*
X6521450Y-3473399D01*
X6526276Y-3460191D01*
X6529425Y-3446526D01*
X6530746Y-3432505D01*
X6530340Y-3418484D01*
X6528054Y-3404565D01*
X6524091Y-3391103D01*
X6518402Y-3378250D01*
X6511086Y-3366211D01*
X6502349Y-3355238D01*
X6492240Y-3345484D01*
X6480962Y-3337051D01*
X6468719Y-3330143D01*
X6455714Y-3324860D01*
X6442100Y-3321304D01*
X6428130Y-3319526D01*
X6414109Y-3319526D01*
X6400139Y-3321304D01*
X6386525Y-3324860D01*
X6373520Y-3330143D01*
X6361277Y-3337051D01*
X6350000Y-3345484D01*
X6339890Y-3355238D01*
X6331153Y-3366211D01*
X6323838Y-3378250D01*
X6318148Y-3391103D01*
X6314186Y-3404565D01*
X6311900Y-3418484D01*
X6311493Y-3432505D01*
X6312814Y-3446526D01*
X6315964Y-3460191D01*
X6320790Y-3473399D01*
X6327292Y-3485896D01*
X6335369Y-3497376D01*
X6344818Y-3507790D01*
X6355486Y-3516934D01*
X6367272Y-3524605D01*
X6379972Y-3530701D01*
X6393281Y-3535121D01*
X6407099Y-3537813D01*
G37*
G36*
X325120Y-3538728D02*
G01*
X339140Y-3537813D01*
X352958Y-3535121D01*
X366268Y-3530701D01*
X378968Y-3524605D01*
X390753Y-3516934D01*
X401421Y-3507790D01*
X410870Y-3497376D01*
X418947Y-3485896D01*
X425450Y-3473399D01*
X430276Y-3460191D01*
X433425Y-3446526D01*
X434746Y-3432505D01*
X434340Y-3418484D01*
X432054Y-3404565D01*
X428091Y-3391103D01*
X422401Y-3378250D01*
X415086Y-3366211D01*
X406349Y-3355238D01*
X396240Y-3345484D01*
X384962Y-3337051D01*
X372719Y-3330143D01*
X359714Y-3324860D01*
X346100Y-3321304D01*
X332130Y-3319526D01*
X318109Y-3319526D01*
X304139Y-3321304D01*
X290525Y-3324860D01*
X277520Y-3330143D01*
X265277Y-3337051D01*
X254000Y-3345484D01*
X243890Y-3355238D01*
X235153Y-3366211D01*
X227838Y-3378250D01*
X222148Y-3391103D01*
X218186Y-3404565D01*
X215900Y-3418484D01*
X215493Y-3432505D01*
X216814Y-3446526D01*
X219964Y-3460191D01*
X224790Y-3473399D01*
X231292Y-3485896D01*
X239369Y-3497376D01*
X248818Y-3507790D01*
X259486Y-3516934D01*
X271272Y-3524605D01*
X283972Y-3530701D01*
X297281Y-3535121D01*
X311099Y-3537813D01*
G37*
G36*
X579120Y-3538728D02*
G01*
X593140Y-3537813D01*
X606958Y-3535121D01*
X620268Y-3530701D01*
X632968Y-3524605D01*
X644753Y-3516934D01*
X655421Y-3507790D01*
X664870Y-3497376D01*
X672947Y-3485896D01*
X679450Y-3473399D01*
X684276Y-3460191D01*
X687425Y-3446526D01*
X688746Y-3432505D01*
X688340Y-3418484D01*
X686054Y-3404565D01*
X682091Y-3391103D01*
X676402Y-3378250D01*
X669086Y-3366211D01*
X660349Y-3355238D01*
X650240Y-3345484D01*
X638962Y-3337051D01*
X626719Y-3330143D01*
X613714Y-3324860D01*
X600100Y-3321304D01*
X586130Y-3319526D01*
X572109Y-3319526D01*
X558139Y-3321304D01*
X544525Y-3324860D01*
X531520Y-3330143D01*
X519277Y-3337051D01*
X508000Y-3345484D01*
X497890Y-3355238D01*
X489153Y-3366211D01*
X481838Y-3378250D01*
X476148Y-3391103D01*
X472185Y-3404565D01*
X469900Y-3418484D01*
X469493Y-3432505D01*
X470814Y-3446526D01*
X473964Y-3460191D01*
X478790Y-3473399D01*
X485292Y-3485896D01*
X493369Y-3497376D01*
X502818Y-3507790D01*
X513486Y-3516934D01*
X525272Y-3524605D01*
X537972Y-3530701D01*
X551281Y-3535121D01*
X565099Y-3537813D01*
G37*
G36*
X6675120Y-3284728D02*
G01*
X6689140Y-3283813D01*
X6702958Y-3281121D01*
X6716268Y-3276701D01*
X6728968Y-3270605D01*
X6740753Y-3262934D01*
X6751421Y-3253790D01*
X6760870Y-3243376D01*
X6768947Y-3231896D01*
X6775450Y-3219399D01*
X6780275Y-3206191D01*
X6783425Y-3192526D01*
X6784746Y-3178505D01*
X6784340Y-3164484D01*
X6782053Y-3150565D01*
X6778091Y-3137103D01*
X6772402Y-3124250D01*
X6765086Y-3112211D01*
X6756349Y-3101238D01*
X6746240Y-3091484D01*
X6734962Y-3083052D01*
X6722719Y-3076143D01*
X6709714Y-3070860D01*
X6696100Y-3067304D01*
X6682130Y-3065526D01*
X6668109Y-3065526D01*
X6654139Y-3067304D01*
X6640525Y-3070860D01*
X6627520Y-3076143D01*
X6615277Y-3083052D01*
X6604000Y-3091484D01*
X6593890Y-3101238D01*
X6585153Y-3112211D01*
X6577838Y-3124250D01*
X6572148Y-3137103D01*
X6568186Y-3150565D01*
X6565900Y-3164484D01*
X6565493Y-3178505D01*
X6566814Y-3192526D01*
X6569964Y-3206191D01*
X6574790Y-3219399D01*
X6581292Y-3231896D01*
X6589369Y-3243376D01*
X6598818Y-3253790D01*
X6609486Y-3262934D01*
X6621272Y-3270605D01*
X6633972Y-3276701D01*
X6647281Y-3281121D01*
X6661099Y-3283813D01*
G37*
G36*
X6421120Y-3284728D02*
G01*
X6435140Y-3283813D01*
X6448958Y-3281121D01*
X6462268Y-3276701D01*
X6474968Y-3270605D01*
X6486753Y-3262934D01*
X6497421Y-3253790D01*
X6506870Y-3243376D01*
X6514947Y-3231896D01*
X6521450Y-3219399D01*
X6526276Y-3206191D01*
X6529425Y-3192526D01*
X6530746Y-3178505D01*
X6530340Y-3164484D01*
X6528054Y-3150565D01*
X6524091Y-3137103D01*
X6518402Y-3124250D01*
X6511086Y-3112211D01*
X6502349Y-3101238D01*
X6492240Y-3091484D01*
X6480962Y-3083052D01*
X6468719Y-3076143D01*
X6455714Y-3070860D01*
X6442100Y-3067304D01*
X6428130Y-3065526D01*
X6414109Y-3065526D01*
X6400139Y-3067304D01*
X6386525Y-3070860D01*
X6373520Y-3076143D01*
X6361277Y-3083052D01*
X6350000Y-3091484D01*
X6339890Y-3101238D01*
X6331153Y-3112211D01*
X6323838Y-3124250D01*
X6318148Y-3137103D01*
X6314186Y-3150565D01*
X6311900Y-3164484D01*
X6311493Y-3178505D01*
X6312814Y-3192526D01*
X6315964Y-3206191D01*
X6320790Y-3219399D01*
X6327292Y-3231896D01*
X6335369Y-3243376D01*
X6344818Y-3253790D01*
X6355486Y-3262934D01*
X6367272Y-3270605D01*
X6379972Y-3276701D01*
X6393281Y-3281121D01*
X6407099Y-3283813D01*
G37*
G36*
X325120Y-3284728D02*
G01*
X339140Y-3283813D01*
X352958Y-3281121D01*
X366268Y-3276701D01*
X378968Y-3270605D01*
X390753Y-3262934D01*
X401421Y-3253790D01*
X410870Y-3243376D01*
X418947Y-3231896D01*
X425450Y-3219399D01*
X430276Y-3206191D01*
X433425Y-3192526D01*
X434746Y-3178505D01*
X434340Y-3164484D01*
X432054Y-3150565D01*
X428091Y-3137103D01*
X422401Y-3124250D01*
X415086Y-3112211D01*
X406349Y-3101238D01*
X396240Y-3091484D01*
X384962Y-3083052D01*
X372719Y-3076143D01*
X359714Y-3070860D01*
X346100Y-3067304D01*
X332130Y-3065526D01*
X318109Y-3065526D01*
X304139Y-3067304D01*
X290525Y-3070860D01*
X277520Y-3076143D01*
X265277Y-3083052D01*
X254000Y-3091484D01*
X243890Y-3101238D01*
X235153Y-3112211D01*
X227838Y-3124250D01*
X222148Y-3137103D01*
X218186Y-3150565D01*
X215900Y-3164484D01*
X215493Y-3178505D01*
X216814Y-3192526D01*
X219964Y-3206191D01*
X224790Y-3219399D01*
X231292Y-3231896D01*
X239369Y-3243376D01*
X248818Y-3253790D01*
X259486Y-3262934D01*
X271272Y-3270605D01*
X283972Y-3276701D01*
X297281Y-3281121D01*
X311099Y-3283813D01*
G37*
G36*
X530860Y-3273298D02*
G01*
X530860Y-3223260D01*
X480822Y-3223260D01*
X485292Y-3231896D01*
X493369Y-3243376D01*
X502818Y-3253790D01*
X513486Y-3262934D01*
X525272Y-3270605D01*
G37*
G36*
X627380Y-3273298D02*
G01*
X632968Y-3270605D01*
X644753Y-3262934D01*
X655421Y-3253790D01*
X664870Y-3243376D01*
X672947Y-3231896D01*
X677418Y-3223260D01*
X627380Y-3223260D01*
G37*
G36*
X2848203Y-3150006D02*
G01*
X2861767Y-3148634D01*
X2875026Y-3145485D01*
X2887776Y-3140608D01*
X2899714Y-3134055D01*
X2910687Y-3125978D01*
X2920492Y-3116478D01*
X2928975Y-3105759D01*
X2935884Y-3094024D01*
X2941218Y-3081477D01*
X2944825Y-3068320D01*
X2946654Y-3054807D01*
X2946654Y-3041192D01*
X2944825Y-3027680D01*
X2941218Y-3014522D01*
X2935884Y-3001975D01*
X2928975Y-2990240D01*
X2920492Y-2979521D01*
X2910687Y-2970022D01*
X2899714Y-2961944D01*
X2887776Y-2955391D01*
X2875026Y-2950514D01*
X2861767Y-2947314D01*
X2848203Y-2945942D01*
X2834589Y-2946400D01*
X2821127Y-2948686D01*
X2808122Y-2952750D01*
X2795727Y-2958490D01*
X2784246Y-2965805D01*
X2773832Y-2974594D01*
X2764688Y-2984703D01*
X2756966Y-2995980D01*
X2750820Y-3008122D01*
X2746349Y-3021025D01*
X2743606Y-3034385D01*
X2742692Y-3048000D01*
X2743606Y-3061614D01*
X2746349Y-3074974D01*
X2750820Y-3087827D01*
X2756966Y-3100019D01*
X2764688Y-3111246D01*
X2773832Y-3121355D01*
X2784246Y-3130194D01*
X2795727Y-3137509D01*
X2808122Y-3143250D01*
X2821127Y-3147314D01*
X2834589Y-3149549D01*
G37*
G36*
X2340203Y-3150006D02*
G01*
X2353767Y-3148634D01*
X2367026Y-3145485D01*
X2379776Y-3140608D01*
X2391714Y-3134055D01*
X2402687Y-3125978D01*
X2412492Y-3116478D01*
X2420975Y-3105759D01*
X2427884Y-3094024D01*
X2433218Y-3081477D01*
X2436825Y-3068320D01*
X2438654Y-3054807D01*
X2438654Y-3041192D01*
X2436825Y-3027680D01*
X2433218Y-3014522D01*
X2427884Y-3001975D01*
X2420975Y-2990240D01*
X2412492Y-2979521D01*
X2402687Y-2970022D01*
X2391714Y-2961944D01*
X2379776Y-2955391D01*
X2367026Y-2950514D01*
X2353767Y-2947314D01*
X2340203Y-2945942D01*
X2326589Y-2946400D01*
X2313127Y-2948686D01*
X2300122Y-2952750D01*
X2287727Y-2958490D01*
X2276246Y-2965805D01*
X2265832Y-2974594D01*
X2256688Y-2984703D01*
X2248966Y-2995980D01*
X2242820Y-3008122D01*
X2238349Y-3021025D01*
X2235606Y-3034385D01*
X2234692Y-3048000D01*
X2235606Y-3061614D01*
X2238349Y-3074974D01*
X2242820Y-3087827D01*
X2248966Y-3100019D01*
X2256688Y-3111246D01*
X2265832Y-3121355D01*
X2276246Y-3130194D01*
X2287727Y-3137509D01*
X2300122Y-3143250D01*
X2313127Y-3147314D01*
X2326589Y-3149549D01*
G37*
G36*
X2594203Y-3150006D02*
G01*
X2607767Y-3148634D01*
X2621026Y-3145485D01*
X2633776Y-3140608D01*
X2645714Y-3134055D01*
X2656687Y-3125978D01*
X2666492Y-3116478D01*
X2674975Y-3105759D01*
X2681884Y-3094024D01*
X2687218Y-3081477D01*
X2690825Y-3068320D01*
X2692654Y-3054807D01*
X2692654Y-3041192D01*
X2690825Y-3027680D01*
X2687218Y-3014522D01*
X2681884Y-3001975D01*
X2674975Y-2990240D01*
X2666492Y-2979521D01*
X2656687Y-2970022D01*
X2645714Y-2961944D01*
X2633776Y-2955391D01*
X2621026Y-2950514D01*
X2607767Y-2947314D01*
X2594203Y-2945942D01*
X2580589Y-2946400D01*
X2567127Y-2948686D01*
X2554122Y-2952750D01*
X2541727Y-2958490D01*
X2530246Y-2965805D01*
X2519832Y-2974594D01*
X2510688Y-2984703D01*
X2502966Y-2995980D01*
X2496820Y-3008122D01*
X2492349Y-3021025D01*
X2489606Y-3034385D01*
X2488692Y-3048000D01*
X2489606Y-3061614D01*
X2492349Y-3074974D01*
X2496820Y-3087827D01*
X2502966Y-3100019D01*
X2510688Y-3111246D01*
X2519832Y-3121355D01*
X2530246Y-3130194D01*
X2541727Y-3137509D01*
X2554122Y-3143250D01*
X2567127Y-3147314D01*
X2580589Y-3149549D01*
G37*
G36*
X3143250Y-3139795D02*
G01*
X3153714Y-3134055D01*
X3164687Y-3125978D01*
X3174492Y-3116478D01*
X3182975Y-3105759D01*
X3189884Y-3094024D01*
X3190595Y-3092450D01*
X3143250Y-3092450D01*
G37*
G36*
X3054350Y-3139643D02*
G01*
X3054350Y-3092450D01*
X3007106Y-3092450D01*
X3010966Y-3100019D01*
X3018688Y-3111246D01*
X3027832Y-3121355D01*
X3038246Y-3130194D01*
X3049727Y-3137509D01*
G37*
G36*
X627380Y-3126740D02*
G01*
X677468Y-3126740D01*
X676402Y-3124250D01*
X669086Y-3112211D01*
X660349Y-3101238D01*
X650240Y-3091484D01*
X638962Y-3083052D01*
X627380Y-3076549D01*
G37*
G36*
X480771Y-3126740D02*
G01*
X530860Y-3126740D01*
X530860Y-3076549D01*
X519277Y-3083052D01*
X508000Y-3091484D01*
X497890Y-3101238D01*
X489153Y-3112211D01*
X481838Y-3124250D01*
G37*
G36*
X3346958Y-3088640D02*
G01*
X3361486Y-3088640D01*
X3375914Y-3086811D01*
X3390036Y-3083204D01*
X3403549Y-3077870D01*
X3416300Y-3070860D01*
X3428085Y-3062274D01*
X3438702Y-3052318D01*
X3447999Y-3041091D01*
X3455771Y-3028848D01*
X3461969Y-3015640D01*
X3466490Y-3001822D01*
X3469182Y-2987497D01*
X3470097Y-2973019D01*
X3469182Y-2958490D01*
X3466490Y-2944164D01*
X3461969Y-2930347D01*
X3455771Y-2917139D01*
X3447999Y-2904896D01*
X3438702Y-2893669D01*
X3428085Y-2883712D01*
X3416300Y-2875127D01*
X3403549Y-2868117D01*
X3390036Y-2862783D01*
X3375914Y-2859176D01*
X3361486Y-2857347D01*
X3346958Y-2857347D01*
X3332530Y-2859176D01*
X3324504Y-2861208D01*
X3320592Y-2861411D01*
X3316833Y-2860090D01*
X3313887Y-2857449D01*
X3312160Y-2853893D01*
X3311956Y-2849930D01*
X3313277Y-2846171D01*
X3316884Y-2840024D01*
X3322218Y-2827477D01*
X3325825Y-2814320D01*
X3327654Y-2800807D01*
X3327654Y-2787192D01*
X3325825Y-2773680D01*
X3322218Y-2760522D01*
X3316884Y-2747975D01*
X3309975Y-2736240D01*
X3301492Y-2725521D01*
X3291687Y-2716022D01*
X3280714Y-2707944D01*
X3268776Y-2701391D01*
X3256026Y-2696514D01*
X3242767Y-2693314D01*
X3229203Y-2691942D01*
X3215589Y-2692400D01*
X3202127Y-2694686D01*
X3189122Y-2698750D01*
X3176727Y-2704490D01*
X3165246Y-2711805D01*
X3154832Y-2720594D01*
X3145688Y-2730703D01*
X3137966Y-2741980D01*
X3131820Y-2754122D01*
X3127349Y-2767025D01*
X3124606Y-2780385D01*
X3123692Y-2794000D01*
X3124606Y-2807614D01*
X3127349Y-2820974D01*
X3131820Y-2833827D01*
X3137966Y-2846019D01*
X3145688Y-2857246D01*
X3154832Y-2867355D01*
X3165246Y-2876194D01*
X3176727Y-2883509D01*
X3189122Y-2889250D01*
X3202127Y-2893314D01*
X3215589Y-2895549D01*
X3229203Y-2896006D01*
X3242767Y-2894634D01*
X3246932Y-2893669D01*
X3250895Y-2893517D01*
X3254654Y-2894939D01*
X3257550Y-2897632D01*
X3259175Y-2901289D01*
X3259277Y-2905252D01*
X3257854Y-2909011D01*
X3252673Y-2917139D01*
X3246475Y-2930347D01*
X3241954Y-2944164D01*
X3239262Y-2958490D01*
X3238347Y-2973019D01*
X3239262Y-2987497D01*
X3241954Y-3001822D01*
X3246475Y-3015640D01*
X3252673Y-3028848D01*
X3260445Y-3041091D01*
X3269742Y-3052318D01*
X3280359Y-3062274D01*
X3292144Y-3070860D01*
X3304895Y-3077870D01*
X3318408Y-3083204D01*
X3332530Y-3086811D01*
G37*
G36*
X6675120Y-3030728D02*
G01*
X6689140Y-3029813D01*
X6702958Y-3027121D01*
X6716268Y-3022701D01*
X6728968Y-3016605D01*
X6740753Y-3008934D01*
X6751421Y-2999790D01*
X6760870Y-2989376D01*
X6768947Y-2977896D01*
X6775450Y-2965399D01*
X6780275Y-2952191D01*
X6783425Y-2938526D01*
X6784746Y-2924505D01*
X6784340Y-2910484D01*
X6782053Y-2896565D01*
X6778091Y-2883103D01*
X6772402Y-2870250D01*
X6765086Y-2858211D01*
X6756349Y-2847238D01*
X6746240Y-2837484D01*
X6734962Y-2829052D01*
X6722719Y-2822143D01*
X6709714Y-2816860D01*
X6696100Y-2813304D01*
X6682130Y-2811526D01*
X6668109Y-2811526D01*
X6654139Y-2813304D01*
X6640525Y-2816860D01*
X6627520Y-2822143D01*
X6615277Y-2829052D01*
X6604000Y-2837484D01*
X6593890Y-2847238D01*
X6585153Y-2858211D01*
X6577838Y-2870250D01*
X6572148Y-2883103D01*
X6568186Y-2896565D01*
X6565900Y-2910484D01*
X6565493Y-2924505D01*
X6566814Y-2938526D01*
X6569964Y-2952191D01*
X6574790Y-2965399D01*
X6581292Y-2977896D01*
X6589369Y-2989376D01*
X6598818Y-2999790D01*
X6609486Y-3008934D01*
X6621272Y-3016605D01*
X6633972Y-3022701D01*
X6647281Y-3027121D01*
X6661099Y-3029813D01*
G37*
G36*
X6421120Y-3030728D02*
G01*
X6435140Y-3029813D01*
X6448958Y-3027121D01*
X6462268Y-3022701D01*
X6474968Y-3016605D01*
X6486753Y-3008934D01*
X6497421Y-2999790D01*
X6506870Y-2989376D01*
X6514947Y-2977896D01*
X6521450Y-2965399D01*
X6526276Y-2952191D01*
X6529425Y-2938526D01*
X6530746Y-2924505D01*
X6530340Y-2910484D01*
X6528054Y-2896565D01*
X6524091Y-2883103D01*
X6518402Y-2870250D01*
X6511086Y-2858211D01*
X6502349Y-2847238D01*
X6492240Y-2837484D01*
X6480962Y-2829052D01*
X6468719Y-2822143D01*
X6455714Y-2816860D01*
X6442100Y-2813304D01*
X6428130Y-2811526D01*
X6414109Y-2811526D01*
X6400139Y-2813304D01*
X6386525Y-2816860D01*
X6373520Y-2822143D01*
X6361277Y-2829052D01*
X6350000Y-2837484D01*
X6339890Y-2847238D01*
X6331153Y-2858211D01*
X6323838Y-2870250D01*
X6318148Y-2883103D01*
X6314186Y-2896565D01*
X6311900Y-2910484D01*
X6311493Y-2924505D01*
X6312814Y-2938526D01*
X6315964Y-2952191D01*
X6320790Y-2965399D01*
X6327292Y-2977896D01*
X6335369Y-2989376D01*
X6344818Y-2999790D01*
X6355486Y-3008934D01*
X6367272Y-3016605D01*
X6379972Y-3022701D01*
X6393281Y-3027121D01*
X6407099Y-3029813D01*
G37*
G36*
X325120Y-3030728D02*
G01*
X339140Y-3029813D01*
X352958Y-3027121D01*
X366268Y-3022701D01*
X378968Y-3016605D01*
X390753Y-3008934D01*
X401421Y-2999790D01*
X410870Y-2989376D01*
X418947Y-2977896D01*
X425450Y-2965399D01*
X430276Y-2952191D01*
X433425Y-2938526D01*
X434746Y-2924505D01*
X434340Y-2910484D01*
X432054Y-2896565D01*
X428091Y-2883103D01*
X422401Y-2870250D01*
X415086Y-2858211D01*
X406349Y-2847238D01*
X396240Y-2837484D01*
X384962Y-2829052D01*
X372719Y-2822143D01*
X359714Y-2816860D01*
X346100Y-2813304D01*
X332130Y-2811526D01*
X318109Y-2811526D01*
X304139Y-2813304D01*
X290525Y-2816860D01*
X277520Y-2822143D01*
X265277Y-2829052D01*
X254000Y-2837484D01*
X243890Y-2847238D01*
X235153Y-2858211D01*
X227838Y-2870250D01*
X222148Y-2883103D01*
X218186Y-2896565D01*
X215900Y-2910484D01*
X215493Y-2924505D01*
X216814Y-2938526D01*
X219964Y-2952191D01*
X224790Y-2965399D01*
X231292Y-2977896D01*
X239369Y-2989376D01*
X248818Y-2999790D01*
X259486Y-3008934D01*
X271272Y-3016605D01*
X283972Y-3022701D01*
X297281Y-3027121D01*
X311099Y-3029813D01*
G37*
G36*
X530860Y-3019298D02*
G01*
X530860Y-2969260D01*
X480822Y-2969260D01*
X485292Y-2977896D01*
X493369Y-2989376D01*
X502818Y-2999790D01*
X513486Y-3008934D01*
X525272Y-3016605D01*
G37*
G36*
X627380Y-3019298D02*
G01*
X632968Y-3016605D01*
X644753Y-3008934D01*
X655421Y-2999790D01*
X664870Y-2989376D01*
X672947Y-2977896D01*
X677418Y-2969260D01*
X627380Y-2969260D01*
G37*
G36*
X3007106Y-3003550D02*
G01*
X3054350Y-3003550D01*
X3054350Y-2956356D01*
X3049727Y-2958490D01*
X3038246Y-2965805D01*
X3027832Y-2974594D01*
X3018688Y-2984703D01*
X3010966Y-2995980D01*
G37*
G36*
X3143250Y-3003550D02*
G01*
X3190595Y-3003550D01*
X3189884Y-3001975D01*
X3182975Y-2990240D01*
X3174492Y-2979521D01*
X3164687Y-2970022D01*
X3153714Y-2961944D01*
X3143250Y-2956204D01*
G37*
G36*
X2975203Y-2896006D02*
G01*
X2988767Y-2894634D01*
X3002026Y-2891485D01*
X3014776Y-2886608D01*
X3026714Y-2880055D01*
X3037687Y-2871978D01*
X3047492Y-2862478D01*
X3055975Y-2851759D01*
X3062884Y-2840024D01*
X3068218Y-2827477D01*
X3071825Y-2814320D01*
X3073654Y-2800807D01*
X3073654Y-2787192D01*
X3071825Y-2773680D01*
X3068218Y-2760522D01*
X3062884Y-2747975D01*
X3055975Y-2736240D01*
X3047492Y-2725521D01*
X3037687Y-2716022D01*
X3026714Y-2707944D01*
X3014776Y-2701391D01*
X3002026Y-2696514D01*
X2988767Y-2693314D01*
X2975203Y-2691942D01*
X2961589Y-2692400D01*
X2948127Y-2694686D01*
X2935122Y-2698750D01*
X2922727Y-2704490D01*
X2911246Y-2711805D01*
X2900832Y-2720594D01*
X2891688Y-2730703D01*
X2883966Y-2741980D01*
X2877820Y-2754122D01*
X2873349Y-2767025D01*
X2870606Y-2780385D01*
X2869692Y-2794000D01*
X2870606Y-2807614D01*
X2873349Y-2820974D01*
X2877820Y-2833827D01*
X2883966Y-2846019D01*
X2891688Y-2857246D01*
X2900832Y-2867355D01*
X2911246Y-2876194D01*
X2922727Y-2883509D01*
X2935122Y-2889250D01*
X2948127Y-2893314D01*
X2961589Y-2895549D01*
G37*
G36*
X2721203Y-2896006D02*
G01*
X2734767Y-2894634D01*
X2748026Y-2891485D01*
X2760776Y-2886608D01*
X2772714Y-2880055D01*
X2783687Y-2871978D01*
X2793492Y-2862478D01*
X2801975Y-2851759D01*
X2808884Y-2840024D01*
X2814218Y-2827477D01*
X2817825Y-2814320D01*
X2819654Y-2800807D01*
X2819654Y-2787192D01*
X2817825Y-2773680D01*
X2814218Y-2760522D01*
X2808884Y-2747975D01*
X2801975Y-2736240D01*
X2793492Y-2725521D01*
X2783687Y-2716022D01*
X2772714Y-2707944D01*
X2760776Y-2701391D01*
X2748026Y-2696514D01*
X2734767Y-2693314D01*
X2721203Y-2691942D01*
X2707589Y-2692400D01*
X2694127Y-2694686D01*
X2681122Y-2698750D01*
X2668727Y-2704490D01*
X2657246Y-2711805D01*
X2646832Y-2720594D01*
X2637688Y-2730703D01*
X2629966Y-2741980D01*
X2623820Y-2754122D01*
X2619349Y-2767025D01*
X2616606Y-2780385D01*
X2615692Y-2794000D01*
X2616606Y-2807614D01*
X2619349Y-2820974D01*
X2623820Y-2833827D01*
X2629966Y-2846019D01*
X2637688Y-2857246D01*
X2646832Y-2867355D01*
X2657246Y-2876194D01*
X2668727Y-2883509D01*
X2681122Y-2889250D01*
X2694127Y-2893314D01*
X2707589Y-2895549D01*
G37*
G36*
X2467203Y-2896006D02*
G01*
X2480767Y-2894634D01*
X2494026Y-2891485D01*
X2506776Y-2886608D01*
X2518714Y-2880055D01*
X2529687Y-2871978D01*
X2539492Y-2862478D01*
X2547975Y-2851759D01*
X2554884Y-2840024D01*
X2560218Y-2827477D01*
X2563825Y-2814320D01*
X2565654Y-2800807D01*
X2565654Y-2787192D01*
X2563825Y-2773680D01*
X2560218Y-2760522D01*
X2554884Y-2747975D01*
X2547975Y-2736240D01*
X2539492Y-2725521D01*
X2529687Y-2716022D01*
X2518714Y-2707944D01*
X2506776Y-2701391D01*
X2494026Y-2696514D01*
X2480767Y-2693314D01*
X2467203Y-2691942D01*
X2453589Y-2692400D01*
X2440127Y-2694686D01*
X2427122Y-2698750D01*
X2414727Y-2704490D01*
X2403246Y-2711805D01*
X2392832Y-2720594D01*
X2383688Y-2730703D01*
X2375966Y-2741980D01*
X2369820Y-2754122D01*
X2365349Y-2767025D01*
X2362606Y-2780385D01*
X2361692Y-2794000D01*
X2362606Y-2807614D01*
X2365349Y-2820974D01*
X2369820Y-2833827D01*
X2375966Y-2846019D01*
X2383688Y-2857246D01*
X2392832Y-2867355D01*
X2403246Y-2876194D01*
X2414727Y-2883509D01*
X2427122Y-2889250D01*
X2440127Y-2893314D01*
X2453589Y-2895549D01*
G37*
G36*
X627380Y-2872740D02*
G01*
X677468Y-2872740D01*
X676402Y-2870250D01*
X669086Y-2858211D01*
X660349Y-2847238D01*
X650240Y-2837484D01*
X638962Y-2829052D01*
X627380Y-2822549D01*
G37*
G36*
X480771Y-2872740D02*
G01*
X530860Y-2872740D01*
X530860Y-2822549D01*
X519277Y-2829052D01*
X508000Y-2837484D01*
X497890Y-2847238D01*
X489153Y-2858211D01*
X481838Y-2870250D01*
G37*
G36*
X6675120Y-2776728D02*
G01*
X6689140Y-2775813D01*
X6702958Y-2773121D01*
X6716268Y-2768701D01*
X6728968Y-2762605D01*
X6740753Y-2754934D01*
X6751421Y-2745790D01*
X6760870Y-2735376D01*
X6768947Y-2723896D01*
X6775450Y-2711399D01*
X6780275Y-2698191D01*
X6783425Y-2684526D01*
X6784746Y-2670505D01*
X6784340Y-2656484D01*
X6782053Y-2642565D01*
X6778091Y-2629103D01*
X6772402Y-2616250D01*
X6765086Y-2604211D01*
X6756349Y-2593238D01*
X6746240Y-2583484D01*
X6734962Y-2575052D01*
X6722719Y-2568143D01*
X6709714Y-2562860D01*
X6696100Y-2559304D01*
X6682130Y-2557526D01*
X6668109Y-2557526D01*
X6654139Y-2559304D01*
X6640525Y-2562860D01*
X6627520Y-2568143D01*
X6615277Y-2575052D01*
X6604000Y-2583484D01*
X6593890Y-2593238D01*
X6585153Y-2604211D01*
X6577838Y-2616250D01*
X6572148Y-2629103D01*
X6568186Y-2642565D01*
X6565900Y-2656484D01*
X6565493Y-2670505D01*
X6566814Y-2684526D01*
X6569964Y-2698191D01*
X6574790Y-2711399D01*
X6581292Y-2723896D01*
X6589369Y-2735376D01*
X6598818Y-2745790D01*
X6609486Y-2754934D01*
X6621272Y-2762605D01*
X6633972Y-2768701D01*
X6647281Y-2773121D01*
X6661099Y-2775813D01*
G37*
G36*
X6421120Y-2776728D02*
G01*
X6435140Y-2775813D01*
X6448958Y-2773121D01*
X6462268Y-2768701D01*
X6474968Y-2762605D01*
X6486753Y-2754934D01*
X6497421Y-2745790D01*
X6506870Y-2735376D01*
X6514947Y-2723896D01*
X6521450Y-2711399D01*
X6526276Y-2698191D01*
X6529425Y-2684526D01*
X6530746Y-2670505D01*
X6530340Y-2656484D01*
X6528054Y-2642565D01*
X6524091Y-2629103D01*
X6518402Y-2616250D01*
X6511086Y-2604211D01*
X6502349Y-2593238D01*
X6492240Y-2583484D01*
X6480962Y-2575052D01*
X6468719Y-2568143D01*
X6455714Y-2562860D01*
X6442100Y-2559304D01*
X6428130Y-2557526D01*
X6414109Y-2557526D01*
X6400139Y-2559304D01*
X6386525Y-2562860D01*
X6373520Y-2568143D01*
X6361277Y-2575052D01*
X6350000Y-2583484D01*
X6339890Y-2593238D01*
X6331153Y-2604211D01*
X6323838Y-2616250D01*
X6318148Y-2629103D01*
X6314186Y-2642565D01*
X6311900Y-2656484D01*
X6311493Y-2670505D01*
X6312814Y-2684526D01*
X6315964Y-2698191D01*
X6320790Y-2711399D01*
X6327292Y-2723896D01*
X6335369Y-2735376D01*
X6344818Y-2745790D01*
X6355486Y-2754934D01*
X6367272Y-2762605D01*
X6379972Y-2768701D01*
X6393281Y-2773121D01*
X6407099Y-2775813D01*
G37*
G36*
X325120Y-2776728D02*
G01*
X339140Y-2775813D01*
X352958Y-2773121D01*
X366268Y-2768701D01*
X378968Y-2762605D01*
X390753Y-2754934D01*
X401421Y-2745790D01*
X410870Y-2735376D01*
X418947Y-2723896D01*
X425450Y-2711399D01*
X430276Y-2698191D01*
X433425Y-2684526D01*
X434746Y-2670505D01*
X434340Y-2656484D01*
X432054Y-2642565D01*
X428091Y-2629103D01*
X422401Y-2616250D01*
X415086Y-2604211D01*
X406349Y-2593238D01*
X396240Y-2583484D01*
X384962Y-2575052D01*
X372719Y-2568143D01*
X359714Y-2562860D01*
X346100Y-2559304D01*
X332130Y-2557526D01*
X318109Y-2557526D01*
X304139Y-2559304D01*
X290525Y-2562860D01*
X277520Y-2568143D01*
X265277Y-2575052D01*
X254000Y-2583484D01*
X243890Y-2593238D01*
X235153Y-2604211D01*
X227838Y-2616250D01*
X222148Y-2629103D01*
X218186Y-2642565D01*
X215900Y-2656484D01*
X215493Y-2670505D01*
X216814Y-2684526D01*
X219964Y-2698191D01*
X224790Y-2711399D01*
X231292Y-2723896D01*
X239369Y-2735376D01*
X248818Y-2745790D01*
X259486Y-2754934D01*
X271272Y-2762605D01*
X283972Y-2768701D01*
X297281Y-2773121D01*
X311099Y-2775813D01*
G37*
G36*
X579120Y-2776728D02*
G01*
X593140Y-2775813D01*
X606958Y-2773121D01*
X620268Y-2768701D01*
X632968Y-2762605D01*
X644753Y-2754934D01*
X655421Y-2745790D01*
X664870Y-2735376D01*
X672947Y-2723896D01*
X679450Y-2711399D01*
X684276Y-2698191D01*
X687425Y-2684526D01*
X688746Y-2670505D01*
X688340Y-2656484D01*
X686054Y-2642565D01*
X682091Y-2629103D01*
X676402Y-2616250D01*
X669086Y-2604211D01*
X660349Y-2593238D01*
X650240Y-2583484D01*
X638962Y-2575052D01*
X626719Y-2568143D01*
X613714Y-2562860D01*
X600100Y-2559304D01*
X586130Y-2557526D01*
X572109Y-2557526D01*
X558139Y-2559304D01*
X544525Y-2562860D01*
X531520Y-2568143D01*
X519277Y-2575052D01*
X508000Y-2583484D01*
X497890Y-2593238D01*
X489153Y-2604211D01*
X481838Y-2616250D01*
X476148Y-2629103D01*
X472185Y-2642565D01*
X469900Y-2656484D01*
X469493Y-2670505D01*
X470814Y-2684526D01*
X473964Y-2698191D01*
X478790Y-2711399D01*
X485292Y-2723896D01*
X493369Y-2735376D01*
X502818Y-2745790D01*
X513486Y-2754934D01*
X525272Y-2762605D01*
X537972Y-2768701D01*
X551281Y-2773121D01*
X565099Y-2775813D01*
G37*
G36*
X6675120Y-2522728D02*
G01*
X6689140Y-2521813D01*
X6702958Y-2519121D01*
X6716268Y-2514701D01*
X6728968Y-2508605D01*
X6740753Y-2500934D01*
X6751421Y-2491790D01*
X6760870Y-2481376D01*
X6768947Y-2469896D01*
X6775450Y-2457399D01*
X6780275Y-2444191D01*
X6783425Y-2430526D01*
X6784746Y-2416505D01*
X6784340Y-2402484D01*
X6782053Y-2388565D01*
X6778091Y-2375103D01*
X6772402Y-2362250D01*
X6765086Y-2350211D01*
X6756349Y-2339238D01*
X6746240Y-2329484D01*
X6734962Y-2321052D01*
X6722719Y-2314143D01*
X6709714Y-2308860D01*
X6696100Y-2305304D01*
X6682130Y-2303526D01*
X6668109Y-2303526D01*
X6654139Y-2305304D01*
X6640525Y-2308860D01*
X6627520Y-2314143D01*
X6615277Y-2321052D01*
X6604000Y-2329484D01*
X6593890Y-2339238D01*
X6585153Y-2350211D01*
X6577838Y-2362250D01*
X6572148Y-2375103D01*
X6568186Y-2388565D01*
X6565900Y-2402484D01*
X6565493Y-2416505D01*
X6566814Y-2430526D01*
X6569964Y-2444191D01*
X6574790Y-2457399D01*
X6581292Y-2469896D01*
X6589369Y-2481376D01*
X6598818Y-2491790D01*
X6609486Y-2500934D01*
X6621272Y-2508605D01*
X6633972Y-2514701D01*
X6647281Y-2519121D01*
X6661099Y-2521813D01*
G37*
G36*
X6421120Y-2522728D02*
G01*
X6435140Y-2521813D01*
X6448958Y-2519121D01*
X6462268Y-2514701D01*
X6474968Y-2508605D01*
X6486753Y-2500934D01*
X6497421Y-2491790D01*
X6506870Y-2481376D01*
X6514947Y-2469896D01*
X6521450Y-2457399D01*
X6526276Y-2444191D01*
X6529425Y-2430526D01*
X6530746Y-2416505D01*
X6530340Y-2402484D01*
X6528054Y-2388565D01*
X6524091Y-2375103D01*
X6518402Y-2362250D01*
X6511086Y-2350211D01*
X6502349Y-2339238D01*
X6492240Y-2329484D01*
X6480962Y-2321052D01*
X6468719Y-2314143D01*
X6455714Y-2308860D01*
X6442100Y-2305304D01*
X6428130Y-2303526D01*
X6414109Y-2303526D01*
X6400139Y-2305304D01*
X6386525Y-2308860D01*
X6373520Y-2314143D01*
X6361277Y-2321052D01*
X6350000Y-2329484D01*
X6339890Y-2339238D01*
X6331153Y-2350211D01*
X6323838Y-2362250D01*
X6318148Y-2375103D01*
X6314186Y-2388565D01*
X6311900Y-2402484D01*
X6311493Y-2416505D01*
X6312814Y-2430526D01*
X6315964Y-2444191D01*
X6320790Y-2457399D01*
X6327292Y-2469896D01*
X6335369Y-2481376D01*
X6344818Y-2491790D01*
X6355486Y-2500934D01*
X6367272Y-2508605D01*
X6379972Y-2514701D01*
X6393281Y-2519121D01*
X6407099Y-2521813D01*
G37*
G36*
X579120Y-2522728D02*
G01*
X593140Y-2521813D01*
X606958Y-2519121D01*
X620268Y-2514701D01*
X632968Y-2508605D01*
X644753Y-2500934D01*
X655421Y-2491790D01*
X664870Y-2481376D01*
X672947Y-2469896D01*
X679450Y-2457399D01*
X684276Y-2444191D01*
X687425Y-2430526D01*
X688746Y-2416505D01*
X688340Y-2402484D01*
X686054Y-2388565D01*
X682091Y-2375103D01*
X676402Y-2362250D01*
X669086Y-2350211D01*
X660349Y-2339238D01*
X650240Y-2329484D01*
X638962Y-2321052D01*
X626719Y-2314143D01*
X613714Y-2308860D01*
X600100Y-2305304D01*
X586130Y-2303526D01*
X572109Y-2303526D01*
X558139Y-2305304D01*
X544525Y-2308860D01*
X531520Y-2314143D01*
X519277Y-2321052D01*
X508000Y-2329484D01*
X497890Y-2339238D01*
X489153Y-2350211D01*
X481838Y-2362250D01*
X476148Y-2375103D01*
X472185Y-2388565D01*
X469900Y-2402484D01*
X469493Y-2416505D01*
X470814Y-2430526D01*
X473964Y-2444191D01*
X478790Y-2457399D01*
X485292Y-2469896D01*
X493369Y-2481376D01*
X502818Y-2491790D01*
X513486Y-2500934D01*
X525272Y-2508605D01*
X537972Y-2514701D01*
X551281Y-2519121D01*
X565099Y-2521813D01*
G37*
G36*
X325120Y-2522728D02*
G01*
X339140Y-2521813D01*
X352958Y-2519121D01*
X366268Y-2514701D01*
X378968Y-2508605D01*
X390753Y-2500934D01*
X401421Y-2491790D01*
X410870Y-2481376D01*
X418947Y-2469896D01*
X425450Y-2457399D01*
X430276Y-2444191D01*
X433425Y-2430526D01*
X434746Y-2416505D01*
X434340Y-2402484D01*
X432054Y-2388565D01*
X428091Y-2375103D01*
X422401Y-2362250D01*
X415086Y-2350211D01*
X406349Y-2339238D01*
X396240Y-2329484D01*
X384962Y-2321052D01*
X372719Y-2314143D01*
X359714Y-2308860D01*
X346100Y-2305304D01*
X332130Y-2303526D01*
X318109Y-2303526D01*
X304139Y-2305304D01*
X290525Y-2308860D01*
X277520Y-2314143D01*
X265277Y-2321052D01*
X254000Y-2329484D01*
X243890Y-2339238D01*
X235153Y-2350211D01*
X227838Y-2362250D01*
X222148Y-2375103D01*
X218186Y-2388565D01*
X215900Y-2402484D01*
X215493Y-2416505D01*
X216814Y-2430526D01*
X219964Y-2444191D01*
X224790Y-2457399D01*
X231292Y-2469896D01*
X239369Y-2481376D01*
X248818Y-2491790D01*
X259486Y-2500934D01*
X271272Y-2508605D01*
X283972Y-2514701D01*
X297281Y-2519121D01*
X311099Y-2521813D01*
G37*
G36*
X6675120Y-2268728D02*
G01*
X6689140Y-2267813D01*
X6702958Y-2265121D01*
X6716268Y-2260701D01*
X6728968Y-2254605D01*
X6740753Y-2246934D01*
X6751421Y-2237790D01*
X6760870Y-2227376D01*
X6768947Y-2215896D01*
X6775450Y-2203399D01*
X6780275Y-2190191D01*
X6783425Y-2176526D01*
X6784746Y-2162505D01*
X6784340Y-2148484D01*
X6782053Y-2134565D01*
X6778091Y-2121103D01*
X6772402Y-2108250D01*
X6765086Y-2096211D01*
X6756349Y-2085238D01*
X6746240Y-2075484D01*
X6734962Y-2067052D01*
X6722719Y-2060143D01*
X6709714Y-2054860D01*
X6696100Y-2051304D01*
X6682130Y-2049525D01*
X6668109Y-2049525D01*
X6654139Y-2051304D01*
X6640525Y-2054860D01*
X6627520Y-2060143D01*
X6615277Y-2067052D01*
X6604000Y-2075484D01*
X6593890Y-2085238D01*
X6585153Y-2096211D01*
X6577838Y-2108250D01*
X6572148Y-2121103D01*
X6568186Y-2134565D01*
X6565900Y-2148484D01*
X6565493Y-2162505D01*
X6566814Y-2176526D01*
X6569964Y-2190191D01*
X6574790Y-2203399D01*
X6581292Y-2215896D01*
X6589369Y-2227376D01*
X6598818Y-2237790D01*
X6609486Y-2246934D01*
X6621272Y-2254605D01*
X6633972Y-2260701D01*
X6647281Y-2265121D01*
X6661099Y-2267813D01*
G37*
G36*
X6421120Y-2268728D02*
G01*
X6435140Y-2267813D01*
X6448958Y-2265121D01*
X6462268Y-2260701D01*
X6474968Y-2254605D01*
X6486753Y-2246934D01*
X6497421Y-2237790D01*
X6506870Y-2227376D01*
X6514947Y-2215896D01*
X6521450Y-2203399D01*
X6526276Y-2190191D01*
X6529425Y-2176526D01*
X6530746Y-2162505D01*
X6530340Y-2148484D01*
X6528054Y-2134565D01*
X6524091Y-2121103D01*
X6518402Y-2108250D01*
X6511086Y-2096211D01*
X6502349Y-2085238D01*
X6492240Y-2075484D01*
X6480962Y-2067052D01*
X6468719Y-2060143D01*
X6455714Y-2054860D01*
X6442100Y-2051304D01*
X6428130Y-2049525D01*
X6414109Y-2049525D01*
X6400139Y-2051304D01*
X6386525Y-2054860D01*
X6373520Y-2060143D01*
X6361277Y-2067052D01*
X6350000Y-2075484D01*
X6339890Y-2085238D01*
X6331153Y-2096211D01*
X6323838Y-2108250D01*
X6318148Y-2121103D01*
X6314186Y-2134565D01*
X6311900Y-2148484D01*
X6311493Y-2162505D01*
X6312814Y-2176526D01*
X6315964Y-2190191D01*
X6320790Y-2203399D01*
X6327292Y-2215896D01*
X6335369Y-2227376D01*
X6344818Y-2237790D01*
X6355486Y-2246934D01*
X6367272Y-2254605D01*
X6379972Y-2260701D01*
X6393281Y-2265121D01*
X6407099Y-2267813D01*
G37*
G36*
X325120Y-2268728D02*
G01*
X339140Y-2267813D01*
X352958Y-2265121D01*
X366268Y-2260701D01*
X378968Y-2254605D01*
X390753Y-2246934D01*
X401421Y-2237790D01*
X410870Y-2227376D01*
X418947Y-2215896D01*
X425450Y-2203399D01*
X430276Y-2190191D01*
X433425Y-2176526D01*
X434746Y-2162505D01*
X434340Y-2148484D01*
X432054Y-2134565D01*
X428091Y-2121103D01*
X422401Y-2108250D01*
X415086Y-2096211D01*
X406349Y-2085238D01*
X396240Y-2075484D01*
X384962Y-2067052D01*
X372719Y-2060143D01*
X359714Y-2054860D01*
X346100Y-2051304D01*
X332130Y-2049525D01*
X318109Y-2049525D01*
X304139Y-2051304D01*
X290525Y-2054860D01*
X277520Y-2060143D01*
X265277Y-2067052D01*
X254000Y-2075484D01*
X243890Y-2085238D01*
X235153Y-2096211D01*
X227838Y-2108250D01*
X222148Y-2121103D01*
X218186Y-2134565D01*
X215900Y-2148484D01*
X215493Y-2162505D01*
X216814Y-2176526D01*
X219964Y-2190191D01*
X224790Y-2203399D01*
X231292Y-2215896D01*
X239369Y-2227376D01*
X248818Y-2237790D01*
X259486Y-2246934D01*
X271272Y-2254605D01*
X283972Y-2260701D01*
X297281Y-2265121D01*
X311099Y-2267813D01*
G37*
G36*
X579120Y-2268728D02*
G01*
X593140Y-2267813D01*
X606958Y-2265121D01*
X620268Y-2260701D01*
X632968Y-2254605D01*
X644753Y-2246934D01*
X655421Y-2237790D01*
X664870Y-2227376D01*
X672947Y-2215896D01*
X679450Y-2203399D01*
X684276Y-2190191D01*
X687425Y-2176526D01*
X688746Y-2162505D01*
X688340Y-2148484D01*
X686054Y-2134565D01*
X682091Y-2121103D01*
X676402Y-2108250D01*
X669086Y-2096211D01*
X660349Y-2085238D01*
X650240Y-2075484D01*
X638962Y-2067052D01*
X626719Y-2060143D01*
X613714Y-2054860D01*
X600100Y-2051304D01*
X586130Y-2049525D01*
X572109Y-2049525D01*
X558139Y-2051304D01*
X544525Y-2054860D01*
X531520Y-2060143D01*
X519277Y-2067052D01*
X508000Y-2075484D01*
X497890Y-2085238D01*
X489153Y-2096211D01*
X481838Y-2108250D01*
X476148Y-2121103D01*
X472185Y-2134565D01*
X469900Y-2148484D01*
X469493Y-2162505D01*
X470814Y-2176526D01*
X473964Y-2190191D01*
X478790Y-2203399D01*
X485292Y-2215896D01*
X493369Y-2227376D01*
X502818Y-2237790D01*
X513486Y-2246934D01*
X525272Y-2254605D01*
X537972Y-2260701D01*
X551281Y-2265121D01*
X565099Y-2267813D01*
G37*
G36*
X6675120Y-2014728D02*
G01*
X6689140Y-2013813D01*
X6702958Y-2011121D01*
X6716268Y-2006701D01*
X6728968Y-2000605D01*
X6740753Y-1992934D01*
X6751421Y-1983790D01*
X6760870Y-1973376D01*
X6768947Y-1961896D01*
X6775450Y-1949399D01*
X6780275Y-1936191D01*
X6783425Y-1922525D01*
X6784746Y-1908505D01*
X6784340Y-1894484D01*
X6782053Y-1880565D01*
X6778091Y-1867103D01*
X6772402Y-1854250D01*
X6765086Y-1842211D01*
X6756349Y-1831238D01*
X6746240Y-1821484D01*
X6734962Y-1813052D01*
X6722719Y-1806143D01*
X6709714Y-1800860D01*
X6696100Y-1797304D01*
X6682130Y-1795525D01*
X6668109Y-1795525D01*
X6654139Y-1797304D01*
X6640525Y-1800860D01*
X6627520Y-1806143D01*
X6615277Y-1813052D01*
X6604000Y-1821484D01*
X6593890Y-1831238D01*
X6585153Y-1842211D01*
X6577838Y-1854250D01*
X6572148Y-1867103D01*
X6568186Y-1880565D01*
X6565900Y-1894484D01*
X6565493Y-1908505D01*
X6566814Y-1922525D01*
X6569964Y-1936191D01*
X6574790Y-1949399D01*
X6581292Y-1961896D01*
X6589369Y-1973376D01*
X6598818Y-1983790D01*
X6609486Y-1992934D01*
X6621272Y-2000605D01*
X6633972Y-2006701D01*
X6647281Y-2011121D01*
X6661099Y-2013813D01*
G37*
G36*
X6421120Y-2014728D02*
G01*
X6435140Y-2013813D01*
X6448958Y-2011121D01*
X6462268Y-2006701D01*
X6474968Y-2000605D01*
X6486753Y-1992934D01*
X6497421Y-1983790D01*
X6506870Y-1973376D01*
X6514947Y-1961896D01*
X6521450Y-1949399D01*
X6526276Y-1936191D01*
X6529425Y-1922525D01*
X6530746Y-1908505D01*
X6530340Y-1894484D01*
X6528054Y-1880565D01*
X6524091Y-1867103D01*
X6518402Y-1854250D01*
X6511086Y-1842211D01*
X6502349Y-1831238D01*
X6492240Y-1821484D01*
X6480962Y-1813052D01*
X6468719Y-1806143D01*
X6455714Y-1800860D01*
X6442100Y-1797304D01*
X6428130Y-1795525D01*
X6414109Y-1795525D01*
X6400139Y-1797304D01*
X6386525Y-1800860D01*
X6373520Y-1806143D01*
X6361277Y-1813052D01*
X6350000Y-1821484D01*
X6339890Y-1831238D01*
X6331153Y-1842211D01*
X6323838Y-1854250D01*
X6318148Y-1867103D01*
X6314186Y-1880565D01*
X6311900Y-1894484D01*
X6311493Y-1908505D01*
X6312814Y-1922525D01*
X6315964Y-1936191D01*
X6320790Y-1949399D01*
X6327292Y-1961896D01*
X6335369Y-1973376D01*
X6344818Y-1983790D01*
X6355486Y-1992934D01*
X6367272Y-2000605D01*
X6379972Y-2006701D01*
X6393281Y-2011121D01*
X6407099Y-2013813D01*
G37*
G36*
X325120Y-2014728D02*
G01*
X339140Y-2013813D01*
X352958Y-2011121D01*
X366268Y-2006701D01*
X378968Y-2000605D01*
X390753Y-1992934D01*
X401421Y-1983790D01*
X410870Y-1973376D01*
X418947Y-1961896D01*
X425450Y-1949399D01*
X430276Y-1936191D01*
X433425Y-1922525D01*
X434746Y-1908505D01*
X434340Y-1894484D01*
X432054Y-1880565D01*
X428091Y-1867103D01*
X422401Y-1854250D01*
X415086Y-1842211D01*
X406349Y-1831238D01*
X396240Y-1821484D01*
X384962Y-1813052D01*
X372719Y-1806143D01*
X359714Y-1800860D01*
X346100Y-1797304D01*
X332130Y-1795525D01*
X318109Y-1795525D01*
X304139Y-1797304D01*
X290525Y-1800860D01*
X277520Y-1806143D01*
X265277Y-1813052D01*
X254000Y-1821484D01*
X243890Y-1831238D01*
X235153Y-1842211D01*
X227838Y-1854250D01*
X222148Y-1867103D01*
X218186Y-1880565D01*
X215900Y-1894484D01*
X215493Y-1908505D01*
X216814Y-1922525D01*
X219964Y-1936191D01*
X224790Y-1949399D01*
X231292Y-1961896D01*
X239369Y-1973376D01*
X248818Y-1983790D01*
X259486Y-1992934D01*
X271272Y-2000605D01*
X283972Y-2006701D01*
X297281Y-2011121D01*
X311099Y-2013813D01*
G37*
G36*
X579120Y-2014728D02*
G01*
X593140Y-2013813D01*
X606958Y-2011121D01*
X620268Y-2006701D01*
X632968Y-2000605D01*
X644753Y-1992934D01*
X655421Y-1983790D01*
X664870Y-1973376D01*
X672947Y-1961896D01*
X679450Y-1949399D01*
X684276Y-1936191D01*
X687425Y-1922525D01*
X688746Y-1908505D01*
X688340Y-1894484D01*
X686054Y-1880565D01*
X682091Y-1867103D01*
X676402Y-1854250D01*
X669086Y-1842211D01*
X660349Y-1831238D01*
X650240Y-1821484D01*
X638962Y-1813052D01*
X626719Y-1806143D01*
X613714Y-1800860D01*
X600100Y-1797304D01*
X586130Y-1795525D01*
X572109Y-1795525D01*
X558139Y-1797304D01*
X544525Y-1800860D01*
X531520Y-1806143D01*
X519277Y-1813052D01*
X508000Y-1821484D01*
X497890Y-1831238D01*
X489153Y-1842211D01*
X481838Y-1854250D01*
X476148Y-1867103D01*
X472185Y-1880565D01*
X469900Y-1894484D01*
X469493Y-1908505D01*
X470814Y-1922525D01*
X473964Y-1936191D01*
X478790Y-1949399D01*
X485292Y-1961896D01*
X493369Y-1973376D01*
X502818Y-1983790D01*
X513486Y-1992934D01*
X525272Y-2000605D01*
X537972Y-2006701D01*
X551281Y-2011121D01*
X565099Y-2013813D01*
G37*
G36*
X6675120Y-1760728D02*
G01*
X6689140Y-1759813D01*
X6702958Y-1757121D01*
X6716268Y-1752701D01*
X6728968Y-1746605D01*
X6740753Y-1738934D01*
X6751421Y-1729790D01*
X6760870Y-1719376D01*
X6768947Y-1707896D01*
X6775450Y-1695399D01*
X6780275Y-1682191D01*
X6783425Y-1668525D01*
X6784746Y-1654505D01*
X6784340Y-1640484D01*
X6782053Y-1626565D01*
X6778091Y-1613103D01*
X6772402Y-1600250D01*
X6765086Y-1588211D01*
X6756349Y-1577238D01*
X6746240Y-1567484D01*
X6734962Y-1559052D01*
X6722719Y-1552143D01*
X6709714Y-1546860D01*
X6696100Y-1543304D01*
X6682130Y-1541526D01*
X6668109Y-1541526D01*
X6654139Y-1543304D01*
X6640525Y-1546860D01*
X6627520Y-1552143D01*
X6615277Y-1559052D01*
X6604000Y-1567484D01*
X6593890Y-1577238D01*
X6585153Y-1588211D01*
X6577838Y-1600250D01*
X6572148Y-1613103D01*
X6568186Y-1626565D01*
X6565900Y-1640484D01*
X6565493Y-1654505D01*
X6566814Y-1668525D01*
X6569964Y-1682191D01*
X6574790Y-1695399D01*
X6581292Y-1707896D01*
X6589369Y-1719376D01*
X6598818Y-1729790D01*
X6609486Y-1738934D01*
X6621272Y-1746605D01*
X6633972Y-1752701D01*
X6647281Y-1757121D01*
X6661099Y-1759813D01*
G37*
G36*
X325120Y-1760728D02*
G01*
X339140Y-1759813D01*
X352958Y-1757121D01*
X366268Y-1752701D01*
X378968Y-1746605D01*
X390753Y-1738934D01*
X401421Y-1729790D01*
X410870Y-1719376D01*
X418947Y-1707896D01*
X425450Y-1695399D01*
X430276Y-1682191D01*
X433425Y-1668525D01*
X434746Y-1654505D01*
X434340Y-1640484D01*
X432054Y-1626565D01*
X428091Y-1613103D01*
X422401Y-1600250D01*
X415086Y-1588211D01*
X406349Y-1577238D01*
X396240Y-1567484D01*
X384962Y-1559052D01*
X372719Y-1552143D01*
X359714Y-1546860D01*
X346100Y-1543304D01*
X332130Y-1541526D01*
X318109Y-1541526D01*
X304139Y-1543304D01*
X290525Y-1546860D01*
X277520Y-1552143D01*
X265277Y-1559052D01*
X254000Y-1567484D01*
X243890Y-1577238D01*
X235153Y-1588211D01*
X227838Y-1600250D01*
X222148Y-1613103D01*
X218186Y-1626565D01*
X215900Y-1640484D01*
X215493Y-1654505D01*
X216814Y-1668525D01*
X219964Y-1682191D01*
X224790Y-1695399D01*
X231292Y-1707896D01*
X239369Y-1719376D01*
X248818Y-1729790D01*
X259486Y-1738934D01*
X271272Y-1746605D01*
X283972Y-1752701D01*
X297281Y-1757121D01*
X311099Y-1759813D01*
G37*
G36*
X579120Y-1760728D02*
G01*
X593140Y-1759813D01*
X606958Y-1757121D01*
X620268Y-1752701D01*
X632968Y-1746605D01*
X644753Y-1738934D01*
X655421Y-1729790D01*
X664870Y-1719376D01*
X672947Y-1707896D01*
X679450Y-1695399D01*
X684276Y-1682191D01*
X687425Y-1668525D01*
X688746Y-1654505D01*
X688340Y-1640484D01*
X686054Y-1626565D01*
X682091Y-1613103D01*
X676402Y-1600250D01*
X669086Y-1588211D01*
X660349Y-1577238D01*
X650240Y-1567484D01*
X638962Y-1559052D01*
X626719Y-1552143D01*
X613714Y-1546860D01*
X600100Y-1543304D01*
X586130Y-1541526D01*
X572109Y-1541526D01*
X558139Y-1543304D01*
X544525Y-1546860D01*
X531520Y-1552143D01*
X519277Y-1559052D01*
X508000Y-1567484D01*
X497890Y-1577238D01*
X489153Y-1588211D01*
X481838Y-1600250D01*
X476148Y-1613103D01*
X472185Y-1626565D01*
X469900Y-1640484D01*
X469493Y-1654505D01*
X470814Y-1668525D01*
X473964Y-1682191D01*
X478790Y-1695399D01*
X485292Y-1707896D01*
X493369Y-1719376D01*
X502818Y-1729790D01*
X513486Y-1738934D01*
X525272Y-1746605D01*
X537972Y-1752701D01*
X551281Y-1757121D01*
X565099Y-1759813D01*
G37*
G36*
X6469380Y-1749298D02*
G01*
X6474968Y-1746605D01*
X6486753Y-1738934D01*
X6497421Y-1729790D01*
X6506870Y-1719376D01*
X6514947Y-1707896D01*
X6519418Y-1699260D01*
X6469380Y-1699260D01*
G37*
G36*
X6372860Y-1749298D02*
G01*
X6372860Y-1699260D01*
X6322822Y-1699260D01*
X6327292Y-1707896D01*
X6335369Y-1719376D01*
X6344818Y-1729790D01*
X6355486Y-1738934D01*
X6367272Y-1746605D01*
G37*
G36*
X6322771Y-1602740D02*
G01*
X6372860Y-1602740D01*
X6372860Y-1552549D01*
X6361277Y-1559052D01*
X6350000Y-1567484D01*
X6339890Y-1577238D01*
X6331153Y-1588211D01*
X6323838Y-1600250D01*
G37*
G36*
X6469380Y-1602740D02*
G01*
X6519468Y-1602740D01*
X6518402Y-1600250D01*
X6511086Y-1588211D01*
X6502349Y-1577238D01*
X6492240Y-1567484D01*
X6480962Y-1559052D01*
X6469380Y-1552549D01*
G37*
G36*
X6421120Y-1506728D02*
G01*
X6435140Y-1505813D01*
X6448958Y-1503121D01*
X6462268Y-1498701D01*
X6474968Y-1492605D01*
X6486753Y-1484934D01*
X6497421Y-1475790D01*
X6506870Y-1465376D01*
X6514947Y-1453896D01*
X6521450Y-1441399D01*
X6526276Y-1428191D01*
X6529425Y-1414526D01*
X6530746Y-1400505D01*
X6530340Y-1386484D01*
X6528054Y-1372565D01*
X6524091Y-1359103D01*
X6518402Y-1346250D01*
X6511086Y-1334211D01*
X6502349Y-1323238D01*
X6492240Y-1313484D01*
X6480962Y-1305052D01*
X6468719Y-1298143D01*
X6455714Y-1292860D01*
X6442100Y-1289304D01*
X6428130Y-1287526D01*
X6414109Y-1287526D01*
X6400139Y-1289304D01*
X6386525Y-1292860D01*
X6373520Y-1298143D01*
X6361277Y-1305052D01*
X6350000Y-1313484D01*
X6339890Y-1323238D01*
X6331153Y-1334211D01*
X6323838Y-1346250D01*
X6318148Y-1359103D01*
X6314186Y-1372565D01*
X6311900Y-1386484D01*
X6311493Y-1400505D01*
X6312814Y-1414526D01*
X6315964Y-1428191D01*
X6320790Y-1441399D01*
X6327292Y-1453896D01*
X6335369Y-1465376D01*
X6344818Y-1475790D01*
X6355486Y-1484934D01*
X6367272Y-1492605D01*
X6379972Y-1498701D01*
X6393281Y-1503121D01*
X6407099Y-1505813D01*
G37*
G36*
X6675120Y-1506728D02*
G01*
X6689140Y-1505813D01*
X6702958Y-1503121D01*
X6716268Y-1498701D01*
X6728968Y-1492605D01*
X6740753Y-1484934D01*
X6751421Y-1475790D01*
X6760870Y-1465376D01*
X6768947Y-1453896D01*
X6775450Y-1441399D01*
X6780275Y-1428191D01*
X6783425Y-1414526D01*
X6784746Y-1400505D01*
X6784340Y-1386484D01*
X6782053Y-1372565D01*
X6778091Y-1359103D01*
X6772402Y-1346250D01*
X6765086Y-1334211D01*
X6756349Y-1323238D01*
X6746240Y-1313484D01*
X6734962Y-1305052D01*
X6722719Y-1298143D01*
X6709714Y-1292860D01*
X6696100Y-1289304D01*
X6682130Y-1287526D01*
X6668109Y-1287526D01*
X6654139Y-1289304D01*
X6640525Y-1292860D01*
X6627520Y-1298143D01*
X6615277Y-1305052D01*
X6604000Y-1313484D01*
X6593890Y-1323238D01*
X6585153Y-1334211D01*
X6577838Y-1346250D01*
X6572148Y-1359103D01*
X6568186Y-1372565D01*
X6565900Y-1386484D01*
X6565493Y-1400505D01*
X6566814Y-1414526D01*
X6569964Y-1428191D01*
X6574790Y-1441399D01*
X6581292Y-1453896D01*
X6589369Y-1465376D01*
X6598818Y-1475790D01*
X6609486Y-1484934D01*
X6621272Y-1492605D01*
X6633972Y-1498701D01*
X6647281Y-1503121D01*
X6661099Y-1505813D01*
G37*
G36*
X325120Y-1506728D02*
G01*
X339140Y-1505813D01*
X352958Y-1503121D01*
X366268Y-1498701D01*
X378968Y-1492605D01*
X390753Y-1484934D01*
X401421Y-1475790D01*
X410870Y-1465376D01*
X418947Y-1453896D01*
X425450Y-1441399D01*
X430276Y-1428191D01*
X433425Y-1414526D01*
X434746Y-1400505D01*
X434340Y-1386484D01*
X432054Y-1372565D01*
X428091Y-1359103D01*
X422401Y-1346250D01*
X415086Y-1334211D01*
X406349Y-1323238D01*
X396240Y-1313484D01*
X384962Y-1305052D01*
X372719Y-1298143D01*
X359714Y-1292860D01*
X346100Y-1289304D01*
X332130Y-1287526D01*
X318109Y-1287526D01*
X304139Y-1289304D01*
X290525Y-1292860D01*
X277520Y-1298143D01*
X265277Y-1305052D01*
X254000Y-1313484D01*
X243890Y-1323238D01*
X235153Y-1334211D01*
X227838Y-1346250D01*
X222148Y-1359103D01*
X218186Y-1372565D01*
X215900Y-1386484D01*
X215493Y-1400505D01*
X216814Y-1414526D01*
X219964Y-1428191D01*
X224790Y-1441399D01*
X231292Y-1453896D01*
X239369Y-1465376D01*
X248818Y-1475790D01*
X259486Y-1484934D01*
X271272Y-1492605D01*
X283972Y-1498701D01*
X297281Y-1503121D01*
X311099Y-1505813D01*
G37*
G36*
X627380Y-1495298D02*
G01*
X632968Y-1492605D01*
X644753Y-1484934D01*
X655421Y-1475790D01*
X664870Y-1465376D01*
X672947Y-1453896D01*
X677418Y-1445260D01*
X627380Y-1445260D01*
G37*
G36*
X530860Y-1495298D02*
G01*
X530860Y-1445260D01*
X480822Y-1445260D01*
X485292Y-1453896D01*
X493369Y-1465376D01*
X502818Y-1475790D01*
X513486Y-1484934D01*
X525272Y-1492605D01*
G37*
G36*
X627380Y-1348740D02*
G01*
X677468Y-1348740D01*
X676402Y-1346250D01*
X669086Y-1334211D01*
X660349Y-1323238D01*
X650240Y-1313484D01*
X638962Y-1305052D01*
X627380Y-1298549D01*
G37*
G36*
X480771Y-1348740D02*
G01*
X530860Y-1348740D01*
X530860Y-1298549D01*
X519277Y-1305052D01*
X508000Y-1313484D01*
X497890Y-1323238D01*
X489153Y-1334211D01*
X481838Y-1346250D01*
G37*
G36*
X6421120Y-1252728D02*
G01*
X6435140Y-1251813D01*
X6448958Y-1249121D01*
X6462268Y-1244701D01*
X6474968Y-1238605D01*
X6486753Y-1230934D01*
X6497421Y-1221790D01*
X6506870Y-1211376D01*
X6514947Y-1199896D01*
X6521450Y-1187399D01*
X6526276Y-1174191D01*
X6529425Y-1160526D01*
X6530746Y-1146505D01*
X6530340Y-1132484D01*
X6528054Y-1118565D01*
X6524091Y-1105103D01*
X6518402Y-1092250D01*
X6511086Y-1080211D01*
X6502349Y-1069238D01*
X6492240Y-1059484D01*
X6480962Y-1051052D01*
X6468719Y-1044143D01*
X6455714Y-1038860D01*
X6442100Y-1035303D01*
X6428130Y-1033526D01*
X6414109Y-1033526D01*
X6400139Y-1035303D01*
X6386525Y-1038860D01*
X6373520Y-1044143D01*
X6361277Y-1051052D01*
X6350000Y-1059484D01*
X6339890Y-1069238D01*
X6331153Y-1080211D01*
X6323838Y-1092250D01*
X6318148Y-1105103D01*
X6314186Y-1118565D01*
X6311900Y-1132484D01*
X6311493Y-1146505D01*
X6312814Y-1160526D01*
X6315964Y-1174191D01*
X6320790Y-1187399D01*
X6327292Y-1199896D01*
X6335369Y-1211376D01*
X6344818Y-1221790D01*
X6355486Y-1230934D01*
X6367272Y-1238605D01*
X6379972Y-1244701D01*
X6393281Y-1249121D01*
X6407099Y-1251813D01*
G37*
G36*
X6675120Y-1252728D02*
G01*
X6689140Y-1251813D01*
X6702958Y-1249121D01*
X6716268Y-1244701D01*
X6728968Y-1238605D01*
X6740753Y-1230934D01*
X6751421Y-1221790D01*
X6760870Y-1211376D01*
X6768947Y-1199896D01*
X6775450Y-1187399D01*
X6780275Y-1174191D01*
X6783425Y-1160526D01*
X6784746Y-1146505D01*
X6784340Y-1132484D01*
X6782053Y-1118565D01*
X6778091Y-1105103D01*
X6772402Y-1092250D01*
X6765086Y-1080211D01*
X6756349Y-1069238D01*
X6746240Y-1059484D01*
X6734962Y-1051052D01*
X6722719Y-1044143D01*
X6709714Y-1038860D01*
X6696100Y-1035303D01*
X6682130Y-1033526D01*
X6668109Y-1033526D01*
X6654139Y-1035303D01*
X6640525Y-1038860D01*
X6627520Y-1044143D01*
X6615277Y-1051052D01*
X6604000Y-1059484D01*
X6593890Y-1069238D01*
X6585153Y-1080211D01*
X6577838Y-1092250D01*
X6572148Y-1105103D01*
X6568186Y-1118565D01*
X6565900Y-1132484D01*
X6565493Y-1146505D01*
X6566814Y-1160526D01*
X6569964Y-1174191D01*
X6574790Y-1187399D01*
X6581292Y-1199896D01*
X6589369Y-1211376D01*
X6598818Y-1221790D01*
X6609486Y-1230934D01*
X6621272Y-1238605D01*
X6633972Y-1244701D01*
X6647281Y-1249121D01*
X6661099Y-1251813D01*
G37*
G36*
X325120Y-1252728D02*
G01*
X339140Y-1251813D01*
X352958Y-1249121D01*
X366268Y-1244701D01*
X378968Y-1238605D01*
X390753Y-1230934D01*
X401421Y-1221790D01*
X410870Y-1211376D01*
X418947Y-1199896D01*
X425450Y-1187399D01*
X430276Y-1174191D01*
X433425Y-1160526D01*
X434746Y-1146505D01*
X434340Y-1132484D01*
X432054Y-1118565D01*
X428091Y-1105103D01*
X422401Y-1092250D01*
X415086Y-1080211D01*
X406349Y-1069238D01*
X396240Y-1059484D01*
X384962Y-1051052D01*
X372719Y-1044143D01*
X359714Y-1038860D01*
X346100Y-1035303D01*
X332130Y-1033526D01*
X318109Y-1033526D01*
X304139Y-1035303D01*
X290525Y-1038860D01*
X277520Y-1044143D01*
X265277Y-1051052D01*
X254000Y-1059484D01*
X243890Y-1069238D01*
X235153Y-1080211D01*
X227838Y-1092250D01*
X222148Y-1105103D01*
X218186Y-1118565D01*
X215900Y-1132484D01*
X215493Y-1146505D01*
X216814Y-1160526D01*
X219964Y-1174191D01*
X224790Y-1187399D01*
X231292Y-1199896D01*
X239369Y-1211376D01*
X248818Y-1221790D01*
X259486Y-1230934D01*
X271272Y-1238605D01*
X283972Y-1244701D01*
X297281Y-1249121D01*
X311099Y-1251813D01*
G37*
G36*
X579120Y-1252728D02*
G01*
X593140Y-1251813D01*
X606958Y-1249121D01*
X620268Y-1244701D01*
X632968Y-1238605D01*
X644753Y-1230934D01*
X655421Y-1221790D01*
X664870Y-1211376D01*
X672947Y-1199896D01*
X679450Y-1187399D01*
X684276Y-1174191D01*
X687425Y-1160526D01*
X688746Y-1146505D01*
X688340Y-1132484D01*
X686054Y-1118565D01*
X682091Y-1105103D01*
X676402Y-1092250D01*
X669086Y-1080211D01*
X660349Y-1069238D01*
X650240Y-1059484D01*
X638962Y-1051052D01*
X626719Y-1044143D01*
X613714Y-1038860D01*
X600100Y-1035303D01*
X586130Y-1033526D01*
X572109Y-1033526D01*
X558139Y-1035303D01*
X544525Y-1038860D01*
X531520Y-1044143D01*
X519277Y-1051052D01*
X508000Y-1059484D01*
X497890Y-1069238D01*
X489153Y-1080211D01*
X481838Y-1092250D01*
X476148Y-1105103D01*
X472185Y-1118565D01*
X469900Y-1132484D01*
X469493Y-1146505D01*
X470814Y-1160526D01*
X473964Y-1174191D01*
X478790Y-1187399D01*
X485292Y-1199896D01*
X493369Y-1211376D01*
X502818Y-1221790D01*
X513486Y-1230934D01*
X525272Y-1238605D01*
X537972Y-1244701D01*
X551281Y-1249121D01*
X565099Y-1251813D01*
G37*
G36*
X2594203Y-1118006D02*
G01*
X2607767Y-1116685D01*
X2621026Y-1113485D01*
X2633776Y-1108608D01*
X2645714Y-1102055D01*
X2656687Y-1093978D01*
X2666492Y-1084478D01*
X2674975Y-1073759D01*
X2681935Y-1062024D01*
X2687218Y-1049477D01*
X2690825Y-1036319D01*
X2692654Y-1022807D01*
X2692654Y-1009192D01*
X2690825Y-995680D01*
X2687218Y-982522D01*
X2681935Y-969975D01*
X2674975Y-958240D01*
X2666492Y-947521D01*
X2656687Y-938021D01*
X2645714Y-929944D01*
X2633776Y-923391D01*
X2621026Y-918514D01*
X2607767Y-915314D01*
X2594203Y-913993D01*
X2580589Y-914450D01*
X2567127Y-916686D01*
X2554122Y-920750D01*
X2541727Y-926490D01*
X2530246Y-933805D01*
X2519832Y-942594D01*
X2510688Y-952753D01*
X2502966Y-963980D01*
X2496820Y-976121D01*
X2492349Y-989025D01*
X2489606Y-1002385D01*
X2488692Y-1016000D01*
X2489606Y-1029614D01*
X2492349Y-1042974D01*
X2496820Y-1055878D01*
X2502966Y-1068019D01*
X2510688Y-1079246D01*
X2519832Y-1089406D01*
X2530246Y-1098194D01*
X2541727Y-1105509D01*
X2554122Y-1111250D01*
X2567127Y-1115314D01*
X2580589Y-1117549D01*
G37*
G36*
X2340203Y-1118006D02*
G01*
X2353767Y-1116685D01*
X2367026Y-1113485D01*
X2379776Y-1108608D01*
X2391714Y-1102055D01*
X2402687Y-1093978D01*
X2412492Y-1084478D01*
X2420975Y-1073759D01*
X2427935Y-1062024D01*
X2433218Y-1049477D01*
X2436825Y-1036319D01*
X2438654Y-1022807D01*
X2438654Y-1009192D01*
X2436825Y-995680D01*
X2433218Y-982522D01*
X2427935Y-969975D01*
X2420975Y-958240D01*
X2412492Y-947521D01*
X2402687Y-938021D01*
X2391714Y-929944D01*
X2379776Y-923391D01*
X2367026Y-918514D01*
X2353767Y-915314D01*
X2340203Y-913993D01*
X2326589Y-914450D01*
X2313127Y-916686D01*
X2300122Y-920750D01*
X2287727Y-926490D01*
X2276246Y-933805D01*
X2265832Y-942594D01*
X2256688Y-952753D01*
X2248966Y-963980D01*
X2242820Y-976121D01*
X2238349Y-989025D01*
X2235606Y-1002385D01*
X2234692Y-1016000D01*
X2235606Y-1029614D01*
X2238349Y-1042974D01*
X2242820Y-1055878D01*
X2248966Y-1068019D01*
X2256688Y-1079246D01*
X2265832Y-1089406D01*
X2276246Y-1098194D01*
X2287727Y-1105509D01*
X2300122Y-1111250D01*
X2313127Y-1115314D01*
X2326589Y-1117549D01*
G37*
G36*
X2848203Y-1118006D02*
G01*
X2861767Y-1116685D01*
X2875026Y-1113485D01*
X2887776Y-1108608D01*
X2899714Y-1102055D01*
X2910687Y-1093978D01*
X2920492Y-1084478D01*
X2928975Y-1073759D01*
X2935935Y-1062024D01*
X2941218Y-1049477D01*
X2944825Y-1036319D01*
X2946654Y-1022807D01*
X2946654Y-1009192D01*
X2944825Y-995680D01*
X2941218Y-982522D01*
X2935935Y-969975D01*
X2928975Y-958240D01*
X2920492Y-947521D01*
X2910687Y-938021D01*
X2899714Y-929944D01*
X2887776Y-923391D01*
X2875026Y-918514D01*
X2861767Y-915314D01*
X2848203Y-913993D01*
X2834589Y-914450D01*
X2821127Y-916686D01*
X2808122Y-920750D01*
X2795727Y-926490D01*
X2784246Y-933805D01*
X2773832Y-942594D01*
X2764688Y-952753D01*
X2756966Y-963980D01*
X2750820Y-976121D01*
X2746349Y-989025D01*
X2743606Y-1002385D01*
X2742692Y-1016000D01*
X2743606Y-1029614D01*
X2746349Y-1042974D01*
X2750820Y-1055878D01*
X2756966Y-1068019D01*
X2764688Y-1079246D01*
X2773832Y-1089406D01*
X2784246Y-1098194D01*
X2795727Y-1105509D01*
X2808122Y-1111250D01*
X2821127Y-1115314D01*
X2834589Y-1117549D01*
G37*
G36*
X3143250Y-1107795D02*
G01*
X3153714Y-1102055D01*
X3164687Y-1093978D01*
X3174492Y-1084478D01*
X3182975Y-1073759D01*
X3189935Y-1062024D01*
X3190595Y-1060450D01*
X3143250Y-1060450D01*
G37*
G36*
X3054350Y-1107643D02*
G01*
X3054350Y-1060450D01*
X3007156Y-1060450D01*
X3010966Y-1068019D01*
X3018688Y-1079246D01*
X3027832Y-1089406D01*
X3038246Y-1098194D01*
X3049727Y-1105509D01*
G37*
G36*
X3346958Y-1056640D02*
G01*
X3361486Y-1056640D01*
X3375914Y-1054811D01*
X3390036Y-1051204D01*
X3403549Y-1045870D01*
X3416300Y-1038860D01*
X3428085Y-1030274D01*
X3438702Y-1020318D01*
X3447999Y-1009091D01*
X3455771Y-996848D01*
X3461969Y-983640D01*
X3466490Y-969822D01*
X3469182Y-955497D01*
X3470097Y-941019D01*
X3469182Y-926490D01*
X3466490Y-912164D01*
X3461969Y-898347D01*
X3455771Y-885139D01*
X3447999Y-872896D01*
X3438702Y-861669D01*
X3428085Y-851712D01*
X3416300Y-843127D01*
X3403549Y-836117D01*
X3390036Y-830783D01*
X3375914Y-827176D01*
X3361486Y-825347D01*
X3346958Y-825347D01*
X3332530Y-827176D01*
X3324555Y-829208D01*
X3320592Y-829411D01*
X3316833Y-828090D01*
X3313887Y-825449D01*
X3312160Y-821893D01*
X3311956Y-817930D01*
X3313277Y-814171D01*
X3316935Y-808024D01*
X3322218Y-795477D01*
X3325825Y-782320D01*
X3327654Y-768807D01*
X3327654Y-755192D01*
X3325825Y-741680D01*
X3322218Y-728522D01*
X3316935Y-715975D01*
X3309975Y-704240D01*
X3301492Y-693521D01*
X3291687Y-684022D01*
X3280714Y-675944D01*
X3268776Y-669391D01*
X3256026Y-664514D01*
X3242767Y-661314D01*
X3229203Y-659993D01*
X3215589Y-660450D01*
X3202127Y-662686D01*
X3189122Y-666750D01*
X3176727Y-672490D01*
X3165246Y-679805D01*
X3154832Y-688594D01*
X3145688Y-698754D01*
X3137966Y-709980D01*
X3131820Y-722122D01*
X3127349Y-735025D01*
X3124606Y-748385D01*
X3123692Y-762000D01*
X3124606Y-775614D01*
X3127349Y-788974D01*
X3131820Y-801878D01*
X3137966Y-814019D01*
X3145688Y-825246D01*
X3154832Y-835406D01*
X3165246Y-844194D01*
X3176727Y-851509D01*
X3189122Y-857250D01*
X3202127Y-861314D01*
X3215589Y-863549D01*
X3229203Y-864006D01*
X3242767Y-862685D01*
X3246932Y-861669D01*
X3250895Y-861517D01*
X3254654Y-862939D01*
X3257550Y-865682D01*
X3259175Y-869289D01*
X3259277Y-873302D01*
X3257854Y-877011D01*
X3252673Y-885139D01*
X3246475Y-898347D01*
X3241954Y-912164D01*
X3239262Y-926490D01*
X3238347Y-941019D01*
X3239262Y-955497D01*
X3241954Y-969822D01*
X3246475Y-983640D01*
X3252673Y-996848D01*
X3260445Y-1009091D01*
X3269742Y-1020318D01*
X3280359Y-1030274D01*
X3292144Y-1038860D01*
X3304895Y-1045870D01*
X3318408Y-1051204D01*
X3332530Y-1054811D01*
G37*
G36*
X6675120Y-998728D02*
G01*
X6689140Y-997813D01*
X6702958Y-995121D01*
X6716268Y-990701D01*
X6728968Y-984605D01*
X6740753Y-976934D01*
X6751421Y-967790D01*
X6760870Y-957376D01*
X6768947Y-945896D01*
X6775450Y-933399D01*
X6780275Y-920191D01*
X6783425Y-906526D01*
X6784746Y-892505D01*
X6784340Y-878484D01*
X6782053Y-864565D01*
X6778091Y-851103D01*
X6772402Y-838250D01*
X6765086Y-826211D01*
X6756349Y-815238D01*
X6746240Y-805484D01*
X6734962Y-797052D01*
X6722719Y-790143D01*
X6709714Y-784860D01*
X6696100Y-781304D01*
X6682130Y-779526D01*
X6668109Y-779526D01*
X6654139Y-781304D01*
X6640525Y-784860D01*
X6627520Y-790143D01*
X6615277Y-797052D01*
X6604000Y-805484D01*
X6593890Y-815238D01*
X6585153Y-826211D01*
X6577838Y-838250D01*
X6572148Y-851103D01*
X6568186Y-864565D01*
X6565900Y-878484D01*
X6565493Y-892505D01*
X6566814Y-906526D01*
X6569964Y-920191D01*
X6574790Y-933399D01*
X6581292Y-945896D01*
X6589369Y-957376D01*
X6598818Y-967790D01*
X6609486Y-976934D01*
X6621272Y-984605D01*
X6633972Y-990701D01*
X6647281Y-995121D01*
X6661099Y-997813D01*
G37*
G36*
X6421120Y-998728D02*
G01*
X6435140Y-997813D01*
X6448958Y-995121D01*
X6462268Y-990701D01*
X6474968Y-984605D01*
X6486753Y-976934D01*
X6497421Y-967790D01*
X6506870Y-957376D01*
X6514947Y-945896D01*
X6521450Y-933399D01*
X6526276Y-920191D01*
X6529425Y-906526D01*
X6530746Y-892505D01*
X6530340Y-878484D01*
X6528054Y-864565D01*
X6524091Y-851103D01*
X6518402Y-838250D01*
X6511086Y-826211D01*
X6502349Y-815238D01*
X6492240Y-805484D01*
X6480962Y-797052D01*
X6468719Y-790143D01*
X6455714Y-784860D01*
X6442100Y-781304D01*
X6428130Y-779526D01*
X6414109Y-779526D01*
X6400139Y-781304D01*
X6386525Y-784860D01*
X6373520Y-790143D01*
X6361277Y-797052D01*
X6350000Y-805484D01*
X6339890Y-815238D01*
X6331153Y-826211D01*
X6323838Y-838250D01*
X6318148Y-851103D01*
X6314186Y-864565D01*
X6311900Y-878484D01*
X6311493Y-892505D01*
X6312814Y-906526D01*
X6315964Y-920191D01*
X6320790Y-933399D01*
X6327292Y-945896D01*
X6335369Y-957376D01*
X6344818Y-967790D01*
X6355486Y-976934D01*
X6367272Y-984605D01*
X6379972Y-990701D01*
X6393281Y-995121D01*
X6407099Y-997813D01*
G37*
G36*
X325120Y-998728D02*
G01*
X339140Y-997813D01*
X352958Y-995121D01*
X366268Y-990701D01*
X378968Y-984605D01*
X390753Y-976934D01*
X401421Y-967790D01*
X410870Y-957376D01*
X418947Y-945896D01*
X425450Y-933399D01*
X430276Y-920191D01*
X433425Y-906526D01*
X434746Y-892505D01*
X434340Y-878484D01*
X432054Y-864565D01*
X428091Y-851103D01*
X422401Y-838250D01*
X415086Y-826211D01*
X406349Y-815238D01*
X396240Y-805484D01*
X384962Y-797052D01*
X372719Y-790143D01*
X359714Y-784860D01*
X346100Y-781304D01*
X332130Y-779526D01*
X318109Y-779526D01*
X304139Y-781304D01*
X290525Y-784860D01*
X277520Y-790143D01*
X265277Y-797052D01*
X254000Y-805484D01*
X243890Y-815238D01*
X235153Y-826211D01*
X227838Y-838250D01*
X222148Y-851103D01*
X218186Y-864565D01*
X215900Y-878484D01*
X215493Y-892505D01*
X216814Y-906526D01*
X219964Y-920191D01*
X224790Y-933399D01*
X231292Y-945896D01*
X239369Y-957376D01*
X248818Y-967790D01*
X259486Y-976934D01*
X271272Y-984605D01*
X283972Y-990701D01*
X297281Y-995121D01*
X311099Y-997813D01*
G37*
G36*
X579120Y-998728D02*
G01*
X593140Y-997813D01*
X606958Y-995121D01*
X620268Y-990701D01*
X632968Y-984605D01*
X644753Y-976934D01*
X655421Y-967790D01*
X664870Y-957376D01*
X672947Y-945896D01*
X679450Y-933399D01*
X684276Y-920191D01*
X687425Y-906526D01*
X688746Y-892505D01*
X688340Y-878484D01*
X686054Y-864565D01*
X682091Y-851103D01*
X676402Y-838250D01*
X669086Y-826211D01*
X660349Y-815238D01*
X650240Y-805484D01*
X638962Y-797052D01*
X626719Y-790143D01*
X613714Y-784860D01*
X600100Y-781304D01*
X586130Y-779526D01*
X572109Y-779526D01*
X558139Y-781304D01*
X544525Y-784860D01*
X531520Y-790143D01*
X519277Y-797052D01*
X508000Y-805484D01*
X497890Y-815238D01*
X489153Y-826211D01*
X481838Y-838250D01*
X476148Y-851103D01*
X472185Y-864565D01*
X469900Y-878484D01*
X469493Y-892505D01*
X470814Y-906526D01*
X473964Y-920191D01*
X478790Y-933399D01*
X485292Y-945896D01*
X493369Y-957376D01*
X502818Y-967790D01*
X513486Y-976934D01*
X525272Y-984605D01*
X537972Y-990701D01*
X551281Y-995121D01*
X565099Y-997813D01*
G37*
G36*
X3007156Y-971550D02*
G01*
X3054350Y-971550D01*
X3054350Y-924356D01*
X3049727Y-926490D01*
X3038246Y-933805D01*
X3027832Y-942594D01*
X3018688Y-952753D01*
X3010966Y-963980D01*
G37*
G36*
X3143250Y-971550D02*
G01*
X3190595Y-971550D01*
X3189935Y-969975D01*
X3182975Y-958240D01*
X3174492Y-947521D01*
X3164687Y-938021D01*
X3153714Y-929944D01*
X3143250Y-924204D01*
G37*
G36*
X2975203Y-864006D02*
G01*
X2988767Y-862685D01*
X3002026Y-859485D01*
X3014776Y-854608D01*
X3026714Y-848055D01*
X3037687Y-839978D01*
X3047492Y-830478D01*
X3055975Y-819759D01*
X3062935Y-808024D01*
X3068218Y-795477D01*
X3071825Y-782320D01*
X3073654Y-768807D01*
X3073654Y-755192D01*
X3071825Y-741680D01*
X3068218Y-728522D01*
X3062935Y-715975D01*
X3055975Y-704240D01*
X3047492Y-693521D01*
X3037687Y-684022D01*
X3026714Y-675944D01*
X3014776Y-669391D01*
X3002026Y-664514D01*
X2988767Y-661314D01*
X2975203Y-659993D01*
X2961589Y-660450D01*
X2948127Y-662686D01*
X2935122Y-666750D01*
X2922727Y-672490D01*
X2911246Y-679805D01*
X2900832Y-688594D01*
X2891688Y-698754D01*
X2883966Y-709980D01*
X2877820Y-722122D01*
X2873349Y-735025D01*
X2870606Y-748385D01*
X2869692Y-762000D01*
X2870606Y-775614D01*
X2873349Y-788974D01*
X2877820Y-801878D01*
X2883966Y-814019D01*
X2891688Y-825246D01*
X2900832Y-835406D01*
X2911246Y-844194D01*
X2922727Y-851509D01*
X2935122Y-857250D01*
X2948127Y-861314D01*
X2961589Y-863549D01*
G37*
G36*
X2721203Y-864006D02*
G01*
X2734767Y-862685D01*
X2748026Y-859485D01*
X2760776Y-854608D01*
X2772714Y-848055D01*
X2783687Y-839978D01*
X2793492Y-830478D01*
X2801975Y-819759D01*
X2808935Y-808024D01*
X2814218Y-795477D01*
X2817825Y-782320D01*
X2819654Y-768807D01*
X2819654Y-755192D01*
X2817825Y-741680D01*
X2814218Y-728522D01*
X2808935Y-715975D01*
X2801975Y-704240D01*
X2793492Y-693521D01*
X2783687Y-684022D01*
X2772714Y-675944D01*
X2760776Y-669391D01*
X2748026Y-664514D01*
X2734767Y-661314D01*
X2721203Y-659993D01*
X2707589Y-660450D01*
X2694127Y-662686D01*
X2681122Y-666750D01*
X2668727Y-672490D01*
X2657246Y-679805D01*
X2646832Y-688594D01*
X2637688Y-698754D01*
X2629966Y-709980D01*
X2623820Y-722122D01*
X2619349Y-735025D01*
X2616606Y-748385D01*
X2615692Y-762000D01*
X2616606Y-775614D01*
X2619349Y-788974D01*
X2623820Y-801878D01*
X2629966Y-814019D01*
X2637688Y-825246D01*
X2646832Y-835406D01*
X2657246Y-844194D01*
X2668727Y-851509D01*
X2681122Y-857250D01*
X2694127Y-861314D01*
X2707589Y-863549D01*
G37*
G36*
X2467203Y-864006D02*
G01*
X2480767Y-862685D01*
X2494026Y-859485D01*
X2506776Y-854608D01*
X2518714Y-848055D01*
X2529687Y-839978D01*
X2539492Y-830478D01*
X2547975Y-819759D01*
X2554935Y-808024D01*
X2560218Y-795477D01*
X2563825Y-782320D01*
X2565654Y-768807D01*
X2565654Y-755192D01*
X2563825Y-741680D01*
X2560218Y-728522D01*
X2554935Y-715975D01*
X2547975Y-704240D01*
X2539492Y-693521D01*
X2529687Y-684022D01*
X2518714Y-675944D01*
X2506776Y-669391D01*
X2494026Y-664514D01*
X2480767Y-661314D01*
X2467203Y-659993D01*
X2453589Y-660450D01*
X2440127Y-662686D01*
X2427122Y-666750D01*
X2414727Y-672490D01*
X2403246Y-679805D01*
X2392832Y-688594D01*
X2383688Y-698754D01*
X2375966Y-709980D01*
X2369820Y-722122D01*
X2365349Y-735025D01*
X2362606Y-748385D01*
X2361692Y-762000D01*
X2362606Y-775614D01*
X2365349Y-788974D01*
X2369820Y-801878D01*
X2375966Y-814019D01*
X2383688Y-825246D01*
X2392832Y-835406D01*
X2403246Y-844194D01*
X2414727Y-851509D01*
X2427122Y-857250D01*
X2440127Y-861314D01*
X2453589Y-863549D01*
G37*
G36*
X6675120Y-744728D02*
G01*
X6689140Y-743813D01*
X6702958Y-741121D01*
X6716268Y-736701D01*
X6728968Y-730605D01*
X6740753Y-722934D01*
X6751421Y-713790D01*
X6760870Y-703376D01*
X6768947Y-691896D01*
X6775450Y-679399D01*
X6780275Y-666191D01*
X6783425Y-652526D01*
X6784746Y-638505D01*
X6784340Y-624484D01*
X6782053Y-610565D01*
X6778091Y-597103D01*
X6772402Y-584250D01*
X6765086Y-572211D01*
X6756349Y-561238D01*
X6746240Y-551484D01*
X6734962Y-543052D01*
X6722719Y-536143D01*
X6709714Y-530860D01*
X6696100Y-527304D01*
X6682130Y-525526D01*
X6668109Y-525526D01*
X6654139Y-527304D01*
X6640525Y-530860D01*
X6627520Y-536143D01*
X6615277Y-543052D01*
X6604000Y-551484D01*
X6593890Y-561238D01*
X6585153Y-572211D01*
X6577838Y-584250D01*
X6572148Y-597103D01*
X6568186Y-610565D01*
X6565900Y-624484D01*
X6565493Y-638505D01*
X6566814Y-652526D01*
X6569964Y-666191D01*
X6574790Y-679399D01*
X6581292Y-691896D01*
X6589369Y-703376D01*
X6598818Y-713790D01*
X6609486Y-722934D01*
X6621272Y-730605D01*
X6633972Y-736701D01*
X6647281Y-741121D01*
X6661099Y-743813D01*
G37*
G36*
X579120Y-744728D02*
G01*
X593140Y-743813D01*
X606958Y-741121D01*
X620268Y-736701D01*
X632968Y-730605D01*
X644753Y-722934D01*
X655421Y-713790D01*
X664870Y-703376D01*
X672947Y-691896D01*
X679450Y-679399D01*
X684276Y-666191D01*
X687425Y-652526D01*
X688746Y-638505D01*
X688340Y-624484D01*
X686054Y-610565D01*
X682091Y-597103D01*
X676402Y-584250D01*
X669086Y-572211D01*
X660349Y-561238D01*
X650240Y-551484D01*
X638962Y-543052D01*
X626719Y-536143D01*
X613714Y-530860D01*
X600100Y-527304D01*
X586130Y-525526D01*
X572109Y-525526D01*
X558139Y-527304D01*
X544525Y-530860D01*
X531520Y-536143D01*
X519277Y-543052D01*
X508000Y-551484D01*
X497890Y-561238D01*
X489153Y-572211D01*
X481838Y-584250D01*
X476148Y-597103D01*
X472185Y-610565D01*
X469900Y-624484D01*
X469493Y-638505D01*
X470814Y-652526D01*
X473964Y-666191D01*
X478790Y-679399D01*
X485292Y-691896D01*
X493369Y-703376D01*
X502818Y-713790D01*
X513486Y-722934D01*
X525272Y-730605D01*
X537972Y-736701D01*
X551281Y-741121D01*
X565099Y-743813D01*
G37*
G36*
X241858Y-744728D02*
G01*
X408381Y-744728D01*
X414680Y-744016D01*
X420166Y-742086D01*
X425043Y-739038D01*
X429158Y-734923D01*
X432206Y-730046D01*
X434136Y-724560D01*
X434848Y-718261D01*
X434848Y-551738D01*
X434136Y-545439D01*
X432206Y-539953D01*
X429158Y-535076D01*
X425043Y-530961D01*
X420166Y-527913D01*
X414680Y-525983D01*
X408381Y-525272D01*
X241858Y-525272D01*
X235559Y-525983D01*
X230073Y-527913D01*
X225196Y-530961D01*
X221081Y-535076D01*
X218033Y-539953D01*
X216103Y-545439D01*
X215392Y-551738D01*
X215392Y-718261D01*
X216103Y-724560D01*
X218033Y-730046D01*
X221081Y-734923D01*
X225196Y-739038D01*
X230073Y-742086D01*
X235559Y-744016D01*
G37*
G36*
X6337858Y-744728D02*
G01*
X6504381Y-744728D01*
X6510680Y-744016D01*
X6516166Y-742086D01*
X6521043Y-739038D01*
X6525158Y-734923D01*
X6528206Y-730046D01*
X6530136Y-724560D01*
X6530848Y-718261D01*
X6530848Y-551738D01*
X6530136Y-545439D01*
X6528206Y-539953D01*
X6525158Y-535076D01*
X6521043Y-530961D01*
X6516166Y-527913D01*
X6510680Y-525983D01*
X6504381Y-525272D01*
X6337858Y-525272D01*
X6331559Y-525983D01*
X6326073Y-527913D01*
X6321196Y-530961D01*
X6317081Y-535076D01*
X6314033Y-539953D01*
X6312103Y-545439D01*
X6311392Y-551738D01*
X6311392Y-718261D01*
X6312103Y-724560D01*
X6314033Y-730046D01*
X6317081Y-734923D01*
X6321196Y-739038D01*
X6326073Y-742086D01*
X6331559Y-744016D01*
G37*

%LPD*%
D10*
X6057887Y-3924292D02*
G01*
X6172187Y-3809992D01*
X6464287Y-3809992D01*
X6548112Y-3809992D01*
X6675120Y-3937000D01*
D11*
G01*
X3098800Y-1016000D03*
G01*
X3225800Y-762000D03*
G01*
X2844800Y-1016000D03*
G01*
X2971800Y-762000D03*
G01*
X2590800Y-1016000D03*
G01*
X2717800Y-762000D03*
G01*
X2336800Y-1016000D03*
G01*
X2463800Y-762000D03*
G01*
X3098800Y-5080000D03*
G01*
X3225800Y-4826000D03*
G01*
X2844800Y-5080000D03*
G01*
X2971800Y-4826000D03*
G01*
X2590800Y-5080000D03*
G01*
X2717800Y-4826000D03*
G01*
X2336800Y-5080000D03*
G01*
X2463800Y-4826000D03*
G01*
X3098800Y-3048000D03*
G01*
X3225800Y-2794000D03*
G01*
X2844800Y-3048000D03*
G01*
X2971800Y-2794000D03*
G01*
X2590800Y-3048000D03*
G01*
X2717800Y-2794000D03*
G01*
X2336800Y-3048000D03*
G01*
X2463800Y-2794000D03*
D12*
G01*
X6421120Y-5207000D03*
G01*
X6675120Y-5207000D03*
G01*
X579120Y-5207000D03*
G01*
X325120Y-5207000D03*
G01*
X579120Y-4953000D03*
G01*
X325120Y-4953000D03*
G01*
X325120Y-4699000D03*
G01*
X579120Y-4699000D03*
G01*
X325120Y-4445000D03*
G01*
X579120Y-4445000D03*
G01*
X579120Y-4191000D03*
G01*
X325120Y-4191000D03*
G01*
X579120Y-3937000D03*
G01*
X325120Y-3937000D03*
G01*
X579120Y-3683000D03*
G01*
X325120Y-3683000D03*
G01*
X325120Y-3429000D03*
G01*
X579120Y-3429000D03*
G01*
X325120Y-3175000D03*
G01*
X579120Y-3175000D03*
G01*
X579120Y-2921000D03*
G01*
X325120Y-2921000D03*
G01*
X579120Y-2667000D03*
G01*
X325120Y-2667000D03*
G01*
X579120Y-2413000D03*
G01*
X325120Y-2413000D03*
G01*
X325120Y-2159000D03*
G01*
X579120Y-2159000D03*
G01*
X325120Y-1905000D03*
G01*
X579120Y-1905000D03*
G01*
X579120Y-1651000D03*
G01*
X325120Y-1651000D03*
G01*
X6675120Y-4953000D03*
G01*
X6421120Y-4953000D03*
G01*
X6675120Y-4699000D03*
G01*
X6421120Y-4699000D03*
G01*
X6421120Y-4445000D03*
G01*
X6675120Y-4445000D03*
G01*
X6421120Y-4191000D03*
G01*
X6675120Y-4191000D03*
G01*
X6675120Y-3937000D03*
G01*
X6421120Y-3937000D03*
G01*
X6675120Y-3683000D03*
G01*
X6421120Y-3683000D03*
G01*
X6675120Y-3429000D03*
G01*
X6421120Y-3429000D03*
G01*
X6421120Y-3175000D03*
G01*
X6675120Y-3175000D03*
G01*
X6421120Y-2921000D03*
G01*
X6675120Y-2921000D03*
G01*
X6675120Y-2667000D03*
G01*
X6421120Y-2667000D03*
G01*
X6675120Y-2413000D03*
G01*
X6421120Y-2413000D03*
G01*
X6675120Y-2159000D03*
G01*
X6421120Y-2159000D03*
G01*
X6421120Y-1905000D03*
G01*
X6675120Y-1905000D03*
G01*
X6421120Y-1651000D03*
G01*
X6675120Y-1651000D03*
G01*
X6675120Y-1397000D03*
G01*
X6421120Y-1397000D03*
G01*
X6675120Y-1143000D03*
G01*
X6421120Y-1143000D03*
G01*
X6675120Y-889000D03*
G01*
X6421120Y-889000D03*
D13*
G01*
X6421120Y-635000D03*
D12*
G01*
X6675120Y-635000D03*
G01*
X579120Y-1397000D03*
G01*
X325120Y-1397000D03*
G01*
X579120Y-1143000D03*
G01*
X325120Y-1143000D03*
G01*
X325120Y-889000D03*
G01*
X579120Y-889000D03*
D13*
G01*
X325120Y-635000D03*
D12*
G01*
X579120Y-635000D03*
D14*
G01*
X4133850Y-635000D03*
G01*
X5308600Y-635000D03*
G01*
X1689100Y-1873250D03*
G01*
X1943100Y-4127500D03*
G01*
X5334000Y-2844800D03*
G01*
X4387850Y-2698750D03*
G01*
X3848100Y-4127500D03*
G01*
X1085850Y-5048250D03*
G01*
X1397000Y-2743200D03*
G01*
X4927600Y-5016500D03*
G01*
X5975350Y-4984750D03*
G01*
X990600Y-762000D03*
G01*
X5784850Y-1619250D03*
G01*
X6057900Y-3924300D03*
M02*
