G04 Layer: BottomSolderMaskLayer*
G04 EasyEDA v6.5.5, 2022-06-13 17:54:21*
G04 c5cfb43cd74343219a89ec962efd3502,ba36109c29484f4592bc09a740c48d70,10*
G04 Gerber Generator version 0.2*
G04 Scale: 100 percent, Rotated: No, Reflected: No *
G04 Dimensions in millimeters *
G04 leading zeros omitted , absolute positions ,4 integer and 5 decimal *
%FSLAX45Y45*%
%MOMM*%

%ADD20C,1.9032*%
%ADD22C,1.8796*%

%LPD*%
D20*
G01*
X2209800Y-764031D03*
G01*
X2463800Y-764031D03*
G01*
X2717800Y-764031D03*
G01*
X2971800Y-764031D03*
G01*
X2082800Y-1013968D03*
G01*
X2336800Y-1013968D03*
G01*
X2590800Y-1013968D03*
G01*
X2844800Y-1013968D03*
G36*
X3140709Y-859281D02*
G01*
X3137661Y-858773D01*
X3134613Y-857250D01*
X3132581Y-855218D01*
X3131057Y-852170D01*
X3130549Y-849121D01*
X3130550Y-849121D01*
X3130550Y-678942D01*
X3130549Y-678942D01*
X3131057Y-675894D01*
X3132581Y-672845D01*
X3134613Y-670813D01*
X3137661Y-669289D01*
X3140709Y-668781D01*
X3310890Y-668781D01*
X3313938Y-669289D01*
X3316986Y-670813D01*
X3319018Y-672845D01*
X3320542Y-675894D01*
X3321050Y-678942D01*
X3321050Y-678942D01*
X3321050Y-849121D01*
X3321050Y-849121D01*
X3320542Y-852170D01*
X3319018Y-855218D01*
X3316986Y-857250D01*
X3313938Y-858773D01*
X3310890Y-859281D01*
G37*
G01*
X3098800Y-1013968D03*
G01*
X2209800Y-4828031D03*
G01*
X2463800Y-4828031D03*
G01*
X2717800Y-4828031D03*
G01*
X2971800Y-4828031D03*
G01*
X2082800Y-5077968D03*
G01*
X2336800Y-5077968D03*
G01*
X2590800Y-5077968D03*
G01*
X2844800Y-5077968D03*
G36*
X3140709Y-4923281D02*
G01*
X3137661Y-4922773D01*
X3134613Y-4921250D01*
X3132581Y-4919218D01*
X3131057Y-4916170D01*
X3130549Y-4913121D01*
X3130550Y-4913121D01*
X3130550Y-4742942D01*
X3130549Y-4742942D01*
X3131057Y-4739894D01*
X3132581Y-4736845D01*
X3134613Y-4734813D01*
X3137661Y-4733289D01*
X3140709Y-4732781D01*
X3310890Y-4732781D01*
X3313938Y-4733289D01*
X3316986Y-4734813D01*
X3319018Y-4736845D01*
X3320542Y-4739894D01*
X3321050Y-4742942D01*
X3321050Y-4742942D01*
X3321050Y-4913121D01*
X3321050Y-4913121D01*
X3320542Y-4916170D01*
X3319018Y-4919218D01*
X3316986Y-4921250D01*
X3313938Y-4922773D01*
X3310890Y-4923281D01*
G37*
G01*
X3098800Y-5077968D03*
D22*
G01*
X6421120Y-5207000D03*
G01*
X6675120Y-5207000D03*
G01*
X579120Y-5207000D03*
G01*
X325120Y-5207000D03*
G01*
X579120Y-4953000D03*
G01*
X325120Y-4953000D03*
G01*
X325120Y-4699000D03*
G01*
X579120Y-4699000D03*
G01*
X325120Y-4445000D03*
G01*
X579120Y-4445000D03*
G01*
X579120Y-4191000D03*
G01*
X325120Y-4191000D03*
G01*
X579120Y-3937000D03*
G01*
X325120Y-3937000D03*
G01*
X579120Y-3683000D03*
G01*
X325120Y-3683000D03*
G01*
X325120Y-3429000D03*
G01*
X579120Y-3429000D03*
G01*
X325120Y-3175000D03*
G01*
X579120Y-3175000D03*
G01*
X579120Y-2921000D03*
G01*
X325120Y-2921000D03*
G01*
X579120Y-2667000D03*
G01*
X325120Y-2667000D03*
G01*
X579120Y-2413000D03*
G01*
X325120Y-2413000D03*
G01*
X325120Y-2159000D03*
G01*
X579120Y-2159000D03*
G01*
X325120Y-1905000D03*
G01*
X579120Y-1905000D03*
G01*
X579120Y-1651000D03*
G01*
X325120Y-1651000D03*
G01*
X6675120Y-4953000D03*
G01*
X6421120Y-4953000D03*
G01*
X6675120Y-4699000D03*
G01*
X6421120Y-4699000D03*
G01*
X6421120Y-4445000D03*
G01*
X6675120Y-4445000D03*
G01*
X6421120Y-4191000D03*
G01*
X6675120Y-4191000D03*
G01*
X6675120Y-3937000D03*
G01*
X6421120Y-3937000D03*
G01*
X6675120Y-3683000D03*
G01*
X6421120Y-3683000D03*
G01*
X6675120Y-3429000D03*
G01*
X6421120Y-3429000D03*
G01*
X6421120Y-3175000D03*
G01*
X6675120Y-3175000D03*
G01*
X6421120Y-2921000D03*
G01*
X6675120Y-2921000D03*
G01*
X6675120Y-2667000D03*
G01*
X6421120Y-2667000D03*
G01*
X6675120Y-2413000D03*
G01*
X6421120Y-2413000D03*
G01*
X6675120Y-2159000D03*
G01*
X6421120Y-2159000D03*
G01*
X6421120Y-1905000D03*
G01*
X6675120Y-1905000D03*
G01*
X6421120Y-1651000D03*
G01*
X6675120Y-1651000D03*
G01*
X6675120Y-1397000D03*
G01*
X6421120Y-1397000D03*
G01*
X6675120Y-1143000D03*
G01*
X6421120Y-1143000D03*
G01*
X6675120Y-889000D03*
G01*
X6421120Y-889000D03*
G36*
X6337300Y-728979D02*
G01*
X6334252Y-728471D01*
X6331204Y-726947D01*
X6329172Y-724915D01*
X6327647Y-721868D01*
X6327140Y-718820D01*
X6327140Y-551179D01*
X6327647Y-548131D01*
X6329172Y-545084D01*
X6331204Y-543052D01*
X6334252Y-541528D01*
X6337300Y-541020D01*
X6504940Y-541020D01*
X6507988Y-541528D01*
X6511036Y-543052D01*
X6513068Y-545084D01*
X6514592Y-548131D01*
X6515100Y-551179D01*
X6515100Y-551179D01*
X6515100Y-718820D01*
X6515100Y-718820D01*
X6514592Y-721868D01*
X6513068Y-724915D01*
X6511036Y-726947D01*
X6507988Y-728471D01*
X6504940Y-728979D01*
G37*
G01*
X6675120Y-635000D03*
G01*
X579120Y-1397000D03*
G01*
X325120Y-1397000D03*
G01*
X579120Y-1143000D03*
G01*
X325120Y-1143000D03*
G01*
X325120Y-889000D03*
G01*
X579120Y-889000D03*
G36*
X241300Y-728979D02*
G01*
X238252Y-728471D01*
X235204Y-726947D01*
X233171Y-724915D01*
X231647Y-721868D01*
X231139Y-718820D01*
X231139Y-551179D01*
X231647Y-548131D01*
X233171Y-545084D01*
X235204Y-543052D01*
X238252Y-541528D01*
X241300Y-541020D01*
X408939Y-541020D01*
X411987Y-541528D01*
X415036Y-543052D01*
X417068Y-545084D01*
X418592Y-548131D01*
X419100Y-551179D01*
X419100Y-718820D01*
X418592Y-721868D01*
X417068Y-724915D01*
X415036Y-726947D01*
X411987Y-728471D01*
X408939Y-728979D01*
G37*
G01*
X579120Y-635000D03*
D20*
G01*
X2209800Y-2796031D03*
G01*
X2463800Y-2796031D03*
G01*
X2717800Y-2796031D03*
G01*
X2971800Y-2796031D03*
G01*
X2082800Y-3045968D03*
G01*
X2336800Y-3045968D03*
G01*
X2590800Y-3045968D03*
G01*
X2844800Y-3045968D03*
G36*
X3140709Y-2891281D02*
G01*
X3137661Y-2890773D01*
X3134613Y-2889250D01*
X3132581Y-2887218D01*
X3131057Y-2884170D01*
X3130549Y-2881121D01*
X3130550Y-2881121D01*
X3130550Y-2710942D01*
X3130549Y-2710942D01*
X3131057Y-2707894D01*
X3132581Y-2704845D01*
X3134613Y-2702813D01*
X3137661Y-2701289D01*
X3140709Y-2700781D01*
X3310890Y-2700781D01*
X3313938Y-2701289D01*
X3316986Y-2702813D01*
X3319018Y-2704845D01*
X3320542Y-2707894D01*
X3321050Y-2710942D01*
X3321050Y-2710942D01*
X3321050Y-2881121D01*
X3321050Y-2881121D01*
X3320542Y-2884170D01*
X3319018Y-2887218D01*
X3316986Y-2889250D01*
X3313938Y-2890773D01*
X3310890Y-2891281D01*
G37*
G01*
X3098800Y-3045968D03*
M02*
