G04 Layer: TopSolderMaskLayer*
G04 EasyEDA v6.5.23, 2023-04-24 08:47:35*
G04 b98df09fb3ff4a869318f982f178de83,ba36109c29484f4592bc09a740c48d70,10*
G04 Gerber Generator version 0.2*
G04 Scale: 100 percent, Rotated: No, Reflected: No *
G04 Dimensions in millimeters *
G04 leading zeros omitted , absolute positions ,4 integer and 5 decimal *
%FSLAX45Y45*%
%MOMM*%

%AMMACRO1*1,1,$1,$2,$3*1,1,$1,$4,$5*1,1,$1,0-$2,0-$3*1,1,$1,0-$4,0-$5*20,1,$1,$2,$3,$4,$5,0*20,1,$1,$4,$5,0-$2,0-$3,0*20,1,$1,0-$2,0-$3,0-$4,0-$5,0*20,1,$1,0-$4,0-$5,$2,$3,0*4,1,4,$2,$3,$4,$5,0-$2,0-$3,0-$4,0-$5,$2,$3,0*%
%ADD10C,1.7272*%
%ADD11C,1.8796*%
%ADD12MACRO1,0.2032X0.8382X0.8382X0.8382X-0.8382*%

%LPD*%
D10*
G01*
X3098800Y-1016000D03*
G01*
X3225800Y-762000D03*
G01*
X2844800Y-1016000D03*
G01*
X2971800Y-762000D03*
G01*
X2590800Y-1016000D03*
G01*
X2717800Y-762000D03*
G01*
X2336800Y-1016000D03*
G01*
X2463800Y-762000D03*
G01*
X3098800Y-5080000D03*
G01*
X3225800Y-4826000D03*
G01*
X2844800Y-5080000D03*
G01*
X2971800Y-4826000D03*
G01*
X2590800Y-5080000D03*
G01*
X2717800Y-4826000D03*
G01*
X2336800Y-5080000D03*
G01*
X2463800Y-4826000D03*
G01*
X3098800Y-3048000D03*
G01*
X3225800Y-2794000D03*
G01*
X2844800Y-3048000D03*
G01*
X2971800Y-2794000D03*
G01*
X2590800Y-3048000D03*
G01*
X2717800Y-2794000D03*
G01*
X2336800Y-3048000D03*
G01*
X2463800Y-2794000D03*
D11*
G01*
X6421120Y-5207000D03*
G01*
X6675120Y-5207000D03*
G01*
X579120Y-5207000D03*
G01*
X325120Y-5207000D03*
G01*
X579120Y-4953000D03*
G01*
X325120Y-4953000D03*
G01*
X325120Y-4699000D03*
G01*
X579120Y-4699000D03*
G01*
X325120Y-4445000D03*
G01*
X579120Y-4445000D03*
G01*
X579120Y-4191000D03*
G01*
X325120Y-4191000D03*
G01*
X579120Y-3937000D03*
G01*
X325120Y-3937000D03*
G01*
X579120Y-3683000D03*
G01*
X325120Y-3683000D03*
G01*
X325120Y-3429000D03*
G01*
X579120Y-3429000D03*
G01*
X325120Y-3175000D03*
G01*
X579120Y-3175000D03*
G01*
X579120Y-2921000D03*
G01*
X325120Y-2921000D03*
G01*
X579120Y-2667000D03*
G01*
X325120Y-2667000D03*
G01*
X579120Y-2413000D03*
G01*
X325120Y-2413000D03*
G01*
X325120Y-2159000D03*
G01*
X579120Y-2159000D03*
G01*
X325120Y-1905000D03*
G01*
X579120Y-1905000D03*
G01*
X579120Y-1651000D03*
G01*
X325120Y-1651000D03*
G01*
X6675120Y-4953000D03*
G01*
X6421120Y-4953000D03*
G01*
X6675120Y-4699000D03*
G01*
X6421120Y-4699000D03*
G01*
X6421120Y-4445000D03*
G01*
X6675120Y-4445000D03*
G01*
X6421120Y-4191000D03*
G01*
X6675120Y-4191000D03*
G01*
X6675120Y-3937000D03*
G01*
X6421120Y-3937000D03*
G01*
X6675120Y-3683000D03*
G01*
X6421120Y-3683000D03*
G01*
X6675120Y-3429000D03*
G01*
X6421120Y-3429000D03*
G01*
X6421120Y-3175000D03*
G01*
X6675120Y-3175000D03*
G01*
X6421120Y-2921000D03*
G01*
X6675120Y-2921000D03*
G01*
X6675120Y-2667000D03*
G01*
X6421120Y-2667000D03*
G01*
X6675120Y-2413000D03*
G01*
X6421120Y-2413000D03*
G01*
X6675120Y-2159000D03*
G01*
X6421120Y-2159000D03*
G01*
X6421120Y-1905000D03*
G01*
X6675120Y-1905000D03*
G01*
X6421120Y-1651000D03*
G01*
X6675120Y-1651000D03*
G01*
X6675120Y-1397000D03*
G01*
X6421120Y-1397000D03*
G01*
X6675120Y-1143000D03*
G01*
X6421120Y-1143000D03*
G01*
X6675120Y-889000D03*
G01*
X6421120Y-889000D03*
D12*
G01*
X6421120Y-635000D03*
D11*
G01*
X6675120Y-635000D03*
G01*
X579120Y-1397000D03*
G01*
X325120Y-1397000D03*
G01*
X579120Y-1143000D03*
G01*
X325120Y-1143000D03*
G01*
X325120Y-889000D03*
G01*
X579120Y-889000D03*
D12*
G01*
X325119Y-635000D03*
D11*
G01*
X579120Y-635000D03*
M02*
