G04 Layer: TopSilkscreenLayer*
G04 EasyEDA v6.5.5, 2022-06-13 17:54:21*
G04 c5cfb43cd74343219a89ec962efd3502,ba36109c29484f4592bc09a740c48d70,10*
G04 Gerber Generator version 0.2*
G04 Scale: 100 percent, Rotated: No, Reflected: No *
G04 Dimensions in millimeters *
G04 leading zeros omitted , absolute positions ,4 integer and 5 decimal *
%FSLAX45Y45*%
%MOMM*%

%ADD10C,0.2540*%
%ADD17C,0.2000*%
%ADD18C,0.2032*%
%ADD19C,0.1778*%

%LPD*%
D18*
X2228850Y-1778000D02*
G01*
X2228850Y-1971802D01*
X2228850Y-1778000D02*
G01*
X2311908Y-1778000D01*
X2339593Y-1787144D01*
X2348991Y-1796287D01*
X2358136Y-1814829D01*
X2358136Y-1833371D01*
X2348991Y-1851913D01*
X2339593Y-1861057D01*
X2311908Y-1870202D01*
X2228850Y-1870202D01*
X2293620Y-1870202D02*
G01*
X2358136Y-1971802D01*
X2465324Y-1842515D02*
G01*
X2446781Y-1851913D01*
X2428240Y-1870202D01*
X2419095Y-1897887D01*
X2419095Y-1916429D01*
X2428240Y-1944115D01*
X2446781Y-1962657D01*
X2465324Y-1971802D01*
X2493009Y-1971802D01*
X2511552Y-1962657D01*
X2529840Y-1944115D01*
X2539238Y-1916429D01*
X2539238Y-1897887D01*
X2529840Y-1870202D01*
X2511552Y-1851913D01*
X2493009Y-1842515D01*
X2465324Y-1842515D01*
X2600197Y-1778000D02*
G01*
X2600197Y-1971802D01*
X2600197Y-1870202D02*
G01*
X2618740Y-1851913D01*
X2637027Y-1842515D01*
X2664713Y-1842515D01*
X2683256Y-1851913D01*
X2701797Y-1870202D01*
X2710941Y-1897887D01*
X2710941Y-1916429D01*
X2701797Y-1944115D01*
X2683256Y-1962657D01*
X2664713Y-1971802D01*
X2637027Y-1971802D01*
X2618740Y-1962657D01*
X2600197Y-1944115D01*
X2818129Y-1842515D02*
G01*
X2799588Y-1851913D01*
X2781300Y-1870202D01*
X2771902Y-1897887D01*
X2771902Y-1916429D01*
X2781300Y-1944115D01*
X2799588Y-1962657D01*
X2818129Y-1971802D01*
X2845815Y-1971802D01*
X2864358Y-1962657D01*
X2882900Y-1944115D01*
X2892043Y-1916429D01*
X2892043Y-1897887D01*
X2882900Y-1870202D01*
X2864358Y-1851913D01*
X2845815Y-1842515D01*
X2818129Y-1842515D01*
X2980690Y-1778000D02*
G01*
X2980690Y-1934971D01*
X2989834Y-1962657D01*
X3008375Y-1971802D01*
X3026918Y-1971802D01*
X2953004Y-1842515D02*
G01*
X3017520Y-1842515D01*
X3134106Y-1842515D02*
G01*
X3115563Y-1851913D01*
X3097022Y-1870202D01*
X3087877Y-1897887D01*
X3087877Y-1916429D01*
X3097022Y-1944115D01*
X3115563Y-1962657D01*
X3134106Y-1971802D01*
X3161791Y-1971802D01*
X3180079Y-1962657D01*
X3198622Y-1944115D01*
X3208020Y-1916429D01*
X3208020Y-1897887D01*
X3198622Y-1870202D01*
X3180079Y-1851913D01*
X3161791Y-1842515D01*
X3134106Y-1842515D01*
X3268979Y-1842515D02*
G01*
X3268979Y-1971802D01*
X3268979Y-1879600D02*
G01*
X3296665Y-1851913D01*
X3314954Y-1842515D01*
X3342640Y-1842515D01*
X3361181Y-1851913D01*
X3370579Y-1879600D01*
X3370579Y-1971802D01*
X3459225Y-1778000D02*
G01*
X3459225Y-1934971D01*
X3468370Y-1962657D01*
X3486911Y-1971802D01*
X3505200Y-1971802D01*
X3431540Y-1842515D02*
G01*
X3496056Y-1842515D01*
X3708400Y-1842515D02*
G01*
X3708400Y-1971802D01*
X3708400Y-1879600D02*
G01*
X3736340Y-1851913D01*
X3754627Y-1842515D01*
X3782313Y-1842515D01*
X3800856Y-1851913D01*
X3810000Y-1879600D01*
X3810000Y-1971802D01*
X3870959Y-1842515D02*
G01*
X3870959Y-1934971D01*
X3880358Y-1962657D01*
X3898900Y-1971802D01*
X3926586Y-1971802D01*
X3944874Y-1962657D01*
X3972559Y-1934971D01*
X3972559Y-1842515D02*
G01*
X3972559Y-1971802D01*
X4144518Y-1870202D02*
G01*
X4125975Y-1851913D01*
X4107434Y-1842515D01*
X4079747Y-1842515D01*
X4061459Y-1851913D01*
X4042918Y-1870202D01*
X4033520Y-1897887D01*
X4033520Y-1916429D01*
X4042918Y-1944115D01*
X4061459Y-1962657D01*
X4079747Y-1971802D01*
X4107434Y-1971802D01*
X4125975Y-1962657D01*
X4144518Y-1944115D01*
X4205477Y-1778000D02*
G01*
X4205477Y-1971802D01*
X4266438Y-1897887D02*
G01*
X4377181Y-1897887D01*
X4377181Y-1879600D01*
X4368038Y-1861057D01*
X4358640Y-1851913D01*
X4340352Y-1842515D01*
X4312665Y-1842515D01*
X4294124Y-1851913D01*
X4275581Y-1870202D01*
X4266438Y-1897887D01*
X4266438Y-1916429D01*
X4275581Y-1944115D01*
X4294124Y-1962657D01*
X4312665Y-1971802D01*
X4340352Y-1971802D01*
X4358640Y-1962657D01*
X4377181Y-1944115D01*
X4484370Y-1842515D02*
G01*
X4465827Y-1851913D01*
X4447540Y-1870202D01*
X4438141Y-1897887D01*
X4438141Y-1916429D01*
X4447540Y-1944115D01*
X4465827Y-1962657D01*
X4484370Y-1971802D01*
X4512056Y-1971802D01*
X4530597Y-1962657D01*
X4549140Y-1944115D01*
X4558284Y-1916429D01*
X4558284Y-1897887D01*
X4549140Y-1870202D01*
X4530597Y-1851913D01*
X4512056Y-1842515D01*
X4484370Y-1842515D01*
X2345943Y-2191257D02*
G01*
X2327656Y-2172970D01*
X2309113Y-2163571D01*
X2281427Y-2163571D01*
X2262886Y-2172970D01*
X2244343Y-2191257D01*
X2235200Y-2218944D01*
X2235200Y-2237486D01*
X2244343Y-2265171D01*
X2262886Y-2283713D01*
X2281427Y-2292857D01*
X2309113Y-2292857D01*
X2327656Y-2283713D01*
X2345943Y-2265171D01*
X2453131Y-2163571D02*
G01*
X2434590Y-2172970D01*
X2416302Y-2191257D01*
X2406904Y-2218944D01*
X2406904Y-2237486D01*
X2416302Y-2265171D01*
X2434590Y-2283713D01*
X2453131Y-2292857D01*
X2480818Y-2292857D01*
X2499359Y-2283713D01*
X2517902Y-2265171D01*
X2527045Y-2237486D01*
X2527045Y-2218944D01*
X2517902Y-2191257D01*
X2499359Y-2172970D01*
X2480818Y-2163571D01*
X2453131Y-2163571D01*
X2588006Y-2163571D02*
G01*
X2588006Y-2292857D01*
X2588006Y-2200655D02*
G01*
X2615691Y-2172970D01*
X2634234Y-2163571D01*
X2661920Y-2163571D01*
X2680461Y-2172970D01*
X2689606Y-2200655D01*
X2689606Y-2292857D01*
X2750565Y-2163571D02*
G01*
X2750565Y-2292857D01*
X2750565Y-2200655D02*
G01*
X2778252Y-2172970D01*
X2796793Y-2163571D01*
X2824479Y-2163571D01*
X2843022Y-2172970D01*
X2852165Y-2200655D01*
X2852165Y-2292857D01*
X2913125Y-2218944D02*
G01*
X3023870Y-2218944D01*
X3023870Y-2200655D01*
X3014725Y-2182113D01*
X3005581Y-2172970D01*
X2987040Y-2163571D01*
X2959354Y-2163571D01*
X2940811Y-2172970D01*
X2922270Y-2191257D01*
X2913125Y-2218944D01*
X2913125Y-2237486D01*
X2922270Y-2265171D01*
X2940811Y-2283713D01*
X2959354Y-2292857D01*
X2987040Y-2292857D01*
X3005581Y-2283713D01*
X3023870Y-2265171D01*
X3195827Y-2191257D02*
G01*
X3177286Y-2172970D01*
X3158743Y-2163571D01*
X3131058Y-2163571D01*
X3112770Y-2172970D01*
X3094227Y-2191257D01*
X3084829Y-2218944D01*
X3084829Y-2237486D01*
X3094227Y-2265171D01*
X3112770Y-2283713D01*
X3131058Y-2292857D01*
X3158743Y-2292857D01*
X3177286Y-2283713D01*
X3195827Y-2265171D01*
X3284474Y-2099055D02*
G01*
X3284474Y-2256028D01*
X3293618Y-2283713D01*
X3312159Y-2292857D01*
X3330702Y-2292857D01*
X3256788Y-2163571D02*
G01*
X3321304Y-2163571D01*
X3437890Y-2163571D02*
G01*
X3419347Y-2172970D01*
X3400806Y-2191257D01*
X3391661Y-2218944D01*
X3391661Y-2237486D01*
X3400806Y-2265171D01*
X3419347Y-2283713D01*
X3437890Y-2292857D01*
X3465575Y-2292857D01*
X3483863Y-2283713D01*
X3502406Y-2265171D01*
X3511550Y-2237486D01*
X3511550Y-2218944D01*
X3502406Y-2191257D01*
X3483863Y-2172970D01*
X3465575Y-2163571D01*
X3437890Y-2163571D01*
X3572509Y-2163571D02*
G01*
X3572509Y-2292857D01*
X3572509Y-2218944D02*
G01*
X3581908Y-2191257D01*
X3600450Y-2172970D01*
X3618738Y-2163571D01*
X3646424Y-2163571D01*
X3951224Y-2191257D02*
G01*
X3942079Y-2172970D01*
X3914393Y-2163571D01*
X3886708Y-2163571D01*
X3859022Y-2172970D01*
X3849624Y-2191257D01*
X3859022Y-2209800D01*
X3877309Y-2218944D01*
X3923538Y-2228342D01*
X3942079Y-2237486D01*
X3951224Y-2256028D01*
X3951224Y-2265171D01*
X3942079Y-2283713D01*
X3914393Y-2292857D01*
X3886708Y-2292857D01*
X3859022Y-2283713D01*
X3849624Y-2265171D01*
X4012184Y-2099055D02*
G01*
X4012184Y-2292857D01*
X4012184Y-2200655D02*
G01*
X4039870Y-2172970D01*
X4058411Y-2163571D01*
X4086097Y-2163571D01*
X4104640Y-2172970D01*
X4113784Y-2200655D01*
X4113784Y-2292857D01*
X4174743Y-2099055D02*
G01*
X4184141Y-2108200D01*
X4193286Y-2099055D01*
X4184141Y-2089657D01*
X4174743Y-2099055D01*
X4184141Y-2163571D02*
G01*
X4184141Y-2292857D01*
X4254245Y-2218944D02*
G01*
X4364990Y-2218944D01*
X4364990Y-2200655D01*
X4355845Y-2182113D01*
X4346702Y-2172970D01*
X4328159Y-2163571D01*
X4300474Y-2163571D01*
X4281931Y-2172970D01*
X4263390Y-2191257D01*
X4254245Y-2218944D01*
X4254245Y-2237486D01*
X4263390Y-2265171D01*
X4281931Y-2283713D01*
X4300474Y-2292857D01*
X4328159Y-2292857D01*
X4346702Y-2283713D01*
X4364990Y-2265171D01*
X4425950Y-2099055D02*
G01*
X4425950Y-2292857D01*
X4597908Y-2099055D02*
G01*
X4597908Y-2292857D01*
X4597908Y-2191257D02*
G01*
X4579365Y-2172970D01*
X4560824Y-2163571D01*
X4533138Y-2163571D01*
X4514850Y-2172970D01*
X4496308Y-2191257D01*
X4486909Y-2218944D01*
X4486909Y-2237486D01*
X4496308Y-2265171D01*
X4514850Y-2283713D01*
X4533138Y-2292857D01*
X4560824Y-2292857D01*
X4579365Y-2283713D01*
X4597908Y-2265171D01*
X4801108Y-2163571D02*
G01*
X4856479Y-2292857D01*
X4911852Y-2163571D02*
G01*
X4856479Y-2292857D01*
X4972811Y-2135886D02*
G01*
X4991354Y-2126742D01*
X5019040Y-2099055D01*
X5019040Y-2292857D01*
X5089143Y-2246629D02*
G01*
X5080000Y-2256028D01*
X5089143Y-2265171D01*
X5098541Y-2256028D01*
X5089143Y-2246629D01*
X5159502Y-2135886D02*
G01*
X5177790Y-2126742D01*
X5205729Y-2099055D01*
X5205729Y-2292857D01*
D19*
X2693670Y-420370D02*
G01*
X2693670Y-503428D01*
X2688336Y-518921D01*
X2683256Y-524255D01*
X2672841Y-529336D01*
X2662427Y-529336D01*
X2652013Y-524255D01*
X2646679Y-518921D01*
X2641600Y-503428D01*
X2641600Y-493013D01*
X2727959Y-420370D02*
G01*
X2727959Y-529336D01*
X2727959Y-420370D02*
G01*
X2774695Y-420370D01*
X2790190Y-425450D01*
X2795270Y-430529D01*
X2800604Y-440944D01*
X2800604Y-456692D01*
X2795270Y-467105D01*
X2790190Y-472186D01*
X2774695Y-477520D01*
X2727959Y-477520D01*
X2834893Y-440944D02*
G01*
X2845308Y-435863D01*
X2860802Y-420370D01*
X2860802Y-529336D01*
X2693670Y-4484370D02*
G01*
X2693670Y-4567428D01*
X2688336Y-4582921D01*
X2683256Y-4588255D01*
X2672841Y-4593336D01*
X2662427Y-4593336D01*
X2652013Y-4588255D01*
X2646679Y-4582921D01*
X2641600Y-4567428D01*
X2641600Y-4557013D01*
X2727959Y-4484370D02*
G01*
X2727959Y-4593336D01*
X2727959Y-4484370D02*
G01*
X2774695Y-4484370D01*
X2790190Y-4489450D01*
X2795270Y-4494529D01*
X2800604Y-4504944D01*
X2800604Y-4520692D01*
X2795270Y-4531105D01*
X2790190Y-4536186D01*
X2774695Y-4541520D01*
X2727959Y-4541520D01*
X2845308Y-4484370D02*
G01*
X2902458Y-4484370D01*
X2871215Y-4525771D01*
X2886709Y-4525771D01*
X2897124Y-4531105D01*
X2902458Y-4536186D01*
X2907538Y-4551679D01*
X2907538Y-4562094D01*
X2902458Y-4577842D01*
X2892043Y-4588255D01*
X2876550Y-4593336D01*
X2860802Y-4593336D01*
X2845308Y-4588255D01*
X2839974Y-4582921D01*
X2834893Y-4572507D01*
X2693670Y-2452370D02*
G01*
X2693670Y-2535428D01*
X2688336Y-2550921D01*
X2683256Y-2556255D01*
X2672841Y-2561336D01*
X2662427Y-2561336D01*
X2652013Y-2556255D01*
X2646679Y-2550921D01*
X2641600Y-2535428D01*
X2641600Y-2525013D01*
X2727959Y-2452370D02*
G01*
X2727959Y-2561336D01*
X2727959Y-2452370D02*
G01*
X2774695Y-2452370D01*
X2790190Y-2457450D01*
X2795270Y-2462529D01*
X2800604Y-2472944D01*
X2800604Y-2488692D01*
X2795270Y-2499105D01*
X2790190Y-2504186D01*
X2774695Y-2509520D01*
X2727959Y-2509520D01*
X2839974Y-2478278D02*
G01*
X2839974Y-2472944D01*
X2845308Y-2462529D01*
X2850388Y-2457450D01*
X2860802Y-2452370D01*
X2881629Y-2452370D01*
X2892043Y-2457450D01*
X2897124Y-2462529D01*
X2902458Y-2472944D01*
X2902458Y-2483357D01*
X2897124Y-2493771D01*
X2886709Y-2509520D01*
X2834893Y-2561336D01*
X2907538Y-2561336D01*
D10*
X1752854Y-628904D02*
G01*
X3555745Y-628904D01*
X3555745Y-628904D02*
G01*
X3555745Y-1149095D01*
X3555745Y-1149095D02*
G01*
X1752854Y-1149095D01*
X1752854Y-1149095D02*
G01*
X1752854Y-628904D01*
X1828800Y-635000D02*
G01*
X1828800Y-1143000D01*
X3479800Y-635000D02*
G01*
X3479800Y-1143000D01*
X1752854Y-4692904D02*
G01*
X3555745Y-4692904D01*
X3555745Y-4692904D02*
G01*
X3555745Y-5213095D01*
X3555745Y-5213095D02*
G01*
X1752854Y-5213095D01*
X1752854Y-5213095D02*
G01*
X1752854Y-4692904D01*
X1828800Y-4699000D02*
G01*
X1828800Y-5207000D01*
X3479800Y-4699000D02*
G01*
X3479800Y-5207000D01*
X1752854Y-2660904D02*
G01*
X3555745Y-2660904D01*
X3555745Y-2660904D02*
G01*
X3555745Y-3181095D01*
X3555745Y-3181095D02*
G01*
X1752854Y-3181095D01*
X1752854Y-3181095D02*
G01*
X1752854Y-2660904D01*
X1828800Y-2667000D02*
G01*
X1828800Y-3175000D01*
X3479800Y-2667000D02*
G01*
X3479800Y-3175000D01*
D17*
G75*
G01
X3455797Y-942111D02*
G03X3455797Y-942111I-89992J0D01*
G75*
G01
X3455797Y-5006111D02*
G03X3455797Y-5006111I-89992J0D01*
G75*
G01
X3455797Y-2974111D02*
G03X3455797Y-2974111I-89992J0D01*
M02*
