G04 Layer: TopSilkscreenLayer*
G04 EasyEDA v6.5.23, 2023-04-24 08:47:35*
G04 b98df09fb3ff4a869318f982f178de83,ba36109c29484f4592bc09a740c48d70,10*
G04 Gerber Generator version 0.2*
G04 Scale: 100 percent, Rotated: No, Reflected: No *
G04 Dimensions in millimeters *
G04 leading zeros omitted , absolute positions ,4 integer and 5 decimal *
%FSLAX45Y45*%
%MOMM*%

%ADD10C,0.2032*%
%ADD11C,0.1524*%
%ADD12C,0.2540*%

%LPD*%
D10*
X2228850Y-1778000D02*
G01*
X2228850Y-1971802D01*
X2228850Y-1778000D02*
G01*
X2311908Y-1778000D01*
X2339593Y-1787144D01*
X2348991Y-1796287D01*
X2358136Y-1814829D01*
X2358136Y-1833371D01*
X2348991Y-1851913D01*
X2339593Y-1861057D01*
X2311908Y-1870202D01*
X2228850Y-1870202D01*
X2293620Y-1870202D02*
G01*
X2358136Y-1971802D01*
X2465324Y-1842515D02*
G01*
X2446781Y-1851913D01*
X2428240Y-1870202D01*
X2419095Y-1897887D01*
X2419095Y-1916429D01*
X2428240Y-1944115D01*
X2446781Y-1962657D01*
X2465324Y-1971802D01*
X2493009Y-1971802D01*
X2511552Y-1962657D01*
X2529840Y-1944115D01*
X2539238Y-1916429D01*
X2539238Y-1897887D01*
X2529840Y-1870202D01*
X2511552Y-1851913D01*
X2493009Y-1842515D01*
X2465324Y-1842515D01*
X2600197Y-1778000D02*
G01*
X2600197Y-1971802D01*
X2600197Y-1870202D02*
G01*
X2618740Y-1851913D01*
X2637027Y-1842515D01*
X2664713Y-1842515D01*
X2683256Y-1851913D01*
X2701797Y-1870202D01*
X2710941Y-1897887D01*
X2710941Y-1916429D01*
X2701797Y-1944115D01*
X2683256Y-1962657D01*
X2664713Y-1971802D01*
X2637027Y-1971802D01*
X2618740Y-1962657D01*
X2600197Y-1944115D01*
X2818129Y-1842515D02*
G01*
X2799588Y-1851913D01*
X2781300Y-1870202D01*
X2771902Y-1897887D01*
X2771902Y-1916429D01*
X2781300Y-1944115D01*
X2799588Y-1962657D01*
X2818129Y-1971802D01*
X2845815Y-1971802D01*
X2864358Y-1962657D01*
X2882900Y-1944115D01*
X2892043Y-1916429D01*
X2892043Y-1897887D01*
X2882900Y-1870202D01*
X2864358Y-1851913D01*
X2845815Y-1842515D01*
X2818129Y-1842515D01*
X2980690Y-1778000D02*
G01*
X2980690Y-1934971D01*
X2989834Y-1962657D01*
X3008375Y-1971802D01*
X3026918Y-1971802D01*
X2953004Y-1842515D02*
G01*
X3017520Y-1842515D01*
X3134106Y-1842515D02*
G01*
X3115563Y-1851913D01*
X3097022Y-1870202D01*
X3087877Y-1897887D01*
X3087877Y-1916429D01*
X3097022Y-1944115D01*
X3115563Y-1962657D01*
X3134106Y-1971802D01*
X3161791Y-1971802D01*
X3180079Y-1962657D01*
X3198622Y-1944115D01*
X3208020Y-1916429D01*
X3208020Y-1897887D01*
X3198622Y-1870202D01*
X3180079Y-1851913D01*
X3161791Y-1842515D01*
X3134106Y-1842515D01*
X3268979Y-1842515D02*
G01*
X3268979Y-1971802D01*
X3268979Y-1879600D02*
G01*
X3296665Y-1851913D01*
X3314954Y-1842515D01*
X3342640Y-1842515D01*
X3361181Y-1851913D01*
X3370579Y-1879600D01*
X3370579Y-1971802D01*
X3459225Y-1778000D02*
G01*
X3459225Y-1934971D01*
X3468370Y-1962657D01*
X3486911Y-1971802D01*
X3505200Y-1971802D01*
X3431540Y-1842515D02*
G01*
X3496056Y-1842515D01*
X3708400Y-1842515D02*
G01*
X3708400Y-1971802D01*
X3708400Y-1879600D02*
G01*
X3736340Y-1851913D01*
X3754627Y-1842515D01*
X3782313Y-1842515D01*
X3800856Y-1851913D01*
X3810000Y-1879600D01*
X3810000Y-1971802D01*
X3870959Y-1842515D02*
G01*
X3870959Y-1934971D01*
X3880358Y-1962657D01*
X3898900Y-1971802D01*
X3926586Y-1971802D01*
X3944874Y-1962657D01*
X3972559Y-1934971D01*
X3972559Y-1842515D02*
G01*
X3972559Y-1971802D01*
X4144518Y-1870202D02*
G01*
X4125975Y-1851913D01*
X4107434Y-1842515D01*
X4079747Y-1842515D01*
X4061459Y-1851913D01*
X4042918Y-1870202D01*
X4033520Y-1897887D01*
X4033520Y-1916429D01*
X4042918Y-1944115D01*
X4061459Y-1962657D01*
X4079747Y-1971802D01*
X4107434Y-1971802D01*
X4125975Y-1962657D01*
X4144518Y-1944115D01*
X4205477Y-1778000D02*
G01*
X4205477Y-1971802D01*
X4266438Y-1897887D02*
G01*
X4377181Y-1897887D01*
X4377181Y-1879600D01*
X4368038Y-1861057D01*
X4358640Y-1851913D01*
X4340352Y-1842515D01*
X4312665Y-1842515D01*
X4294124Y-1851913D01*
X4275581Y-1870202D01*
X4266438Y-1897887D01*
X4266438Y-1916429D01*
X4275581Y-1944115D01*
X4294124Y-1962657D01*
X4312665Y-1971802D01*
X4340352Y-1971802D01*
X4358640Y-1962657D01*
X4377181Y-1944115D01*
X4484370Y-1842515D02*
G01*
X4465827Y-1851913D01*
X4447540Y-1870202D01*
X4438141Y-1897887D01*
X4438141Y-1916429D01*
X4447540Y-1944115D01*
X4465827Y-1962657D01*
X4484370Y-1971802D01*
X4512056Y-1971802D01*
X4530597Y-1962657D01*
X4549140Y-1944115D01*
X4558284Y-1916429D01*
X4558284Y-1897887D01*
X4549140Y-1870202D01*
X4530597Y-1851913D01*
X4512056Y-1842515D01*
X4484370Y-1842515D01*
X2333243Y-2160523D02*
G01*
X2314956Y-2142236D01*
X2296413Y-2132837D01*
X2268727Y-2132837D01*
X2250186Y-2142236D01*
X2231643Y-2160523D01*
X2222500Y-2188210D01*
X2222500Y-2206752D01*
X2231643Y-2234437D01*
X2250186Y-2252979D01*
X2268727Y-2262123D01*
X2296413Y-2262123D01*
X2314956Y-2252979D01*
X2333243Y-2234437D01*
X2440431Y-2132837D02*
G01*
X2421890Y-2142236D01*
X2403602Y-2160523D01*
X2394204Y-2188210D01*
X2394204Y-2206752D01*
X2403602Y-2234437D01*
X2421890Y-2252979D01*
X2440431Y-2262123D01*
X2468118Y-2262123D01*
X2486659Y-2252979D01*
X2505202Y-2234437D01*
X2514345Y-2206752D01*
X2514345Y-2188210D01*
X2505202Y-2160523D01*
X2486659Y-2142236D01*
X2468118Y-2132837D01*
X2440431Y-2132837D01*
X2575306Y-2132837D02*
G01*
X2575306Y-2262123D01*
X2575306Y-2169921D02*
G01*
X2602991Y-2142236D01*
X2621534Y-2132837D01*
X2649220Y-2132837D01*
X2667761Y-2142236D01*
X2676906Y-2169921D01*
X2676906Y-2262123D01*
X2737865Y-2132837D02*
G01*
X2737865Y-2262123D01*
X2737865Y-2169921D02*
G01*
X2765552Y-2142236D01*
X2784093Y-2132837D01*
X2811779Y-2132837D01*
X2830322Y-2142236D01*
X2839465Y-2169921D01*
X2839465Y-2262123D01*
X2900425Y-2188210D02*
G01*
X3011170Y-2188210D01*
X3011170Y-2169921D01*
X3002025Y-2151379D01*
X2992881Y-2142236D01*
X2974340Y-2132837D01*
X2946654Y-2132837D01*
X2928111Y-2142236D01*
X2909570Y-2160523D01*
X2900425Y-2188210D01*
X2900425Y-2206752D01*
X2909570Y-2234437D01*
X2928111Y-2252979D01*
X2946654Y-2262123D01*
X2974340Y-2262123D01*
X2992881Y-2252979D01*
X3011170Y-2234437D01*
X3183127Y-2160523D02*
G01*
X3164586Y-2142236D01*
X3146043Y-2132837D01*
X3118358Y-2132837D01*
X3100070Y-2142236D01*
X3081527Y-2160523D01*
X3072129Y-2188210D01*
X3072129Y-2206752D01*
X3081527Y-2234437D01*
X3100070Y-2252979D01*
X3118358Y-2262123D01*
X3146043Y-2262123D01*
X3164586Y-2252979D01*
X3183127Y-2234437D01*
X3271774Y-2068321D02*
G01*
X3271774Y-2225294D01*
X3280918Y-2252979D01*
X3299459Y-2262123D01*
X3318002Y-2262123D01*
X3244088Y-2132837D02*
G01*
X3308604Y-2132837D01*
X3425190Y-2132837D02*
G01*
X3406647Y-2142236D01*
X3388106Y-2160523D01*
X3378961Y-2188210D01*
X3378961Y-2206752D01*
X3388106Y-2234437D01*
X3406647Y-2252979D01*
X3425190Y-2262123D01*
X3452875Y-2262123D01*
X3471163Y-2252979D01*
X3489706Y-2234437D01*
X3498850Y-2206752D01*
X3498850Y-2188210D01*
X3489706Y-2160523D01*
X3471163Y-2142236D01*
X3452875Y-2132837D01*
X3425190Y-2132837D01*
X3559809Y-2132837D02*
G01*
X3559809Y-2262123D01*
X3559809Y-2188210D02*
G01*
X3569208Y-2160523D01*
X3587750Y-2142236D01*
X3606038Y-2132837D01*
X3633724Y-2132837D01*
X3938524Y-2160523D02*
G01*
X3929379Y-2142236D01*
X3901693Y-2132837D01*
X3874008Y-2132837D01*
X3846322Y-2142236D01*
X3836924Y-2160523D01*
X3846322Y-2179065D01*
X3864609Y-2188210D01*
X3910838Y-2197607D01*
X3929379Y-2206752D01*
X3938524Y-2225294D01*
X3938524Y-2234437D01*
X3929379Y-2252979D01*
X3901693Y-2262123D01*
X3874008Y-2262123D01*
X3846322Y-2252979D01*
X3836924Y-2234437D01*
X3999484Y-2068321D02*
G01*
X3999484Y-2262123D01*
X3999484Y-2169921D02*
G01*
X4027170Y-2142236D01*
X4045711Y-2132837D01*
X4073397Y-2132837D01*
X4091940Y-2142236D01*
X4101084Y-2169921D01*
X4101084Y-2262123D01*
X4162043Y-2068321D02*
G01*
X4171441Y-2077465D01*
X4180586Y-2068321D01*
X4171441Y-2058923D01*
X4162043Y-2068321D01*
X4171441Y-2132837D02*
G01*
X4171441Y-2262123D01*
X4241545Y-2188210D02*
G01*
X4352290Y-2188210D01*
X4352290Y-2169921D01*
X4343145Y-2151379D01*
X4334002Y-2142236D01*
X4315459Y-2132837D01*
X4287774Y-2132837D01*
X4269231Y-2142236D01*
X4250690Y-2160523D01*
X4241545Y-2188210D01*
X4241545Y-2206752D01*
X4250690Y-2234437D01*
X4269231Y-2252979D01*
X4287774Y-2262123D01*
X4315459Y-2262123D01*
X4334002Y-2252979D01*
X4352290Y-2234437D01*
X4413250Y-2068321D02*
G01*
X4413250Y-2262123D01*
X4585208Y-2068321D02*
G01*
X4585208Y-2262123D01*
X4585208Y-2160523D02*
G01*
X4566665Y-2142236D01*
X4548124Y-2132837D01*
X4520438Y-2132837D01*
X4502150Y-2142236D01*
X4483608Y-2160523D01*
X4474209Y-2188210D01*
X4474209Y-2206752D01*
X4483608Y-2234437D01*
X4502150Y-2252979D01*
X4520438Y-2262123D01*
X4548124Y-2262123D01*
X4566665Y-2252979D01*
X4585208Y-2234437D01*
X4788408Y-2132837D02*
G01*
X4843779Y-2262123D01*
X4899152Y-2132837D02*
G01*
X4843779Y-2262123D01*
X4960111Y-2105152D02*
G01*
X4978654Y-2096007D01*
X5006340Y-2068321D01*
X5006340Y-2262123D01*
X5076443Y-2216150D02*
G01*
X5067300Y-2225294D01*
X5076443Y-2234437D01*
X5085841Y-2225294D01*
X5076443Y-2216150D01*
X5165090Y-2068321D02*
G01*
X5266690Y-2068321D01*
X5211318Y-2142236D01*
X5239004Y-2142236D01*
X5257545Y-2151379D01*
X5266690Y-2160523D01*
X5276088Y-2188210D01*
X5276088Y-2206752D01*
X5266690Y-2234437D01*
X5248402Y-2252979D01*
X5220715Y-2262123D01*
X5193029Y-2262123D01*
X5165090Y-2252979D01*
X5155945Y-2243836D01*
X5146802Y-2225294D01*
D11*
X1333500Y-989584D02*
G01*
X1333500Y-1098550D01*
X1333500Y-989584D02*
G01*
X1375156Y-1098550D01*
X1416558Y-989584D02*
G01*
X1375156Y-1098550D01*
X1416558Y-989584D02*
G01*
X1416558Y-1098550D01*
X1482090Y-989584D02*
G01*
X1471675Y-994663D01*
X1461261Y-1005078D01*
X1456181Y-1015492D01*
X1450847Y-1031239D01*
X1450847Y-1057147D01*
X1456181Y-1072642D01*
X1461261Y-1083055D01*
X1471675Y-1093470D01*
X1482090Y-1098550D01*
X1502918Y-1098550D01*
X1513331Y-1093470D01*
X1523745Y-1083055D01*
X1528825Y-1072642D01*
X1534159Y-1057147D01*
X1534159Y-1031239D01*
X1528825Y-1015492D01*
X1523745Y-1005078D01*
X1513331Y-994663D01*
X1502918Y-989584D01*
X1482090Y-989584D01*
X1604772Y-989584D02*
G01*
X1604772Y-1098550D01*
X1568450Y-989584D02*
G01*
X1641093Y-989584D01*
X1706625Y-989584D02*
G01*
X1696211Y-994663D01*
X1685797Y-1005078D01*
X1680463Y-1015492D01*
X1675384Y-1031239D01*
X1675384Y-1057147D01*
X1680463Y-1072642D01*
X1685797Y-1083055D01*
X1696211Y-1093470D01*
X1706625Y-1098550D01*
X1727200Y-1098550D01*
X1737613Y-1093470D01*
X1748027Y-1083055D01*
X1753361Y-1072642D01*
X1758441Y-1057147D01*
X1758441Y-1031239D01*
X1753361Y-1015492D01*
X1748027Y-1005078D01*
X1737613Y-994663D01*
X1727200Y-989584D01*
X1706625Y-989584D01*
X1792731Y-989584D02*
G01*
X1792731Y-1098550D01*
X1792731Y-989584D02*
G01*
X1839468Y-989584D01*
X1855215Y-994663D01*
X1860295Y-999997D01*
X1865629Y-1010412D01*
X1865629Y-1020826D01*
X1860295Y-1031239D01*
X1855215Y-1036320D01*
X1839468Y-1041400D01*
X1792731Y-1041400D01*
X1829054Y-1041400D02*
G01*
X1865629Y-1098550D01*
X1899920Y-1135126D02*
G01*
X1993391Y-1135126D01*
X2058670Y-989584D02*
G01*
X2043175Y-994663D01*
X2032761Y-1010412D01*
X2027681Y-1036320D01*
X2027681Y-1051813D01*
X2032761Y-1077976D01*
X2043175Y-1093470D01*
X2058670Y-1098550D01*
X2069084Y-1098550D01*
X2084831Y-1093470D01*
X2095245Y-1077976D01*
X2100325Y-1051813D01*
X2100325Y-1036320D01*
X2095245Y-1010412D01*
X2084831Y-994663D01*
X2069084Y-989584D01*
X2058670Y-989584D01*
X1371600Y-5053578D02*
G01*
X1371600Y-5162544D01*
X1371600Y-5053578D02*
G01*
X1413256Y-5162544D01*
X1454658Y-5053578D02*
G01*
X1413256Y-5162544D01*
X1454658Y-5053578D02*
G01*
X1454658Y-5162544D01*
X1520190Y-5053578D02*
G01*
X1509775Y-5058658D01*
X1499361Y-5069072D01*
X1494281Y-5079486D01*
X1488947Y-5095234D01*
X1488947Y-5121142D01*
X1494281Y-5136636D01*
X1499361Y-5147050D01*
X1509775Y-5157464D01*
X1520190Y-5162544D01*
X1541018Y-5162544D01*
X1551431Y-5157464D01*
X1561845Y-5147050D01*
X1566925Y-5136636D01*
X1572259Y-5121142D01*
X1572259Y-5095234D01*
X1566925Y-5079486D01*
X1561845Y-5069072D01*
X1551431Y-5058658D01*
X1541018Y-5053578D01*
X1520190Y-5053578D01*
X1642872Y-5053578D02*
G01*
X1642872Y-5162544D01*
X1606550Y-5053578D02*
G01*
X1679193Y-5053578D01*
X1744725Y-5053578D02*
G01*
X1734311Y-5058658D01*
X1723897Y-5069072D01*
X1718563Y-5079486D01*
X1713484Y-5095234D01*
X1713484Y-5121142D01*
X1718563Y-5136636D01*
X1723897Y-5147050D01*
X1734311Y-5157464D01*
X1744725Y-5162544D01*
X1765300Y-5162544D01*
X1775713Y-5157464D01*
X1786127Y-5147050D01*
X1791461Y-5136636D01*
X1796541Y-5121142D01*
X1796541Y-5095234D01*
X1791461Y-5079486D01*
X1786127Y-5069072D01*
X1775713Y-5058658D01*
X1765300Y-5053578D01*
X1744725Y-5053578D01*
X1830831Y-5053578D02*
G01*
X1830831Y-5162544D01*
X1830831Y-5053578D02*
G01*
X1877568Y-5053578D01*
X1893315Y-5058658D01*
X1898395Y-5063992D01*
X1903729Y-5074406D01*
X1903729Y-5084820D01*
X1898395Y-5095234D01*
X1893315Y-5100314D01*
X1877568Y-5105394D01*
X1830831Y-5105394D01*
X1867154Y-5105394D02*
G01*
X1903729Y-5162544D01*
X1938020Y-5199120D02*
G01*
X2031491Y-5199120D01*
X2065781Y-5074406D02*
G01*
X2076195Y-5069072D01*
X2091690Y-5053578D01*
X2091690Y-5162544D01*
X1333500Y-3021589D02*
G01*
X1333500Y-3130555D01*
X1333500Y-3021589D02*
G01*
X1375156Y-3130555D01*
X1416558Y-3021589D02*
G01*
X1375156Y-3130555D01*
X1416558Y-3021589D02*
G01*
X1416558Y-3130555D01*
X1482090Y-3021589D02*
G01*
X1471675Y-3026669D01*
X1461261Y-3037083D01*
X1456181Y-3047497D01*
X1450847Y-3063245D01*
X1450847Y-3089153D01*
X1456181Y-3104647D01*
X1461261Y-3115061D01*
X1471675Y-3125475D01*
X1482090Y-3130555D01*
X1502918Y-3130555D01*
X1513331Y-3125475D01*
X1523745Y-3115061D01*
X1528825Y-3104647D01*
X1534159Y-3089153D01*
X1534159Y-3063245D01*
X1528825Y-3047497D01*
X1523745Y-3037083D01*
X1513331Y-3026669D01*
X1502918Y-3021589D01*
X1482090Y-3021589D01*
X1604772Y-3021589D02*
G01*
X1604772Y-3130555D01*
X1568450Y-3021589D02*
G01*
X1641093Y-3021589D01*
X1706625Y-3021589D02*
G01*
X1696211Y-3026669D01*
X1685797Y-3037083D01*
X1680463Y-3047497D01*
X1675384Y-3063245D01*
X1675384Y-3089153D01*
X1680463Y-3104647D01*
X1685797Y-3115061D01*
X1696211Y-3125475D01*
X1706625Y-3130555D01*
X1727200Y-3130555D01*
X1737613Y-3125475D01*
X1748027Y-3115061D01*
X1753361Y-3104647D01*
X1758441Y-3089153D01*
X1758441Y-3063245D01*
X1753361Y-3047497D01*
X1748027Y-3037083D01*
X1737613Y-3026669D01*
X1727200Y-3021589D01*
X1706625Y-3021589D01*
X1792731Y-3021589D02*
G01*
X1792731Y-3130555D01*
X1792731Y-3021589D02*
G01*
X1839468Y-3021589D01*
X1855215Y-3026669D01*
X1860295Y-3032003D01*
X1865629Y-3042417D01*
X1865629Y-3052831D01*
X1860295Y-3063245D01*
X1855215Y-3068325D01*
X1839468Y-3073405D01*
X1792731Y-3073405D01*
X1829054Y-3073405D02*
G01*
X1865629Y-3130555D01*
X1899920Y-3167131D02*
G01*
X1993391Y-3167131D01*
X2032761Y-3047497D02*
G01*
X2032761Y-3042417D01*
X2038095Y-3032003D01*
X2043175Y-3026669D01*
X2053590Y-3021589D01*
X2074418Y-3021589D01*
X2084831Y-3026669D01*
X2089911Y-3032003D01*
X2095245Y-3042417D01*
X2095245Y-3052831D01*
X2089911Y-3063245D01*
X2079497Y-3078739D01*
X2027681Y-3130555D01*
X2100325Y-3130555D01*
D12*
X3315792Y-940993D02*
G01*
X3385794Y-940993D01*
X3385794Y-1135989D01*
X2175789Y-1135989D01*
X2175789Y-940993D01*
X2245791Y-940993D01*
X3385794Y-940993D02*
G01*
X3315792Y-940993D01*
X3385794Y-835990D02*
G01*
X3320795Y-835990D01*
X3385794Y-1131011D02*
G01*
X3385794Y-940993D01*
X3320795Y-940993D01*
X2247315Y-941501D02*
G01*
X2177313Y-941501D01*
X2247315Y-836498D02*
G01*
X2177313Y-836498D01*
X2247315Y-941501D02*
G01*
X2177313Y-941501D01*
X2177313Y-1136497D01*
X3132302Y-1136497D01*
X3315792Y-1086002D02*
G01*
X3315792Y-686003D01*
X2245791Y-686003D01*
X2245791Y-1086002D01*
X3315792Y-1086002D01*
X2245791Y-835990D02*
G01*
X2175789Y-835990D01*
X2175789Y-635990D01*
X3385794Y-635990D01*
X3385794Y-835990D01*
X3315792Y-835990D01*
X3315784Y-5004983D02*
G01*
X3385786Y-5004983D01*
X3385786Y-5199979D01*
X2175781Y-5199979D01*
X2175781Y-5004983D01*
X2245784Y-5004983D01*
X3385786Y-5004983D02*
G01*
X3315784Y-5004983D01*
X3385786Y-4899980D02*
G01*
X3320788Y-4899980D01*
X3385786Y-5195001D02*
G01*
X3385786Y-5004983D01*
X3320788Y-5004983D01*
X2247308Y-5005491D02*
G01*
X2177305Y-5005491D01*
X2247308Y-4900488D02*
G01*
X2177305Y-4900488D01*
X2247308Y-5005491D02*
G01*
X2177305Y-5005491D01*
X2177305Y-5200487D01*
X3132294Y-5200487D01*
X3315784Y-5149992D02*
G01*
X3315784Y-4749993D01*
X2245784Y-4749993D01*
X2245784Y-5149992D01*
X3315784Y-5149992D01*
X2245784Y-4899980D02*
G01*
X2175781Y-4899980D01*
X2175781Y-4699980D01*
X3385786Y-4699980D01*
X3385786Y-4899980D01*
X3315784Y-4899980D01*
X3315784Y-2972988D02*
G01*
X3385786Y-2972988D01*
X3385786Y-3167984D01*
X2175781Y-3167984D01*
X2175781Y-2972988D01*
X2245784Y-2972988D01*
X3385786Y-2972988D02*
G01*
X3315784Y-2972988D01*
X3385786Y-2867985D02*
G01*
X3320788Y-2867985D01*
X3385786Y-3163006D02*
G01*
X3385786Y-2972988D01*
X3320788Y-2972988D01*
X2247308Y-2973496D02*
G01*
X2177305Y-2973496D01*
X2247308Y-2868493D02*
G01*
X2177305Y-2868493D01*
X2247308Y-2973496D02*
G01*
X2177305Y-2973496D01*
X2177305Y-3168492D01*
X3132294Y-3168492D01*
X3315784Y-3117997D02*
G01*
X3315784Y-2717998D01*
X2245784Y-2717998D01*
X2245784Y-3117997D01*
X3315784Y-3117997D01*
X2245784Y-2867985D02*
G01*
X2175781Y-2867985D01*
X2175781Y-2667985D01*
X3385786Y-2667985D01*
X3385786Y-2867985D01*
X3315784Y-2867985D01*
M02*
