G04 Layer: BottomLayer*
G04 EasyEDA v6.5.5, 2022-06-13 17:54:21*
G04 c5cfb43cd74343219a89ec962efd3502,ba36109c29484f4592bc09a740c48d70,10*
G04 Gerber Generator version 0.2*
G04 Scale: 100 percent, Rotated: No, Reflected: No *
G04 Dimensions in millimeters *
G04 leading zeros omitted , absolute positions ,4 integer and 5 decimal *
%FSLAX45Y45*%
%MOMM*%

%ADD10C,0.2540*%
%ADD12C,1.2000*%
%ADD13C,1.7000*%
%ADD15C,1.6764*%
%ADD16R,1.6764X1.6764*%

%LPD*%
G36*
X1350416Y-5689600D02*
G01*
X1346504Y-5688838D01*
X1343202Y-5686602D01*
X1143711Y-5487111D01*
X1141984Y-5486400D01*
X179425Y-5486400D01*
X176225Y-5485892D01*
X103885Y-5461762D01*
X99923Y-5459323D01*
X51968Y-5411368D01*
X50038Y-5408726D01*
X26466Y-5361533D01*
X25400Y-5357012D01*
X25400Y-35560D01*
X26162Y-31648D01*
X28397Y-28397D01*
X31648Y-26162D01*
X35560Y-25400D01*
X813053Y-25400D01*
X816914Y-26162D01*
X820166Y-28346D01*
X822401Y-31597D01*
X823214Y-35458D01*
X822452Y-39319D01*
X736955Y-253136D01*
X736955Y-254914D01*
X837844Y-507085D01*
X839114Y-508406D01*
X1065885Y-609193D01*
X1067765Y-609193D01*
X1319885Y-508355D01*
X1321206Y-507034D01*
X1422044Y-254863D01*
X1422044Y-253085D01*
X1336548Y-39319D01*
X1335786Y-35458D01*
X1336598Y-31597D01*
X1338834Y-28346D01*
X1342085Y-26162D01*
X1345946Y-25400D01*
X5844946Y-25400D01*
X5848756Y-26162D01*
X5852058Y-28346D01*
X5854242Y-31546D01*
X5855106Y-35407D01*
X5854395Y-39268D01*
X5852261Y-42570D01*
X5849061Y-44856D01*
X5665063Y-126593D01*
X5663844Y-127914D01*
X5562955Y-380136D01*
X5562955Y-381914D01*
X5663844Y-634085D01*
X5665114Y-635406D01*
X5891885Y-736193D01*
X5893765Y-736193D01*
X6145885Y-635355D01*
X6147206Y-634034D01*
X6248044Y-381863D01*
X6248044Y-380085D01*
X6147155Y-127914D01*
X6145834Y-126593D01*
X5941771Y-45008D01*
X5938469Y-42824D01*
X5936183Y-39522D01*
X5935421Y-35610D01*
X5936132Y-31699D01*
X5938367Y-28397D01*
X5941669Y-26162D01*
X5945581Y-25400D01*
X6949440Y-25400D01*
X6953351Y-26162D01*
X6956602Y-28397D01*
X6958838Y-31648D01*
X6959600Y-35560D01*
X6959600Y-5332679D01*
X6959295Y-5335270D01*
X6944969Y-5390083D01*
X6944106Y-5392267D01*
X6942734Y-5394248D01*
X6907174Y-5434533D01*
X6905091Y-5436362D01*
X6864146Y-5462828D01*
X6861860Y-5463946D01*
X6796074Y-5485892D01*
X6792874Y-5486400D01*
X4827016Y-5486400D01*
X4825288Y-5487111D01*
X4691684Y-5620715D01*
X4688382Y-5622950D01*
X4684522Y-5623712D01*
X4680661Y-5622950D01*
X4677359Y-5620766D01*
X4675124Y-5617514D01*
X4674311Y-5613654D01*
X4675073Y-5609793D01*
X4724044Y-5487263D01*
X4724044Y-5485485D01*
X4623155Y-5233314D01*
X4621834Y-5231993D01*
X4369714Y-5131155D01*
X4367834Y-5131206D01*
X4141063Y-5231993D01*
X4139844Y-5233314D01*
X4038955Y-5485536D01*
X4038955Y-5487314D01*
X4114292Y-5675680D01*
X4115054Y-5679541D01*
X4114241Y-5683402D01*
X4112006Y-5686653D01*
X4108754Y-5688838D01*
X4104894Y-5689600D01*
G37*

%LPC*%
G36*
X6421120Y-5316728D02*
G01*
X6435140Y-5315813D01*
X6448958Y-5313121D01*
X6462268Y-5308701D01*
X6474968Y-5302605D01*
X6486753Y-5294934D01*
X6497421Y-5285790D01*
X6506870Y-5275376D01*
X6514947Y-5263896D01*
X6521450Y-5251399D01*
X6526276Y-5238191D01*
X6529425Y-5224526D01*
X6530746Y-5210505D01*
X6530340Y-5196484D01*
X6528054Y-5182565D01*
X6524091Y-5169103D01*
X6518402Y-5156250D01*
X6511086Y-5144211D01*
X6502349Y-5133238D01*
X6492240Y-5123484D01*
X6480962Y-5115052D01*
X6468719Y-5108143D01*
X6455714Y-5102860D01*
X6442100Y-5099304D01*
X6428130Y-5097526D01*
X6414109Y-5097526D01*
X6400139Y-5099304D01*
X6386525Y-5102860D01*
X6373520Y-5108143D01*
X6361277Y-5115052D01*
X6350000Y-5123484D01*
X6339890Y-5133238D01*
X6331153Y-5144211D01*
X6323838Y-5156250D01*
X6318148Y-5169103D01*
X6314186Y-5182565D01*
X6311900Y-5196484D01*
X6311493Y-5210505D01*
X6312814Y-5224526D01*
X6315964Y-5238191D01*
X6320790Y-5251399D01*
X6327292Y-5263896D01*
X6335369Y-5275376D01*
X6344818Y-5285790D01*
X6355486Y-5294934D01*
X6367272Y-5302605D01*
X6379972Y-5308701D01*
X6393281Y-5313121D01*
X6407099Y-5315813D01*
G37*
G36*
X6675120Y-5316728D02*
G01*
X6689140Y-5315813D01*
X6702958Y-5313121D01*
X6716268Y-5308701D01*
X6728968Y-5302605D01*
X6740753Y-5294934D01*
X6751421Y-5285790D01*
X6760870Y-5275376D01*
X6768947Y-5263896D01*
X6775450Y-5251399D01*
X6780275Y-5238191D01*
X6783425Y-5224526D01*
X6784746Y-5210505D01*
X6784340Y-5196484D01*
X6782053Y-5182565D01*
X6778091Y-5169103D01*
X6772402Y-5156250D01*
X6765086Y-5144211D01*
X6756349Y-5133238D01*
X6746240Y-5123484D01*
X6734962Y-5115052D01*
X6722719Y-5108143D01*
X6709714Y-5102860D01*
X6696100Y-5099304D01*
X6682130Y-5097526D01*
X6668109Y-5097526D01*
X6654139Y-5099304D01*
X6640525Y-5102860D01*
X6627520Y-5108143D01*
X6615277Y-5115052D01*
X6604000Y-5123484D01*
X6593890Y-5133238D01*
X6585153Y-5144211D01*
X6577838Y-5156250D01*
X6572148Y-5169103D01*
X6568186Y-5182565D01*
X6565900Y-5196484D01*
X6565493Y-5210505D01*
X6566814Y-5224526D01*
X6569964Y-5238191D01*
X6574790Y-5251399D01*
X6581292Y-5263896D01*
X6589369Y-5275376D01*
X6598818Y-5285790D01*
X6609486Y-5294934D01*
X6621272Y-5302605D01*
X6633972Y-5308701D01*
X6647281Y-5313121D01*
X6661099Y-5315813D01*
G37*
G36*
X579120Y-5316728D02*
G01*
X593140Y-5315813D01*
X606958Y-5313121D01*
X620268Y-5308701D01*
X632968Y-5302605D01*
X644753Y-5294934D01*
X655421Y-5285790D01*
X664870Y-5275376D01*
X672947Y-5263896D01*
X679450Y-5251399D01*
X684276Y-5238191D01*
X687425Y-5224526D01*
X688746Y-5210505D01*
X688340Y-5196484D01*
X686054Y-5182565D01*
X682091Y-5169103D01*
X676402Y-5156250D01*
X669086Y-5144211D01*
X660349Y-5133238D01*
X650240Y-5123484D01*
X638962Y-5115052D01*
X626719Y-5108143D01*
X613714Y-5102860D01*
X600100Y-5099304D01*
X586130Y-5097526D01*
X572109Y-5097526D01*
X558139Y-5099304D01*
X544525Y-5102860D01*
X531520Y-5108143D01*
X519277Y-5115052D01*
X508000Y-5123484D01*
X497890Y-5133238D01*
X489153Y-5144211D01*
X481838Y-5156250D01*
X476148Y-5169103D01*
X472185Y-5182565D01*
X469900Y-5196484D01*
X469493Y-5210505D01*
X470814Y-5224526D01*
X473964Y-5238191D01*
X478790Y-5251399D01*
X485292Y-5263896D01*
X493369Y-5275376D01*
X502818Y-5285790D01*
X513486Y-5294934D01*
X525272Y-5302605D01*
X537972Y-5308701D01*
X551281Y-5313121D01*
X565099Y-5315813D01*
G37*
G36*
X325120Y-5316728D02*
G01*
X339140Y-5315813D01*
X352958Y-5313121D01*
X366268Y-5308701D01*
X378968Y-5302605D01*
X390753Y-5294934D01*
X401421Y-5285790D01*
X410870Y-5275376D01*
X418947Y-5263896D01*
X425450Y-5251399D01*
X430276Y-5238191D01*
X433425Y-5224526D01*
X434746Y-5210505D01*
X434340Y-5196484D01*
X432054Y-5182565D01*
X428091Y-5169103D01*
X422401Y-5156250D01*
X415086Y-5144211D01*
X406349Y-5133238D01*
X396240Y-5123484D01*
X384962Y-5115052D01*
X372719Y-5108143D01*
X359714Y-5102860D01*
X346100Y-5099304D01*
X332130Y-5097526D01*
X318109Y-5097526D01*
X304139Y-5099304D01*
X290525Y-5102860D01*
X277520Y-5108143D01*
X265277Y-5115052D01*
X254000Y-5123484D01*
X243890Y-5133238D01*
X235153Y-5144211D01*
X227838Y-5156250D01*
X222148Y-5169103D01*
X218186Y-5182565D01*
X215900Y-5196484D01*
X215493Y-5210505D01*
X216814Y-5224526D01*
X219964Y-5238191D01*
X224790Y-5251399D01*
X231292Y-5263896D01*
X239369Y-5275376D01*
X248818Y-5285790D01*
X259486Y-5294934D01*
X271272Y-5302605D01*
X283972Y-5308701D01*
X297281Y-5313121D01*
X311099Y-5315813D01*
G37*
G36*
X2594356Y-5188813D02*
G01*
X2608478Y-5187442D01*
X2622346Y-5184292D01*
X2635707Y-5179364D01*
X2648305Y-5172811D01*
X2659938Y-5164683D01*
X2670454Y-5155133D01*
X2679649Y-5144312D01*
X2687421Y-5132374D01*
X2693568Y-5119573D01*
X2698038Y-5106111D01*
X2700782Y-5092141D01*
X2701696Y-5077968D01*
X2700782Y-5063794D01*
X2698038Y-5049824D01*
X2693568Y-5036362D01*
X2687421Y-5023561D01*
X2679649Y-5011623D01*
X2670454Y-5000802D01*
X2659938Y-4991252D01*
X2648305Y-4983124D01*
X2635707Y-4976571D01*
X2622346Y-4971643D01*
X2608478Y-4968494D01*
X2594356Y-4967122D01*
X2580132Y-4967579D01*
X2566111Y-4969865D01*
X2552496Y-4973929D01*
X2539492Y-4979670D01*
X2527350Y-4987036D01*
X2516225Y-4995875D01*
X2506370Y-5006086D01*
X2497886Y-5017465D01*
X2490876Y-5029860D01*
X2485542Y-5043017D01*
X2481935Y-5056784D01*
X2480157Y-5070856D01*
X2480157Y-5085080D01*
X2481935Y-5099151D01*
X2485542Y-5112918D01*
X2490876Y-5126075D01*
X2497886Y-5138470D01*
X2506370Y-5149850D01*
X2516225Y-5160060D01*
X2527350Y-5168900D01*
X2539492Y-5176266D01*
X2552496Y-5182057D01*
X2566111Y-5186070D01*
X2580132Y-5188356D01*
G37*
G36*
X2848356Y-5188813D02*
G01*
X2862478Y-5187442D01*
X2876346Y-5184292D01*
X2889707Y-5179364D01*
X2902305Y-5172811D01*
X2913938Y-5164683D01*
X2924454Y-5155133D01*
X2933649Y-5144312D01*
X2941421Y-5132374D01*
X2947568Y-5119573D01*
X2952038Y-5106111D01*
X2954782Y-5092141D01*
X2955696Y-5077968D01*
X2954782Y-5063794D01*
X2952038Y-5049824D01*
X2947568Y-5036362D01*
X2941421Y-5023561D01*
X2933649Y-5011623D01*
X2924454Y-5000802D01*
X2913938Y-4991252D01*
X2902305Y-4983124D01*
X2889707Y-4976571D01*
X2876346Y-4971643D01*
X2862478Y-4968494D01*
X2848356Y-4967122D01*
X2834132Y-4967579D01*
X2820111Y-4969865D01*
X2806496Y-4973929D01*
X2793492Y-4979670D01*
X2781350Y-4987036D01*
X2770225Y-4995875D01*
X2760370Y-5006086D01*
X2751886Y-5017465D01*
X2744876Y-5029860D01*
X2739542Y-5043017D01*
X2735935Y-5056784D01*
X2734157Y-5070856D01*
X2734157Y-5085080D01*
X2735935Y-5099151D01*
X2739542Y-5112918D01*
X2744876Y-5126075D01*
X2751886Y-5138470D01*
X2760370Y-5149850D01*
X2770225Y-5160060D01*
X2781350Y-5168900D01*
X2793492Y-5176266D01*
X2806496Y-5182057D01*
X2820111Y-5186070D01*
X2834132Y-5188356D01*
G37*
G36*
X2340356Y-5188813D02*
G01*
X2354478Y-5187442D01*
X2368346Y-5184292D01*
X2381707Y-5179364D01*
X2394305Y-5172811D01*
X2405938Y-5164683D01*
X2416454Y-5155133D01*
X2425649Y-5144312D01*
X2433421Y-5132374D01*
X2439568Y-5119573D01*
X2444038Y-5106111D01*
X2446782Y-5092141D01*
X2447696Y-5077968D01*
X2446782Y-5063794D01*
X2444038Y-5049824D01*
X2439568Y-5036362D01*
X2433421Y-5023561D01*
X2425649Y-5011623D01*
X2416454Y-5000802D01*
X2405938Y-4991252D01*
X2394305Y-4983124D01*
X2381707Y-4976571D01*
X2368346Y-4971643D01*
X2354478Y-4968494D01*
X2340356Y-4967122D01*
X2326132Y-4967579D01*
X2312111Y-4969865D01*
X2298496Y-4973929D01*
X2285492Y-4979670D01*
X2273350Y-4987036D01*
X2262225Y-4995875D01*
X2252370Y-5006086D01*
X2243886Y-5017465D01*
X2236876Y-5029860D01*
X2231542Y-5043017D01*
X2227935Y-5056784D01*
X2226157Y-5070856D01*
X2226157Y-5085080D01*
X2227935Y-5099151D01*
X2231542Y-5112918D01*
X2236876Y-5126075D01*
X2243886Y-5138470D01*
X2252370Y-5149850D01*
X2262225Y-5160060D01*
X2273350Y-5168900D01*
X2285492Y-5176266D01*
X2298496Y-5182057D01*
X2312111Y-5186070D01*
X2326132Y-5188356D01*
G37*
G36*
X2033930Y-5177383D02*
G01*
X2033930Y-5126837D01*
X1983333Y-5126837D01*
X1989886Y-5138470D01*
X1998370Y-5149850D01*
X2008225Y-5160060D01*
X2019350Y-5168900D01*
X2031492Y-5176266D01*
G37*
G36*
X3049930Y-5177383D02*
G01*
X3049930Y-5126837D01*
X2999333Y-5126837D01*
X3005886Y-5138470D01*
X3014370Y-5149850D01*
X3024225Y-5160060D01*
X3035350Y-5168900D01*
X3047492Y-5176266D01*
G37*
G36*
X2131669Y-5177282D02*
G01*
X2140305Y-5172811D01*
X2151938Y-5164683D01*
X2162454Y-5155133D01*
X2171649Y-5144312D01*
X2179421Y-5132374D01*
X2182114Y-5126837D01*
X2131669Y-5126837D01*
G37*
G36*
X3147669Y-5177282D02*
G01*
X3156305Y-5172811D01*
X3167938Y-5164683D01*
X3178454Y-5155133D01*
X3187649Y-5144312D01*
X3195421Y-5132374D01*
X3198114Y-5126837D01*
X3147669Y-5126837D01*
G37*
G36*
X3362451Y-5106924D02*
G01*
X3375914Y-5106466D01*
X3389172Y-5104231D01*
X3402076Y-5100269D01*
X3414268Y-5094579D01*
X3425647Y-5087315D01*
X3435959Y-5078628D01*
X3445001Y-5068620D01*
X3452622Y-5057546D01*
X3458667Y-5045506D01*
X3463086Y-5032756D01*
X3465779Y-5019548D01*
X3466693Y-5006136D01*
X3465779Y-4992674D01*
X3463086Y-4979466D01*
X3458667Y-4966716D01*
X3452622Y-4954676D01*
X3445001Y-4943602D01*
X3435959Y-4933594D01*
X3425647Y-4924907D01*
X3414268Y-4917643D01*
X3402076Y-4911953D01*
X3389172Y-4907991D01*
X3375914Y-4905756D01*
X3362451Y-4905298D01*
X3347923Y-4906822D01*
X3343706Y-4906365D01*
X3340049Y-4904232D01*
X3337610Y-4900828D01*
X3336696Y-4896713D01*
X3336696Y-4743602D01*
X3335985Y-4737303D01*
X3334105Y-4731816D01*
X3331006Y-4726940D01*
X3326892Y-4722825D01*
X3322015Y-4719726D01*
X3316528Y-4717846D01*
X3310229Y-4717135D01*
X3141370Y-4717135D01*
X3135071Y-4717846D01*
X3129584Y-4719726D01*
X3124708Y-4722825D01*
X3120593Y-4726940D01*
X3117494Y-4731816D01*
X3115614Y-4737303D01*
X3114903Y-4743602D01*
X3114903Y-4912461D01*
X3115614Y-4918760D01*
X3117494Y-4924247D01*
X3120593Y-4929124D01*
X3124708Y-4933238D01*
X3129584Y-4936337D01*
X3135071Y-4938217D01*
X3141370Y-4938928D01*
X3270758Y-4938928D01*
X3274923Y-4939842D01*
X3278327Y-4942332D01*
X3280460Y-4946040D01*
X3280867Y-4950256D01*
X3279495Y-4954270D01*
X3275736Y-4960620D01*
X3270503Y-4973015D01*
X3266948Y-4986020D01*
X3265119Y-4999380D01*
X3265119Y-5012842D01*
X3266948Y-5026202D01*
X3270503Y-5039207D01*
X3275736Y-5051602D01*
X3282645Y-5063185D01*
X3290976Y-5073802D01*
X3300679Y-5083149D01*
X3311499Y-5091125D01*
X3323336Y-5097627D01*
X3335934Y-5102453D01*
X3349040Y-5105603D01*
G37*
G36*
X6421120Y-5062728D02*
G01*
X6435140Y-5061813D01*
X6448958Y-5059121D01*
X6462268Y-5054701D01*
X6474968Y-5048605D01*
X6486753Y-5040934D01*
X6497421Y-5031790D01*
X6506870Y-5021376D01*
X6514947Y-5009896D01*
X6521450Y-4997399D01*
X6526276Y-4984191D01*
X6529425Y-4970526D01*
X6530746Y-4956505D01*
X6530340Y-4942484D01*
X6528054Y-4928565D01*
X6524091Y-4915103D01*
X6518402Y-4902250D01*
X6511086Y-4890211D01*
X6502349Y-4879238D01*
X6492240Y-4869484D01*
X6480962Y-4861052D01*
X6468719Y-4854143D01*
X6455714Y-4848860D01*
X6442100Y-4845304D01*
X6428130Y-4843526D01*
X6414109Y-4843526D01*
X6400139Y-4845304D01*
X6386525Y-4848860D01*
X6373520Y-4854143D01*
X6361277Y-4861052D01*
X6350000Y-4869484D01*
X6339890Y-4879238D01*
X6331153Y-4890211D01*
X6323838Y-4902250D01*
X6318148Y-4915103D01*
X6314186Y-4928565D01*
X6311900Y-4942484D01*
X6311493Y-4956505D01*
X6312814Y-4970526D01*
X6315964Y-4984191D01*
X6320790Y-4997399D01*
X6327292Y-5009896D01*
X6335369Y-5021376D01*
X6344818Y-5031790D01*
X6355486Y-5040934D01*
X6367272Y-5048605D01*
X6379972Y-5054701D01*
X6393281Y-5059121D01*
X6407099Y-5061813D01*
G37*
G36*
X6675120Y-5062728D02*
G01*
X6689140Y-5061813D01*
X6702958Y-5059121D01*
X6716268Y-5054701D01*
X6728968Y-5048605D01*
X6740753Y-5040934D01*
X6751421Y-5031790D01*
X6760870Y-5021376D01*
X6768947Y-5009896D01*
X6775450Y-4997399D01*
X6780275Y-4984191D01*
X6783425Y-4970526D01*
X6784746Y-4956505D01*
X6784340Y-4942484D01*
X6782053Y-4928565D01*
X6778091Y-4915103D01*
X6772402Y-4902250D01*
X6765086Y-4890211D01*
X6756349Y-4879238D01*
X6746240Y-4869484D01*
X6734962Y-4861052D01*
X6722719Y-4854143D01*
X6709714Y-4848860D01*
X6696100Y-4845304D01*
X6682130Y-4843526D01*
X6668109Y-4843526D01*
X6654139Y-4845304D01*
X6640525Y-4848860D01*
X6627520Y-4854143D01*
X6615277Y-4861052D01*
X6604000Y-4869484D01*
X6593890Y-4879238D01*
X6585153Y-4890211D01*
X6577838Y-4902250D01*
X6572148Y-4915103D01*
X6568186Y-4928565D01*
X6565900Y-4942484D01*
X6565493Y-4956505D01*
X6566814Y-4970526D01*
X6569964Y-4984191D01*
X6574790Y-4997399D01*
X6581292Y-5009896D01*
X6589369Y-5021376D01*
X6598818Y-5031790D01*
X6609486Y-5040934D01*
X6621272Y-5048605D01*
X6633972Y-5054701D01*
X6647281Y-5059121D01*
X6661099Y-5061813D01*
G37*
G36*
X579120Y-5062728D02*
G01*
X593140Y-5061813D01*
X606958Y-5059121D01*
X620268Y-5054701D01*
X632968Y-5048605D01*
X644753Y-5040934D01*
X655421Y-5031790D01*
X664870Y-5021376D01*
X672947Y-5009896D01*
X679450Y-4997399D01*
X684276Y-4984191D01*
X687425Y-4970526D01*
X688746Y-4956505D01*
X688340Y-4942484D01*
X686054Y-4928565D01*
X682091Y-4915103D01*
X676402Y-4902250D01*
X669086Y-4890211D01*
X660349Y-4879238D01*
X650240Y-4869484D01*
X638962Y-4861052D01*
X626719Y-4854143D01*
X613714Y-4848860D01*
X600100Y-4845304D01*
X586130Y-4843526D01*
X572109Y-4843526D01*
X558139Y-4845304D01*
X544525Y-4848860D01*
X531520Y-4854143D01*
X519277Y-4861052D01*
X508000Y-4869484D01*
X497890Y-4879238D01*
X489153Y-4890211D01*
X481838Y-4902250D01*
X476148Y-4915103D01*
X472185Y-4928565D01*
X469900Y-4942484D01*
X469493Y-4956505D01*
X470814Y-4970526D01*
X473964Y-4984191D01*
X478790Y-4997399D01*
X485292Y-5009896D01*
X493369Y-5021376D01*
X502818Y-5031790D01*
X513486Y-5040934D01*
X525272Y-5048605D01*
X537972Y-5054701D01*
X551281Y-5059121D01*
X565099Y-5061813D01*
G37*
G36*
X325120Y-5062728D02*
G01*
X339140Y-5061813D01*
X352958Y-5059121D01*
X366268Y-5054701D01*
X378968Y-5048605D01*
X390753Y-5040934D01*
X401421Y-5031790D01*
X410870Y-5021376D01*
X418947Y-5009896D01*
X425450Y-4997399D01*
X430276Y-4984191D01*
X433425Y-4970526D01*
X434746Y-4956505D01*
X434340Y-4942484D01*
X432054Y-4928565D01*
X428091Y-4915103D01*
X422401Y-4902250D01*
X415086Y-4890211D01*
X406349Y-4879238D01*
X396240Y-4869484D01*
X384962Y-4861052D01*
X372719Y-4854143D01*
X359714Y-4848860D01*
X346100Y-4845304D01*
X332130Y-4843526D01*
X318109Y-4843526D01*
X304139Y-4845304D01*
X290525Y-4848860D01*
X277520Y-4854143D01*
X265277Y-4861052D01*
X254000Y-4869484D01*
X243890Y-4879238D01*
X235153Y-4890211D01*
X227838Y-4902250D01*
X222148Y-4915103D01*
X218186Y-4928565D01*
X215900Y-4942484D01*
X215493Y-4956505D01*
X216814Y-4970526D01*
X219964Y-4984191D01*
X224790Y-4997399D01*
X231292Y-5009896D01*
X239369Y-5021376D01*
X248818Y-5031790D01*
X259486Y-5040934D01*
X271272Y-5048605D01*
X283972Y-5054701D01*
X297281Y-5059121D01*
X311099Y-5061813D01*
G37*
G36*
X3147669Y-5029098D02*
G01*
X3198114Y-5029098D01*
X3195421Y-5023561D01*
X3187649Y-5011623D01*
X3178454Y-5000802D01*
X3167938Y-4991252D01*
X3156305Y-4983124D01*
X3147669Y-4978654D01*
G37*
G36*
X2131669Y-5029098D02*
G01*
X2182114Y-5029098D01*
X2179421Y-5023561D01*
X2171649Y-5011623D01*
X2162454Y-5000802D01*
X2151938Y-4991252D01*
X2140305Y-4983124D01*
X2131669Y-4978654D01*
G37*
G36*
X1983333Y-5029098D02*
G01*
X2033930Y-5029098D01*
X2033930Y-4978552D01*
X2031492Y-4979670D01*
X2019350Y-4987036D01*
X2008225Y-4995875D01*
X1998370Y-5006086D01*
X1989886Y-5017465D01*
G37*
G36*
X2999333Y-5029098D02*
G01*
X3049930Y-5029098D01*
X3049930Y-4978552D01*
X3047492Y-4979670D01*
X3035350Y-4987036D01*
X3024225Y-4995875D01*
X3014370Y-5006086D01*
X3005886Y-5017465D01*
G37*
G36*
X2213356Y-4938877D02*
G01*
X2227478Y-4937506D01*
X2241346Y-4934356D01*
X2254707Y-4929428D01*
X2267305Y-4922875D01*
X2278938Y-4914747D01*
X2289454Y-4905197D01*
X2298649Y-4894376D01*
X2306421Y-4882438D01*
X2312568Y-4869637D01*
X2317038Y-4856175D01*
X2319782Y-4842205D01*
X2320696Y-4828032D01*
X2319782Y-4813858D01*
X2317038Y-4799888D01*
X2312568Y-4786426D01*
X2306421Y-4773625D01*
X2298649Y-4761687D01*
X2289454Y-4750866D01*
X2278938Y-4741316D01*
X2267305Y-4733188D01*
X2254707Y-4726635D01*
X2241346Y-4721707D01*
X2227478Y-4718558D01*
X2213356Y-4717186D01*
X2199132Y-4717643D01*
X2185111Y-4719929D01*
X2171496Y-4723993D01*
X2158492Y-4729734D01*
X2146350Y-4737100D01*
X2135225Y-4745939D01*
X2125370Y-4756150D01*
X2116886Y-4767529D01*
X2109876Y-4779924D01*
X2104542Y-4793081D01*
X2100935Y-4806848D01*
X2099157Y-4820920D01*
X2099157Y-4835144D01*
X2100935Y-4849215D01*
X2104542Y-4862982D01*
X2109876Y-4876139D01*
X2116886Y-4888534D01*
X2125370Y-4899914D01*
X2135225Y-4910124D01*
X2146350Y-4918964D01*
X2158492Y-4926330D01*
X2171496Y-4932121D01*
X2185111Y-4936134D01*
X2199132Y-4938420D01*
G37*
G36*
X2721356Y-4938877D02*
G01*
X2735478Y-4937506D01*
X2749346Y-4934356D01*
X2762707Y-4929428D01*
X2775305Y-4922875D01*
X2786938Y-4914747D01*
X2797454Y-4905197D01*
X2806649Y-4894376D01*
X2814421Y-4882438D01*
X2820568Y-4869637D01*
X2825038Y-4856175D01*
X2827782Y-4842205D01*
X2828696Y-4828032D01*
X2827782Y-4813858D01*
X2825038Y-4799888D01*
X2820568Y-4786426D01*
X2814421Y-4773625D01*
X2806649Y-4761687D01*
X2797454Y-4750866D01*
X2786938Y-4741316D01*
X2775305Y-4733188D01*
X2762707Y-4726635D01*
X2749346Y-4721707D01*
X2735478Y-4718558D01*
X2721356Y-4717186D01*
X2707132Y-4717643D01*
X2693111Y-4719929D01*
X2679496Y-4723993D01*
X2666492Y-4729734D01*
X2654350Y-4737100D01*
X2643225Y-4745939D01*
X2633370Y-4756150D01*
X2624886Y-4767529D01*
X2617876Y-4779924D01*
X2612542Y-4793081D01*
X2608935Y-4806848D01*
X2607157Y-4820920D01*
X2607157Y-4835144D01*
X2608935Y-4849215D01*
X2612542Y-4862982D01*
X2617876Y-4876139D01*
X2624886Y-4888534D01*
X2633370Y-4899914D01*
X2643225Y-4910124D01*
X2654350Y-4918964D01*
X2666492Y-4926330D01*
X2679496Y-4932121D01*
X2693111Y-4936134D01*
X2707132Y-4938420D01*
G37*
G36*
X2975356Y-4938877D02*
G01*
X2989478Y-4937506D01*
X3003346Y-4934356D01*
X3016707Y-4929428D01*
X3029305Y-4922875D01*
X3040938Y-4914747D01*
X3051454Y-4905197D01*
X3060649Y-4894376D01*
X3068421Y-4882438D01*
X3074568Y-4869637D01*
X3079038Y-4856175D01*
X3081782Y-4842205D01*
X3082696Y-4828032D01*
X3081782Y-4813858D01*
X3079038Y-4799888D01*
X3074568Y-4786426D01*
X3068421Y-4773625D01*
X3060649Y-4761687D01*
X3051454Y-4750866D01*
X3040938Y-4741316D01*
X3029305Y-4733188D01*
X3016707Y-4726635D01*
X3003346Y-4721707D01*
X2989478Y-4718558D01*
X2975356Y-4717186D01*
X2961132Y-4717643D01*
X2947111Y-4719929D01*
X2933496Y-4723993D01*
X2920492Y-4729734D01*
X2908350Y-4737100D01*
X2897225Y-4745939D01*
X2887370Y-4756150D01*
X2878886Y-4767529D01*
X2871876Y-4779924D01*
X2866542Y-4793081D01*
X2862935Y-4806848D01*
X2861157Y-4820920D01*
X2861157Y-4835144D01*
X2862935Y-4849215D01*
X2866542Y-4862982D01*
X2871876Y-4876139D01*
X2878886Y-4888534D01*
X2887370Y-4899914D01*
X2897225Y-4910124D01*
X2908350Y-4918964D01*
X2920492Y-4926330D01*
X2933496Y-4932121D01*
X2947111Y-4936134D01*
X2961132Y-4938420D01*
G37*
G36*
X2467356Y-4938877D02*
G01*
X2481478Y-4937506D01*
X2495346Y-4934356D01*
X2508707Y-4929428D01*
X2521305Y-4922875D01*
X2532938Y-4914747D01*
X2543454Y-4905197D01*
X2552649Y-4894376D01*
X2560421Y-4882438D01*
X2566568Y-4869637D01*
X2571038Y-4856175D01*
X2573782Y-4842205D01*
X2574696Y-4828032D01*
X2573782Y-4813858D01*
X2571038Y-4799888D01*
X2566568Y-4786426D01*
X2560421Y-4773625D01*
X2552649Y-4761687D01*
X2543454Y-4750866D01*
X2532938Y-4741316D01*
X2521305Y-4733188D01*
X2508707Y-4726635D01*
X2495346Y-4721707D01*
X2481478Y-4718558D01*
X2467356Y-4717186D01*
X2453132Y-4717643D01*
X2439111Y-4719929D01*
X2425496Y-4723993D01*
X2412492Y-4729734D01*
X2400350Y-4737100D01*
X2389225Y-4745939D01*
X2379370Y-4756150D01*
X2370886Y-4767529D01*
X2363876Y-4779924D01*
X2358542Y-4793081D01*
X2354935Y-4806848D01*
X2353157Y-4820920D01*
X2353157Y-4835144D01*
X2354935Y-4849215D01*
X2358542Y-4862982D01*
X2363876Y-4876139D01*
X2370886Y-4888534D01*
X2379370Y-4899914D01*
X2389225Y-4910124D01*
X2400350Y-4918964D01*
X2412492Y-4926330D01*
X2425496Y-4932121D01*
X2439111Y-4936134D01*
X2453132Y-4938420D01*
G37*
G36*
X6421120Y-4808728D02*
G01*
X6435140Y-4807813D01*
X6448958Y-4805121D01*
X6462268Y-4800701D01*
X6474968Y-4794605D01*
X6486753Y-4786934D01*
X6497421Y-4777790D01*
X6506870Y-4767376D01*
X6514947Y-4755896D01*
X6521450Y-4743399D01*
X6526276Y-4730191D01*
X6529425Y-4716526D01*
X6530746Y-4702505D01*
X6530340Y-4688484D01*
X6528054Y-4674565D01*
X6524091Y-4661103D01*
X6518402Y-4648250D01*
X6511086Y-4636211D01*
X6502349Y-4625238D01*
X6492240Y-4615484D01*
X6480962Y-4607052D01*
X6468719Y-4600143D01*
X6455714Y-4594860D01*
X6442100Y-4591304D01*
X6428130Y-4589526D01*
X6414109Y-4589526D01*
X6400139Y-4591304D01*
X6386525Y-4594860D01*
X6373520Y-4600143D01*
X6361277Y-4607052D01*
X6350000Y-4615484D01*
X6339890Y-4625238D01*
X6331153Y-4636211D01*
X6323838Y-4648250D01*
X6318148Y-4661103D01*
X6314186Y-4674565D01*
X6311900Y-4688484D01*
X6311493Y-4702505D01*
X6312814Y-4716526D01*
X6315964Y-4730191D01*
X6320790Y-4743399D01*
X6327292Y-4755896D01*
X6335369Y-4767376D01*
X6344818Y-4777790D01*
X6355486Y-4786934D01*
X6367272Y-4794605D01*
X6379972Y-4800701D01*
X6393281Y-4805121D01*
X6407099Y-4807813D01*
G37*
G36*
X6675120Y-4808728D02*
G01*
X6689140Y-4807813D01*
X6702958Y-4805121D01*
X6716268Y-4800701D01*
X6728968Y-4794605D01*
X6740753Y-4786934D01*
X6751421Y-4777790D01*
X6760870Y-4767376D01*
X6768947Y-4755896D01*
X6775450Y-4743399D01*
X6780275Y-4730191D01*
X6783425Y-4716526D01*
X6784746Y-4702505D01*
X6784340Y-4688484D01*
X6782053Y-4674565D01*
X6778091Y-4661103D01*
X6772402Y-4648250D01*
X6765086Y-4636211D01*
X6756349Y-4625238D01*
X6746240Y-4615484D01*
X6734962Y-4607052D01*
X6722719Y-4600143D01*
X6709714Y-4594860D01*
X6696100Y-4591304D01*
X6682130Y-4589526D01*
X6668109Y-4589526D01*
X6654139Y-4591304D01*
X6640525Y-4594860D01*
X6627520Y-4600143D01*
X6615277Y-4607052D01*
X6604000Y-4615484D01*
X6593890Y-4625238D01*
X6585153Y-4636211D01*
X6577838Y-4648250D01*
X6572148Y-4661103D01*
X6568186Y-4674565D01*
X6565900Y-4688484D01*
X6565493Y-4702505D01*
X6566814Y-4716526D01*
X6569964Y-4730191D01*
X6574790Y-4743399D01*
X6581292Y-4755896D01*
X6589369Y-4767376D01*
X6598818Y-4777790D01*
X6609486Y-4786934D01*
X6621272Y-4794605D01*
X6633972Y-4800701D01*
X6647281Y-4805121D01*
X6661099Y-4807813D01*
G37*
G36*
X325120Y-4808728D02*
G01*
X339140Y-4807813D01*
X352958Y-4805121D01*
X366268Y-4800701D01*
X378968Y-4794605D01*
X390753Y-4786934D01*
X401421Y-4777790D01*
X410870Y-4767376D01*
X418947Y-4755896D01*
X425450Y-4743399D01*
X430276Y-4730191D01*
X433425Y-4716526D01*
X434746Y-4702505D01*
X434340Y-4688484D01*
X432054Y-4674565D01*
X428091Y-4661103D01*
X422401Y-4648250D01*
X415086Y-4636211D01*
X406349Y-4625238D01*
X396240Y-4615484D01*
X384962Y-4607052D01*
X372719Y-4600143D01*
X359714Y-4594860D01*
X346100Y-4591304D01*
X332130Y-4589526D01*
X318109Y-4589526D01*
X304139Y-4591304D01*
X290525Y-4594860D01*
X277520Y-4600143D01*
X265277Y-4607052D01*
X254000Y-4615484D01*
X243890Y-4625238D01*
X235153Y-4636211D01*
X227838Y-4648250D01*
X222148Y-4661103D01*
X218186Y-4674565D01*
X215900Y-4688484D01*
X215493Y-4702505D01*
X216814Y-4716526D01*
X219964Y-4730191D01*
X224790Y-4743399D01*
X231292Y-4755896D01*
X239369Y-4767376D01*
X248818Y-4777790D01*
X259486Y-4786934D01*
X271272Y-4794605D01*
X283972Y-4800701D01*
X297281Y-4805121D01*
X311099Y-4807813D01*
G37*
G36*
X579120Y-4808728D02*
G01*
X593140Y-4807813D01*
X606958Y-4805121D01*
X620268Y-4800701D01*
X632968Y-4794605D01*
X644753Y-4786934D01*
X655421Y-4777790D01*
X664870Y-4767376D01*
X672947Y-4755896D01*
X679450Y-4743399D01*
X684276Y-4730191D01*
X687425Y-4716526D01*
X688746Y-4702505D01*
X688340Y-4688484D01*
X686054Y-4674565D01*
X682091Y-4661103D01*
X676402Y-4648250D01*
X669086Y-4636211D01*
X660349Y-4625238D01*
X650240Y-4615484D01*
X638962Y-4607052D01*
X626719Y-4600143D01*
X613714Y-4594860D01*
X600100Y-4591304D01*
X586130Y-4589526D01*
X572109Y-4589526D01*
X558139Y-4591304D01*
X544525Y-4594860D01*
X531520Y-4600143D01*
X519277Y-4607052D01*
X508000Y-4615484D01*
X497890Y-4625238D01*
X489153Y-4636211D01*
X481838Y-4648250D01*
X476148Y-4661103D01*
X472185Y-4674565D01*
X469900Y-4688484D01*
X469493Y-4702505D01*
X470814Y-4716526D01*
X473964Y-4730191D01*
X478790Y-4743399D01*
X485292Y-4755896D01*
X493369Y-4767376D01*
X502818Y-4777790D01*
X513486Y-4786934D01*
X525272Y-4794605D01*
X537972Y-4800701D01*
X551281Y-4805121D01*
X565099Y-4807813D01*
G37*
G36*
X6421120Y-4554728D02*
G01*
X6435140Y-4553813D01*
X6448958Y-4551121D01*
X6462268Y-4546701D01*
X6474968Y-4540605D01*
X6486753Y-4532934D01*
X6497421Y-4523790D01*
X6506870Y-4513376D01*
X6514947Y-4501896D01*
X6521450Y-4489399D01*
X6526276Y-4476191D01*
X6529425Y-4462526D01*
X6530746Y-4448505D01*
X6530340Y-4434484D01*
X6528054Y-4420565D01*
X6524091Y-4407103D01*
X6518402Y-4394250D01*
X6511086Y-4382211D01*
X6502349Y-4371238D01*
X6492240Y-4361484D01*
X6480962Y-4353052D01*
X6468719Y-4346143D01*
X6455714Y-4340860D01*
X6442100Y-4337304D01*
X6428130Y-4335526D01*
X6414109Y-4335526D01*
X6400139Y-4337304D01*
X6386525Y-4340860D01*
X6373520Y-4346143D01*
X6361277Y-4353052D01*
X6350000Y-4361484D01*
X6339890Y-4371238D01*
X6331153Y-4382211D01*
X6323838Y-4394250D01*
X6318148Y-4407103D01*
X6314186Y-4420565D01*
X6311900Y-4434484D01*
X6311493Y-4448505D01*
X6312814Y-4462526D01*
X6315964Y-4476191D01*
X6320790Y-4489399D01*
X6327292Y-4501896D01*
X6335369Y-4513376D01*
X6344818Y-4523790D01*
X6355486Y-4532934D01*
X6367272Y-4540605D01*
X6379972Y-4546701D01*
X6393281Y-4551121D01*
X6407099Y-4553813D01*
G37*
G36*
X6675120Y-4554728D02*
G01*
X6689140Y-4553813D01*
X6702958Y-4551121D01*
X6716268Y-4546701D01*
X6728968Y-4540605D01*
X6740753Y-4532934D01*
X6751421Y-4523790D01*
X6760870Y-4513376D01*
X6768947Y-4501896D01*
X6775450Y-4489399D01*
X6780275Y-4476191D01*
X6783425Y-4462526D01*
X6784746Y-4448505D01*
X6784340Y-4434484D01*
X6782053Y-4420565D01*
X6778091Y-4407103D01*
X6772402Y-4394250D01*
X6765086Y-4382211D01*
X6756349Y-4371238D01*
X6746240Y-4361484D01*
X6734962Y-4353052D01*
X6722719Y-4346143D01*
X6709714Y-4340860D01*
X6696100Y-4337304D01*
X6682130Y-4335526D01*
X6668109Y-4335526D01*
X6654139Y-4337304D01*
X6640525Y-4340860D01*
X6627520Y-4346143D01*
X6615277Y-4353052D01*
X6604000Y-4361484D01*
X6593890Y-4371238D01*
X6585153Y-4382211D01*
X6577838Y-4394250D01*
X6572148Y-4407103D01*
X6568186Y-4420565D01*
X6565900Y-4434484D01*
X6565493Y-4448505D01*
X6566814Y-4462526D01*
X6569964Y-4476191D01*
X6574790Y-4489399D01*
X6581292Y-4501896D01*
X6589369Y-4513376D01*
X6598818Y-4523790D01*
X6609486Y-4532934D01*
X6621272Y-4540605D01*
X6633972Y-4546701D01*
X6647281Y-4551121D01*
X6661099Y-4553813D01*
G37*
G36*
X325120Y-4554728D02*
G01*
X339140Y-4553813D01*
X352958Y-4551121D01*
X366268Y-4546701D01*
X378968Y-4540605D01*
X390753Y-4532934D01*
X401421Y-4523790D01*
X410870Y-4513376D01*
X418947Y-4501896D01*
X425450Y-4489399D01*
X430276Y-4476191D01*
X433425Y-4462526D01*
X434746Y-4448505D01*
X434340Y-4434484D01*
X432054Y-4420565D01*
X428091Y-4407103D01*
X422401Y-4394250D01*
X415086Y-4382211D01*
X406349Y-4371238D01*
X396240Y-4361484D01*
X384962Y-4353052D01*
X372719Y-4346143D01*
X359714Y-4340860D01*
X346100Y-4337304D01*
X332130Y-4335526D01*
X318109Y-4335526D01*
X304139Y-4337304D01*
X290525Y-4340860D01*
X277520Y-4346143D01*
X265277Y-4353052D01*
X254000Y-4361484D01*
X243890Y-4371238D01*
X235153Y-4382211D01*
X227838Y-4394250D01*
X222148Y-4407103D01*
X218186Y-4420565D01*
X215900Y-4434484D01*
X215493Y-4448505D01*
X216814Y-4462526D01*
X219964Y-4476191D01*
X224790Y-4489399D01*
X231292Y-4501896D01*
X239369Y-4513376D01*
X248818Y-4523790D01*
X259486Y-4532934D01*
X271272Y-4540605D01*
X283972Y-4546701D01*
X297281Y-4551121D01*
X311099Y-4553813D01*
G37*
G36*
X579120Y-4554728D02*
G01*
X593140Y-4553813D01*
X606958Y-4551121D01*
X620268Y-4546701D01*
X632968Y-4540605D01*
X644753Y-4532934D01*
X655421Y-4523790D01*
X664870Y-4513376D01*
X672947Y-4501896D01*
X679450Y-4489399D01*
X684276Y-4476191D01*
X687425Y-4462526D01*
X688746Y-4448505D01*
X688340Y-4434484D01*
X686054Y-4420565D01*
X682091Y-4407103D01*
X676402Y-4394250D01*
X669086Y-4382211D01*
X660349Y-4371238D01*
X650240Y-4361484D01*
X638962Y-4353052D01*
X626719Y-4346143D01*
X613714Y-4340860D01*
X600100Y-4337304D01*
X586130Y-4335526D01*
X572109Y-4335526D01*
X558139Y-4337304D01*
X544525Y-4340860D01*
X531520Y-4346143D01*
X519277Y-4353052D01*
X508000Y-4361484D01*
X497890Y-4371238D01*
X489153Y-4382211D01*
X481838Y-4394250D01*
X476148Y-4407103D01*
X472185Y-4420565D01*
X469900Y-4434484D01*
X469493Y-4448505D01*
X470814Y-4462526D01*
X473964Y-4476191D01*
X478790Y-4489399D01*
X485292Y-4501896D01*
X493369Y-4513376D01*
X502818Y-4523790D01*
X513486Y-4532934D01*
X525272Y-4540605D01*
X537972Y-4546701D01*
X551281Y-4551121D01*
X565099Y-4553813D01*
G37*
G36*
X6421120Y-4300728D02*
G01*
X6435140Y-4299813D01*
X6448958Y-4297121D01*
X6462268Y-4292701D01*
X6474968Y-4286605D01*
X6486753Y-4278934D01*
X6497421Y-4269790D01*
X6506870Y-4259376D01*
X6514947Y-4247896D01*
X6521450Y-4235399D01*
X6526276Y-4222191D01*
X6529425Y-4208526D01*
X6530746Y-4194505D01*
X6530340Y-4180484D01*
X6528054Y-4166565D01*
X6524091Y-4153103D01*
X6518402Y-4140250D01*
X6511086Y-4128211D01*
X6502349Y-4117238D01*
X6492240Y-4107484D01*
X6480962Y-4099051D01*
X6468719Y-4092143D01*
X6455714Y-4086860D01*
X6442100Y-4083304D01*
X6428130Y-4081526D01*
X6414109Y-4081526D01*
X6400139Y-4083304D01*
X6386525Y-4086860D01*
X6373520Y-4092143D01*
X6361277Y-4099051D01*
X6350000Y-4107484D01*
X6339890Y-4117238D01*
X6331153Y-4128211D01*
X6323838Y-4140250D01*
X6318148Y-4153103D01*
X6314186Y-4166565D01*
X6311900Y-4180484D01*
X6311493Y-4194505D01*
X6312814Y-4208526D01*
X6315964Y-4222191D01*
X6320790Y-4235399D01*
X6327292Y-4247896D01*
X6335369Y-4259376D01*
X6344818Y-4269790D01*
X6355486Y-4278934D01*
X6367272Y-4286605D01*
X6379972Y-4292701D01*
X6393281Y-4297121D01*
X6407099Y-4299813D01*
G37*
G36*
X6675120Y-4300728D02*
G01*
X6689140Y-4299813D01*
X6702958Y-4297121D01*
X6716268Y-4292701D01*
X6728968Y-4286605D01*
X6740753Y-4278934D01*
X6751421Y-4269790D01*
X6760870Y-4259376D01*
X6768947Y-4247896D01*
X6775450Y-4235399D01*
X6780275Y-4222191D01*
X6783425Y-4208526D01*
X6784746Y-4194505D01*
X6784340Y-4180484D01*
X6782053Y-4166565D01*
X6778091Y-4153103D01*
X6772402Y-4140250D01*
X6765086Y-4128211D01*
X6756349Y-4117238D01*
X6746240Y-4107484D01*
X6734962Y-4099051D01*
X6722719Y-4092143D01*
X6709714Y-4086860D01*
X6696100Y-4083304D01*
X6682130Y-4081526D01*
X6668109Y-4081526D01*
X6654139Y-4083304D01*
X6640525Y-4086860D01*
X6627520Y-4092143D01*
X6615277Y-4099051D01*
X6604000Y-4107484D01*
X6593890Y-4117238D01*
X6585153Y-4128211D01*
X6577838Y-4140250D01*
X6572148Y-4153103D01*
X6568186Y-4166565D01*
X6565900Y-4180484D01*
X6565493Y-4194505D01*
X6566814Y-4208526D01*
X6569964Y-4222191D01*
X6574790Y-4235399D01*
X6581292Y-4247896D01*
X6589369Y-4259376D01*
X6598818Y-4269790D01*
X6609486Y-4278934D01*
X6621272Y-4286605D01*
X6633972Y-4292701D01*
X6647281Y-4297121D01*
X6661099Y-4299813D01*
G37*
G36*
X325120Y-4300728D02*
G01*
X339140Y-4299813D01*
X352958Y-4297121D01*
X366268Y-4292701D01*
X378968Y-4286605D01*
X390753Y-4278934D01*
X401421Y-4269790D01*
X410870Y-4259376D01*
X418947Y-4247896D01*
X425450Y-4235399D01*
X430276Y-4222191D01*
X433425Y-4208526D01*
X434746Y-4194505D01*
X434340Y-4180484D01*
X432054Y-4166565D01*
X428091Y-4153103D01*
X422401Y-4140250D01*
X415086Y-4128211D01*
X406349Y-4117238D01*
X396240Y-4107484D01*
X384962Y-4099051D01*
X372719Y-4092143D01*
X359714Y-4086860D01*
X346100Y-4083304D01*
X332130Y-4081526D01*
X318109Y-4081526D01*
X304139Y-4083304D01*
X290525Y-4086860D01*
X277520Y-4092143D01*
X265277Y-4099051D01*
X254000Y-4107484D01*
X243890Y-4117238D01*
X235153Y-4128211D01*
X227838Y-4140250D01*
X222148Y-4153103D01*
X218186Y-4166565D01*
X215900Y-4180484D01*
X215493Y-4194505D01*
X216814Y-4208526D01*
X219964Y-4222191D01*
X224790Y-4235399D01*
X231292Y-4247896D01*
X239369Y-4259376D01*
X248818Y-4269790D01*
X259486Y-4278934D01*
X271272Y-4286605D01*
X283972Y-4292701D01*
X297281Y-4297121D01*
X311099Y-4299813D01*
G37*
G36*
X579120Y-4300728D02*
G01*
X593140Y-4299813D01*
X606958Y-4297121D01*
X620268Y-4292701D01*
X632968Y-4286605D01*
X644753Y-4278934D01*
X655421Y-4269790D01*
X664870Y-4259376D01*
X672947Y-4247896D01*
X679450Y-4235399D01*
X684276Y-4222191D01*
X687425Y-4208526D01*
X688746Y-4194505D01*
X688340Y-4180484D01*
X686054Y-4166565D01*
X682091Y-4153103D01*
X676402Y-4140250D01*
X669086Y-4128211D01*
X660349Y-4117238D01*
X650240Y-4107484D01*
X638962Y-4099051D01*
X626719Y-4092143D01*
X613714Y-4086860D01*
X600100Y-4083304D01*
X586130Y-4081526D01*
X572109Y-4081526D01*
X558139Y-4083304D01*
X544525Y-4086860D01*
X531520Y-4092143D01*
X519277Y-4099051D01*
X508000Y-4107484D01*
X497890Y-4117238D01*
X489153Y-4128211D01*
X481838Y-4140250D01*
X476148Y-4153103D01*
X472185Y-4166565D01*
X469900Y-4180484D01*
X469493Y-4194505D01*
X470814Y-4208526D01*
X473964Y-4222191D01*
X478790Y-4235399D01*
X485292Y-4247896D01*
X493369Y-4259376D01*
X502818Y-4269790D01*
X513486Y-4278934D01*
X525272Y-4286605D01*
X537972Y-4292701D01*
X551281Y-4297121D01*
X565099Y-4299813D01*
G37*
G36*
X325120Y-4046728D02*
G01*
X339140Y-4045813D01*
X352958Y-4043121D01*
X366268Y-4038701D01*
X378968Y-4032605D01*
X390753Y-4024934D01*
X401421Y-4015790D01*
X410870Y-4005376D01*
X418947Y-3993896D01*
X425450Y-3981399D01*
X430276Y-3968191D01*
X433425Y-3954526D01*
X434746Y-3940505D01*
X434340Y-3926484D01*
X432054Y-3912565D01*
X428091Y-3899103D01*
X422401Y-3886250D01*
X415086Y-3874211D01*
X406349Y-3863238D01*
X396240Y-3853484D01*
X384962Y-3845051D01*
X372719Y-3838143D01*
X359714Y-3832860D01*
X346100Y-3829304D01*
X332130Y-3827526D01*
X318109Y-3827526D01*
X304139Y-3829304D01*
X290525Y-3832860D01*
X277520Y-3838143D01*
X265277Y-3845051D01*
X254000Y-3853484D01*
X243890Y-3863238D01*
X235153Y-3874211D01*
X227838Y-3886250D01*
X222148Y-3899103D01*
X218186Y-3912565D01*
X215900Y-3926484D01*
X215493Y-3940505D01*
X216814Y-3954526D01*
X219964Y-3968191D01*
X224790Y-3981399D01*
X231292Y-3993896D01*
X239369Y-4005376D01*
X248818Y-4015790D01*
X259486Y-4024934D01*
X271272Y-4032605D01*
X283972Y-4038701D01*
X297281Y-4043121D01*
X311099Y-4045813D01*
G37*
G36*
X579120Y-4046728D02*
G01*
X593140Y-4045813D01*
X606958Y-4043121D01*
X620268Y-4038701D01*
X632968Y-4032605D01*
X644753Y-4024934D01*
X655421Y-4015790D01*
X664870Y-4005376D01*
X672947Y-3993896D01*
X679450Y-3981399D01*
X684276Y-3968191D01*
X687425Y-3954526D01*
X688746Y-3940505D01*
X688340Y-3926484D01*
X686054Y-3912565D01*
X682091Y-3899103D01*
X676402Y-3886250D01*
X669086Y-3874211D01*
X660349Y-3863238D01*
X650240Y-3853484D01*
X638962Y-3845051D01*
X626719Y-3838143D01*
X613714Y-3832860D01*
X600100Y-3829304D01*
X586130Y-3827526D01*
X572109Y-3827526D01*
X558139Y-3829304D01*
X544525Y-3832860D01*
X531520Y-3838143D01*
X519277Y-3845051D01*
X508000Y-3853484D01*
X497890Y-3863238D01*
X489153Y-3874211D01*
X481838Y-3886250D01*
X476148Y-3899103D01*
X472185Y-3912565D01*
X469900Y-3926484D01*
X469493Y-3940505D01*
X470814Y-3954526D01*
X473964Y-3968191D01*
X478790Y-3981399D01*
X485292Y-3993896D01*
X493369Y-4005376D01*
X502818Y-4015790D01*
X513486Y-4024934D01*
X525272Y-4032605D01*
X537972Y-4038701D01*
X551281Y-4043121D01*
X565099Y-4045813D01*
G37*
G36*
X6421120Y-4046728D02*
G01*
X6435140Y-4045813D01*
X6448958Y-4043121D01*
X6462268Y-4038701D01*
X6474968Y-4032605D01*
X6486753Y-4024934D01*
X6497421Y-4015790D01*
X6506870Y-4005376D01*
X6514947Y-3993896D01*
X6521450Y-3981399D01*
X6526276Y-3968191D01*
X6529425Y-3954526D01*
X6530746Y-3940505D01*
X6530340Y-3926484D01*
X6528054Y-3912565D01*
X6524091Y-3899103D01*
X6518402Y-3886250D01*
X6511086Y-3874211D01*
X6503822Y-3865118D01*
X6502044Y-3861765D01*
X6501638Y-3858006D01*
X6502603Y-3854348D01*
X6504838Y-3851300D01*
X6508038Y-3849319D01*
X6511747Y-3848608D01*
X6527901Y-3848608D01*
X6531813Y-3849370D01*
X6535115Y-3851554D01*
X6570472Y-3886911D01*
X6572707Y-3890314D01*
X6573418Y-3894277D01*
X6568186Y-3912565D01*
X6565900Y-3926484D01*
X6565493Y-3940505D01*
X6566814Y-3954526D01*
X6569964Y-3968191D01*
X6574790Y-3981399D01*
X6581292Y-3993896D01*
X6589369Y-4005376D01*
X6598818Y-4015790D01*
X6609486Y-4024934D01*
X6621272Y-4032605D01*
X6633972Y-4038701D01*
X6647281Y-4043121D01*
X6661099Y-4045813D01*
X6675120Y-4046728D01*
X6689140Y-4045813D01*
X6702958Y-4043121D01*
X6716268Y-4038701D01*
X6728968Y-4032605D01*
X6740753Y-4024934D01*
X6751421Y-4015790D01*
X6760870Y-4005376D01*
X6768947Y-3993896D01*
X6775450Y-3981399D01*
X6780275Y-3968191D01*
X6783425Y-3954526D01*
X6784746Y-3940505D01*
X6784340Y-3926484D01*
X6782053Y-3912565D01*
X6778091Y-3899103D01*
X6772402Y-3886250D01*
X6765086Y-3874211D01*
X6756349Y-3863238D01*
X6746240Y-3853484D01*
X6734962Y-3845051D01*
X6722719Y-3838143D01*
X6709714Y-3832860D01*
X6696100Y-3829304D01*
X6682130Y-3827526D01*
X6668109Y-3827526D01*
X6654139Y-3829304D01*
X6640525Y-3832860D01*
X6636156Y-3834688D01*
X6632295Y-3835400D01*
X6628434Y-3834637D01*
X6625132Y-3832453D01*
X6575755Y-3783025D01*
X6569557Y-3777945D01*
X6562852Y-3774389D01*
X6555638Y-3772154D01*
X6547612Y-3771392D01*
X6511696Y-3771392D01*
X6507886Y-3770629D01*
X6504635Y-3768547D01*
X6502400Y-3765346D01*
X6501536Y-3761536D01*
X6502146Y-3757726D01*
X6504178Y-3754374D01*
X6506870Y-3751376D01*
X6514947Y-3739896D01*
X6521450Y-3727399D01*
X6526276Y-3714191D01*
X6529425Y-3700526D01*
X6530746Y-3686505D01*
X6530340Y-3672484D01*
X6528054Y-3658565D01*
X6524091Y-3645103D01*
X6518402Y-3632250D01*
X6511086Y-3620211D01*
X6502349Y-3609238D01*
X6492240Y-3599484D01*
X6480962Y-3591051D01*
X6468719Y-3584143D01*
X6455714Y-3578860D01*
X6442100Y-3575304D01*
X6428130Y-3573526D01*
X6414109Y-3573526D01*
X6400139Y-3575304D01*
X6386525Y-3578860D01*
X6373520Y-3584143D01*
X6361277Y-3591051D01*
X6350000Y-3599484D01*
X6339890Y-3609238D01*
X6331153Y-3620211D01*
X6323838Y-3632250D01*
X6318148Y-3645103D01*
X6314186Y-3658565D01*
X6311900Y-3672484D01*
X6311493Y-3686505D01*
X6312814Y-3700526D01*
X6315964Y-3714191D01*
X6320790Y-3727399D01*
X6327292Y-3739896D01*
X6335369Y-3751376D01*
X6338062Y-3754374D01*
X6340094Y-3757726D01*
X6340703Y-3761536D01*
X6339840Y-3765346D01*
X6337604Y-3768547D01*
X6334353Y-3770629D01*
X6330543Y-3771392D01*
X6172708Y-3771392D01*
X6164681Y-3772154D01*
X6157417Y-3774389D01*
X6150762Y-3777945D01*
X6144514Y-3783025D01*
X6088989Y-3838600D01*
X6086195Y-3840581D01*
X6082995Y-3841496D01*
X6079642Y-3841343D01*
X6070142Y-3839311D01*
X6057900Y-3838397D01*
X6045657Y-3839311D01*
X6033719Y-3841902D01*
X6022238Y-3846169D01*
X6011468Y-3852062D01*
X6001664Y-3859377D01*
X5992977Y-3868064D01*
X5985662Y-3877868D01*
X5979769Y-3888638D01*
X5975502Y-3900119D01*
X5972911Y-3912057D01*
X5971997Y-3924300D01*
X5972911Y-3936542D01*
X5975502Y-3948480D01*
X5979769Y-3959961D01*
X5985662Y-3970731D01*
X5992977Y-3980535D01*
X6001664Y-3989222D01*
X6011468Y-3996537D01*
X6022238Y-4002430D01*
X6033719Y-4006697D01*
X6045657Y-4009288D01*
X6057900Y-4010202D01*
X6070142Y-4009288D01*
X6082080Y-4006697D01*
X6093561Y-4002430D01*
X6104331Y-3996537D01*
X6114135Y-3989222D01*
X6122822Y-3980535D01*
X6130137Y-3970731D01*
X6136030Y-3959961D01*
X6140297Y-3948480D01*
X6142888Y-3936542D01*
X6143802Y-3924300D01*
X6142888Y-3912057D01*
X6140856Y-3902557D01*
X6140653Y-3899204D01*
X6141618Y-3895953D01*
X6143599Y-3893210D01*
X6185204Y-3851554D01*
X6188506Y-3849370D01*
X6192367Y-3848608D01*
X6330492Y-3848608D01*
X6334201Y-3849319D01*
X6337401Y-3851300D01*
X6339636Y-3854348D01*
X6340602Y-3858006D01*
X6340195Y-3861765D01*
X6338417Y-3865118D01*
X6331153Y-3874211D01*
X6323838Y-3886250D01*
X6318148Y-3899103D01*
X6314186Y-3912565D01*
X6311900Y-3926484D01*
X6311493Y-3940505D01*
X6312814Y-3954526D01*
X6315964Y-3968191D01*
X6320790Y-3981399D01*
X6327292Y-3993896D01*
X6335369Y-4005376D01*
X6344818Y-4015790D01*
X6355486Y-4024934D01*
X6367272Y-4032605D01*
X6379972Y-4038701D01*
X6393281Y-4043121D01*
X6407099Y-4045813D01*
G37*
G36*
X6675120Y-3792728D02*
G01*
X6689140Y-3791813D01*
X6702958Y-3789121D01*
X6716268Y-3784701D01*
X6728968Y-3778605D01*
X6740753Y-3770934D01*
X6751421Y-3761790D01*
X6760870Y-3751376D01*
X6768947Y-3739896D01*
X6775450Y-3727399D01*
X6780275Y-3714191D01*
X6783425Y-3700526D01*
X6784746Y-3686505D01*
X6784340Y-3672484D01*
X6782053Y-3658565D01*
X6778091Y-3645103D01*
X6772402Y-3632250D01*
X6765086Y-3620211D01*
X6756349Y-3609238D01*
X6746240Y-3599484D01*
X6734962Y-3591051D01*
X6722719Y-3584143D01*
X6709714Y-3578860D01*
X6696100Y-3575304D01*
X6682130Y-3573526D01*
X6668109Y-3573526D01*
X6654139Y-3575304D01*
X6640525Y-3578860D01*
X6627520Y-3584143D01*
X6615277Y-3591051D01*
X6604000Y-3599484D01*
X6593890Y-3609238D01*
X6585153Y-3620211D01*
X6577838Y-3632250D01*
X6572148Y-3645103D01*
X6568186Y-3658565D01*
X6565900Y-3672484D01*
X6565493Y-3686505D01*
X6566814Y-3700526D01*
X6569964Y-3714191D01*
X6574790Y-3727399D01*
X6581292Y-3739896D01*
X6589369Y-3751376D01*
X6598818Y-3761790D01*
X6609486Y-3770934D01*
X6621272Y-3778605D01*
X6633972Y-3784701D01*
X6647281Y-3789121D01*
X6661099Y-3791813D01*
G37*
G36*
X325120Y-3792728D02*
G01*
X339140Y-3791813D01*
X352958Y-3789121D01*
X366268Y-3784701D01*
X378968Y-3778605D01*
X390753Y-3770934D01*
X401421Y-3761790D01*
X410870Y-3751376D01*
X418947Y-3739896D01*
X425450Y-3727399D01*
X430276Y-3714191D01*
X433425Y-3700526D01*
X434746Y-3686505D01*
X434340Y-3672484D01*
X432054Y-3658565D01*
X428091Y-3645103D01*
X422401Y-3632250D01*
X415086Y-3620211D01*
X406349Y-3609238D01*
X396240Y-3599484D01*
X384962Y-3591051D01*
X372719Y-3584143D01*
X359714Y-3578860D01*
X346100Y-3575304D01*
X332130Y-3573526D01*
X318109Y-3573526D01*
X304139Y-3575304D01*
X290525Y-3578860D01*
X277520Y-3584143D01*
X265277Y-3591051D01*
X254000Y-3599484D01*
X243890Y-3609238D01*
X235153Y-3620211D01*
X227838Y-3632250D01*
X222148Y-3645103D01*
X218186Y-3658565D01*
X215900Y-3672484D01*
X215493Y-3686505D01*
X216814Y-3700526D01*
X219964Y-3714191D01*
X224790Y-3727399D01*
X231292Y-3739896D01*
X239369Y-3751376D01*
X248818Y-3761790D01*
X259486Y-3770934D01*
X271272Y-3778605D01*
X283972Y-3784701D01*
X297281Y-3789121D01*
X311099Y-3791813D01*
G37*
G36*
X579120Y-3792728D02*
G01*
X593140Y-3791813D01*
X606958Y-3789121D01*
X620268Y-3784701D01*
X632968Y-3778605D01*
X644753Y-3770934D01*
X655421Y-3761790D01*
X664870Y-3751376D01*
X672947Y-3739896D01*
X679450Y-3727399D01*
X684276Y-3714191D01*
X687425Y-3700526D01*
X688746Y-3686505D01*
X688340Y-3672484D01*
X686054Y-3658565D01*
X682091Y-3645103D01*
X676402Y-3632250D01*
X669086Y-3620211D01*
X660349Y-3609238D01*
X650240Y-3599484D01*
X638962Y-3591051D01*
X626719Y-3584143D01*
X613714Y-3578860D01*
X600100Y-3575304D01*
X586130Y-3573526D01*
X572109Y-3573526D01*
X558139Y-3575304D01*
X544525Y-3578860D01*
X531520Y-3584143D01*
X519277Y-3591051D01*
X508000Y-3599484D01*
X497890Y-3609238D01*
X489153Y-3620211D01*
X481838Y-3632250D01*
X476148Y-3645103D01*
X472185Y-3658565D01*
X469900Y-3672484D01*
X469493Y-3686505D01*
X470814Y-3700526D01*
X473964Y-3714191D01*
X478790Y-3727399D01*
X485292Y-3739896D01*
X493369Y-3751376D01*
X502818Y-3761790D01*
X513486Y-3770934D01*
X525272Y-3778605D01*
X537972Y-3784701D01*
X551281Y-3789121D01*
X565099Y-3791813D01*
G37*
G36*
X6421120Y-3538728D02*
G01*
X6435140Y-3537813D01*
X6448958Y-3535121D01*
X6462268Y-3530701D01*
X6474968Y-3524605D01*
X6486753Y-3516934D01*
X6497421Y-3507790D01*
X6506870Y-3497376D01*
X6514947Y-3485896D01*
X6521450Y-3473399D01*
X6526276Y-3460191D01*
X6529425Y-3446526D01*
X6530746Y-3432505D01*
X6530340Y-3418484D01*
X6528054Y-3404565D01*
X6524091Y-3391103D01*
X6518402Y-3378250D01*
X6511086Y-3366211D01*
X6502349Y-3355238D01*
X6492240Y-3345484D01*
X6480962Y-3337051D01*
X6468719Y-3330143D01*
X6455714Y-3324860D01*
X6442100Y-3321304D01*
X6428130Y-3319526D01*
X6414109Y-3319526D01*
X6400139Y-3321304D01*
X6386525Y-3324860D01*
X6373520Y-3330143D01*
X6361277Y-3337051D01*
X6350000Y-3345484D01*
X6339890Y-3355238D01*
X6331153Y-3366211D01*
X6323838Y-3378250D01*
X6318148Y-3391103D01*
X6314186Y-3404565D01*
X6311900Y-3418484D01*
X6311493Y-3432505D01*
X6312814Y-3446526D01*
X6315964Y-3460191D01*
X6320790Y-3473399D01*
X6327292Y-3485896D01*
X6335369Y-3497376D01*
X6344818Y-3507790D01*
X6355486Y-3516934D01*
X6367272Y-3524605D01*
X6379972Y-3530701D01*
X6393281Y-3535121D01*
X6407099Y-3537813D01*
G37*
G36*
X6675120Y-3538728D02*
G01*
X6689140Y-3537813D01*
X6702958Y-3535121D01*
X6716268Y-3530701D01*
X6728968Y-3524605D01*
X6740753Y-3516934D01*
X6751421Y-3507790D01*
X6760870Y-3497376D01*
X6768947Y-3485896D01*
X6775450Y-3473399D01*
X6780275Y-3460191D01*
X6783425Y-3446526D01*
X6784746Y-3432505D01*
X6784340Y-3418484D01*
X6782053Y-3404565D01*
X6778091Y-3391103D01*
X6772402Y-3378250D01*
X6765086Y-3366211D01*
X6756349Y-3355238D01*
X6746240Y-3345484D01*
X6734962Y-3337051D01*
X6722719Y-3330143D01*
X6709714Y-3324860D01*
X6696100Y-3321304D01*
X6682130Y-3319526D01*
X6668109Y-3319526D01*
X6654139Y-3321304D01*
X6640525Y-3324860D01*
X6627520Y-3330143D01*
X6615277Y-3337051D01*
X6604000Y-3345484D01*
X6593890Y-3355238D01*
X6585153Y-3366211D01*
X6577838Y-3378250D01*
X6572148Y-3391103D01*
X6568186Y-3404565D01*
X6565900Y-3418484D01*
X6565493Y-3432505D01*
X6566814Y-3446526D01*
X6569964Y-3460191D01*
X6574790Y-3473399D01*
X6581292Y-3485896D01*
X6589369Y-3497376D01*
X6598818Y-3507790D01*
X6609486Y-3516934D01*
X6621272Y-3524605D01*
X6633972Y-3530701D01*
X6647281Y-3535121D01*
X6661099Y-3537813D01*
G37*
G36*
X579120Y-3538728D02*
G01*
X593140Y-3537813D01*
X606958Y-3535121D01*
X620268Y-3530701D01*
X632968Y-3524605D01*
X644753Y-3516934D01*
X655421Y-3507790D01*
X664870Y-3497376D01*
X672947Y-3485896D01*
X679450Y-3473399D01*
X684276Y-3460191D01*
X687425Y-3446526D01*
X688746Y-3432505D01*
X688340Y-3418484D01*
X686054Y-3404565D01*
X682091Y-3391103D01*
X676402Y-3378250D01*
X669086Y-3366211D01*
X660349Y-3355238D01*
X650240Y-3345484D01*
X638962Y-3337051D01*
X626719Y-3330143D01*
X613714Y-3324860D01*
X600100Y-3321304D01*
X586130Y-3319526D01*
X572109Y-3319526D01*
X558139Y-3321304D01*
X544525Y-3324860D01*
X531520Y-3330143D01*
X519277Y-3337051D01*
X508000Y-3345484D01*
X497890Y-3355238D01*
X489153Y-3366211D01*
X481838Y-3378250D01*
X476148Y-3391103D01*
X472185Y-3404565D01*
X469900Y-3418484D01*
X469493Y-3432505D01*
X470814Y-3446526D01*
X473964Y-3460191D01*
X478790Y-3473399D01*
X485292Y-3485896D01*
X493369Y-3497376D01*
X502818Y-3507790D01*
X513486Y-3516934D01*
X525272Y-3524605D01*
X537972Y-3530701D01*
X551281Y-3535121D01*
X565099Y-3537813D01*
G37*
G36*
X325120Y-3538728D02*
G01*
X339140Y-3537813D01*
X352958Y-3535121D01*
X366268Y-3530701D01*
X378968Y-3524605D01*
X390753Y-3516934D01*
X401421Y-3507790D01*
X410870Y-3497376D01*
X418947Y-3485896D01*
X425450Y-3473399D01*
X430276Y-3460191D01*
X433425Y-3446526D01*
X434746Y-3432505D01*
X434340Y-3418484D01*
X432054Y-3404565D01*
X428091Y-3391103D01*
X422401Y-3378250D01*
X415086Y-3366211D01*
X406349Y-3355238D01*
X396240Y-3345484D01*
X384962Y-3337051D01*
X372719Y-3330143D01*
X359714Y-3324860D01*
X346100Y-3321304D01*
X332130Y-3319526D01*
X318109Y-3319526D01*
X304139Y-3321304D01*
X290525Y-3324860D01*
X277520Y-3330143D01*
X265277Y-3337051D01*
X254000Y-3345484D01*
X243890Y-3355238D01*
X235153Y-3366211D01*
X227838Y-3378250D01*
X222148Y-3391103D01*
X218186Y-3404565D01*
X215900Y-3418484D01*
X215493Y-3432505D01*
X216814Y-3446526D01*
X219964Y-3460191D01*
X224790Y-3473399D01*
X231292Y-3485896D01*
X239369Y-3497376D01*
X248818Y-3507790D01*
X259486Y-3516934D01*
X271272Y-3524605D01*
X283972Y-3530701D01*
X297281Y-3535121D01*
X311099Y-3537813D01*
G37*
G36*
X6675120Y-3284728D02*
G01*
X6689140Y-3283813D01*
X6702958Y-3281121D01*
X6716268Y-3276701D01*
X6728968Y-3270605D01*
X6740753Y-3262934D01*
X6751421Y-3253790D01*
X6760870Y-3243376D01*
X6768947Y-3231896D01*
X6775450Y-3219399D01*
X6780275Y-3206191D01*
X6783425Y-3192526D01*
X6784746Y-3178505D01*
X6784340Y-3164484D01*
X6782053Y-3150565D01*
X6778091Y-3137103D01*
X6772402Y-3124250D01*
X6765086Y-3112211D01*
X6756349Y-3101238D01*
X6746240Y-3091484D01*
X6734962Y-3083052D01*
X6722719Y-3076143D01*
X6709714Y-3070860D01*
X6696100Y-3067304D01*
X6682130Y-3065526D01*
X6668109Y-3065526D01*
X6654139Y-3067304D01*
X6640525Y-3070860D01*
X6627520Y-3076143D01*
X6615277Y-3083052D01*
X6604000Y-3091484D01*
X6593890Y-3101238D01*
X6585153Y-3112211D01*
X6577838Y-3124250D01*
X6572148Y-3137103D01*
X6568186Y-3150565D01*
X6565900Y-3164484D01*
X6565493Y-3178505D01*
X6566814Y-3192526D01*
X6569964Y-3206191D01*
X6574790Y-3219399D01*
X6581292Y-3231896D01*
X6589369Y-3243376D01*
X6598818Y-3253790D01*
X6609486Y-3262934D01*
X6621272Y-3270605D01*
X6633972Y-3276701D01*
X6647281Y-3281121D01*
X6661099Y-3283813D01*
G37*
G36*
X6421120Y-3284728D02*
G01*
X6435140Y-3283813D01*
X6448958Y-3281121D01*
X6462268Y-3276701D01*
X6474968Y-3270605D01*
X6486753Y-3262934D01*
X6497421Y-3253790D01*
X6506870Y-3243376D01*
X6514947Y-3231896D01*
X6521450Y-3219399D01*
X6526276Y-3206191D01*
X6529425Y-3192526D01*
X6530746Y-3178505D01*
X6530340Y-3164484D01*
X6528054Y-3150565D01*
X6524091Y-3137103D01*
X6518402Y-3124250D01*
X6511086Y-3112211D01*
X6502349Y-3101238D01*
X6492240Y-3091484D01*
X6480962Y-3083052D01*
X6468719Y-3076143D01*
X6455714Y-3070860D01*
X6442100Y-3067304D01*
X6428130Y-3065526D01*
X6414109Y-3065526D01*
X6400139Y-3067304D01*
X6386525Y-3070860D01*
X6373520Y-3076143D01*
X6361277Y-3083052D01*
X6350000Y-3091484D01*
X6339890Y-3101238D01*
X6331153Y-3112211D01*
X6323838Y-3124250D01*
X6318148Y-3137103D01*
X6314186Y-3150565D01*
X6311900Y-3164484D01*
X6311493Y-3178505D01*
X6312814Y-3192526D01*
X6315964Y-3206191D01*
X6320790Y-3219399D01*
X6327292Y-3231896D01*
X6335369Y-3243376D01*
X6344818Y-3253790D01*
X6355486Y-3262934D01*
X6367272Y-3270605D01*
X6379972Y-3276701D01*
X6393281Y-3281121D01*
X6407099Y-3283813D01*
G37*
G36*
X325120Y-3284728D02*
G01*
X339140Y-3283813D01*
X352958Y-3281121D01*
X366268Y-3276701D01*
X378968Y-3270605D01*
X390753Y-3262934D01*
X401421Y-3253790D01*
X410870Y-3243376D01*
X418947Y-3231896D01*
X425450Y-3219399D01*
X430276Y-3206191D01*
X433425Y-3192526D01*
X434746Y-3178505D01*
X434340Y-3164484D01*
X432054Y-3150565D01*
X428091Y-3137103D01*
X422401Y-3124250D01*
X415086Y-3112211D01*
X406349Y-3101238D01*
X396240Y-3091484D01*
X384962Y-3083052D01*
X372719Y-3076143D01*
X359714Y-3070860D01*
X346100Y-3067304D01*
X332130Y-3065526D01*
X318109Y-3065526D01*
X304139Y-3067304D01*
X290525Y-3070860D01*
X277520Y-3076143D01*
X265277Y-3083052D01*
X254000Y-3091484D01*
X243890Y-3101238D01*
X235153Y-3112211D01*
X227838Y-3124250D01*
X222148Y-3137103D01*
X218186Y-3150565D01*
X215900Y-3164484D01*
X215493Y-3178505D01*
X216814Y-3192526D01*
X219964Y-3206191D01*
X224790Y-3219399D01*
X231292Y-3231896D01*
X239369Y-3243376D01*
X248818Y-3253790D01*
X259486Y-3262934D01*
X271272Y-3270605D01*
X283972Y-3276701D01*
X297281Y-3281121D01*
X311099Y-3283813D01*
G37*
G36*
X627380Y-3273298D02*
G01*
X632968Y-3270605D01*
X644753Y-3262934D01*
X655421Y-3253790D01*
X664870Y-3243376D01*
X672947Y-3231896D01*
X677418Y-3223260D01*
X627380Y-3223260D01*
G37*
G36*
X530860Y-3273298D02*
G01*
X530860Y-3223260D01*
X480822Y-3223260D01*
X485292Y-3231896D01*
X493369Y-3243376D01*
X502818Y-3253790D01*
X513486Y-3262934D01*
X525272Y-3270605D01*
G37*
G36*
X2848356Y-3156813D02*
G01*
X2862478Y-3155442D01*
X2876346Y-3152292D01*
X2889707Y-3147364D01*
X2902305Y-3140811D01*
X2913938Y-3132683D01*
X2924454Y-3123133D01*
X2933649Y-3112312D01*
X2941421Y-3100374D01*
X2947568Y-3087573D01*
X2952038Y-3074111D01*
X2954782Y-3060141D01*
X2955696Y-3045968D01*
X2954782Y-3031794D01*
X2952038Y-3017824D01*
X2947568Y-3004362D01*
X2941421Y-2991561D01*
X2933649Y-2979623D01*
X2924454Y-2968802D01*
X2913938Y-2959252D01*
X2902305Y-2951124D01*
X2889707Y-2944571D01*
X2876346Y-2939643D01*
X2862478Y-2936494D01*
X2848356Y-2935122D01*
X2834132Y-2935579D01*
X2820111Y-2937865D01*
X2806496Y-2941929D01*
X2793492Y-2947670D01*
X2781350Y-2955036D01*
X2770225Y-2963875D01*
X2760370Y-2974086D01*
X2751886Y-2985465D01*
X2744876Y-2997860D01*
X2739542Y-3011017D01*
X2735935Y-3024784D01*
X2734157Y-3038856D01*
X2734157Y-3053080D01*
X2735935Y-3067151D01*
X2739542Y-3080918D01*
X2744876Y-3094075D01*
X2751886Y-3106470D01*
X2760370Y-3117850D01*
X2770225Y-3128060D01*
X2781350Y-3136900D01*
X2793492Y-3144266D01*
X2806496Y-3150057D01*
X2820111Y-3154070D01*
X2834132Y-3156356D01*
G37*
G36*
X2594356Y-3156813D02*
G01*
X2608478Y-3155442D01*
X2622346Y-3152292D01*
X2635707Y-3147364D01*
X2648305Y-3140811D01*
X2659938Y-3132683D01*
X2670454Y-3123133D01*
X2679649Y-3112312D01*
X2687421Y-3100374D01*
X2693568Y-3087573D01*
X2698038Y-3074111D01*
X2700782Y-3060141D01*
X2701696Y-3045968D01*
X2700782Y-3031794D01*
X2698038Y-3017824D01*
X2693568Y-3004362D01*
X2687421Y-2991561D01*
X2679649Y-2979623D01*
X2670454Y-2968802D01*
X2659938Y-2959252D01*
X2648305Y-2951124D01*
X2635707Y-2944571D01*
X2622346Y-2939643D01*
X2608478Y-2936494D01*
X2594356Y-2935122D01*
X2580132Y-2935579D01*
X2566111Y-2937865D01*
X2552496Y-2941929D01*
X2539492Y-2947670D01*
X2527350Y-2955036D01*
X2516225Y-2963875D01*
X2506370Y-2974086D01*
X2497886Y-2985465D01*
X2490876Y-2997860D01*
X2485542Y-3011017D01*
X2481935Y-3024784D01*
X2480157Y-3038856D01*
X2480157Y-3053080D01*
X2481935Y-3067151D01*
X2485542Y-3080918D01*
X2490876Y-3094075D01*
X2497886Y-3106470D01*
X2506370Y-3117850D01*
X2516225Y-3128060D01*
X2527350Y-3136900D01*
X2539492Y-3144266D01*
X2552496Y-3150057D01*
X2566111Y-3154070D01*
X2580132Y-3156356D01*
G37*
G36*
X2340356Y-3156813D02*
G01*
X2354478Y-3155442D01*
X2368346Y-3152292D01*
X2381707Y-3147364D01*
X2394305Y-3140811D01*
X2405938Y-3132683D01*
X2416454Y-3123133D01*
X2425649Y-3112312D01*
X2433421Y-3100374D01*
X2439568Y-3087573D01*
X2444038Y-3074111D01*
X2446782Y-3060141D01*
X2447696Y-3045968D01*
X2446782Y-3031794D01*
X2444038Y-3017824D01*
X2439568Y-3004362D01*
X2433421Y-2991561D01*
X2425649Y-2979623D01*
X2416454Y-2968802D01*
X2405938Y-2959252D01*
X2394305Y-2951124D01*
X2381707Y-2944571D01*
X2368346Y-2939643D01*
X2354478Y-2936494D01*
X2340356Y-2935122D01*
X2326132Y-2935579D01*
X2312111Y-2937865D01*
X2298496Y-2941929D01*
X2285492Y-2947670D01*
X2273350Y-2955036D01*
X2262225Y-2963875D01*
X2252370Y-2974086D01*
X2243886Y-2985465D01*
X2236876Y-2997860D01*
X2231542Y-3011017D01*
X2227935Y-3024784D01*
X2226157Y-3038856D01*
X2226157Y-3053080D01*
X2227935Y-3067151D01*
X2231542Y-3080918D01*
X2236876Y-3094075D01*
X2243886Y-3106470D01*
X2252370Y-3117850D01*
X2262225Y-3128060D01*
X2273350Y-3136900D01*
X2285492Y-3144266D01*
X2298496Y-3150057D01*
X2312111Y-3154070D01*
X2326132Y-3156356D01*
G37*
G36*
X3049930Y-3145383D02*
G01*
X3049930Y-3094837D01*
X2999333Y-3094837D01*
X3005886Y-3106470D01*
X3014370Y-3117850D01*
X3024225Y-3128060D01*
X3035350Y-3136900D01*
X3047492Y-3144266D01*
G37*
G36*
X2033930Y-3145383D02*
G01*
X2033930Y-3094837D01*
X1983333Y-3094837D01*
X1989886Y-3106470D01*
X1998370Y-3117850D01*
X2008225Y-3128060D01*
X2019350Y-3136900D01*
X2031492Y-3144266D01*
G37*
G36*
X3147669Y-3145282D02*
G01*
X3156305Y-3140811D01*
X3167938Y-3132683D01*
X3178454Y-3123133D01*
X3187649Y-3112312D01*
X3195421Y-3100374D01*
X3198114Y-3094837D01*
X3147669Y-3094837D01*
G37*
G36*
X2131669Y-3145282D02*
G01*
X2140305Y-3140811D01*
X2151938Y-3132683D01*
X2162454Y-3123133D01*
X2171649Y-3112312D01*
X2179421Y-3100374D01*
X2182114Y-3094837D01*
X2131669Y-3094837D01*
G37*
G36*
X627380Y-3126740D02*
G01*
X677468Y-3126740D01*
X676402Y-3124250D01*
X669086Y-3112211D01*
X660349Y-3101238D01*
X650240Y-3091484D01*
X638962Y-3083052D01*
X627380Y-3076549D01*
G37*
G36*
X480771Y-3126740D02*
G01*
X530860Y-3126740D01*
X530860Y-3076549D01*
X519277Y-3083052D01*
X508000Y-3091484D01*
X497890Y-3101238D01*
X489153Y-3112211D01*
X481838Y-3124250D01*
G37*
G36*
X3362451Y-3074924D02*
G01*
X3375914Y-3074466D01*
X3389172Y-3072231D01*
X3402076Y-3068269D01*
X3414268Y-3062579D01*
X3425647Y-3055315D01*
X3435959Y-3046628D01*
X3445001Y-3036620D01*
X3452622Y-3025546D01*
X3458667Y-3013506D01*
X3463086Y-3000756D01*
X3465779Y-2987548D01*
X3466693Y-2974136D01*
X3465779Y-2960674D01*
X3463086Y-2947466D01*
X3458667Y-2934716D01*
X3452622Y-2922676D01*
X3445001Y-2911602D01*
X3435959Y-2901594D01*
X3425647Y-2892907D01*
X3414268Y-2885643D01*
X3402076Y-2879953D01*
X3389172Y-2875991D01*
X3375914Y-2873756D01*
X3362451Y-2873298D01*
X3347923Y-2874822D01*
X3343706Y-2874365D01*
X3340049Y-2872232D01*
X3337610Y-2868828D01*
X3336696Y-2864713D01*
X3336696Y-2711602D01*
X3335985Y-2705303D01*
X3334105Y-2699816D01*
X3331006Y-2694940D01*
X3326892Y-2690825D01*
X3322015Y-2687726D01*
X3316528Y-2685846D01*
X3310229Y-2685135D01*
X3141370Y-2685135D01*
X3135071Y-2685846D01*
X3129584Y-2687726D01*
X3124708Y-2690825D01*
X3120593Y-2694940D01*
X3117494Y-2699816D01*
X3115614Y-2705303D01*
X3114903Y-2711602D01*
X3114903Y-2880461D01*
X3115614Y-2886760D01*
X3117494Y-2892247D01*
X3120593Y-2897124D01*
X3124708Y-2901238D01*
X3129584Y-2904337D01*
X3135071Y-2906217D01*
X3141370Y-2906928D01*
X3270758Y-2906928D01*
X3274923Y-2907842D01*
X3278327Y-2910332D01*
X3280460Y-2914040D01*
X3280867Y-2918256D01*
X3279495Y-2922270D01*
X3275736Y-2928620D01*
X3270503Y-2941015D01*
X3266948Y-2954020D01*
X3265119Y-2967380D01*
X3265119Y-2980842D01*
X3266948Y-2994202D01*
X3270503Y-3007207D01*
X3275736Y-3019602D01*
X3282645Y-3031185D01*
X3290976Y-3041802D01*
X3300679Y-3051149D01*
X3311499Y-3059125D01*
X3323336Y-3065627D01*
X3335934Y-3070453D01*
X3349040Y-3073603D01*
G37*
G36*
X6675120Y-3030728D02*
G01*
X6689140Y-3029813D01*
X6702958Y-3027121D01*
X6716268Y-3022701D01*
X6728968Y-3016605D01*
X6740753Y-3008934D01*
X6751421Y-2999790D01*
X6760870Y-2989376D01*
X6768947Y-2977896D01*
X6775450Y-2965399D01*
X6780275Y-2952191D01*
X6783425Y-2938526D01*
X6784746Y-2924505D01*
X6784340Y-2910484D01*
X6782053Y-2896565D01*
X6778091Y-2883103D01*
X6772402Y-2870250D01*
X6765086Y-2858211D01*
X6756349Y-2847238D01*
X6746240Y-2837484D01*
X6734962Y-2829052D01*
X6722719Y-2822143D01*
X6709714Y-2816860D01*
X6696100Y-2813304D01*
X6682130Y-2811526D01*
X6668109Y-2811526D01*
X6654139Y-2813304D01*
X6640525Y-2816860D01*
X6627520Y-2822143D01*
X6615277Y-2829052D01*
X6604000Y-2837484D01*
X6593890Y-2847238D01*
X6585153Y-2858211D01*
X6577838Y-2870250D01*
X6572148Y-2883103D01*
X6568186Y-2896565D01*
X6565900Y-2910484D01*
X6565493Y-2924505D01*
X6566814Y-2938526D01*
X6569964Y-2952191D01*
X6574790Y-2965399D01*
X6581292Y-2977896D01*
X6589369Y-2989376D01*
X6598818Y-2999790D01*
X6609486Y-3008934D01*
X6621272Y-3016605D01*
X6633972Y-3022701D01*
X6647281Y-3027121D01*
X6661099Y-3029813D01*
G37*
G36*
X6421120Y-3030728D02*
G01*
X6435140Y-3029813D01*
X6448958Y-3027121D01*
X6462268Y-3022701D01*
X6474968Y-3016605D01*
X6486753Y-3008934D01*
X6497421Y-2999790D01*
X6506870Y-2989376D01*
X6514947Y-2977896D01*
X6521450Y-2965399D01*
X6526276Y-2952191D01*
X6529425Y-2938526D01*
X6530746Y-2924505D01*
X6530340Y-2910484D01*
X6528054Y-2896565D01*
X6524091Y-2883103D01*
X6518402Y-2870250D01*
X6511086Y-2858211D01*
X6502349Y-2847238D01*
X6492240Y-2837484D01*
X6480962Y-2829052D01*
X6468719Y-2822143D01*
X6455714Y-2816860D01*
X6442100Y-2813304D01*
X6428130Y-2811526D01*
X6414109Y-2811526D01*
X6400139Y-2813304D01*
X6386525Y-2816860D01*
X6373520Y-2822143D01*
X6361277Y-2829052D01*
X6350000Y-2837484D01*
X6339890Y-2847238D01*
X6331153Y-2858211D01*
X6323838Y-2870250D01*
X6318148Y-2883103D01*
X6314186Y-2896565D01*
X6311900Y-2910484D01*
X6311493Y-2924505D01*
X6312814Y-2938526D01*
X6315964Y-2952191D01*
X6320790Y-2965399D01*
X6327292Y-2977896D01*
X6335369Y-2989376D01*
X6344818Y-2999790D01*
X6355486Y-3008934D01*
X6367272Y-3016605D01*
X6379972Y-3022701D01*
X6393281Y-3027121D01*
X6407099Y-3029813D01*
G37*
G36*
X325120Y-3030728D02*
G01*
X339140Y-3029813D01*
X352958Y-3027121D01*
X366268Y-3022701D01*
X378968Y-3016605D01*
X390753Y-3008934D01*
X401421Y-2999790D01*
X410870Y-2989376D01*
X418947Y-2977896D01*
X425450Y-2965399D01*
X430276Y-2952191D01*
X433425Y-2938526D01*
X434746Y-2924505D01*
X434340Y-2910484D01*
X432054Y-2896565D01*
X428091Y-2883103D01*
X422401Y-2870250D01*
X415086Y-2858211D01*
X406349Y-2847238D01*
X396240Y-2837484D01*
X384962Y-2829052D01*
X372719Y-2822143D01*
X359714Y-2816860D01*
X346100Y-2813304D01*
X332130Y-2811526D01*
X318109Y-2811526D01*
X304139Y-2813304D01*
X290525Y-2816860D01*
X277520Y-2822143D01*
X265277Y-2829052D01*
X254000Y-2837484D01*
X243890Y-2847238D01*
X235153Y-2858211D01*
X227838Y-2870250D01*
X222148Y-2883103D01*
X218186Y-2896565D01*
X215900Y-2910484D01*
X215493Y-2924505D01*
X216814Y-2938526D01*
X219964Y-2952191D01*
X224790Y-2965399D01*
X231292Y-2977896D01*
X239369Y-2989376D01*
X248818Y-2999790D01*
X259486Y-3008934D01*
X271272Y-3016605D01*
X283972Y-3022701D01*
X297281Y-3027121D01*
X311099Y-3029813D01*
G37*
G36*
X627380Y-3019298D02*
G01*
X632968Y-3016605D01*
X644753Y-3008934D01*
X655421Y-2999790D01*
X664870Y-2989376D01*
X672947Y-2977896D01*
X677418Y-2969260D01*
X627380Y-2969260D01*
G37*
G36*
X530860Y-3019298D02*
G01*
X530860Y-2969260D01*
X480822Y-2969260D01*
X485292Y-2977896D01*
X493369Y-2989376D01*
X502818Y-2999790D01*
X513486Y-3008934D01*
X525272Y-3016605D01*
G37*
G36*
X3147669Y-2997098D02*
G01*
X3198114Y-2997098D01*
X3195421Y-2991561D01*
X3187649Y-2979623D01*
X3178454Y-2968802D01*
X3167938Y-2959252D01*
X3156305Y-2951124D01*
X3147669Y-2946654D01*
G37*
G36*
X2131669Y-2997098D02*
G01*
X2182114Y-2997098D01*
X2179421Y-2991561D01*
X2171649Y-2979623D01*
X2162454Y-2968802D01*
X2151938Y-2959252D01*
X2140305Y-2951124D01*
X2131669Y-2946654D01*
G37*
G36*
X2999333Y-2997098D02*
G01*
X3049930Y-2997098D01*
X3049930Y-2946552D01*
X3047492Y-2947670D01*
X3035350Y-2955036D01*
X3024225Y-2963875D01*
X3014370Y-2974086D01*
X3005886Y-2985465D01*
G37*
G36*
X1983333Y-2997098D02*
G01*
X2033930Y-2997098D01*
X2033930Y-2946552D01*
X2031492Y-2947670D01*
X2019350Y-2955036D01*
X2008225Y-2963875D01*
X1998370Y-2974086D01*
X1989886Y-2985465D01*
G37*
G36*
X2213356Y-2906877D02*
G01*
X2227478Y-2905506D01*
X2241346Y-2902356D01*
X2254707Y-2897428D01*
X2267305Y-2890875D01*
X2278938Y-2882747D01*
X2289454Y-2873197D01*
X2298649Y-2862376D01*
X2306421Y-2850438D01*
X2312568Y-2837637D01*
X2317038Y-2824175D01*
X2319782Y-2810205D01*
X2320696Y-2796032D01*
X2319782Y-2781858D01*
X2317038Y-2767888D01*
X2312568Y-2754426D01*
X2306421Y-2741625D01*
X2298649Y-2729687D01*
X2289454Y-2718866D01*
X2278938Y-2709316D01*
X2267305Y-2701188D01*
X2254707Y-2694635D01*
X2241346Y-2689707D01*
X2227478Y-2686558D01*
X2213356Y-2685186D01*
X2199132Y-2685643D01*
X2185111Y-2687929D01*
X2171496Y-2691993D01*
X2158492Y-2697734D01*
X2146350Y-2705100D01*
X2135225Y-2713939D01*
X2125370Y-2724150D01*
X2116886Y-2735529D01*
X2109876Y-2747924D01*
X2104542Y-2761081D01*
X2100935Y-2774848D01*
X2099157Y-2788920D01*
X2099157Y-2803144D01*
X2100935Y-2817215D01*
X2104542Y-2830982D01*
X2109876Y-2844139D01*
X2116886Y-2856534D01*
X2125370Y-2867914D01*
X2135225Y-2878124D01*
X2146350Y-2886964D01*
X2158492Y-2894330D01*
X2171496Y-2900121D01*
X2185111Y-2904134D01*
X2199132Y-2906420D01*
G37*
G36*
X2721356Y-2906877D02*
G01*
X2735478Y-2905506D01*
X2749346Y-2902356D01*
X2762707Y-2897428D01*
X2775305Y-2890875D01*
X2786938Y-2882747D01*
X2797454Y-2873197D01*
X2806649Y-2862376D01*
X2814421Y-2850438D01*
X2820568Y-2837637D01*
X2825038Y-2824175D01*
X2827782Y-2810205D01*
X2828696Y-2796032D01*
X2827782Y-2781858D01*
X2825038Y-2767888D01*
X2820568Y-2754426D01*
X2814421Y-2741625D01*
X2806649Y-2729687D01*
X2797454Y-2718866D01*
X2786938Y-2709316D01*
X2775305Y-2701188D01*
X2762707Y-2694635D01*
X2749346Y-2689707D01*
X2735478Y-2686558D01*
X2721356Y-2685186D01*
X2707132Y-2685643D01*
X2693111Y-2687929D01*
X2679496Y-2691993D01*
X2666492Y-2697734D01*
X2654350Y-2705100D01*
X2643225Y-2713939D01*
X2633370Y-2724150D01*
X2624886Y-2735529D01*
X2617876Y-2747924D01*
X2612542Y-2761081D01*
X2608935Y-2774848D01*
X2607157Y-2788920D01*
X2607157Y-2803144D01*
X2608935Y-2817215D01*
X2612542Y-2830982D01*
X2617876Y-2844139D01*
X2624886Y-2856534D01*
X2633370Y-2867914D01*
X2643225Y-2878124D01*
X2654350Y-2886964D01*
X2666492Y-2894330D01*
X2679496Y-2900121D01*
X2693111Y-2904134D01*
X2707132Y-2906420D01*
G37*
G36*
X2975356Y-2906877D02*
G01*
X2989478Y-2905506D01*
X3003346Y-2902356D01*
X3016707Y-2897428D01*
X3029305Y-2890875D01*
X3040938Y-2882747D01*
X3051454Y-2873197D01*
X3060649Y-2862376D01*
X3068421Y-2850438D01*
X3074568Y-2837637D01*
X3079038Y-2824175D01*
X3081782Y-2810205D01*
X3082696Y-2796032D01*
X3081782Y-2781858D01*
X3079038Y-2767888D01*
X3074568Y-2754426D01*
X3068421Y-2741625D01*
X3060649Y-2729687D01*
X3051454Y-2718866D01*
X3040938Y-2709316D01*
X3029305Y-2701188D01*
X3016707Y-2694635D01*
X3003346Y-2689707D01*
X2989478Y-2686558D01*
X2975356Y-2685186D01*
X2961132Y-2685643D01*
X2947111Y-2687929D01*
X2933496Y-2691993D01*
X2920492Y-2697734D01*
X2908350Y-2705100D01*
X2897225Y-2713939D01*
X2887370Y-2724150D01*
X2878886Y-2735529D01*
X2871876Y-2747924D01*
X2866542Y-2761081D01*
X2862935Y-2774848D01*
X2861157Y-2788920D01*
X2861157Y-2803144D01*
X2862935Y-2817215D01*
X2866542Y-2830982D01*
X2871876Y-2844139D01*
X2878886Y-2856534D01*
X2887370Y-2867914D01*
X2897225Y-2878124D01*
X2908350Y-2886964D01*
X2920492Y-2894330D01*
X2933496Y-2900121D01*
X2947111Y-2904134D01*
X2961132Y-2906420D01*
G37*
G36*
X2467356Y-2906877D02*
G01*
X2481478Y-2905506D01*
X2495346Y-2902356D01*
X2508707Y-2897428D01*
X2521305Y-2890875D01*
X2532938Y-2882747D01*
X2543454Y-2873197D01*
X2552649Y-2862376D01*
X2560421Y-2850438D01*
X2566568Y-2837637D01*
X2571038Y-2824175D01*
X2573782Y-2810205D01*
X2574696Y-2796032D01*
X2573782Y-2781858D01*
X2571038Y-2767888D01*
X2566568Y-2754426D01*
X2560421Y-2741625D01*
X2552649Y-2729687D01*
X2543454Y-2718866D01*
X2532938Y-2709316D01*
X2521305Y-2701188D01*
X2508707Y-2694635D01*
X2495346Y-2689707D01*
X2481478Y-2686558D01*
X2467356Y-2685186D01*
X2453132Y-2685643D01*
X2439111Y-2687929D01*
X2425496Y-2691993D01*
X2412492Y-2697734D01*
X2400350Y-2705100D01*
X2389225Y-2713939D01*
X2379370Y-2724150D01*
X2370886Y-2735529D01*
X2363876Y-2747924D01*
X2358542Y-2761081D01*
X2354935Y-2774848D01*
X2353157Y-2788920D01*
X2353157Y-2803144D01*
X2354935Y-2817215D01*
X2358542Y-2830982D01*
X2363876Y-2844139D01*
X2370886Y-2856534D01*
X2379370Y-2867914D01*
X2389225Y-2878124D01*
X2400350Y-2886964D01*
X2412492Y-2894330D01*
X2425496Y-2900121D01*
X2439111Y-2904134D01*
X2453132Y-2906420D01*
G37*
G36*
X627380Y-2872740D02*
G01*
X677468Y-2872740D01*
X676402Y-2870250D01*
X669086Y-2858211D01*
X660349Y-2847238D01*
X650240Y-2837484D01*
X638962Y-2829052D01*
X627380Y-2822549D01*
G37*
G36*
X480771Y-2872740D02*
G01*
X530860Y-2872740D01*
X530860Y-2822549D01*
X519277Y-2829052D01*
X508000Y-2837484D01*
X497890Y-2847238D01*
X489153Y-2858211D01*
X481838Y-2870250D01*
G37*
G36*
X6675120Y-2776728D02*
G01*
X6689140Y-2775813D01*
X6702958Y-2773121D01*
X6716268Y-2768701D01*
X6728968Y-2762605D01*
X6740753Y-2754934D01*
X6751421Y-2745790D01*
X6760870Y-2735376D01*
X6768947Y-2723896D01*
X6775450Y-2711399D01*
X6780275Y-2698191D01*
X6783425Y-2684526D01*
X6784746Y-2670505D01*
X6784340Y-2656484D01*
X6782053Y-2642565D01*
X6778091Y-2629103D01*
X6772402Y-2616250D01*
X6765086Y-2604211D01*
X6756349Y-2593238D01*
X6746240Y-2583484D01*
X6734962Y-2575052D01*
X6722719Y-2568143D01*
X6709714Y-2562860D01*
X6696100Y-2559304D01*
X6682130Y-2557526D01*
X6668109Y-2557526D01*
X6654139Y-2559304D01*
X6640525Y-2562860D01*
X6627520Y-2568143D01*
X6615277Y-2575052D01*
X6604000Y-2583484D01*
X6593890Y-2593238D01*
X6585153Y-2604211D01*
X6577838Y-2616250D01*
X6572148Y-2629103D01*
X6568186Y-2642565D01*
X6565900Y-2656484D01*
X6565493Y-2670505D01*
X6566814Y-2684526D01*
X6569964Y-2698191D01*
X6574790Y-2711399D01*
X6581292Y-2723896D01*
X6589369Y-2735376D01*
X6598818Y-2745790D01*
X6609486Y-2754934D01*
X6621272Y-2762605D01*
X6633972Y-2768701D01*
X6647281Y-2773121D01*
X6661099Y-2775813D01*
G37*
G36*
X6421120Y-2776728D02*
G01*
X6435140Y-2775813D01*
X6448958Y-2773121D01*
X6462268Y-2768701D01*
X6474968Y-2762605D01*
X6486753Y-2754934D01*
X6497421Y-2745790D01*
X6506870Y-2735376D01*
X6514947Y-2723896D01*
X6521450Y-2711399D01*
X6526276Y-2698191D01*
X6529425Y-2684526D01*
X6530746Y-2670505D01*
X6530340Y-2656484D01*
X6528054Y-2642565D01*
X6524091Y-2629103D01*
X6518402Y-2616250D01*
X6511086Y-2604211D01*
X6502349Y-2593238D01*
X6492240Y-2583484D01*
X6480962Y-2575052D01*
X6468719Y-2568143D01*
X6455714Y-2562860D01*
X6442100Y-2559304D01*
X6428130Y-2557526D01*
X6414109Y-2557526D01*
X6400139Y-2559304D01*
X6386525Y-2562860D01*
X6373520Y-2568143D01*
X6361277Y-2575052D01*
X6350000Y-2583484D01*
X6339890Y-2593238D01*
X6331153Y-2604211D01*
X6323838Y-2616250D01*
X6318148Y-2629103D01*
X6314186Y-2642565D01*
X6311900Y-2656484D01*
X6311493Y-2670505D01*
X6312814Y-2684526D01*
X6315964Y-2698191D01*
X6320790Y-2711399D01*
X6327292Y-2723896D01*
X6335369Y-2735376D01*
X6344818Y-2745790D01*
X6355486Y-2754934D01*
X6367272Y-2762605D01*
X6379972Y-2768701D01*
X6393281Y-2773121D01*
X6407099Y-2775813D01*
G37*
G36*
X325120Y-2776728D02*
G01*
X339140Y-2775813D01*
X352958Y-2773121D01*
X366268Y-2768701D01*
X378968Y-2762605D01*
X390753Y-2754934D01*
X401421Y-2745790D01*
X410870Y-2735376D01*
X418947Y-2723896D01*
X425450Y-2711399D01*
X430276Y-2698191D01*
X433425Y-2684526D01*
X434746Y-2670505D01*
X434340Y-2656484D01*
X432054Y-2642565D01*
X428091Y-2629103D01*
X422401Y-2616250D01*
X415086Y-2604211D01*
X406349Y-2593238D01*
X396240Y-2583484D01*
X384962Y-2575052D01*
X372719Y-2568143D01*
X359714Y-2562860D01*
X346100Y-2559304D01*
X332130Y-2557526D01*
X318109Y-2557526D01*
X304139Y-2559304D01*
X290525Y-2562860D01*
X277520Y-2568143D01*
X265277Y-2575052D01*
X254000Y-2583484D01*
X243890Y-2593238D01*
X235153Y-2604211D01*
X227838Y-2616250D01*
X222148Y-2629103D01*
X218186Y-2642565D01*
X215900Y-2656484D01*
X215493Y-2670505D01*
X216814Y-2684526D01*
X219964Y-2698191D01*
X224790Y-2711399D01*
X231292Y-2723896D01*
X239369Y-2735376D01*
X248818Y-2745790D01*
X259486Y-2754934D01*
X271272Y-2762605D01*
X283972Y-2768701D01*
X297281Y-2773121D01*
X311099Y-2775813D01*
G37*
G36*
X579120Y-2776728D02*
G01*
X593140Y-2775813D01*
X606958Y-2773121D01*
X620268Y-2768701D01*
X632968Y-2762605D01*
X644753Y-2754934D01*
X655421Y-2745790D01*
X664870Y-2735376D01*
X672947Y-2723896D01*
X679450Y-2711399D01*
X684276Y-2698191D01*
X687425Y-2684526D01*
X688746Y-2670505D01*
X688340Y-2656484D01*
X686054Y-2642565D01*
X682091Y-2629103D01*
X676402Y-2616250D01*
X669086Y-2604211D01*
X660349Y-2593238D01*
X650240Y-2583484D01*
X638962Y-2575052D01*
X626719Y-2568143D01*
X613714Y-2562860D01*
X600100Y-2559304D01*
X586130Y-2557526D01*
X572109Y-2557526D01*
X558139Y-2559304D01*
X544525Y-2562860D01*
X531520Y-2568143D01*
X519277Y-2575052D01*
X508000Y-2583484D01*
X497890Y-2593238D01*
X489153Y-2604211D01*
X481838Y-2616250D01*
X476148Y-2629103D01*
X472185Y-2642565D01*
X469900Y-2656484D01*
X469493Y-2670505D01*
X470814Y-2684526D01*
X473964Y-2698191D01*
X478790Y-2711399D01*
X485292Y-2723896D01*
X493369Y-2735376D01*
X502818Y-2745790D01*
X513486Y-2754934D01*
X525272Y-2762605D01*
X537972Y-2768701D01*
X551281Y-2773121D01*
X565099Y-2775813D01*
G37*
G36*
X6675120Y-2522728D02*
G01*
X6689140Y-2521813D01*
X6702958Y-2519121D01*
X6716268Y-2514701D01*
X6728968Y-2508605D01*
X6740753Y-2500934D01*
X6751421Y-2491790D01*
X6760870Y-2481376D01*
X6768947Y-2469896D01*
X6775450Y-2457399D01*
X6780275Y-2444191D01*
X6783425Y-2430526D01*
X6784746Y-2416505D01*
X6784340Y-2402484D01*
X6782053Y-2388565D01*
X6778091Y-2375103D01*
X6772402Y-2362250D01*
X6765086Y-2350211D01*
X6756349Y-2339238D01*
X6746240Y-2329484D01*
X6734962Y-2321052D01*
X6722719Y-2314143D01*
X6709714Y-2308860D01*
X6696100Y-2305304D01*
X6682130Y-2303526D01*
X6668109Y-2303526D01*
X6654139Y-2305304D01*
X6640525Y-2308860D01*
X6627520Y-2314143D01*
X6615277Y-2321052D01*
X6604000Y-2329484D01*
X6593890Y-2339238D01*
X6585153Y-2350211D01*
X6577838Y-2362250D01*
X6572148Y-2375103D01*
X6568186Y-2388565D01*
X6565900Y-2402484D01*
X6565493Y-2416505D01*
X6566814Y-2430526D01*
X6569964Y-2444191D01*
X6574790Y-2457399D01*
X6581292Y-2469896D01*
X6589369Y-2481376D01*
X6598818Y-2491790D01*
X6609486Y-2500934D01*
X6621272Y-2508605D01*
X6633972Y-2514701D01*
X6647281Y-2519121D01*
X6661099Y-2521813D01*
G37*
G36*
X6421120Y-2522728D02*
G01*
X6435140Y-2521813D01*
X6448958Y-2519121D01*
X6462268Y-2514701D01*
X6474968Y-2508605D01*
X6486753Y-2500934D01*
X6497421Y-2491790D01*
X6506870Y-2481376D01*
X6514947Y-2469896D01*
X6521450Y-2457399D01*
X6526276Y-2444191D01*
X6529425Y-2430526D01*
X6530746Y-2416505D01*
X6530340Y-2402484D01*
X6528054Y-2388565D01*
X6524091Y-2375103D01*
X6518402Y-2362250D01*
X6511086Y-2350211D01*
X6502349Y-2339238D01*
X6492240Y-2329484D01*
X6480962Y-2321052D01*
X6468719Y-2314143D01*
X6455714Y-2308860D01*
X6442100Y-2305304D01*
X6428130Y-2303526D01*
X6414109Y-2303526D01*
X6400139Y-2305304D01*
X6386525Y-2308860D01*
X6373520Y-2314143D01*
X6361277Y-2321052D01*
X6350000Y-2329484D01*
X6339890Y-2339238D01*
X6331153Y-2350211D01*
X6323838Y-2362250D01*
X6318148Y-2375103D01*
X6314186Y-2388565D01*
X6311900Y-2402484D01*
X6311493Y-2416505D01*
X6312814Y-2430526D01*
X6315964Y-2444191D01*
X6320790Y-2457399D01*
X6327292Y-2469896D01*
X6335369Y-2481376D01*
X6344818Y-2491790D01*
X6355486Y-2500934D01*
X6367272Y-2508605D01*
X6379972Y-2514701D01*
X6393281Y-2519121D01*
X6407099Y-2521813D01*
G37*
G36*
X579120Y-2522728D02*
G01*
X593140Y-2521813D01*
X606958Y-2519121D01*
X620268Y-2514701D01*
X632968Y-2508605D01*
X644753Y-2500934D01*
X655421Y-2491790D01*
X664870Y-2481376D01*
X672947Y-2469896D01*
X679450Y-2457399D01*
X684276Y-2444191D01*
X687425Y-2430526D01*
X688746Y-2416505D01*
X688340Y-2402484D01*
X686054Y-2388565D01*
X682091Y-2375103D01*
X676402Y-2362250D01*
X669086Y-2350211D01*
X660349Y-2339238D01*
X650240Y-2329484D01*
X638962Y-2321052D01*
X626719Y-2314143D01*
X613714Y-2308860D01*
X600100Y-2305304D01*
X586130Y-2303526D01*
X572109Y-2303526D01*
X558139Y-2305304D01*
X544525Y-2308860D01*
X531520Y-2314143D01*
X519277Y-2321052D01*
X508000Y-2329484D01*
X497890Y-2339238D01*
X489153Y-2350211D01*
X481838Y-2362250D01*
X476148Y-2375103D01*
X472185Y-2388565D01*
X469900Y-2402484D01*
X469493Y-2416505D01*
X470814Y-2430526D01*
X473964Y-2444191D01*
X478790Y-2457399D01*
X485292Y-2469896D01*
X493369Y-2481376D01*
X502818Y-2491790D01*
X513486Y-2500934D01*
X525272Y-2508605D01*
X537972Y-2514701D01*
X551281Y-2519121D01*
X565099Y-2521813D01*
G37*
G36*
X325120Y-2522728D02*
G01*
X339140Y-2521813D01*
X352958Y-2519121D01*
X366268Y-2514701D01*
X378968Y-2508605D01*
X390753Y-2500934D01*
X401421Y-2491790D01*
X410870Y-2481376D01*
X418947Y-2469896D01*
X425450Y-2457399D01*
X430276Y-2444191D01*
X433425Y-2430526D01*
X434746Y-2416505D01*
X434340Y-2402484D01*
X432054Y-2388565D01*
X428091Y-2375103D01*
X422401Y-2362250D01*
X415086Y-2350211D01*
X406349Y-2339238D01*
X396240Y-2329484D01*
X384962Y-2321052D01*
X372719Y-2314143D01*
X359714Y-2308860D01*
X346100Y-2305304D01*
X332130Y-2303526D01*
X318109Y-2303526D01*
X304139Y-2305304D01*
X290525Y-2308860D01*
X277520Y-2314143D01*
X265277Y-2321052D01*
X254000Y-2329484D01*
X243890Y-2339238D01*
X235153Y-2350211D01*
X227838Y-2362250D01*
X222148Y-2375103D01*
X218186Y-2388565D01*
X215900Y-2402484D01*
X215493Y-2416505D01*
X216814Y-2430526D01*
X219964Y-2444191D01*
X224790Y-2457399D01*
X231292Y-2469896D01*
X239369Y-2481376D01*
X248818Y-2491790D01*
X259486Y-2500934D01*
X271272Y-2508605D01*
X283972Y-2514701D01*
X297281Y-2519121D01*
X311099Y-2521813D01*
G37*
G36*
X6675120Y-2268728D02*
G01*
X6689140Y-2267813D01*
X6702958Y-2265121D01*
X6716268Y-2260701D01*
X6728968Y-2254605D01*
X6740753Y-2246934D01*
X6751421Y-2237790D01*
X6760870Y-2227376D01*
X6768947Y-2215896D01*
X6775450Y-2203399D01*
X6780275Y-2190191D01*
X6783425Y-2176526D01*
X6784746Y-2162505D01*
X6784340Y-2148484D01*
X6782053Y-2134565D01*
X6778091Y-2121103D01*
X6772402Y-2108250D01*
X6765086Y-2096211D01*
X6756349Y-2085238D01*
X6746240Y-2075484D01*
X6734962Y-2067052D01*
X6722719Y-2060143D01*
X6709714Y-2054860D01*
X6696100Y-2051304D01*
X6682130Y-2049525D01*
X6668109Y-2049525D01*
X6654139Y-2051304D01*
X6640525Y-2054860D01*
X6627520Y-2060143D01*
X6615277Y-2067052D01*
X6604000Y-2075484D01*
X6593890Y-2085238D01*
X6585153Y-2096211D01*
X6577838Y-2108250D01*
X6572148Y-2121103D01*
X6568186Y-2134565D01*
X6565900Y-2148484D01*
X6565493Y-2162505D01*
X6566814Y-2176526D01*
X6569964Y-2190191D01*
X6574790Y-2203399D01*
X6581292Y-2215896D01*
X6589369Y-2227376D01*
X6598818Y-2237790D01*
X6609486Y-2246934D01*
X6621272Y-2254605D01*
X6633972Y-2260701D01*
X6647281Y-2265121D01*
X6661099Y-2267813D01*
G37*
G36*
X6421120Y-2268728D02*
G01*
X6435140Y-2267813D01*
X6448958Y-2265121D01*
X6462268Y-2260701D01*
X6474968Y-2254605D01*
X6486753Y-2246934D01*
X6497421Y-2237790D01*
X6506870Y-2227376D01*
X6514947Y-2215896D01*
X6521450Y-2203399D01*
X6526276Y-2190191D01*
X6529425Y-2176526D01*
X6530746Y-2162505D01*
X6530340Y-2148484D01*
X6528054Y-2134565D01*
X6524091Y-2121103D01*
X6518402Y-2108250D01*
X6511086Y-2096211D01*
X6502349Y-2085238D01*
X6492240Y-2075484D01*
X6480962Y-2067052D01*
X6468719Y-2060143D01*
X6455714Y-2054860D01*
X6442100Y-2051304D01*
X6428130Y-2049525D01*
X6414109Y-2049525D01*
X6400139Y-2051304D01*
X6386525Y-2054860D01*
X6373520Y-2060143D01*
X6361277Y-2067052D01*
X6350000Y-2075484D01*
X6339890Y-2085238D01*
X6331153Y-2096211D01*
X6323838Y-2108250D01*
X6318148Y-2121103D01*
X6314186Y-2134565D01*
X6311900Y-2148484D01*
X6311493Y-2162505D01*
X6312814Y-2176526D01*
X6315964Y-2190191D01*
X6320790Y-2203399D01*
X6327292Y-2215896D01*
X6335369Y-2227376D01*
X6344818Y-2237790D01*
X6355486Y-2246934D01*
X6367272Y-2254605D01*
X6379972Y-2260701D01*
X6393281Y-2265121D01*
X6407099Y-2267813D01*
G37*
G36*
X325120Y-2268728D02*
G01*
X339140Y-2267813D01*
X352958Y-2265121D01*
X366268Y-2260701D01*
X378968Y-2254605D01*
X390753Y-2246934D01*
X401421Y-2237790D01*
X410870Y-2227376D01*
X418947Y-2215896D01*
X425450Y-2203399D01*
X430276Y-2190191D01*
X433425Y-2176526D01*
X434746Y-2162505D01*
X434340Y-2148484D01*
X432054Y-2134565D01*
X428091Y-2121103D01*
X422401Y-2108250D01*
X415086Y-2096211D01*
X406349Y-2085238D01*
X396240Y-2075484D01*
X384962Y-2067052D01*
X372719Y-2060143D01*
X359714Y-2054860D01*
X346100Y-2051304D01*
X332130Y-2049525D01*
X318109Y-2049525D01*
X304139Y-2051304D01*
X290525Y-2054860D01*
X277520Y-2060143D01*
X265277Y-2067052D01*
X254000Y-2075484D01*
X243890Y-2085238D01*
X235153Y-2096211D01*
X227838Y-2108250D01*
X222148Y-2121103D01*
X218186Y-2134565D01*
X215900Y-2148484D01*
X215493Y-2162505D01*
X216814Y-2176526D01*
X219964Y-2190191D01*
X224790Y-2203399D01*
X231292Y-2215896D01*
X239369Y-2227376D01*
X248818Y-2237790D01*
X259486Y-2246934D01*
X271272Y-2254605D01*
X283972Y-2260701D01*
X297281Y-2265121D01*
X311099Y-2267813D01*
G37*
G36*
X579120Y-2268728D02*
G01*
X593140Y-2267813D01*
X606958Y-2265121D01*
X620268Y-2260701D01*
X632968Y-2254605D01*
X644753Y-2246934D01*
X655421Y-2237790D01*
X664870Y-2227376D01*
X672947Y-2215896D01*
X679450Y-2203399D01*
X684276Y-2190191D01*
X687425Y-2176526D01*
X688746Y-2162505D01*
X688340Y-2148484D01*
X686054Y-2134565D01*
X682091Y-2121103D01*
X676402Y-2108250D01*
X669086Y-2096211D01*
X660349Y-2085238D01*
X650240Y-2075484D01*
X638962Y-2067052D01*
X626719Y-2060143D01*
X613714Y-2054860D01*
X600100Y-2051304D01*
X586130Y-2049525D01*
X572109Y-2049525D01*
X558139Y-2051304D01*
X544525Y-2054860D01*
X531520Y-2060143D01*
X519277Y-2067052D01*
X508000Y-2075484D01*
X497890Y-2085238D01*
X489153Y-2096211D01*
X481838Y-2108250D01*
X476148Y-2121103D01*
X472185Y-2134565D01*
X469900Y-2148484D01*
X469493Y-2162505D01*
X470814Y-2176526D01*
X473964Y-2190191D01*
X478790Y-2203399D01*
X485292Y-2215896D01*
X493369Y-2227376D01*
X502818Y-2237790D01*
X513486Y-2246934D01*
X525272Y-2254605D01*
X537972Y-2260701D01*
X551281Y-2265121D01*
X565099Y-2267813D01*
G37*
G36*
X6675120Y-2014728D02*
G01*
X6689140Y-2013813D01*
X6702958Y-2011121D01*
X6716268Y-2006701D01*
X6728968Y-2000605D01*
X6740753Y-1992934D01*
X6751421Y-1983790D01*
X6760870Y-1973376D01*
X6768947Y-1961896D01*
X6775450Y-1949399D01*
X6780275Y-1936191D01*
X6783425Y-1922525D01*
X6784746Y-1908505D01*
X6784340Y-1894484D01*
X6782053Y-1880565D01*
X6778091Y-1867103D01*
X6772402Y-1854250D01*
X6765086Y-1842211D01*
X6756349Y-1831238D01*
X6746240Y-1821484D01*
X6734962Y-1813052D01*
X6722719Y-1806143D01*
X6709714Y-1800860D01*
X6696100Y-1797304D01*
X6682130Y-1795525D01*
X6668109Y-1795525D01*
X6654139Y-1797304D01*
X6640525Y-1800860D01*
X6627520Y-1806143D01*
X6615277Y-1813052D01*
X6604000Y-1821484D01*
X6593890Y-1831238D01*
X6585153Y-1842211D01*
X6577838Y-1854250D01*
X6572148Y-1867103D01*
X6568186Y-1880565D01*
X6565900Y-1894484D01*
X6565493Y-1908505D01*
X6566814Y-1922525D01*
X6569964Y-1936191D01*
X6574790Y-1949399D01*
X6581292Y-1961896D01*
X6589369Y-1973376D01*
X6598818Y-1983790D01*
X6609486Y-1992934D01*
X6621272Y-2000605D01*
X6633972Y-2006701D01*
X6647281Y-2011121D01*
X6661099Y-2013813D01*
G37*
G36*
X6421120Y-2014728D02*
G01*
X6435140Y-2013813D01*
X6448958Y-2011121D01*
X6462268Y-2006701D01*
X6474968Y-2000605D01*
X6486753Y-1992934D01*
X6497421Y-1983790D01*
X6506870Y-1973376D01*
X6514947Y-1961896D01*
X6521450Y-1949399D01*
X6526276Y-1936191D01*
X6529425Y-1922525D01*
X6530746Y-1908505D01*
X6530340Y-1894484D01*
X6528054Y-1880565D01*
X6524091Y-1867103D01*
X6518402Y-1854250D01*
X6511086Y-1842211D01*
X6502349Y-1831238D01*
X6492240Y-1821484D01*
X6480962Y-1813052D01*
X6468719Y-1806143D01*
X6455714Y-1800860D01*
X6442100Y-1797304D01*
X6428130Y-1795525D01*
X6414109Y-1795525D01*
X6400139Y-1797304D01*
X6386525Y-1800860D01*
X6373520Y-1806143D01*
X6361277Y-1813052D01*
X6350000Y-1821484D01*
X6339890Y-1831238D01*
X6331153Y-1842211D01*
X6323838Y-1854250D01*
X6318148Y-1867103D01*
X6314186Y-1880565D01*
X6311900Y-1894484D01*
X6311493Y-1908505D01*
X6312814Y-1922525D01*
X6315964Y-1936191D01*
X6320790Y-1949399D01*
X6327292Y-1961896D01*
X6335369Y-1973376D01*
X6344818Y-1983790D01*
X6355486Y-1992934D01*
X6367272Y-2000605D01*
X6379972Y-2006701D01*
X6393281Y-2011121D01*
X6407099Y-2013813D01*
G37*
G36*
X579120Y-2014728D02*
G01*
X593140Y-2013813D01*
X606958Y-2011121D01*
X620268Y-2006701D01*
X632968Y-2000605D01*
X644753Y-1992934D01*
X655421Y-1983790D01*
X664870Y-1973376D01*
X672947Y-1961896D01*
X679450Y-1949399D01*
X684276Y-1936191D01*
X687425Y-1922525D01*
X688746Y-1908505D01*
X688340Y-1894484D01*
X686054Y-1880565D01*
X682091Y-1867103D01*
X676402Y-1854250D01*
X669086Y-1842211D01*
X660349Y-1831238D01*
X650240Y-1821484D01*
X638962Y-1813052D01*
X626719Y-1806143D01*
X613714Y-1800860D01*
X600100Y-1797304D01*
X586130Y-1795525D01*
X572109Y-1795525D01*
X558139Y-1797304D01*
X544525Y-1800860D01*
X531520Y-1806143D01*
X519277Y-1813052D01*
X508000Y-1821484D01*
X497890Y-1831238D01*
X489153Y-1842211D01*
X481838Y-1854250D01*
X476148Y-1867103D01*
X472185Y-1880565D01*
X469900Y-1894484D01*
X469493Y-1908505D01*
X470814Y-1922525D01*
X473964Y-1936191D01*
X478790Y-1949399D01*
X485292Y-1961896D01*
X493369Y-1973376D01*
X502818Y-1983790D01*
X513486Y-1992934D01*
X525272Y-2000605D01*
X537972Y-2006701D01*
X551281Y-2011121D01*
X565099Y-2013813D01*
G37*
G36*
X325120Y-2014728D02*
G01*
X339140Y-2013813D01*
X352958Y-2011121D01*
X366268Y-2006701D01*
X378968Y-2000605D01*
X390753Y-1992934D01*
X401421Y-1983790D01*
X410870Y-1973376D01*
X418947Y-1961896D01*
X425450Y-1949399D01*
X430276Y-1936191D01*
X433425Y-1922525D01*
X434746Y-1908505D01*
X434340Y-1894484D01*
X432054Y-1880565D01*
X428091Y-1867103D01*
X422401Y-1854250D01*
X415086Y-1842211D01*
X406349Y-1831238D01*
X396240Y-1821484D01*
X384962Y-1813052D01*
X372719Y-1806143D01*
X359714Y-1800860D01*
X346100Y-1797304D01*
X332130Y-1795525D01*
X318109Y-1795525D01*
X304139Y-1797304D01*
X290525Y-1800860D01*
X277520Y-1806143D01*
X265277Y-1813052D01*
X254000Y-1821484D01*
X243890Y-1831238D01*
X235153Y-1842211D01*
X227838Y-1854250D01*
X222148Y-1867103D01*
X218186Y-1880565D01*
X215900Y-1894484D01*
X215493Y-1908505D01*
X216814Y-1922525D01*
X219964Y-1936191D01*
X224790Y-1949399D01*
X231292Y-1961896D01*
X239369Y-1973376D01*
X248818Y-1983790D01*
X259486Y-1992934D01*
X271272Y-2000605D01*
X283972Y-2006701D01*
X297281Y-2011121D01*
X311099Y-2013813D01*
G37*
G36*
X6675120Y-1760728D02*
G01*
X6689140Y-1759813D01*
X6702958Y-1757121D01*
X6716268Y-1752701D01*
X6728968Y-1746605D01*
X6740753Y-1738934D01*
X6751421Y-1729790D01*
X6760870Y-1719376D01*
X6768947Y-1707896D01*
X6775450Y-1695399D01*
X6780275Y-1682191D01*
X6783425Y-1668525D01*
X6784746Y-1654505D01*
X6784340Y-1640484D01*
X6782053Y-1626565D01*
X6778091Y-1613103D01*
X6772402Y-1600250D01*
X6765086Y-1588211D01*
X6756349Y-1577238D01*
X6746240Y-1567484D01*
X6734962Y-1559052D01*
X6722719Y-1552143D01*
X6709714Y-1546860D01*
X6696100Y-1543304D01*
X6682130Y-1541526D01*
X6668109Y-1541526D01*
X6654139Y-1543304D01*
X6640525Y-1546860D01*
X6627520Y-1552143D01*
X6615277Y-1559052D01*
X6604000Y-1567484D01*
X6593890Y-1577238D01*
X6585153Y-1588211D01*
X6577838Y-1600250D01*
X6572148Y-1613103D01*
X6568186Y-1626565D01*
X6565900Y-1640484D01*
X6565493Y-1654505D01*
X6566814Y-1668525D01*
X6569964Y-1682191D01*
X6574790Y-1695399D01*
X6581292Y-1707896D01*
X6589369Y-1719376D01*
X6598818Y-1729790D01*
X6609486Y-1738934D01*
X6621272Y-1746605D01*
X6633972Y-1752701D01*
X6647281Y-1757121D01*
X6661099Y-1759813D01*
G37*
G36*
X579120Y-1760728D02*
G01*
X593140Y-1759813D01*
X606958Y-1757121D01*
X620268Y-1752701D01*
X632968Y-1746605D01*
X644753Y-1738934D01*
X655421Y-1729790D01*
X664870Y-1719376D01*
X672947Y-1707896D01*
X679450Y-1695399D01*
X684276Y-1682191D01*
X687425Y-1668525D01*
X688746Y-1654505D01*
X688340Y-1640484D01*
X686054Y-1626565D01*
X682091Y-1613103D01*
X676402Y-1600250D01*
X669086Y-1588211D01*
X660349Y-1577238D01*
X650240Y-1567484D01*
X638962Y-1559052D01*
X626719Y-1552143D01*
X613714Y-1546860D01*
X600100Y-1543304D01*
X586130Y-1541526D01*
X572109Y-1541526D01*
X558139Y-1543304D01*
X544525Y-1546860D01*
X531520Y-1552143D01*
X519277Y-1559052D01*
X508000Y-1567484D01*
X497890Y-1577238D01*
X489153Y-1588211D01*
X481838Y-1600250D01*
X476148Y-1613103D01*
X472185Y-1626565D01*
X469900Y-1640484D01*
X469493Y-1654505D01*
X470814Y-1668525D01*
X473964Y-1682191D01*
X478790Y-1695399D01*
X485292Y-1707896D01*
X493369Y-1719376D01*
X502818Y-1729790D01*
X513486Y-1738934D01*
X525272Y-1746605D01*
X537972Y-1752701D01*
X551281Y-1757121D01*
X565099Y-1759813D01*
G37*
G36*
X325120Y-1760728D02*
G01*
X339140Y-1759813D01*
X352958Y-1757121D01*
X366268Y-1752701D01*
X378968Y-1746605D01*
X390753Y-1738934D01*
X401421Y-1729790D01*
X410870Y-1719376D01*
X418947Y-1707896D01*
X425450Y-1695399D01*
X430276Y-1682191D01*
X433425Y-1668525D01*
X434746Y-1654505D01*
X434340Y-1640484D01*
X432054Y-1626565D01*
X428091Y-1613103D01*
X422401Y-1600250D01*
X415086Y-1588211D01*
X406349Y-1577238D01*
X396240Y-1567484D01*
X384962Y-1559052D01*
X372719Y-1552143D01*
X359714Y-1546860D01*
X346100Y-1543304D01*
X332130Y-1541526D01*
X318109Y-1541526D01*
X304139Y-1543304D01*
X290525Y-1546860D01*
X277520Y-1552143D01*
X265277Y-1559052D01*
X254000Y-1567484D01*
X243890Y-1577238D01*
X235153Y-1588211D01*
X227838Y-1600250D01*
X222148Y-1613103D01*
X218186Y-1626565D01*
X215900Y-1640484D01*
X215493Y-1654505D01*
X216814Y-1668525D01*
X219964Y-1682191D01*
X224790Y-1695399D01*
X231292Y-1707896D01*
X239369Y-1719376D01*
X248818Y-1729790D01*
X259486Y-1738934D01*
X271272Y-1746605D01*
X283972Y-1752701D01*
X297281Y-1757121D01*
X311099Y-1759813D01*
G37*
G36*
X6469380Y-1749298D02*
G01*
X6474968Y-1746605D01*
X6486753Y-1738934D01*
X6497421Y-1729790D01*
X6506870Y-1719376D01*
X6514947Y-1707896D01*
X6519418Y-1699260D01*
X6469380Y-1699260D01*
G37*
G36*
X6372860Y-1749298D02*
G01*
X6372860Y-1699260D01*
X6322822Y-1699260D01*
X6327292Y-1707896D01*
X6335369Y-1719376D01*
X6344818Y-1729790D01*
X6355486Y-1738934D01*
X6367272Y-1746605D01*
G37*
G36*
X6322771Y-1602740D02*
G01*
X6372860Y-1602740D01*
X6372860Y-1552549D01*
X6361277Y-1559052D01*
X6350000Y-1567484D01*
X6339890Y-1577238D01*
X6331153Y-1588211D01*
X6323838Y-1600250D01*
G37*
G36*
X6469380Y-1602740D02*
G01*
X6519468Y-1602740D01*
X6518402Y-1600250D01*
X6511086Y-1588211D01*
X6502349Y-1577238D01*
X6492240Y-1567484D01*
X6480962Y-1559052D01*
X6469380Y-1552549D01*
G37*
G36*
X6421120Y-1506728D02*
G01*
X6435140Y-1505813D01*
X6448958Y-1503121D01*
X6462268Y-1498701D01*
X6474968Y-1492605D01*
X6486753Y-1484934D01*
X6497421Y-1475790D01*
X6506870Y-1465376D01*
X6514947Y-1453896D01*
X6521450Y-1441399D01*
X6526276Y-1428191D01*
X6529425Y-1414526D01*
X6530746Y-1400505D01*
X6530340Y-1386484D01*
X6528054Y-1372565D01*
X6524091Y-1359103D01*
X6518402Y-1346250D01*
X6511086Y-1334211D01*
X6502349Y-1323238D01*
X6492240Y-1313484D01*
X6480962Y-1305052D01*
X6468719Y-1298143D01*
X6455714Y-1292860D01*
X6442100Y-1289304D01*
X6428130Y-1287526D01*
X6414109Y-1287526D01*
X6400139Y-1289304D01*
X6386525Y-1292860D01*
X6373520Y-1298143D01*
X6361277Y-1305052D01*
X6350000Y-1313484D01*
X6339890Y-1323238D01*
X6331153Y-1334211D01*
X6323838Y-1346250D01*
X6318148Y-1359103D01*
X6314186Y-1372565D01*
X6311900Y-1386484D01*
X6311493Y-1400505D01*
X6312814Y-1414526D01*
X6315964Y-1428191D01*
X6320790Y-1441399D01*
X6327292Y-1453896D01*
X6335369Y-1465376D01*
X6344818Y-1475790D01*
X6355486Y-1484934D01*
X6367272Y-1492605D01*
X6379972Y-1498701D01*
X6393281Y-1503121D01*
X6407099Y-1505813D01*
G37*
G36*
X6675120Y-1506728D02*
G01*
X6689140Y-1505813D01*
X6702958Y-1503121D01*
X6716268Y-1498701D01*
X6728968Y-1492605D01*
X6740753Y-1484934D01*
X6751421Y-1475790D01*
X6760870Y-1465376D01*
X6768947Y-1453896D01*
X6775450Y-1441399D01*
X6780275Y-1428191D01*
X6783425Y-1414526D01*
X6784746Y-1400505D01*
X6784340Y-1386484D01*
X6782053Y-1372565D01*
X6778091Y-1359103D01*
X6772402Y-1346250D01*
X6765086Y-1334211D01*
X6756349Y-1323238D01*
X6746240Y-1313484D01*
X6734962Y-1305052D01*
X6722719Y-1298143D01*
X6709714Y-1292860D01*
X6696100Y-1289304D01*
X6682130Y-1287526D01*
X6668109Y-1287526D01*
X6654139Y-1289304D01*
X6640525Y-1292860D01*
X6627520Y-1298143D01*
X6615277Y-1305052D01*
X6604000Y-1313484D01*
X6593890Y-1323238D01*
X6585153Y-1334211D01*
X6577838Y-1346250D01*
X6572148Y-1359103D01*
X6568186Y-1372565D01*
X6565900Y-1386484D01*
X6565493Y-1400505D01*
X6566814Y-1414526D01*
X6569964Y-1428191D01*
X6574790Y-1441399D01*
X6581292Y-1453896D01*
X6589369Y-1465376D01*
X6598818Y-1475790D01*
X6609486Y-1484934D01*
X6621272Y-1492605D01*
X6633972Y-1498701D01*
X6647281Y-1503121D01*
X6661099Y-1505813D01*
G37*
G36*
X325120Y-1506728D02*
G01*
X339140Y-1505813D01*
X352958Y-1503121D01*
X366268Y-1498701D01*
X378968Y-1492605D01*
X390753Y-1484934D01*
X401421Y-1475790D01*
X410870Y-1465376D01*
X418947Y-1453896D01*
X425450Y-1441399D01*
X430276Y-1428191D01*
X433425Y-1414526D01*
X434746Y-1400505D01*
X434340Y-1386484D01*
X432054Y-1372565D01*
X428091Y-1359103D01*
X422401Y-1346250D01*
X415086Y-1334211D01*
X406349Y-1323238D01*
X396240Y-1313484D01*
X384962Y-1305052D01*
X372719Y-1298143D01*
X359714Y-1292860D01*
X346100Y-1289304D01*
X332130Y-1287526D01*
X318109Y-1287526D01*
X304139Y-1289304D01*
X290525Y-1292860D01*
X277520Y-1298143D01*
X265277Y-1305052D01*
X254000Y-1313484D01*
X243890Y-1323238D01*
X235153Y-1334211D01*
X227838Y-1346250D01*
X222148Y-1359103D01*
X218186Y-1372565D01*
X215900Y-1386484D01*
X215493Y-1400505D01*
X216814Y-1414526D01*
X219964Y-1428191D01*
X224790Y-1441399D01*
X231292Y-1453896D01*
X239369Y-1465376D01*
X248818Y-1475790D01*
X259486Y-1484934D01*
X271272Y-1492605D01*
X283972Y-1498701D01*
X297281Y-1503121D01*
X311099Y-1505813D01*
G37*
G36*
X627380Y-1495298D02*
G01*
X632968Y-1492605D01*
X644753Y-1484934D01*
X655421Y-1475790D01*
X664870Y-1465376D01*
X672947Y-1453896D01*
X677418Y-1445260D01*
X627380Y-1445260D01*
G37*
G36*
X530860Y-1495298D02*
G01*
X530860Y-1445260D01*
X480822Y-1445260D01*
X485292Y-1453896D01*
X493369Y-1465376D01*
X502818Y-1475790D01*
X513486Y-1484934D01*
X525272Y-1492605D01*
G37*
G36*
X627380Y-1348740D02*
G01*
X677468Y-1348740D01*
X676402Y-1346250D01*
X669086Y-1334211D01*
X660349Y-1323238D01*
X650240Y-1313484D01*
X638962Y-1305052D01*
X627380Y-1298549D01*
G37*
G36*
X480771Y-1348740D02*
G01*
X530860Y-1348740D01*
X530860Y-1298549D01*
X519277Y-1305052D01*
X508000Y-1313484D01*
X497890Y-1323238D01*
X489153Y-1334211D01*
X481838Y-1346250D01*
G37*
G36*
X6675120Y-1252728D02*
G01*
X6689140Y-1251813D01*
X6702958Y-1249121D01*
X6716268Y-1244701D01*
X6728968Y-1238605D01*
X6740753Y-1230934D01*
X6751421Y-1221790D01*
X6760870Y-1211376D01*
X6768947Y-1199896D01*
X6775450Y-1187399D01*
X6780275Y-1174191D01*
X6783425Y-1160526D01*
X6784746Y-1146505D01*
X6784340Y-1132484D01*
X6782053Y-1118565D01*
X6778091Y-1105103D01*
X6772402Y-1092250D01*
X6765086Y-1080211D01*
X6756349Y-1069238D01*
X6746240Y-1059484D01*
X6734962Y-1051052D01*
X6722719Y-1044143D01*
X6709714Y-1038860D01*
X6696100Y-1035303D01*
X6682130Y-1033526D01*
X6668109Y-1033526D01*
X6654139Y-1035303D01*
X6640525Y-1038860D01*
X6627520Y-1044143D01*
X6615277Y-1051052D01*
X6604000Y-1059484D01*
X6593890Y-1069238D01*
X6585153Y-1080211D01*
X6577838Y-1092250D01*
X6572148Y-1105103D01*
X6568186Y-1118565D01*
X6565900Y-1132484D01*
X6565493Y-1146505D01*
X6566814Y-1160526D01*
X6569964Y-1174191D01*
X6574790Y-1187399D01*
X6581292Y-1199896D01*
X6589369Y-1211376D01*
X6598818Y-1221790D01*
X6609486Y-1230934D01*
X6621272Y-1238605D01*
X6633972Y-1244701D01*
X6647281Y-1249121D01*
X6661099Y-1251813D01*
G37*
G36*
X6421120Y-1252728D02*
G01*
X6435140Y-1251813D01*
X6448958Y-1249121D01*
X6462268Y-1244701D01*
X6474968Y-1238605D01*
X6486753Y-1230934D01*
X6497421Y-1221790D01*
X6506870Y-1211376D01*
X6514947Y-1199896D01*
X6521450Y-1187399D01*
X6526276Y-1174191D01*
X6529425Y-1160526D01*
X6530746Y-1146505D01*
X6530340Y-1132484D01*
X6528054Y-1118565D01*
X6524091Y-1105103D01*
X6518402Y-1092250D01*
X6511086Y-1080211D01*
X6502349Y-1069238D01*
X6492240Y-1059484D01*
X6480962Y-1051052D01*
X6468719Y-1044143D01*
X6455714Y-1038860D01*
X6442100Y-1035303D01*
X6428130Y-1033526D01*
X6414109Y-1033526D01*
X6400139Y-1035303D01*
X6386525Y-1038860D01*
X6373520Y-1044143D01*
X6361277Y-1051052D01*
X6350000Y-1059484D01*
X6339890Y-1069238D01*
X6331153Y-1080211D01*
X6323838Y-1092250D01*
X6318148Y-1105103D01*
X6314186Y-1118565D01*
X6311900Y-1132484D01*
X6311493Y-1146505D01*
X6312814Y-1160526D01*
X6315964Y-1174191D01*
X6320790Y-1187399D01*
X6327292Y-1199896D01*
X6335369Y-1211376D01*
X6344818Y-1221790D01*
X6355486Y-1230934D01*
X6367272Y-1238605D01*
X6379972Y-1244701D01*
X6393281Y-1249121D01*
X6407099Y-1251813D01*
G37*
G36*
X325120Y-1252728D02*
G01*
X339140Y-1251813D01*
X352958Y-1249121D01*
X366268Y-1244701D01*
X378968Y-1238605D01*
X390753Y-1230934D01*
X401421Y-1221790D01*
X410870Y-1211376D01*
X418947Y-1199896D01*
X425450Y-1187399D01*
X430276Y-1174191D01*
X433425Y-1160526D01*
X434746Y-1146505D01*
X434340Y-1132484D01*
X432054Y-1118565D01*
X428091Y-1105103D01*
X422401Y-1092250D01*
X415086Y-1080211D01*
X406349Y-1069238D01*
X396240Y-1059484D01*
X384962Y-1051052D01*
X372719Y-1044143D01*
X359714Y-1038860D01*
X346100Y-1035303D01*
X332130Y-1033526D01*
X318109Y-1033526D01*
X304139Y-1035303D01*
X290525Y-1038860D01*
X277520Y-1044143D01*
X265277Y-1051052D01*
X254000Y-1059484D01*
X243890Y-1069238D01*
X235153Y-1080211D01*
X227838Y-1092250D01*
X222148Y-1105103D01*
X218186Y-1118565D01*
X215900Y-1132484D01*
X215493Y-1146505D01*
X216814Y-1160526D01*
X219964Y-1174191D01*
X224790Y-1187399D01*
X231292Y-1199896D01*
X239369Y-1211376D01*
X248818Y-1221790D01*
X259486Y-1230934D01*
X271272Y-1238605D01*
X283972Y-1244701D01*
X297281Y-1249121D01*
X311099Y-1251813D01*
G37*
G36*
X579120Y-1252728D02*
G01*
X593140Y-1251813D01*
X606958Y-1249121D01*
X620268Y-1244701D01*
X632968Y-1238605D01*
X644753Y-1230934D01*
X655421Y-1221790D01*
X664870Y-1211376D01*
X672947Y-1199896D01*
X679450Y-1187399D01*
X684276Y-1174191D01*
X687425Y-1160526D01*
X688746Y-1146505D01*
X688340Y-1132484D01*
X686054Y-1118565D01*
X682091Y-1105103D01*
X676402Y-1092250D01*
X669086Y-1080211D01*
X660349Y-1069238D01*
X650240Y-1059484D01*
X638962Y-1051052D01*
X626719Y-1044143D01*
X613714Y-1038860D01*
X600100Y-1035303D01*
X586130Y-1033526D01*
X572109Y-1033526D01*
X558139Y-1035303D01*
X544525Y-1038860D01*
X531520Y-1044143D01*
X519277Y-1051052D01*
X508000Y-1059484D01*
X497890Y-1069238D01*
X489153Y-1080211D01*
X481838Y-1092250D01*
X476148Y-1105103D01*
X472185Y-1118565D01*
X469900Y-1132484D01*
X469493Y-1146505D01*
X470814Y-1160526D01*
X473964Y-1174191D01*
X478790Y-1187399D01*
X485292Y-1199896D01*
X493369Y-1211376D01*
X502818Y-1221790D01*
X513486Y-1230934D01*
X525272Y-1238605D01*
X537972Y-1244701D01*
X551281Y-1249121D01*
X565099Y-1251813D01*
G37*
G36*
X2848356Y-1124813D02*
G01*
X2862478Y-1123442D01*
X2876346Y-1120292D01*
X2889707Y-1115364D01*
X2902305Y-1108811D01*
X2913938Y-1100683D01*
X2924454Y-1091133D01*
X2933649Y-1080312D01*
X2941421Y-1068374D01*
X2947568Y-1055573D01*
X2952038Y-1042111D01*
X2954782Y-1028141D01*
X2955696Y-1013968D01*
X2954782Y-999794D01*
X2952038Y-985824D01*
X2947568Y-972362D01*
X2941421Y-959561D01*
X2933649Y-947623D01*
X2924454Y-936802D01*
X2913938Y-927252D01*
X2902305Y-919124D01*
X2889707Y-912571D01*
X2876346Y-907643D01*
X2862478Y-904494D01*
X2848356Y-903122D01*
X2834132Y-903579D01*
X2820111Y-905865D01*
X2806496Y-909929D01*
X2793492Y-915669D01*
X2781350Y-923036D01*
X2770225Y-931875D01*
X2760370Y-942086D01*
X2751886Y-953465D01*
X2744876Y-965860D01*
X2739542Y-979017D01*
X2735935Y-992784D01*
X2734157Y-1006856D01*
X2734157Y-1021080D01*
X2735935Y-1035151D01*
X2739542Y-1048918D01*
X2744876Y-1062075D01*
X2751886Y-1074470D01*
X2760370Y-1085850D01*
X2770225Y-1096060D01*
X2781350Y-1104900D01*
X2793492Y-1112266D01*
X2806496Y-1118057D01*
X2820111Y-1122070D01*
X2834132Y-1124356D01*
G37*
G36*
X2594356Y-1124813D02*
G01*
X2608478Y-1123442D01*
X2622346Y-1120292D01*
X2635707Y-1115364D01*
X2648305Y-1108811D01*
X2659938Y-1100683D01*
X2670454Y-1091133D01*
X2679649Y-1080312D01*
X2687421Y-1068374D01*
X2693568Y-1055573D01*
X2698038Y-1042111D01*
X2700782Y-1028141D01*
X2701696Y-1013968D01*
X2700782Y-999794D01*
X2698038Y-985824D01*
X2693568Y-972362D01*
X2687421Y-959561D01*
X2679649Y-947623D01*
X2670454Y-936802D01*
X2659938Y-927252D01*
X2648305Y-919124D01*
X2635707Y-912571D01*
X2622346Y-907643D01*
X2608478Y-904494D01*
X2594356Y-903122D01*
X2580132Y-903579D01*
X2566111Y-905865D01*
X2552496Y-909929D01*
X2539492Y-915669D01*
X2527350Y-923036D01*
X2516225Y-931875D01*
X2506370Y-942086D01*
X2497886Y-953465D01*
X2490876Y-965860D01*
X2485542Y-979017D01*
X2481935Y-992784D01*
X2480157Y-1006856D01*
X2480157Y-1021080D01*
X2481935Y-1035151D01*
X2485542Y-1048918D01*
X2490876Y-1062075D01*
X2497886Y-1074470D01*
X2506370Y-1085850D01*
X2516225Y-1096060D01*
X2527350Y-1104900D01*
X2539492Y-1112266D01*
X2552496Y-1118057D01*
X2566111Y-1122070D01*
X2580132Y-1124356D01*
G37*
G36*
X2340356Y-1124813D02*
G01*
X2354478Y-1123442D01*
X2368346Y-1120292D01*
X2381707Y-1115364D01*
X2394305Y-1108811D01*
X2405938Y-1100683D01*
X2416454Y-1091133D01*
X2425649Y-1080312D01*
X2433421Y-1068374D01*
X2439568Y-1055573D01*
X2444038Y-1042111D01*
X2446782Y-1028141D01*
X2447696Y-1013968D01*
X2446782Y-999794D01*
X2444038Y-985824D01*
X2439568Y-972362D01*
X2433421Y-959561D01*
X2425649Y-947623D01*
X2416454Y-936802D01*
X2405938Y-927252D01*
X2394305Y-919124D01*
X2381707Y-912571D01*
X2368346Y-907643D01*
X2354478Y-904494D01*
X2340356Y-903122D01*
X2326132Y-903579D01*
X2312111Y-905865D01*
X2298496Y-909929D01*
X2285492Y-915669D01*
X2273350Y-923036D01*
X2262225Y-931875D01*
X2252370Y-942086D01*
X2243886Y-953465D01*
X2236876Y-965860D01*
X2231542Y-979017D01*
X2227935Y-992784D01*
X2226157Y-1006856D01*
X2226157Y-1021080D01*
X2227935Y-1035151D01*
X2231542Y-1048918D01*
X2236876Y-1062075D01*
X2243886Y-1074470D01*
X2252370Y-1085850D01*
X2262225Y-1096060D01*
X2273350Y-1104900D01*
X2285492Y-1112266D01*
X2298496Y-1118057D01*
X2312111Y-1122070D01*
X2326132Y-1124356D01*
G37*
G36*
X3049930Y-1113383D02*
G01*
X3049930Y-1062837D01*
X2999333Y-1062837D01*
X3005886Y-1074470D01*
X3014370Y-1085850D01*
X3024225Y-1096060D01*
X3035350Y-1104900D01*
X3047492Y-1112266D01*
G37*
G36*
X2033930Y-1113383D02*
G01*
X2033930Y-1062837D01*
X1983333Y-1062837D01*
X1989886Y-1074470D01*
X1998370Y-1085850D01*
X2008225Y-1096060D01*
X2019350Y-1104900D01*
X2031492Y-1112266D01*
G37*
G36*
X3147669Y-1113282D02*
G01*
X3156305Y-1108811D01*
X3167938Y-1100683D01*
X3178454Y-1091133D01*
X3187649Y-1080312D01*
X3195421Y-1068374D01*
X3198114Y-1062837D01*
X3147669Y-1062837D01*
G37*
G36*
X2131669Y-1113282D02*
G01*
X2140305Y-1108811D01*
X2151938Y-1100683D01*
X2162454Y-1091133D01*
X2171649Y-1080312D01*
X2179421Y-1068374D01*
X2182114Y-1062837D01*
X2131669Y-1062837D01*
G37*
G36*
X3362451Y-1042924D02*
G01*
X3375914Y-1042466D01*
X3389172Y-1040231D01*
X3402076Y-1036269D01*
X3414268Y-1030579D01*
X3425647Y-1023315D01*
X3435959Y-1014628D01*
X3445001Y-1004620D01*
X3452622Y-993546D01*
X3458667Y-981506D01*
X3463086Y-968756D01*
X3465779Y-955548D01*
X3466693Y-942136D01*
X3465779Y-928674D01*
X3463086Y-915466D01*
X3458667Y-902716D01*
X3452622Y-890676D01*
X3445001Y-879602D01*
X3435959Y-869594D01*
X3425647Y-860907D01*
X3414268Y-853643D01*
X3402076Y-847953D01*
X3389172Y-843991D01*
X3375914Y-841756D01*
X3362451Y-841298D01*
X3347923Y-842822D01*
X3343706Y-842365D01*
X3340049Y-840232D01*
X3337610Y-836828D01*
X3336696Y-832713D01*
X3336696Y-679602D01*
X3335985Y-673303D01*
X3334105Y-667816D01*
X3331006Y-662940D01*
X3326892Y-658825D01*
X3322015Y-655726D01*
X3316528Y-653846D01*
X3310229Y-653135D01*
X3141370Y-653135D01*
X3135071Y-653846D01*
X3129584Y-655726D01*
X3124708Y-658825D01*
X3120593Y-662940D01*
X3117494Y-667816D01*
X3115614Y-673303D01*
X3114903Y-679602D01*
X3114903Y-848461D01*
X3115614Y-854760D01*
X3117494Y-860247D01*
X3120593Y-865124D01*
X3124708Y-869238D01*
X3129584Y-872337D01*
X3135071Y-874217D01*
X3141370Y-874928D01*
X3270758Y-874928D01*
X3274923Y-875842D01*
X3278327Y-878332D01*
X3280460Y-882040D01*
X3280867Y-886256D01*
X3279495Y-890269D01*
X3275736Y-896619D01*
X3270503Y-909015D01*
X3266948Y-922019D01*
X3265119Y-935380D01*
X3265119Y-948842D01*
X3266948Y-962202D01*
X3270503Y-975207D01*
X3275736Y-987602D01*
X3282645Y-999185D01*
X3290976Y-1009802D01*
X3300679Y-1019149D01*
X3311499Y-1027125D01*
X3323336Y-1033627D01*
X3335934Y-1038453D01*
X3349040Y-1041603D01*
G37*
G36*
X6675120Y-998728D02*
G01*
X6689140Y-997813D01*
X6702958Y-995121D01*
X6716268Y-990701D01*
X6728968Y-984605D01*
X6740753Y-976934D01*
X6751421Y-967790D01*
X6760870Y-957376D01*
X6768947Y-945896D01*
X6775450Y-933399D01*
X6780275Y-920191D01*
X6783425Y-906526D01*
X6784746Y-892505D01*
X6784340Y-878484D01*
X6782053Y-864565D01*
X6778091Y-851103D01*
X6772402Y-838250D01*
X6765086Y-826211D01*
X6756349Y-815238D01*
X6746240Y-805484D01*
X6734962Y-797052D01*
X6722719Y-790143D01*
X6709714Y-784860D01*
X6696100Y-781304D01*
X6682130Y-779526D01*
X6668109Y-779526D01*
X6654139Y-781304D01*
X6640525Y-784860D01*
X6627520Y-790143D01*
X6615277Y-797052D01*
X6604000Y-805484D01*
X6593890Y-815238D01*
X6585153Y-826211D01*
X6577838Y-838250D01*
X6572148Y-851103D01*
X6568186Y-864565D01*
X6565900Y-878484D01*
X6565493Y-892505D01*
X6566814Y-906526D01*
X6569964Y-920191D01*
X6574790Y-933399D01*
X6581292Y-945896D01*
X6589369Y-957376D01*
X6598818Y-967790D01*
X6609486Y-976934D01*
X6621272Y-984605D01*
X6633972Y-990701D01*
X6647281Y-995121D01*
X6661099Y-997813D01*
G37*
G36*
X6421120Y-998728D02*
G01*
X6435140Y-997813D01*
X6448958Y-995121D01*
X6462268Y-990701D01*
X6474968Y-984605D01*
X6486753Y-976934D01*
X6497421Y-967790D01*
X6506870Y-957376D01*
X6514947Y-945896D01*
X6521450Y-933399D01*
X6526276Y-920191D01*
X6529425Y-906526D01*
X6530746Y-892505D01*
X6530340Y-878484D01*
X6528054Y-864565D01*
X6524091Y-851103D01*
X6518402Y-838250D01*
X6511086Y-826211D01*
X6502349Y-815238D01*
X6492240Y-805484D01*
X6480962Y-797052D01*
X6468719Y-790143D01*
X6455714Y-784860D01*
X6442100Y-781304D01*
X6428130Y-779526D01*
X6414109Y-779526D01*
X6400139Y-781304D01*
X6386525Y-784860D01*
X6373520Y-790143D01*
X6361277Y-797052D01*
X6350000Y-805484D01*
X6339890Y-815238D01*
X6331153Y-826211D01*
X6323838Y-838250D01*
X6318148Y-851103D01*
X6314186Y-864565D01*
X6311900Y-878484D01*
X6311493Y-892505D01*
X6312814Y-906526D01*
X6315964Y-920191D01*
X6320790Y-933399D01*
X6327292Y-945896D01*
X6335369Y-957376D01*
X6344818Y-967790D01*
X6355486Y-976934D01*
X6367272Y-984605D01*
X6379972Y-990701D01*
X6393281Y-995121D01*
X6407099Y-997813D01*
G37*
G36*
X325120Y-998728D02*
G01*
X339140Y-997813D01*
X352958Y-995121D01*
X366268Y-990701D01*
X378968Y-984605D01*
X390753Y-976934D01*
X401421Y-967790D01*
X410870Y-957376D01*
X418947Y-945896D01*
X425450Y-933399D01*
X430276Y-920191D01*
X433425Y-906526D01*
X434746Y-892505D01*
X434340Y-878484D01*
X432054Y-864565D01*
X428091Y-851103D01*
X422401Y-838250D01*
X415086Y-826211D01*
X406349Y-815238D01*
X396240Y-805484D01*
X384962Y-797052D01*
X372719Y-790143D01*
X359714Y-784860D01*
X346100Y-781304D01*
X332130Y-779526D01*
X318109Y-779526D01*
X304139Y-781304D01*
X290525Y-784860D01*
X277520Y-790143D01*
X265277Y-797052D01*
X254000Y-805484D01*
X243890Y-815238D01*
X235153Y-826211D01*
X227838Y-838250D01*
X222148Y-851103D01*
X218186Y-864565D01*
X215900Y-878484D01*
X215493Y-892505D01*
X216814Y-906526D01*
X219964Y-920191D01*
X224790Y-933399D01*
X231292Y-945896D01*
X239369Y-957376D01*
X248818Y-967790D01*
X259486Y-976934D01*
X271272Y-984605D01*
X283972Y-990701D01*
X297281Y-995121D01*
X311099Y-997813D01*
G37*
G36*
X579120Y-998728D02*
G01*
X593140Y-997813D01*
X606958Y-995121D01*
X620268Y-990701D01*
X632968Y-984605D01*
X644753Y-976934D01*
X655421Y-967790D01*
X664870Y-957376D01*
X672947Y-945896D01*
X679450Y-933399D01*
X684276Y-920191D01*
X687425Y-906526D01*
X688746Y-892505D01*
X688340Y-878484D01*
X686054Y-864565D01*
X682091Y-851103D01*
X676402Y-838250D01*
X669086Y-826211D01*
X660349Y-815238D01*
X650240Y-805484D01*
X638962Y-797052D01*
X626719Y-790143D01*
X613714Y-784860D01*
X600100Y-781304D01*
X586130Y-779526D01*
X572109Y-779526D01*
X558139Y-781304D01*
X544525Y-784860D01*
X531520Y-790143D01*
X519277Y-797052D01*
X508000Y-805484D01*
X497890Y-815238D01*
X489153Y-826211D01*
X481838Y-838250D01*
X476148Y-851103D01*
X472185Y-864565D01*
X469900Y-878484D01*
X469493Y-892505D01*
X470814Y-906526D01*
X473964Y-920191D01*
X478790Y-933399D01*
X485292Y-945896D01*
X493369Y-957376D01*
X502818Y-967790D01*
X513486Y-976934D01*
X525272Y-984605D01*
X537972Y-990701D01*
X551281Y-995121D01*
X565099Y-997813D01*
G37*
G36*
X2131669Y-965098D02*
G01*
X2182114Y-965098D01*
X2179421Y-959561D01*
X2171649Y-947623D01*
X2162454Y-936802D01*
X2151938Y-927252D01*
X2140305Y-919124D01*
X2131669Y-914653D01*
G37*
G36*
X3147669Y-965098D02*
G01*
X3198114Y-965098D01*
X3195421Y-959561D01*
X3187649Y-947623D01*
X3178454Y-936802D01*
X3167938Y-927252D01*
X3156305Y-919124D01*
X3147669Y-914653D01*
G37*
G36*
X1983333Y-965098D02*
G01*
X2033930Y-965098D01*
X2033930Y-914552D01*
X2031492Y-915669D01*
X2019350Y-923036D01*
X2008225Y-931875D01*
X1998370Y-942086D01*
X1989886Y-953465D01*
G37*
G36*
X2999333Y-965098D02*
G01*
X3049930Y-965098D01*
X3049930Y-914552D01*
X3047492Y-915669D01*
X3035350Y-923036D01*
X3024225Y-931875D01*
X3014370Y-942086D01*
X3005886Y-953465D01*
G37*
G36*
X2975356Y-874877D02*
G01*
X2989478Y-873506D01*
X3003346Y-870356D01*
X3016707Y-865428D01*
X3029305Y-858875D01*
X3040938Y-850747D01*
X3051454Y-841197D01*
X3060649Y-830376D01*
X3068421Y-818438D01*
X3074568Y-805637D01*
X3079038Y-792175D01*
X3081782Y-778205D01*
X3082696Y-764032D01*
X3081782Y-749858D01*
X3079038Y-735888D01*
X3074568Y-722426D01*
X3068421Y-709625D01*
X3060649Y-697687D01*
X3051454Y-686866D01*
X3040938Y-677316D01*
X3029305Y-669188D01*
X3016707Y-662635D01*
X3003346Y-657707D01*
X2989478Y-654558D01*
X2975356Y-653186D01*
X2961132Y-653643D01*
X2947111Y-655929D01*
X2933496Y-659993D01*
X2920492Y-665734D01*
X2908350Y-673100D01*
X2897225Y-681939D01*
X2887370Y-692150D01*
X2878886Y-703529D01*
X2871876Y-715924D01*
X2866542Y-729081D01*
X2862935Y-742848D01*
X2861157Y-756920D01*
X2861157Y-771144D01*
X2862935Y-785215D01*
X2866542Y-798982D01*
X2871876Y-812139D01*
X2878886Y-824534D01*
X2887370Y-835914D01*
X2897225Y-846124D01*
X2908350Y-854964D01*
X2920492Y-862330D01*
X2933496Y-868121D01*
X2947111Y-872134D01*
X2961132Y-874420D01*
G37*
G36*
X2213356Y-874877D02*
G01*
X2227478Y-873506D01*
X2241346Y-870356D01*
X2254707Y-865428D01*
X2267305Y-858875D01*
X2278938Y-850747D01*
X2289454Y-841197D01*
X2298649Y-830376D01*
X2306421Y-818438D01*
X2312568Y-805637D01*
X2317038Y-792175D01*
X2319782Y-778205D01*
X2320696Y-764032D01*
X2319782Y-749858D01*
X2317038Y-735888D01*
X2312568Y-722426D01*
X2306421Y-709625D01*
X2298649Y-697687D01*
X2289454Y-686866D01*
X2278938Y-677316D01*
X2267305Y-669188D01*
X2254707Y-662635D01*
X2241346Y-657707D01*
X2227478Y-654558D01*
X2213356Y-653186D01*
X2199132Y-653643D01*
X2185111Y-655929D01*
X2171496Y-659993D01*
X2158492Y-665734D01*
X2146350Y-673100D01*
X2135225Y-681939D01*
X2125370Y-692150D01*
X2116886Y-703529D01*
X2109876Y-715924D01*
X2104542Y-729081D01*
X2100935Y-742848D01*
X2099157Y-756920D01*
X2099157Y-771144D01*
X2100935Y-785215D01*
X2104542Y-798982D01*
X2109876Y-812139D01*
X2116886Y-824534D01*
X2125370Y-835914D01*
X2135225Y-846124D01*
X2146350Y-854964D01*
X2158492Y-862330D01*
X2171496Y-868121D01*
X2185111Y-872134D01*
X2199132Y-874420D01*
G37*
G36*
X2467356Y-874877D02*
G01*
X2481478Y-873506D01*
X2495346Y-870356D01*
X2508707Y-865428D01*
X2521305Y-858875D01*
X2532938Y-850747D01*
X2543454Y-841197D01*
X2552649Y-830376D01*
X2560421Y-818438D01*
X2566568Y-805637D01*
X2571038Y-792175D01*
X2573782Y-778205D01*
X2574696Y-764032D01*
X2573782Y-749858D01*
X2571038Y-735888D01*
X2566568Y-722426D01*
X2560421Y-709625D01*
X2552649Y-697687D01*
X2543454Y-686866D01*
X2532938Y-677316D01*
X2521305Y-669188D01*
X2508707Y-662635D01*
X2495346Y-657707D01*
X2481478Y-654558D01*
X2467356Y-653186D01*
X2453132Y-653643D01*
X2439111Y-655929D01*
X2425496Y-659993D01*
X2412492Y-665734D01*
X2400350Y-673100D01*
X2389225Y-681939D01*
X2379370Y-692150D01*
X2370886Y-703529D01*
X2363876Y-715924D01*
X2358542Y-729081D01*
X2354935Y-742848D01*
X2353157Y-756920D01*
X2353157Y-771144D01*
X2354935Y-785215D01*
X2358542Y-798982D01*
X2363876Y-812139D01*
X2370886Y-824534D01*
X2379370Y-835914D01*
X2389225Y-846124D01*
X2400350Y-854964D01*
X2412492Y-862330D01*
X2425496Y-868121D01*
X2439111Y-872134D01*
X2453132Y-874420D01*
G37*
G36*
X2721356Y-874877D02*
G01*
X2735478Y-873506D01*
X2749346Y-870356D01*
X2762707Y-865428D01*
X2775305Y-858875D01*
X2786938Y-850747D01*
X2797454Y-841197D01*
X2806649Y-830376D01*
X2814421Y-818438D01*
X2820568Y-805637D01*
X2825038Y-792175D01*
X2827782Y-778205D01*
X2828696Y-764032D01*
X2827782Y-749858D01*
X2825038Y-735888D01*
X2820568Y-722426D01*
X2814421Y-709625D01*
X2806649Y-697687D01*
X2797454Y-686866D01*
X2786938Y-677316D01*
X2775305Y-669188D01*
X2762707Y-662635D01*
X2749346Y-657707D01*
X2735478Y-654558D01*
X2721356Y-653186D01*
X2707132Y-653643D01*
X2693111Y-655929D01*
X2679496Y-659993D01*
X2666492Y-665734D01*
X2654350Y-673100D01*
X2643225Y-681939D01*
X2633370Y-692150D01*
X2624886Y-703529D01*
X2617876Y-715924D01*
X2612542Y-729081D01*
X2608935Y-742848D01*
X2607157Y-756920D01*
X2607157Y-771144D01*
X2608935Y-785215D01*
X2612542Y-798982D01*
X2617876Y-812139D01*
X2624886Y-824534D01*
X2633370Y-835914D01*
X2643225Y-846124D01*
X2654350Y-854964D01*
X2666492Y-862330D01*
X2679496Y-868121D01*
X2693111Y-872134D01*
X2707132Y-874420D01*
G37*
G36*
X6675120Y-744728D02*
G01*
X6689140Y-743813D01*
X6702958Y-741121D01*
X6716268Y-736701D01*
X6728968Y-730605D01*
X6740753Y-722934D01*
X6751421Y-713790D01*
X6760870Y-703376D01*
X6768947Y-691896D01*
X6775450Y-679399D01*
X6780275Y-666191D01*
X6783425Y-652526D01*
X6784746Y-638505D01*
X6784340Y-624484D01*
X6782053Y-610565D01*
X6778091Y-597103D01*
X6772402Y-584250D01*
X6765086Y-572211D01*
X6756349Y-561238D01*
X6746240Y-551484D01*
X6734962Y-543052D01*
X6722719Y-536143D01*
X6709714Y-530860D01*
X6696100Y-527304D01*
X6682130Y-525526D01*
X6668109Y-525526D01*
X6654139Y-527304D01*
X6640525Y-530860D01*
X6627520Y-536143D01*
X6615277Y-543052D01*
X6604000Y-551484D01*
X6593890Y-561238D01*
X6585153Y-572211D01*
X6577838Y-584250D01*
X6572148Y-597103D01*
X6568186Y-610565D01*
X6565900Y-624484D01*
X6565493Y-638505D01*
X6566814Y-652526D01*
X6569964Y-666191D01*
X6574790Y-679399D01*
X6581292Y-691896D01*
X6589369Y-703376D01*
X6598818Y-713790D01*
X6609486Y-722934D01*
X6621272Y-730605D01*
X6633972Y-736701D01*
X6647281Y-741121D01*
X6661099Y-743813D01*
G37*
G36*
X579120Y-744728D02*
G01*
X593140Y-743813D01*
X606958Y-741121D01*
X620268Y-736701D01*
X632968Y-730605D01*
X644753Y-722934D01*
X655421Y-713790D01*
X664870Y-703376D01*
X672947Y-691896D01*
X679450Y-679399D01*
X684276Y-666191D01*
X687425Y-652526D01*
X688746Y-638505D01*
X688340Y-624484D01*
X686054Y-610565D01*
X682091Y-597103D01*
X676402Y-584250D01*
X669086Y-572211D01*
X660349Y-561238D01*
X650240Y-551484D01*
X638962Y-543052D01*
X626719Y-536143D01*
X613714Y-530860D01*
X600100Y-527304D01*
X586130Y-525526D01*
X572109Y-525526D01*
X558139Y-527304D01*
X544525Y-530860D01*
X531520Y-536143D01*
X519277Y-543052D01*
X508000Y-551484D01*
X497890Y-561238D01*
X489153Y-572211D01*
X481838Y-584250D01*
X476148Y-597103D01*
X472185Y-610565D01*
X469900Y-624484D01*
X469493Y-638505D01*
X470814Y-652526D01*
X473964Y-666191D01*
X478790Y-679399D01*
X485292Y-691896D01*
X493369Y-703376D01*
X502818Y-713790D01*
X513486Y-722934D01*
X525272Y-730605D01*
X537972Y-736701D01*
X551281Y-741121D01*
X565099Y-743813D01*
G37*
G36*
X241858Y-744728D02*
G01*
X408381Y-744728D01*
X414680Y-744016D01*
X420166Y-742086D01*
X425043Y-739038D01*
X429158Y-734923D01*
X432206Y-730046D01*
X434136Y-724560D01*
X434848Y-718261D01*
X434848Y-551738D01*
X434136Y-545439D01*
X432206Y-539953D01*
X429158Y-535076D01*
X425043Y-530961D01*
X420166Y-527913D01*
X414680Y-525983D01*
X408381Y-525272D01*
X241858Y-525272D01*
X235559Y-525983D01*
X230073Y-527913D01*
X225196Y-530961D01*
X221081Y-535076D01*
X218033Y-539953D01*
X216103Y-545439D01*
X215392Y-551738D01*
X215392Y-718261D01*
X216103Y-724560D01*
X218033Y-730046D01*
X221081Y-734923D01*
X225196Y-739038D01*
X230073Y-742086D01*
X235559Y-744016D01*
G37*
G36*
X6337858Y-744728D02*
G01*
X6504381Y-744728D01*
X6510680Y-744016D01*
X6516166Y-742086D01*
X6521043Y-739038D01*
X6525158Y-734923D01*
X6528206Y-730046D01*
X6530136Y-724560D01*
X6530848Y-718261D01*
X6530848Y-551738D01*
X6530136Y-545439D01*
X6528206Y-539953D01*
X6525158Y-535076D01*
X6521043Y-530961D01*
X6516166Y-527913D01*
X6510680Y-525983D01*
X6504381Y-525272D01*
X6337858Y-525272D01*
X6331559Y-525983D01*
X6326073Y-527913D01*
X6321196Y-530961D01*
X6317081Y-535076D01*
X6314033Y-539953D01*
X6312103Y-545439D01*
X6311392Y-551738D01*
X6311392Y-718261D01*
X6312103Y-724560D01*
X6314033Y-730046D01*
X6317081Y-734923D01*
X6321196Y-739038D01*
X6326073Y-742086D01*
X6331559Y-744016D01*
G37*

%LPD*%
D10*
X6057887Y-3924292D02*
G01*
X6172187Y-3809992D01*
X6464287Y-3809992D01*
X6548112Y-3809992D01*
X6675120Y-3937000D01*
D13*
G01*
X2209800Y-764031D03*
G01*
X2463800Y-764031D03*
G01*
X2717800Y-764031D03*
G01*
X2971800Y-764031D03*
G01*
X2082800Y-1013968D03*
G01*
X2336800Y-1013968D03*
G01*
X2590800Y-1013968D03*
G01*
X2844800Y-1013968D03*
G36*
X3140709Y-678942D02*
G01*
X3310890Y-678942D01*
X3310890Y-849121D01*
X3140709Y-849121D01*
G37*
G01*
X3098800Y-1013968D03*
G01*
X2209800Y-4828031D03*
G01*
X2463800Y-4828031D03*
G01*
X2717800Y-4828031D03*
G01*
X2971800Y-4828031D03*
G01*
X2082800Y-5077968D03*
G01*
X2336800Y-5077968D03*
G01*
X2590800Y-5077968D03*
G01*
X2844800Y-5077968D03*
G36*
X3140709Y-4742942D02*
G01*
X3310890Y-4742942D01*
X3310890Y-4913121D01*
X3140709Y-4913121D01*
G37*
G01*
X3098800Y-5077968D03*
D15*
G01*
X6421120Y-5207000D03*
G01*
X6675120Y-5207000D03*
G01*
X579120Y-5207000D03*
G01*
X325120Y-5207000D03*
G01*
X579120Y-4953000D03*
G01*
X325120Y-4953000D03*
G01*
X325120Y-4699000D03*
G01*
X579120Y-4699000D03*
G01*
X325120Y-4445000D03*
G01*
X579120Y-4445000D03*
G01*
X579120Y-4191000D03*
G01*
X325120Y-4191000D03*
G01*
X579120Y-3937000D03*
G01*
X325120Y-3937000D03*
G01*
X579120Y-3683000D03*
G01*
X325120Y-3683000D03*
G01*
X325120Y-3429000D03*
G01*
X579120Y-3429000D03*
G01*
X325120Y-3175000D03*
G01*
X579120Y-3175000D03*
G01*
X579120Y-2921000D03*
G01*
X325120Y-2921000D03*
G01*
X579120Y-2667000D03*
G01*
X325120Y-2667000D03*
G01*
X579120Y-2413000D03*
G01*
X325120Y-2413000D03*
G01*
X325120Y-2159000D03*
G01*
X579120Y-2159000D03*
G01*
X325120Y-1905000D03*
G01*
X579120Y-1905000D03*
G01*
X579120Y-1651000D03*
G01*
X325120Y-1651000D03*
G01*
X6675120Y-4953000D03*
G01*
X6421120Y-4953000D03*
G01*
X6675120Y-4699000D03*
G01*
X6421120Y-4699000D03*
G01*
X6421120Y-4445000D03*
G01*
X6675120Y-4445000D03*
G01*
X6421120Y-4191000D03*
G01*
X6675120Y-4191000D03*
G01*
X6675120Y-3937000D03*
G01*
X6421120Y-3937000D03*
G01*
X6675120Y-3683000D03*
G01*
X6421120Y-3683000D03*
G01*
X6675120Y-3429000D03*
G01*
X6421120Y-3429000D03*
G01*
X6421120Y-3175000D03*
G01*
X6675120Y-3175000D03*
G01*
X6421120Y-2921000D03*
G01*
X6675120Y-2921000D03*
G01*
X6675120Y-2667000D03*
G01*
X6421120Y-2667000D03*
G01*
X6675120Y-2413000D03*
G01*
X6421120Y-2413000D03*
G01*
X6675120Y-2159000D03*
G01*
X6421120Y-2159000D03*
G01*
X6421120Y-1905000D03*
G01*
X6675120Y-1905000D03*
G01*
X6421120Y-1651000D03*
G01*
X6675120Y-1651000D03*
G01*
X6675120Y-1397000D03*
G01*
X6421120Y-1397000D03*
G01*
X6675120Y-1143000D03*
G01*
X6421120Y-1143000D03*
G01*
X6675120Y-889000D03*
G01*
X6421120Y-889000D03*
D16*
G01*
X6421120Y-635000D03*
D15*
G01*
X6675120Y-635000D03*
G01*
X579120Y-1397000D03*
G01*
X325120Y-1397000D03*
G01*
X579120Y-1143000D03*
G01*
X325120Y-1143000D03*
G01*
X325120Y-889000D03*
G01*
X579120Y-889000D03*
D16*
G01*
X325120Y-635000D03*
D15*
G01*
X579120Y-635000D03*
D13*
G01*
X2209800Y-2796031D03*
G01*
X2463800Y-2796031D03*
G01*
X2717800Y-2796031D03*
G01*
X2971800Y-2796031D03*
G01*
X2082800Y-3045968D03*
G01*
X2336800Y-3045968D03*
G01*
X2590800Y-3045968D03*
G01*
X2844800Y-3045968D03*
G36*
X3140709Y-2710942D02*
G01*
X3310890Y-2710942D01*
X3310890Y-2881121D01*
X3140709Y-2881121D01*
G37*
G01*
X3098800Y-3045968D03*
D12*
G01*
X4133850Y-635000D03*
G01*
X5308600Y-635000D03*
G01*
X1689100Y-1873250D03*
G01*
X1943100Y-4127500D03*
G01*
X5334000Y-2844800D03*
G01*
X4387850Y-2698750D03*
G01*
X3848100Y-4127500D03*
G01*
X1085850Y-5048250D03*
G01*
X1435100Y-3111500D03*
G01*
X4927600Y-5016500D03*
G01*
X5975350Y-4984750D03*
G01*
X990600Y-762000D03*
G01*
X5784850Y-1619250D03*
G01*
X6057900Y-3924300D03*
M02*
